G04*
G04 #@! TF.GenerationSoftware,Altium Limited,Altium Designer,24.4.1 (13)*
G04*
G04 Layer_Color=32768*
%FSLAX25Y25*%
%MOIN*%
G70*
G04*
G04 #@! TF.SameCoordinates,4848AC28-F08C-4A73-8BB8-69E0F556E231*
G04*
G04*
G04 #@! TF.FilePolarity,Positive*
G04*
G01*
G75*
%ADD10C,0.00394*%
%ADD11C,0.00500*%
%ADD115C,0.00300*%
%ADD116C,0.00197*%
D10*
X234073Y133489D02*
X249385Y148801D01*
X226557Y171629D02*
X249385Y148801D01*
X211245Y156317D02*
X226557Y171629D01*
X211245Y156317D02*
X234073Y133489D01*
X323477Y363844D02*
X363844Y323477D01*
X318255Y277888D02*
X363844Y323477D01*
X277888Y318255D02*
X318255Y277888D01*
X277888Y318255D02*
X323477Y363844D01*
X316929Y273819D02*
X320866D01*
X318898Y271850D02*
Y275787D01*
X198228Y137520D02*
Y159331D01*
X149409Y137520D02*
X198228D01*
X149409D02*
Y159331D01*
X198228D01*
X301403Y119906D02*
Y149434D01*
X264001D02*
X301403D01*
X264001Y119906D02*
Y149434D01*
Y119906D02*
X301403D01*
X209843Y266929D02*
Y270866D01*
X207874Y268897D02*
X211811D01*
X199607Y279922D02*
X203544D01*
X201575Y277953D02*
Y281890D01*
X193701Y254725D02*
X197638D01*
X195670Y252756D02*
Y256693D01*
X197101Y201854D02*
Y205594D01*
X195231Y203724D02*
X198971D01*
X215551Y197933D02*
Y201673D01*
X213681Y199803D02*
X217421D01*
X201870Y188976D02*
X205610D01*
X203740Y187106D02*
Y190847D01*
X148446Y273721D02*
Y277461D01*
X146576Y275590D02*
X150316D01*
X179780Y217182D02*
X182425Y219826D01*
X179780D02*
X182425Y217182D01*
X180764Y202110D02*
X183409Y199465D01*
X180764D02*
X183409Y202110D01*
X154190Y191591D02*
X156834Y194236D01*
X154190D02*
X156834Y191591D01*
X171906Y193252D02*
X174551Y190607D01*
X171906Y190607D02*
X174551Y193252D01*
X148446Y282037D02*
Y285778D01*
X146576Y283908D02*
X150316D01*
X200886Y151969D02*
X204626D01*
X202756Y150098D02*
Y153839D01*
X251969Y167323D02*
Y171259D01*
X250000Y169291D02*
X253937D01*
X152559Y245079D02*
Y249016D01*
X150590Y247048D02*
X154527D01*
X152559Y223425D02*
Y227362D01*
X150591Y225393D02*
X154528D01*
X254331Y141831D02*
Y145571D01*
X252461Y143701D02*
X256201D01*
X127953Y262796D02*
X131890D01*
X129922Y260827D02*
Y264764D01*
X148446Y290354D02*
Y294094D01*
X146576Y292224D02*
X150316D01*
X148446Y298671D02*
Y302411D01*
X146576Y300541D02*
X150316D01*
X207874Y330708D02*
Y334645D01*
X205906Y332677D02*
X209843D01*
X261418Y340158D02*
X265355D01*
X263386Y338189D02*
Y342126D01*
X223622Y330709D02*
Y334646D01*
X221653Y332678D02*
X225590D01*
X230658Y311272D02*
Y336862D01*
Y311272D02*
X256248D01*
Y336862D01*
X230658D02*
X256248D01*
X190157Y322047D02*
Y325984D01*
X188189Y324016D02*
X192126D01*
X275590Y326772D02*
X279527D01*
X277559Y324803D02*
Y328741D01*
X199465Y179472D02*
X202110Y176827D01*
X199465Y176827D02*
X202110Y179472D01*
X163048Y167661D02*
X165692Y165016D01*
X163048Y165016D02*
X165692Y167661D01*
X164032Y179780D02*
X166677Y182425D01*
X164032Y182425D02*
X166677Y179780D01*
X296457Y216535D02*
Y220472D01*
X294488Y218504D02*
X298425D01*
X271654Y208661D02*
X275591D01*
X273622Y206693D02*
Y210630D01*
X253937Y192913D02*
Y196850D01*
X251969Y194882D02*
X255906D01*
X280512Y216535D02*
X284449D01*
X282480Y214567D02*
Y218504D01*
X241142Y228346D02*
Y232283D01*
X239173Y230315D02*
X243110D01*
X235236Y190945D02*
X239173D01*
X237205Y188976D02*
Y192913D01*
X280512Y202756D02*
X284449D01*
X282480Y200787D02*
Y204724D01*
X268701Y155512D02*
Y159449D01*
X266732Y157480D02*
X270669D01*
X268701Y164370D02*
Y168307D01*
X266732Y166339D02*
X270669D01*
X268701Y173228D02*
Y177165D01*
X266732Y175197D02*
X270669D01*
X233844Y167899D02*
X236628Y170683D01*
X233844D02*
X236628Y167899D01*
X244671Y157073D02*
X247455Y159856D01*
X244671D02*
X247455Y157073D01*
X255487Y132676D02*
X259424D01*
X257456Y130707D02*
Y134644D01*
X266388Y325420D02*
X270325D01*
X268356Y323451D02*
Y327388D01*
X280315Y287795D02*
Y291732D01*
X278346Y289764D02*
X282283D01*
X215748Y331594D02*
Y335335D01*
X213878Y333465D02*
X217618D01*
X332283Y253937D02*
Y257874D01*
X330315Y255906D02*
X334252D01*
X309055Y253937D02*
Y257874D01*
X307087Y255906D02*
X311024D01*
X188287Y331890D02*
X192028D01*
X190157Y330020D02*
Y333760D01*
X188287Y316535D02*
X192028D01*
X190157Y314665D02*
Y318406D01*
D11*
X233465Y181299D02*
Y234055D01*
X286221D01*
Y181299D02*
Y234055D01*
X233465Y181299D02*
X286221D01*
D115*
X333898Y244094D02*
Y249095D01*
Y239094D02*
Y244094D01*
X323898Y239094D02*
X333898D01*
X323898D02*
Y249095D01*
X333898D01*
X154724Y327284D02*
X159724D01*
X149724D02*
X154724D01*
X149724D02*
Y337283D01*
X159724D01*
Y327284D02*
Y337283D01*
X154724D02*
X159724D01*
X149724D02*
X154724D01*
X149724D02*
Y347284D01*
X159724D01*
Y337283D02*
Y347284D01*
X333898Y232283D02*
Y237283D01*
Y227284D02*
Y232283D01*
X323898Y227284D02*
X333898D01*
X323898D02*
Y237283D01*
X333898D01*
X313898Y227284D02*
Y232283D01*
Y237283D01*
X323898D01*
Y227284D02*
Y237283D01*
X313898Y227284D02*
X323898D01*
X329921Y205709D02*
X334921D01*
X324921D02*
X329921D01*
X324921D02*
Y215709D01*
X334921D01*
Y205709D02*
Y215709D01*
X329921Y195709D02*
X334921D01*
X324921D02*
X329921D01*
X324921D02*
Y205709D01*
X334921D01*
Y195709D02*
Y205709D01*
X323898Y244094D02*
Y249095D01*
Y239094D02*
Y244094D01*
X313898Y239094D02*
X323898D01*
X313898D02*
Y249095D01*
X323898D01*
X154724Y317284D02*
X159724D01*
X149724D02*
X154724D01*
X149724D02*
Y327284D01*
X159724D01*
Y317284D02*
Y327284D01*
X220394Y190039D02*
X230394D01*
X220394Y180039D02*
Y190039D01*
Y180039D02*
X230394D01*
Y185039D01*
Y190039D01*
X294213Y165433D02*
X299213D01*
X304213D01*
Y155433D02*
Y165433D01*
X294213Y155433D02*
X304213D01*
X294213D02*
Y165433D01*
X284213D02*
X289213D01*
X294213D01*
Y155433D02*
Y165433D01*
X284213Y155433D02*
X294213D01*
X284213D02*
Y165433D01*
X203661Y123937D02*
Y128937D01*
Y133937D01*
X213661D01*
Y123937D02*
Y133937D01*
X203661Y123937D02*
X213661D01*
X193661Y123957D02*
Y128957D01*
Y133957D01*
X203661D01*
Y123957D02*
Y133957D01*
X193661Y123957D02*
X203661D01*
X183661Y123937D02*
Y128937D01*
Y133937D01*
X193661D01*
Y123937D02*
Y133937D01*
X183661Y123937D02*
X193661D01*
X178465Y287677D02*
X188465D01*
X178465Y277677D02*
Y287677D01*
Y277677D02*
X188465D01*
Y282677D01*
Y287677D01*
X173661Y123937D02*
Y128937D01*
Y133937D01*
X183661D01*
Y123937D02*
Y133937D01*
X173661Y123937D02*
X183661D01*
X329921Y185710D02*
X334921D01*
X324921D02*
X329921D01*
X324921D02*
Y195710D01*
X334921D01*
Y185710D02*
Y195710D01*
X163661Y123937D02*
Y128937D01*
Y133937D01*
X173661D01*
Y123937D02*
Y133937D01*
X163661Y123937D02*
X173661D01*
X153661D02*
Y128937D01*
Y133937D01*
X163661D01*
Y123937D02*
Y133937D01*
X153661Y123937D02*
X163661D01*
X334921Y180709D02*
Y185709D01*
Y175709D02*
Y180709D01*
X324921Y175709D02*
X334921D01*
X324921D02*
Y185709D01*
X334921D01*
X175197Y337677D02*
X180197D01*
X170197D02*
X175197D01*
X170197D02*
Y347677D01*
X180197D01*
Y337677D02*
Y347677D01*
X175197Y327677D02*
X180197D01*
X170197D02*
X175197D01*
X170197D02*
Y337677D01*
X180197D01*
Y327677D02*
Y337677D01*
X175197Y317677D02*
X180197D01*
X170197D02*
X175197D01*
X170197D02*
Y327677D01*
X180197D01*
Y317677D02*
Y327677D01*
D116*
X147913Y217146D02*
Y257264D01*
X114764Y217146D02*
X147913D01*
X114764D02*
Y257264D01*
X147913D01*
X296063Y259547D02*
Y288090D01*
X341732Y259547D02*
Y288090D01*
X296063D02*
X341732D01*
X296063Y259547D02*
X341732D01*
X206103Y275590D02*
X213583D01*
X206103Y262204D02*
Y275590D01*
X213583Y262204D02*
Y275590D01*
X206103Y262204D02*
X213583D01*
X194882Y276181D02*
Y283662D01*
Y276181D02*
X208268D01*
X194882Y283662D02*
X208268D01*
Y276181D02*
Y283662D01*
X188977Y250985D02*
Y258465D01*
Y250985D02*
X202362D01*
X188977Y258465D02*
X202362D01*
Y250985D02*
Y258465D01*
X203007Y200772D02*
Y206677D01*
X191196Y200772D02*
X203007D01*
X191196Y206677D02*
X203007D01*
X191196Y200772D02*
Y206677D01*
X209646Y196850D02*
Y202756D01*
X221457D01*
X209646Y196850D02*
X221457D01*
Y202756D01*
X200787Y183071D02*
X206693D01*
X200787D02*
Y194882D01*
X206693Y183071D02*
Y194882D01*
X200787D02*
X206693D01*
X154351Y272638D02*
Y278543D01*
X142540D02*
X154351D01*
X142540Y272638D02*
X154351D01*
X142540D02*
Y278543D01*
X183190Y212240D02*
X187366Y216416D01*
X179015Y224768D02*
X187366Y216416D01*
X174839Y220592D02*
X183190Y212240D01*
X174839Y220592D02*
X179015Y224768D01*
X184175Y207051D02*
X188350Y202875D01*
X175823Y198699D02*
X184175Y207051D01*
X179999Y194524D02*
X188350Y202875D01*
X175823Y198699D02*
X179999Y194524D01*
X157600Y186650D02*
X161776Y190825D01*
X153424Y199177D02*
X161776Y190825D01*
X149248Y195001D02*
X157600Y186650D01*
X149248Y195001D02*
X153424Y199177D01*
X166965Y189841D02*
X171140Y185665D01*
X179492Y194017D01*
X166965Y189841D02*
X175316Y198193D01*
X179492Y194017D01*
X154351Y280955D02*
Y286860D01*
X142540D02*
X154351D01*
X142540Y280955D02*
X154351D01*
X142540D02*
Y286860D01*
X199803Y146063D02*
X205709D01*
Y157874D01*
X199803Y146063D02*
Y157874D01*
X205709D01*
X248229Y175984D02*
X255709D01*
X248229Y162598D02*
Y175984D01*
X255709Y162598D02*
Y175984D01*
X248229Y162598D02*
X255709D01*
X148819Y240355D02*
X156299D01*
Y253741D01*
X148819Y240355D02*
Y253741D01*
X156299D01*
X148819Y232086D02*
X156299D01*
X148819Y218701D02*
Y232086D01*
X156299Y218701D02*
Y232086D01*
X148819Y218701D02*
X156299D01*
X248425Y140748D02*
Y146653D01*
Y140748D02*
X260236D01*
X248425Y146653D02*
X260236D01*
Y140748D02*
Y146653D01*
X123229Y259055D02*
Y266536D01*
Y259055D02*
X136615D01*
X123229Y266536D02*
X136615D01*
Y259055D02*
Y266536D01*
X154351Y289272D02*
Y295177D01*
X142540D02*
X154351D01*
X142540Y289272D02*
X154351D01*
X142540D02*
Y295177D01*
X154351Y297589D02*
Y303494D01*
X142540D02*
X154351D01*
X142540Y297589D02*
X154351D01*
X142540D02*
Y303494D01*
X204134Y339370D02*
X211614D01*
X204134Y325984D02*
Y339370D01*
X211614Y325984D02*
Y339370D01*
X204134Y325984D02*
X211614D01*
X256693Y336418D02*
Y343898D01*
Y336418D02*
X270079D01*
X256693Y343898D02*
X270079D01*
Y336418D02*
Y343898D01*
X219882Y325985D02*
X227362D01*
Y339370D01*
X219882Y325985D02*
Y339370D01*
X227362D01*
X189975Y206874D02*
X204227D01*
X189975D02*
Y222228D01*
X204227D01*
Y206874D02*
Y222228D01*
X206890Y181850D02*
Y196102D01*
X222244D01*
Y181850D02*
Y196102D01*
X206890Y181850D02*
X222244D01*
X174602Y199178D02*
X184680Y209256D01*
X173823Y220113D02*
X184680Y209256D01*
X163745Y210035D02*
X173823Y220113D01*
X163745Y210035D02*
X174602Y199178D01*
X164760Y189336D02*
X174838Y199413D01*
X163980Y210271D02*
X174838Y199413D01*
X153903Y200193D02*
X163980Y210271D01*
X153903Y200193D02*
X164760Y189336D01*
X222835Y310728D02*
X265354D01*
X222835Y259350D02*
Y310728D01*
Y259350D02*
X265354D01*
Y310728D01*
X187402Y259941D02*
X203937D01*
X187402D02*
Y273917D01*
X203937D01*
Y259941D02*
Y273917D01*
X177145Y188976D02*
X188976Y200808D01*
X200808Y188976D01*
X188976Y177145D02*
X200808Y188976D01*
X177145D02*
X188976Y177145D01*
X163495Y173238D02*
X173238Y163495D01*
X184931Y175187D01*
X175187Y184931D02*
X184931Y175187D01*
X163495Y173238D02*
X175187Y184931D01*
X196850Y320276D02*
Y327756D01*
X183465D02*
X196850D01*
X183465Y320276D02*
X196850D01*
X183465D02*
Y327756D01*
X273327Y335728D02*
X281791D01*
X273327Y317815D02*
Y335728D01*
X281791Y317815D02*
Y335728D01*
X273327Y317815D02*
X281791D01*
X202806Y171956D02*
X206982Y176131D01*
X194593Y180168D02*
X198769Y184344D01*
X194593Y180168D02*
X202806Y171956D01*
X198769Y184344D02*
X206982Y176131D01*
X166388Y160144D02*
X170564Y164320D01*
X158176Y168357D02*
X162352Y172533D01*
X158176Y168357D02*
X166388Y160144D01*
X162352Y172533D02*
X170564Y164320D01*
X159160Y179084D02*
X163336Y174908D01*
X167373Y187296D02*
X171548Y183121D01*
X159160Y179084D02*
X167373Y187296D01*
X163336Y174908D02*
X171548Y183121D01*
X289764Y214764D02*
Y222244D01*
Y214764D02*
X303150D01*
X289764Y222244D02*
X303150D01*
Y214764D02*
Y222244D01*
X269882Y201969D02*
X277362D01*
X269882D02*
Y215354D01*
X277362Y201969D02*
Y215354D01*
X269882D02*
X277362D01*
X247244Y191142D02*
Y198622D01*
X260630D01*
X247244Y191142D02*
X260630D01*
Y198622D01*
X278740Y223228D02*
X286221D01*
Y209842D02*
Y223228D01*
X278740Y209842D02*
Y223228D01*
Y209842D02*
X286221D01*
X247835Y226575D02*
Y234055D01*
X234449Y226575D02*
X247835D01*
X234449Y234055D02*
X247835D01*
X234449Y226575D02*
Y234055D01*
X233465Y197638D02*
X240945D01*
Y184252D02*
Y197638D01*
X233465Y184252D02*
Y197638D01*
Y184252D02*
X240945D01*
X278740Y196063D02*
X286221D01*
X278740D02*
Y209449D01*
X286221Y196063D02*
Y209449D01*
X278740D02*
X286221D01*
X275394Y153740D02*
Y161221D01*
X262008D02*
X275394D01*
X262008Y153740D02*
X275394D01*
X262008D02*
Y161221D01*
X275394Y162598D02*
Y170079D01*
X262008D02*
X275394D01*
X262008Y162598D02*
X275394D01*
X262008D02*
Y170079D01*
X275394Y171457D02*
Y178937D01*
X262008D02*
X275394D01*
X262008Y171457D02*
X275394D01*
X262008D02*
Y178937D01*
X227859Y171379D02*
X233148Y176669D01*
X227859Y171379D02*
X237324Y161914D01*
X233148Y176669D02*
X242614Y167203D01*
X237324Y161914D02*
X242614Y167203D01*
X248151Y151087D02*
X253440Y156377D01*
X243975Y165842D02*
X253440Y156377D01*
X238686Y160553D02*
X248151Y151087D01*
X238686Y160553D02*
X243975Y165842D01*
X253715Y125983D02*
X261196D01*
Y139369D01*
X253715Y125983D02*
Y139369D01*
X261196D01*
X264616Y318727D02*
X272096D01*
Y332113D01*
X264616Y318727D02*
Y332113D01*
X272096D01*
X262992Y268504D02*
X297638D01*
X262992Y311024D02*
X297638D01*
X262992Y268504D02*
Y311024D01*
X297638Y268504D02*
Y311024D01*
X212795Y327658D02*
X218701D01*
X212795Y339272D02*
X218701D01*
X212795Y327658D02*
Y339272D01*
X218701Y327658D02*
Y339272D01*
X338976Y252165D02*
Y259646D01*
X325590D02*
X338976D01*
X325590Y252165D02*
X338976D01*
X325590D02*
Y259646D01*
X302362Y252165D02*
Y259646D01*
Y252165D02*
X315748D01*
X302362Y259646D02*
X315748D01*
Y252165D02*
Y259646D01*
X195965Y328937D02*
Y334842D01*
X184350Y328937D02*
Y334842D01*
Y328937D02*
X195965D01*
X184350Y334842D02*
X195965D01*
Y313583D02*
Y319488D01*
X184350Y313583D02*
Y319488D01*
Y313583D02*
X195965D01*
X184350Y319488D02*
X195965D01*
M02*
