G04*
G04 #@! TF.GenerationSoftware,Altium Limited,Altium Designer,24.4.1 (13)*
G04*
G04 Layer_Physical_Order=2*
G04 Layer_Color=36540*
%FSLAX25Y25*%
%MOIN*%
G70*
G04*
G04 #@! TF.SameCoordinates,4848AC28-F08C-4A73-8BB8-69E0F556E231*
G04*
G04*
G04 #@! TF.FilePolarity,Positive*
G04*
G01*
G75*
%ADD103C,0.07087*%
%ADD107C,0.10039*%
%ADD108C,0.05906*%
%ADD109C,0.07874*%
%ADD110C,0.02756*%
G36*
X352451Y326948D02*
Y134534D01*
X352451Y134534D01*
X352451Y134534D01*
X352442Y134188D01*
X352309Y132503D01*
X352261Y132135D01*
X351756Y130034D01*
X350882Y127923D01*
X349753Y126081D01*
X349527Y125786D01*
X348353Y124411D01*
X348030Y124088D01*
X346655Y122914D01*
X346360Y122688D01*
X344518Y121559D01*
X342407Y120685D01*
X340306Y120180D01*
X339938Y120132D01*
X338136Y119990D01*
X337908D01*
X337907Y119990D01*
X133532D01*
X133527Y119990D01*
X133183Y119990D01*
X132837Y119999D01*
X131152Y120132D01*
X130784Y120180D01*
X128683Y120685D01*
X126572Y121559D01*
X124729Y122688D01*
X124435Y122914D01*
X123060Y124088D01*
X122737Y124411D01*
X121563Y125786D01*
X121337Y126081D01*
X120208Y127923D01*
X119334Y130034D01*
X118829Y132135D01*
X118781Y132503D01*
X118648Y134188D01*
X118639Y134534D01*
X118639D01*
Y338916D01*
X118639Y339258D01*
X118639D01*
X118648Y339604D01*
X118781Y341289D01*
X118829Y341657D01*
X119334Y343758D01*
X120208Y345869D01*
X121337Y347711D01*
X121563Y348006D01*
X122737Y349381D01*
X123060Y349704D01*
X124435Y350878D01*
X124730Y351104D01*
X126572Y352233D01*
X128683Y353107D01*
X130784Y353612D01*
X131152Y353660D01*
X132837Y353793D01*
X133183Y353802D01*
Y353802D01*
X133183Y353802D01*
X325597D01*
X352451Y326948D01*
D02*
G37*
%LPC*%
G36*
X317456Y351511D02*
X316415D01*
X315410Y351241D01*
X314938Y350969D01*
X316935Y348972D01*
X318932Y350969D01*
X318461Y351241D01*
X317456Y351511D01*
D02*
G37*
G36*
X313524Y349555D02*
X313252Y349084D01*
X312983Y348078D01*
Y347038D01*
X313252Y346032D01*
X313524Y345561D01*
X315521Y347558D01*
X313524Y349555D01*
D02*
G37*
G36*
X320346Y349555D02*
X318350Y347558D01*
X320346Y345561D01*
X320619Y346032D01*
X320888Y347038D01*
Y348078D01*
X320619Y349084D01*
X320346Y349555D01*
D02*
G37*
G36*
X176197Y347113D02*
Y343677D01*
X179632D01*
X179430Y344431D01*
X178832Y345467D01*
X177987Y346313D01*
X176951Y346911D01*
X176197Y347113D01*
D02*
G37*
G36*
X174197D02*
X173443Y346911D01*
X172407Y346313D01*
X171561Y345467D01*
X170963Y344431D01*
X170761Y343677D01*
X174197D01*
Y347113D01*
D02*
G37*
G36*
X316935Y346144D02*
X314938Y344147D01*
X315410Y343875D01*
X316415Y343605D01*
X317456D01*
X318461Y343875D01*
X318932Y344147D01*
X316935Y346144D01*
D02*
G37*
G36*
X155724Y346719D02*
Y343283D01*
X159160D01*
X158958Y344037D01*
X158360Y345073D01*
X157514Y345919D01*
X156478Y346517D01*
X155724Y346719D01*
D02*
G37*
G36*
X153724Y346719D02*
X152971Y346517D01*
X151935Y345919D01*
X151089Y345073D01*
X150491Y344037D01*
X150289Y343283D01*
X153724D01*
Y346719D01*
D02*
G37*
G36*
X174197Y341677D02*
X170761D01*
X170963Y340924D01*
X171561Y339887D01*
X172407Y339042D01*
X173443Y338443D01*
X174197Y338242D01*
Y341677D01*
D02*
G37*
G36*
X179632D02*
X176197D01*
Y338242D01*
X176951Y338443D01*
X177987Y339042D01*
X178832Y339887D01*
X179430Y340924D01*
X179632Y341677D01*
D02*
G37*
G36*
X159160Y341283D02*
X155724D01*
Y337848D01*
X156478Y338050D01*
X157514Y338648D01*
X158360Y339494D01*
X158958Y340530D01*
X159160Y341283D01*
D02*
G37*
G36*
X153724D02*
X150289D01*
X150491Y340530D01*
X151089Y339494D01*
X151935Y338648D01*
X152971Y338050D01*
X153724Y337848D01*
Y341283D01*
D02*
G37*
G36*
X130580Y349213D02*
X129262D01*
X127969Y348955D01*
X126751Y348451D01*
X125655Y347718D01*
X124723Y346786D01*
X123990Y345690D01*
X123486Y344472D01*
X123228Y343179D01*
Y341861D01*
X123486Y340567D01*
X123990Y339349D01*
X124723Y338253D01*
X125655Y337321D01*
X126751Y336589D01*
X127969Y336084D01*
X129262Y335827D01*
X130580D01*
X131874Y336084D01*
X133091Y336589D01*
X134188Y337321D01*
X135120Y338253D01*
X135852Y339349D01*
X136357Y340567D01*
X136614Y341861D01*
Y343179D01*
X136357Y344472D01*
X135852Y345690D01*
X135120Y346786D01*
X134188Y347718D01*
X133091Y348451D01*
X131874Y348955D01*
X130580Y349213D01*
D02*
G37*
G36*
X175767Y337008D02*
X174627D01*
X173525Y336713D01*
X172538Y336143D01*
X171731Y335336D01*
X171161Y334349D01*
X170866Y333247D01*
Y332107D01*
X171161Y331006D01*
X171731Y330018D01*
X172538Y329212D01*
X173525Y328642D01*
X174627Y328346D01*
X175767D01*
X176868Y328642D01*
X177856Y329212D01*
X178662Y330018D01*
X179232Y331006D01*
X179527Y332107D01*
Y333247D01*
X179232Y334349D01*
X178662Y335336D01*
X177856Y336143D01*
X176868Y336713D01*
X175767Y337008D01*
D02*
G37*
G36*
X155295Y336614D02*
X154154D01*
X153053Y336319D01*
X152065Y335749D01*
X151259Y334943D01*
X150689Y333955D01*
X150394Y332854D01*
Y331713D01*
X150689Y330612D01*
X151259Y329624D01*
X152065Y328818D01*
X153053Y328248D01*
X154154Y327953D01*
X155295D01*
X156396Y328248D01*
X157384Y328818D01*
X158190Y329624D01*
X158760Y330612D01*
X159055Y331713D01*
Y332854D01*
X158760Y333955D01*
X158190Y334943D01*
X157384Y335749D01*
X156396Y336319D01*
X155295Y336614D01*
D02*
G37*
G36*
X256730Y329331D02*
X255869D01*
X255073Y329001D01*
X254464Y328392D01*
X254134Y327596D01*
Y326735D01*
X254464Y325939D01*
X255073Y325330D01*
X255869Y325000D01*
X256730D01*
X257526Y325330D01*
X258135Y325939D01*
X258465Y326735D01*
Y327596D01*
X258135Y328392D01*
X257526Y329001D01*
X256730Y329331D01*
D02*
G37*
G36*
X232730Y322654D02*
X231869D01*
X231073Y322324D01*
X230815Y322066D01*
X230557Y322324D01*
X229762Y322654D01*
X228900D01*
X228104Y322324D01*
X227495Y321715D01*
X227165Y320919D01*
Y320057D01*
X227495Y319262D01*
X227745Y319012D01*
X227479Y318746D01*
X227150Y317950D01*
Y317089D01*
X227479Y316293D01*
X228088Y315684D01*
X228884Y315354D01*
X229746D01*
X230541Y315684D01*
X230799Y315942D01*
X231057Y315684D01*
X231853Y315354D01*
X232714D01*
X233510Y315684D01*
X234119Y316293D01*
X234449Y317089D01*
Y317950D01*
X234119Y318746D01*
X233869Y318996D01*
X234135Y319262D01*
X234465Y320057D01*
Y320919D01*
X234135Y321715D01*
X233526Y322324D01*
X232730Y322654D01*
D02*
G37*
G36*
X217754Y326181D02*
X216892D01*
X216096Y325851D01*
X215487Y325242D01*
X215158Y324447D01*
Y323585D01*
X215487Y322789D01*
X216096Y322180D01*
X216892Y321850D01*
X217754D01*
X218549Y322180D01*
X219159Y322789D01*
X219488Y323585D01*
Y324447D01*
X219159Y325242D01*
X218549Y325851D01*
X217754Y326181D01*
D02*
G37*
G36*
X260310Y322638D02*
X259448D01*
X258652Y322308D01*
X258089Y321745D01*
X257526Y322308D01*
X256730Y322638D01*
X255869D01*
X255073Y322308D01*
X254464Y321699D01*
X254134Y320903D01*
Y320042D01*
X254464Y319246D01*
X254812Y318898D01*
X254464Y318549D01*
X254134Y317754D01*
Y316892D01*
X254464Y316096D01*
X255073Y315487D01*
X255869Y315158D01*
X256730D01*
X257526Y315487D01*
X258071Y316032D01*
X258616Y315487D01*
X259412Y315158D01*
X260273D01*
X261069Y315487D01*
X261678Y316096D01*
X262008Y316892D01*
Y317754D01*
X261678Y318549D01*
X261348Y318879D01*
X261715Y319246D01*
X262045Y320042D01*
Y320903D01*
X261715Y321699D01*
X261106Y322308D01*
X260310Y322638D01*
D02*
G37*
G36*
X348078Y320888D02*
X347038D01*
X346032Y320619D01*
X345561Y320347D01*
X347558Y318350D01*
X349555Y320347D01*
X349084Y320619D01*
X348078Y320888D01*
D02*
G37*
G36*
X175767Y327008D02*
X174627D01*
X173525Y326713D01*
X172538Y326143D01*
X171731Y325336D01*
X171161Y324349D01*
X170866Y323247D01*
Y322107D01*
X171161Y321006D01*
X171731Y320018D01*
X172538Y319212D01*
X173525Y318642D01*
X174627Y318347D01*
X175767D01*
X176868Y318642D01*
X177856Y319212D01*
X178662Y320018D01*
X179232Y321006D01*
X179527Y322107D01*
Y323247D01*
X179232Y324349D01*
X178662Y325336D01*
X177856Y326143D01*
X176868Y326713D01*
X175767Y327008D01*
D02*
G37*
G36*
X155295Y326614D02*
X154154D01*
X153053Y326319D01*
X152065Y325749D01*
X151259Y324943D01*
X150689Y323955D01*
X150394Y322854D01*
Y321713D01*
X150689Y320612D01*
X151259Y319624D01*
X152065Y318818D01*
X153053Y318248D01*
X154154Y317953D01*
X155295D01*
X156396Y318248D01*
X157384Y318818D01*
X158190Y319624D01*
X158760Y320612D01*
X159055Y321713D01*
Y322854D01*
X158760Y323955D01*
X158190Y324943D01*
X157384Y325749D01*
X156396Y326319D01*
X155295Y326614D01*
D02*
G37*
G36*
X350969Y318932D02*
X348972Y316935D01*
X350969Y314938D01*
X351241Y315410D01*
X351511Y316415D01*
Y317456D01*
X351241Y318461D01*
X350969Y318932D01*
D02*
G37*
G36*
X344147Y318932D02*
X343875Y318461D01*
X343605Y317456D01*
Y316415D01*
X343875Y315410D01*
X344147Y314938D01*
X346144Y316935D01*
X344147Y318932D01*
D02*
G37*
G36*
X347558Y315521D02*
X345561Y313524D01*
X346032Y313252D01*
X347038Y312983D01*
X348078D01*
X349084Y313252D01*
X349555Y313524D01*
X347558Y315521D01*
D02*
G37*
G36*
X298020Y317175D02*
X296876D01*
X295754Y316951D01*
X294697Y316514D01*
X293746Y315878D01*
X292937Y315069D01*
X292302Y314118D01*
X291864Y313061D01*
X291641Y311940D01*
Y310796D01*
X291864Y309674D01*
X292302Y308617D01*
X292937Y307666D01*
X293746Y306857D01*
X294697Y306221D01*
X295754Y305784D01*
X296876Y305560D01*
X298020D01*
X299142Y305784D01*
X300199Y306221D01*
X301150Y306857D01*
X301959Y307666D01*
X302594Y308617D01*
X303032Y309674D01*
X303255Y310796D01*
Y311940D01*
X303032Y313061D01*
X302594Y314118D01*
X301959Y315069D01*
X301150Y315878D01*
X300199Y316514D01*
X299142Y316951D01*
X298020Y317175D01*
D02*
G37*
G36*
X311960Y303468D02*
X310775D01*
X309612Y303237D01*
X308516Y302783D01*
X307875Y302355D01*
X311368Y298862D01*
X314860Y302355D01*
X314219Y302783D01*
X313123Y303237D01*
X311960Y303468D01*
D02*
G37*
G36*
X157517Y302559D02*
X156656D01*
X155860Y302229D01*
X155251Y301620D01*
X154921Y300824D01*
Y299963D01*
X155251Y299167D01*
X155860Y298558D01*
X156656Y298228D01*
X157517D01*
X158313Y298558D01*
X158922Y299167D01*
X159252Y299963D01*
Y300824D01*
X158922Y301620D01*
X158313Y302229D01*
X157517Y302559D01*
D02*
G37*
G36*
X306461Y300940D02*
X306033Y300300D01*
X305579Y299204D01*
X305348Y298041D01*
Y296855D01*
X305579Y295692D01*
X306033Y294597D01*
X306461Y293956D01*
X309953Y297448D01*
X306461Y300940D01*
D02*
G37*
G36*
X316274Y300940D02*
X312782Y297448D01*
X316274Y293956D01*
X316702Y294597D01*
X317156Y295692D01*
X317387Y296855D01*
Y298041D01*
X317156Y299204D01*
X316702Y300300D01*
X316274Y300940D01*
D02*
G37*
G36*
X311368Y296034D02*
X307875Y292542D01*
X308516Y292113D01*
X309612Y291660D01*
X310775Y291428D01*
X311960D01*
X313123Y291660D01*
X314219Y292113D01*
X314860Y292542D01*
X311368Y296034D01*
D02*
G37*
G36*
X157517Y294291D02*
X156656D01*
X155860Y293962D01*
X155251Y293353D01*
X154921Y292557D01*
Y291695D01*
X155251Y290899D01*
X155860Y290290D01*
X156656Y289961D01*
X157517D01*
X158313Y290290D01*
X158922Y290899D01*
X159252Y291695D01*
Y292557D01*
X158922Y293353D01*
X158313Y293962D01*
X157517Y294291D01*
D02*
G37*
G36*
Y286024D02*
X156656D01*
X155860Y285694D01*
X155251Y285085D01*
X154921Y284289D01*
Y283428D01*
X155251Y282632D01*
X155860Y282023D01*
X156656Y281693D01*
X157517D01*
X158313Y282023D01*
X158922Y282632D01*
X159252Y283428D01*
Y284289D01*
X158922Y285085D01*
X158313Y285694D01*
X157517Y286024D01*
D02*
G37*
G36*
X330155Y282874D02*
X329294D01*
X328498Y282544D01*
X327889Y281935D01*
X327559Y281139D01*
Y280278D01*
X327889Y279482D01*
X328498Y278873D01*
X329294Y278543D01*
X330155D01*
X330951Y278873D01*
X331560Y279482D01*
X331890Y280278D01*
Y281139D01*
X331560Y281935D01*
X330951Y282544D01*
X330155Y282874D01*
D02*
G37*
G36*
X323265D02*
X322404D01*
X321608Y282544D01*
X320999Y281935D01*
X320669Y281139D01*
Y280278D01*
X320999Y279482D01*
X321608Y278873D01*
X322404Y278543D01*
X323265D01*
X324061Y278873D01*
X324670Y279482D01*
X325000Y280278D01*
Y281139D01*
X324670Y281935D01*
X324061Y282544D01*
X323265Y282874D01*
D02*
G37*
G36*
X317360D02*
X316498D01*
X315703Y282544D01*
X315093Y281935D01*
X314764Y281139D01*
Y280278D01*
X315093Y279482D01*
X315703Y278873D01*
X316498Y278543D01*
X317360D01*
X318156Y278873D01*
X318765Y279482D01*
X319094Y280278D01*
Y281139D01*
X318765Y281935D01*
X318156Y282544D01*
X317360Y282874D01*
D02*
G37*
G36*
X174053Y281299D02*
X173191D01*
X172396Y280970D01*
X171786Y280360D01*
X171457Y279565D01*
Y278703D01*
X171786Y277907D01*
X172396Y277298D01*
X173191Y276969D01*
X174053D01*
X174849Y277298D01*
X175458Y277907D01*
X175787Y278703D01*
Y279565D01*
X175458Y280360D01*
X174849Y280970D01*
X174053Y281299D01*
D02*
G37*
G36*
X157517Y277756D02*
X156656D01*
X155860Y277426D01*
X155251Y276817D01*
X154921Y276021D01*
Y275160D01*
X155251Y274364D01*
X155860Y273755D01*
X156656Y273425D01*
X157517D01*
X158313Y273755D01*
X158922Y274364D01*
X159252Y275160D01*
Y276021D01*
X158922Y276817D01*
X158313Y277426D01*
X157517Y277756D01*
D02*
G37*
G36*
X330155Y275984D02*
X329294D01*
X328498Y275655D01*
X327889Y275045D01*
X327559Y274250D01*
Y273388D01*
X327889Y272592D01*
X328498Y271983D01*
X329294Y271654D01*
X330155D01*
X330951Y271983D01*
X331560Y272592D01*
X331890Y273388D01*
Y274250D01*
X331560Y275045D01*
X330951Y275655D01*
X330155Y275984D01*
D02*
G37*
G36*
X323265D02*
X322404D01*
X321608Y275655D01*
X320999Y275045D01*
X320669Y274250D01*
Y273388D01*
X320999Y272592D01*
X321608Y271983D01*
X322404Y271654D01*
X323265D01*
X324061Y271983D01*
X324670Y272592D01*
X325000Y273388D01*
Y274250D01*
X324670Y275045D01*
X324061Y275655D01*
X323265Y275984D01*
D02*
G37*
G36*
X317360D02*
X316498D01*
X315703Y275655D01*
X315093Y275045D01*
X314764Y274250D01*
Y273388D01*
X315093Y272592D01*
X315703Y271983D01*
X316498Y271654D01*
X317360D01*
X318156Y271983D01*
X318765Y272592D01*
X319094Y273388D01*
Y274250D01*
X318765Y275045D01*
X318156Y275655D01*
X317360Y275984D01*
D02*
G37*
G36*
X131139Y271457D02*
X130278D01*
X129482Y271127D01*
X128873Y270518D01*
X128543Y269722D01*
Y268861D01*
X128873Y268065D01*
X129482Y267456D01*
X130278Y267126D01*
X131139D01*
X131935Y267456D01*
X132544Y268065D01*
X132874Y268861D01*
Y269722D01*
X132544Y270518D01*
X131935Y271127D01*
X131139Y271457D01*
D02*
G37*
G36*
X330155Y268110D02*
X329294D01*
X328498Y267781D01*
X327889Y267171D01*
X327559Y266376D01*
Y265514D01*
X327889Y264718D01*
X328498Y264109D01*
X329294Y263779D01*
X330155D01*
X330951Y264109D01*
X331560Y264718D01*
X331890Y265514D01*
Y266376D01*
X331560Y267171D01*
X330951Y267781D01*
X330155Y268110D01*
D02*
G37*
G36*
X323265D02*
X322404D01*
X321608Y267781D01*
X320999Y267171D01*
X320669Y266376D01*
Y265514D01*
X320999Y264718D01*
X321608Y264109D01*
X322404Y263779D01*
X323265D01*
X324061Y264109D01*
X324670Y264718D01*
X325000Y265514D01*
Y266376D01*
X324670Y267171D01*
X324061Y267781D01*
X323265Y268110D01*
D02*
G37*
G36*
X317360D02*
X316498D01*
X315703Y267781D01*
X315093Y267171D01*
X314764Y266376D01*
Y265514D01*
X315093Y264718D01*
X315703Y264109D01*
X316498Y263779D01*
X317360D01*
X318156Y264109D01*
X318765Y264718D01*
X319094Y265514D01*
Y266376D01*
X318765Y267171D01*
X318156Y267781D01*
X317360Y268110D01*
D02*
G37*
G36*
X185076Y265158D02*
X184215D01*
X183419Y264828D01*
X182810Y264219D01*
X182480Y263423D01*
Y262561D01*
X182810Y261766D01*
X183419Y261156D01*
X184215Y260827D01*
X185076D01*
X185872Y261156D01*
X186481Y261766D01*
X186811Y262561D01*
Y263423D01*
X186481Y264219D01*
X185872Y264828D01*
X185076Y265158D01*
D02*
G37*
G36*
X251349Y258858D02*
X250488D01*
X249692Y258529D01*
X249083Y257920D01*
X248812Y257264D01*
X248433D01*
X248161Y257920D01*
X247552Y258529D01*
X246756Y258858D01*
X245895D01*
X245099Y258529D01*
X244490Y257920D01*
X244218Y257264D01*
X243839D01*
X243568Y257920D01*
X242959Y258529D01*
X242163Y258858D01*
X241302D01*
X240506Y258529D01*
X239897Y257920D01*
X239625Y257264D01*
X239246D01*
X238975Y257920D01*
X238366Y258529D01*
X237570Y258858D01*
X236708D01*
X235912Y258529D01*
X235303Y257920D01*
X234974Y257124D01*
Y256262D01*
X235303Y255466D01*
X235912Y254857D01*
X236708Y254528D01*
X237570D01*
X238366Y254857D01*
X238975Y255466D01*
X239246Y256122D01*
X239625D01*
X239897Y255466D01*
X240506Y254857D01*
X241302Y254528D01*
X242163D01*
X242959Y254857D01*
X243568Y255466D01*
X243839Y256122D01*
X244218D01*
X244490Y255466D01*
X245099Y254857D01*
X245895Y254528D01*
X246756D01*
X247552Y254857D01*
X248161Y255466D01*
X248433Y256122D01*
X248812D01*
X249083Y255466D01*
X249692Y254857D01*
X250488Y254528D01*
X251349D01*
X252145Y254857D01*
X252754Y255466D01*
X253084Y256262D01*
Y257124D01*
X252754Y257920D01*
X252145Y258529D01*
X251349Y258858D01*
D02*
G37*
G36*
X127756Y256794D02*
X124213D01*
X123545Y256706D01*
X122922Y256448D01*
X122388Y256038D01*
X121977Y255503D01*
X121719Y254881D01*
X121632Y254213D01*
X121719Y253545D01*
X121977Y252922D01*
X122388Y252387D01*
X122922Y251977D01*
X123545Y251719D01*
X124213Y251631D01*
X127756D01*
X128424Y251719D01*
X129046Y251977D01*
X129581Y252387D01*
X129991Y252922D01*
X130249Y253545D01*
X130337Y254213D01*
X130249Y254881D01*
X129991Y255503D01*
X129581Y256038D01*
X129046Y256448D01*
X128424Y256706D01*
X127756Y256794D01*
D02*
G37*
G36*
X144508Y257092D02*
X140374D01*
X139629Y256994D01*
X138935Y256706D01*
X138338Y256248D01*
X137881Y255652D01*
X137593Y254958D01*
X137495Y254213D01*
X137593Y253467D01*
X137881Y252773D01*
X138338Y252177D01*
X138935Y251719D01*
X139629Y251432D01*
X140374Y251334D01*
X144508D01*
X145253Y251432D01*
X145947Y251719D01*
X146544Y252177D01*
X147001Y252773D01*
X147289Y253467D01*
X147387Y254213D01*
X147289Y254958D01*
X147001Y255652D01*
X146544Y256248D01*
X145947Y256706D01*
X145253Y256994D01*
X144508Y257092D01*
D02*
G37*
G36*
X140884Y250650D02*
X140061D01*
X139302Y250335D01*
X138720Y249753D01*
X138406Y248994D01*
Y248171D01*
X138720Y247412D01*
X139302Y246830D01*
X140061Y246516D01*
X140884D01*
X141643Y246830D01*
X142225Y247412D01*
X142539Y248171D01*
Y248994D01*
X142225Y249753D01*
X141643Y250335D01*
X140884Y250650D01*
D02*
G37*
G36*
X329898Y248530D02*
Y245094D01*
X333333D01*
X333131Y245848D01*
X332533Y246884D01*
X331687Y247730D01*
X330651Y248328D01*
X329898Y248530D01*
D02*
G37*
G36*
X327898D02*
X327144Y248328D01*
X326108Y247730D01*
X325262Y246884D01*
X324664Y245848D01*
X324462Y245094D01*
X327898D01*
Y248530D01*
D02*
G37*
G36*
X289013Y247441D02*
X288152D01*
X287356Y247111D01*
X286747Y246502D01*
X286417Y245706D01*
Y244845D01*
X286747Y244049D01*
X287356Y243440D01*
X288152Y243110D01*
X289013D01*
X289809Y243440D01*
X290418Y244049D01*
X290748Y244845D01*
Y245706D01*
X290418Y246502D01*
X289809Y247111D01*
X289013Y247441D01*
D02*
G37*
G36*
X319468Y248425D02*
X318327D01*
X317226Y248130D01*
X316238Y247560D01*
X315432Y246754D01*
X314862Y245766D01*
X314567Y244665D01*
Y243524D01*
X314862Y242423D01*
X315432Y241435D01*
X316238Y240629D01*
X317226Y240059D01*
X318327Y239764D01*
X319468D01*
X320569Y240059D01*
X321557Y240629D01*
X322363Y241435D01*
X322933Y242423D01*
X323228Y243524D01*
Y244665D01*
X322933Y245766D01*
X322363Y246754D01*
X321557Y247560D01*
X320569Y248130D01*
X319468Y248425D01*
D02*
G37*
G36*
X333333Y243094D02*
X329898D01*
Y239659D01*
X330651Y239861D01*
X331687Y240459D01*
X332533Y241305D01*
X333131Y242341D01*
X333333Y243094D01*
D02*
G37*
G36*
X327898D02*
X324462D01*
X324664Y242341D01*
X325262Y241305D01*
X326108Y240459D01*
X327144Y239861D01*
X327898Y239659D01*
Y243094D01*
D02*
G37*
G36*
X329898Y236719D02*
Y233283D01*
X333333D01*
X333131Y234037D01*
X332533Y235073D01*
X331687Y235919D01*
X330651Y236517D01*
X329898Y236719D01*
D02*
G37*
G36*
X327898D02*
X327144Y236517D01*
X326108Y235919D01*
X325262Y235073D01*
X324664Y234037D01*
X324462Y233283D01*
X327898D01*
Y236719D01*
D02*
G37*
G36*
X319468Y236614D02*
X318327D01*
X317226Y236319D01*
X316238Y235749D01*
X315432Y234943D01*
X314862Y233955D01*
X314567Y232854D01*
Y231713D01*
X314862Y230612D01*
X315432Y229624D01*
X316238Y228818D01*
X317226Y228248D01*
X318327Y227953D01*
X319468D01*
X320569Y228248D01*
X321557Y228818D01*
X322363Y229624D01*
X322933Y230612D01*
X323228Y231713D01*
Y232854D01*
X322933Y233955D01*
X322363Y234943D01*
X321557Y235749D01*
X320569Y236319D01*
X319468Y236614D01*
D02*
G37*
G36*
X333333Y231283D02*
X329898D01*
Y227848D01*
X330651Y228050D01*
X331687Y228648D01*
X332533Y229494D01*
X333131Y230530D01*
X333333Y231283D01*
D02*
G37*
G36*
X327898D02*
X324462D01*
X324664Y230530D01*
X325262Y229494D01*
X326108Y228648D01*
X327144Y228050D01*
X327898Y227848D01*
Y231283D01*
D02*
G37*
G36*
X185864Y231299D02*
X185002D01*
X184206Y230970D01*
X183597Y230360D01*
X183268Y229565D01*
Y228703D01*
X183597Y227907D01*
X184206Y227298D01*
X185002Y226969D01*
X185864D01*
X186660Y227298D01*
X187269Y227907D01*
X187598Y228703D01*
Y229565D01*
X187269Y230360D01*
X186660Y230970D01*
X185864Y231299D01*
D02*
G37*
G36*
X140884Y227894D02*
X140061D01*
X139302Y227579D01*
X138720Y226998D01*
X138406Y226238D01*
Y225416D01*
X138720Y224656D01*
X139302Y224075D01*
X140061Y223760D01*
X140884D01*
X141643Y224075D01*
X142225Y224656D01*
X142539Y225416D01*
Y226238D01*
X142225Y226998D01*
X141643Y227579D01*
X140884Y227894D01*
D02*
G37*
G36*
X242345Y226243D02*
X241483D01*
X240687Y225913D01*
X240078Y225304D01*
X239749Y224508D01*
Y223647D01*
X240078Y222851D01*
X240687Y222242D01*
X241483Y221912D01*
X242345D01*
X243141Y222242D01*
X243750Y222851D01*
X244079Y223647D01*
Y224508D01*
X243750Y225304D01*
X243141Y225913D01*
X242345Y226243D01*
D02*
G37*
G36*
X267259Y224762D02*
X266398D01*
X265602Y224432D01*
X264993Y223823D01*
X264663Y223027D01*
Y222166D01*
X264993Y221370D01*
X265602Y220761D01*
X266398Y220431D01*
X267259D01*
X268055Y220761D01*
X268664Y221370D01*
X268994Y222166D01*
Y223027D01*
X268664Y223823D01*
X268055Y224432D01*
X267259Y224762D01*
D02*
G37*
G36*
X275037Y222638D02*
X274176D01*
X273380Y222308D01*
X272771Y221699D01*
X272441Y220903D01*
Y220042D01*
X272771Y219246D01*
X273380Y218637D01*
X274176Y218307D01*
X275037D01*
X275833Y218637D01*
X276442Y219246D01*
X276772Y220042D01*
Y220903D01*
X276442Y221699D01*
X275833Y222308D01*
X275037Y222638D01*
D02*
G37*
G36*
X127756Y222778D02*
X124213D01*
X123545Y222690D01*
X122922Y222432D01*
X122388Y222022D01*
X121977Y221487D01*
X121719Y220865D01*
X121632Y220197D01*
X121719Y219529D01*
X121977Y218906D01*
X122388Y218372D01*
X122922Y217962D01*
X123545Y217704D01*
X124213Y217616D01*
X127756D01*
X128424Y217704D01*
X129046Y217962D01*
X129581Y218372D01*
X129991Y218906D01*
X130249Y219529D01*
X130337Y220197D01*
X130249Y220865D01*
X129991Y221487D01*
X129581Y222022D01*
X129046Y222432D01*
X128424Y222690D01*
X127756Y222778D01*
D02*
G37*
G36*
X249250Y221850D02*
X248388D01*
X247592Y221521D01*
X246983Y220912D01*
X246654Y220116D01*
Y219254D01*
X246983Y218459D01*
X247592Y217849D01*
X248388Y217520D01*
X249250D01*
X250045Y217849D01*
X250655Y218459D01*
X250984Y219254D01*
Y220116D01*
X250655Y220912D01*
X250045Y221521D01*
X249250Y221850D01*
D02*
G37*
G36*
X144508Y223076D02*
X140374D01*
X139629Y222978D01*
X138935Y222690D01*
X138338Y222233D01*
X137881Y221636D01*
X137593Y220942D01*
X137495Y220197D01*
X137593Y219452D01*
X137881Y218757D01*
X138338Y218161D01*
X138935Y217704D01*
X139629Y217416D01*
X140374Y217318D01*
X144508D01*
X145253Y217416D01*
X145947Y217704D01*
X146544Y218161D01*
X147001Y218757D01*
X147289Y219452D01*
X147387Y220197D01*
X147289Y220942D01*
X147001Y221636D01*
X146544Y222233D01*
X145947Y222690D01*
X145253Y222978D01*
X144508Y223076D01*
D02*
G37*
G36*
X188620Y221063D02*
X187758D01*
X186962Y220733D01*
X186353Y220124D01*
X186024Y219328D01*
Y218467D01*
X186353Y217671D01*
X186962Y217062D01*
X187758Y216732D01*
X188620D01*
X189416Y217062D01*
X190025Y217671D01*
X190354Y218467D01*
Y219328D01*
X190025Y220124D01*
X189416Y220733D01*
X188620Y221063D01*
D02*
G37*
G36*
X259092Y216732D02*
X258231D01*
X257435Y216403D01*
X256826Y215793D01*
X256496Y214998D01*
Y214136D01*
X256826Y213340D01*
X257435Y212731D01*
X258231Y212402D01*
X259092D01*
X259888Y212731D01*
X260497Y213340D01*
X260827Y214136D01*
Y214998D01*
X260497Y215793D01*
X259888Y216403D01*
X259092Y216732D01*
D02*
G37*
G36*
X246887Y212795D02*
X246026D01*
X245230Y212466D01*
X244621Y211857D01*
X244291Y211061D01*
Y210199D01*
X244621Y209403D01*
X245230Y208794D01*
X246026Y208465D01*
X246887D01*
X247683Y208794D01*
X248292Y209403D01*
X248622Y210199D01*
Y211061D01*
X248292Y211857D01*
X247683Y212466D01*
X246887Y212795D01*
D02*
G37*
G36*
X216179Y210827D02*
X215317D01*
X214522Y210497D01*
X213912Y209888D01*
X213583Y209092D01*
Y208231D01*
X213912Y207435D01*
X214522Y206826D01*
X215317Y206496D01*
X216179D01*
X216975Y206826D01*
X217584Y207435D01*
X217913Y208231D01*
Y209092D01*
X217584Y209888D01*
X216975Y210497D01*
X216179Y210827D01*
D02*
G37*
G36*
X330491Y215039D02*
X329351D01*
X328250Y214744D01*
X327262Y214174D01*
X326456Y213368D01*
X325886Y212380D01*
X325591Y211279D01*
Y210139D01*
X325886Y209037D01*
X326456Y208050D01*
X327262Y207243D01*
X328250Y206673D01*
X329351Y206378D01*
X330491D01*
X331593Y206673D01*
X332580Y207243D01*
X333387Y208050D01*
X333957Y209037D01*
X334252Y210139D01*
Y211279D01*
X333957Y212380D01*
X333387Y213368D01*
X332580Y214174D01*
X331593Y214744D01*
X330491Y215039D01*
D02*
G37*
G36*
X225234Y210433D02*
X224372D01*
X223577Y210103D01*
X222968Y209494D01*
X222638Y208698D01*
Y207837D01*
X222968Y207041D01*
X223577Y206432D01*
X224372Y206102D01*
X225234D01*
X226030Y206432D01*
X226639Y207041D01*
X226969Y207837D01*
Y208698D01*
X226639Y209494D01*
X226030Y210103D01*
X225234Y210433D01*
D02*
G37*
G36*
X297675Y209252D02*
X296813D01*
X296018Y208922D01*
X295408Y208313D01*
X295079Y207517D01*
Y206656D01*
X295408Y205860D01*
X296018Y205251D01*
X296813Y204921D01*
X297675D01*
X298471Y205251D01*
X299080Y205860D01*
X299409Y206656D01*
Y207517D01*
X299080Y208313D01*
X298471Y208922D01*
X297675Y209252D01*
D02*
G37*
G36*
X303974Y208465D02*
X303113D01*
X302317Y208135D01*
X301708Y207526D01*
X301378Y206730D01*
Y205869D01*
X301708Y205073D01*
X302317Y204464D01*
X303113Y204134D01*
X303974D01*
X304770Y204464D01*
X305379Y205073D01*
X305709Y205869D01*
Y206730D01*
X305379Y207526D01*
X304770Y208135D01*
X303974Y208465D01*
D02*
G37*
G36*
X169328Y207283D02*
X168467D01*
X167671Y206954D01*
X167062Y206345D01*
X166732Y205549D01*
Y204687D01*
X167062Y203891D01*
X167671Y203282D01*
X168467Y202953D01*
X169328D01*
X170124Y203282D01*
X170733Y203891D01*
X171063Y204687D01*
Y205549D01*
X170733Y206345D01*
X170124Y206954D01*
X169328Y207283D01*
D02*
G37*
G36*
X330921Y205145D02*
Y201709D01*
X334357D01*
X334155Y202463D01*
X333557Y203499D01*
X332711Y204345D01*
X331675Y204943D01*
X330921Y205145D01*
D02*
G37*
G36*
X328921D02*
X328168Y204943D01*
X327132Y204345D01*
X326286Y203499D01*
X325688Y202463D01*
X325486Y201709D01*
X328921D01*
Y205145D01*
D02*
G37*
G36*
X274053Y200984D02*
X273191D01*
X272395Y200655D01*
X271786Y200045D01*
X271457Y199250D01*
Y198388D01*
X271786Y197592D01*
X272395Y196983D01*
X273191Y196653D01*
X274053D01*
X274849Y196983D01*
X275458Y197592D01*
X275787Y198388D01*
Y199250D01*
X275458Y200045D01*
X274849Y200655D01*
X274053Y200984D01*
D02*
G37*
G36*
X334357Y199709D02*
X330921D01*
Y196274D01*
X331675Y196475D01*
X332711Y197073D01*
X333557Y197919D01*
X334155Y198955D01*
X334357Y199709D01*
D02*
G37*
G36*
X328921D02*
X325486D01*
X325688Y198955D01*
X326286Y197919D01*
X327132Y197073D01*
X328168Y196475D01*
X328921Y196274D01*
Y199709D01*
D02*
G37*
G36*
X195706Y200591D02*
X194845D01*
X194049Y200261D01*
X193440Y199652D01*
X193110Y198856D01*
Y197994D01*
X193440Y197199D01*
X194049Y196590D01*
X194845Y196260D01*
X195706D01*
X196502Y196590D01*
X197111Y197199D01*
X197441Y197994D01*
Y198856D01*
X197111Y199652D01*
X196502Y200261D01*
X195706Y200591D01*
D02*
G37*
G36*
X203187Y199803D02*
X202325D01*
X201529Y199474D01*
X200920Y198864D01*
X200591Y198068D01*
Y197207D01*
X200920Y196411D01*
X201529Y195802D01*
X202325Y195473D01*
X203187D01*
X203982Y195802D01*
X204592Y196411D01*
X204921Y197207D01*
Y198068D01*
X204592Y198864D01*
X203982Y199474D01*
X203187Y199803D01*
D02*
G37*
G36*
X244525Y195079D02*
X243664D01*
X242868Y194749D01*
X242259Y194140D01*
X241929Y193344D01*
Y192483D01*
X242259Y191687D01*
X242868Y191078D01*
X243664Y190748D01*
X244525D01*
X245321Y191078D01*
X245930Y191687D01*
X246260Y192483D01*
Y193344D01*
X245930Y194140D01*
X245321Y194749D01*
X244525Y195079D01*
D02*
G37*
G36*
X189976Y191136D02*
Y189976D01*
X191136D01*
X190992Y190323D01*
X190323Y190992D01*
X189976Y191136D01*
D02*
G37*
G36*
X187976D02*
X187629Y190992D01*
X186960Y190323D01*
X186817Y189976D01*
X187976D01*
Y191136D01*
D02*
G37*
G36*
X191136Y187976D02*
X189976D01*
Y186817D01*
X190323Y186960D01*
X190992Y187629D01*
X191136Y187976D01*
D02*
G37*
G36*
X187976D02*
X186817D01*
X186960Y187629D01*
X187629Y186960D01*
X187976Y186817D01*
Y187976D01*
D02*
G37*
G36*
X330491Y195040D02*
X329351D01*
X328250Y194745D01*
X327262Y194175D01*
X326456Y193369D01*
X325886Y192381D01*
X325591Y191280D01*
Y190139D01*
X325886Y189038D01*
X326456Y188050D01*
X327262Y187244D01*
X328250Y186674D01*
X329351Y186379D01*
X330491D01*
X331593Y186674D01*
X332580Y187244D01*
X333387Y188050D01*
X333957Y189038D01*
X334252Y190139D01*
Y191280D01*
X333957Y192381D01*
X333387Y193369D01*
X332580Y194175D01*
X331593Y194745D01*
X330491Y195040D01*
D02*
G37*
G36*
X164801Y190157D02*
X163939D01*
X163144Y189828D01*
X162534Y189219D01*
X162205Y188423D01*
Y187561D01*
X162534Y186766D01*
X163144Y186156D01*
X163939Y185827D01*
X164801D01*
X165597Y186156D01*
X166206Y186766D01*
X166535Y187561D01*
Y188423D01*
X166206Y189219D01*
X165597Y189828D01*
X164801Y190157D01*
D02*
G37*
G36*
X154761Y189173D02*
X153900D01*
X153104Y188844D01*
X152495Y188234D01*
X152165Y187439D01*
Y186577D01*
X152495Y185781D01*
X153104Y185172D01*
X153900Y184843D01*
X154761D01*
X155557Y185172D01*
X156166Y185781D01*
X156496Y186577D01*
Y187439D01*
X156166Y188234D01*
X155557Y188844D01*
X154761Y189173D01*
D02*
G37*
G36*
X176612D02*
X175750D01*
X174954Y188844D01*
X174345Y188234D01*
X174016Y187439D01*
Y186577D01*
X174345Y185781D01*
X174954Y185172D01*
X175750Y184843D01*
X176612D01*
X176862Y184946D01*
X177130Y184678D01*
X176969Y184289D01*
Y183428D01*
X177298Y182632D01*
X177907Y182023D01*
X178703Y181693D01*
X179565D01*
X180052Y181895D01*
X180320Y181627D01*
X180118Y181139D01*
Y180278D01*
X180448Y179482D01*
X181057Y178873D01*
X181853Y178543D01*
X182714D01*
X183510Y178873D01*
X184119Y179482D01*
X184449Y180278D01*
Y181139D01*
X184119Y181935D01*
X183510Y182544D01*
X182714Y182874D01*
X181853D01*
X181365Y182672D01*
X181097Y182940D01*
X181299Y183428D01*
Y184289D01*
X180970Y185085D01*
X180360Y185694D01*
X179565Y186024D01*
X178703D01*
X178453Y185920D01*
X178185Y186188D01*
X178347Y186577D01*
Y187439D01*
X178017Y188234D01*
X177408Y188844D01*
X176612Y189173D01*
D02*
G37*
G36*
X209879Y180905D02*
X209018D01*
X208222Y180576D01*
X207613Y179967D01*
X207283Y179171D01*
Y178309D01*
X207613Y177514D01*
X208222Y176904D01*
X209018Y176575D01*
X209879D01*
X210675Y176904D01*
X211284Y177514D01*
X211614Y178309D01*
Y179171D01*
X211284Y179967D01*
X210675Y180576D01*
X209879Y180905D01*
D02*
G37*
G36*
X330491Y185039D02*
X329351D01*
X328250Y184744D01*
X327262Y184174D01*
X326456Y183368D01*
X325886Y182380D01*
X325591Y181279D01*
Y180139D01*
X325886Y179037D01*
X326456Y178050D01*
X327262Y177243D01*
X328250Y176673D01*
X329351Y176378D01*
X330491D01*
X331593Y176673D01*
X332580Y177243D01*
X333387Y178050D01*
X333957Y179037D01*
X334252Y180139D01*
Y181279D01*
X333957Y182380D01*
X333387Y183368D01*
X332580Y184174D01*
X331593Y184744D01*
X330491Y185039D01*
D02*
G37*
G36*
X193344Y178021D02*
X192483D01*
X191687Y177692D01*
X191078Y177083D01*
X190748Y176287D01*
Y175425D01*
X191078Y174629D01*
X191687Y174020D01*
X192483Y173691D01*
X193344D01*
X194140Y174020D01*
X194749Y174629D01*
X195079Y175425D01*
Y176287D01*
X194749Y177083D01*
X194140Y177692D01*
X193344Y178021D01*
D02*
G37*
G36*
X158305Y174606D02*
X157443D01*
X156648Y174277D01*
X156038Y173668D01*
X155709Y172872D01*
Y172010D01*
X156038Y171214D01*
X156648Y170605D01*
X157443Y170276D01*
X158305D01*
X159101Y170605D01*
X159710Y171214D01*
X160039Y172010D01*
Y172872D01*
X159710Y173668D01*
X159101Y174277D01*
X158305Y174606D01*
D02*
G37*
G36*
X154761Y170669D02*
X153900D01*
X153104Y170340D01*
X152495Y169730D01*
X152165Y168935D01*
Y168073D01*
X152495Y167277D01*
X153104Y166668D01*
X153900Y166339D01*
X154761D01*
X155557Y166668D01*
X156166Y167277D01*
X156496Y168073D01*
Y168935D01*
X156166Y169730D01*
X155557Y170340D01*
X154761Y170669D01*
D02*
G37*
G36*
X158305Y166732D02*
X157443D01*
X156648Y166403D01*
X156038Y165794D01*
X155709Y164998D01*
Y164136D01*
X156038Y163340D01*
X156648Y162731D01*
X157443Y162402D01*
X158305D01*
X159101Y162731D01*
X159710Y163340D01*
X160039Y164136D01*
Y164998D01*
X159710Y165794D01*
X159101Y166403D01*
X158305Y166732D01*
D02*
G37*
G36*
X299783Y164764D02*
X298642D01*
X297541Y164469D01*
X296553Y163899D01*
X295747Y163092D01*
X295177Y162105D01*
X294882Y161003D01*
Y159863D01*
X295177Y158762D01*
X295747Y157774D01*
X296553Y156968D01*
X297541Y156397D01*
X298642Y156102D01*
X299783D01*
X300884Y156397D01*
X301872Y156968D01*
X302678Y157774D01*
X303248Y158762D01*
X303543Y159863D01*
Y161003D01*
X303248Y162105D01*
X302678Y163092D01*
X301872Y163899D01*
X300884Y164469D01*
X299783Y164764D01*
D02*
G37*
G36*
X289783D02*
X288643D01*
X287541Y164469D01*
X286554Y163899D01*
X285747Y163092D01*
X285177Y162105D01*
X284882Y161003D01*
Y159863D01*
X285177Y158762D01*
X285747Y157774D01*
X286554Y156968D01*
X287541Y156397D01*
X288643Y156102D01*
X289783D01*
X290884Y156397D01*
X291872Y156968D01*
X292678Y157774D01*
X293248Y158762D01*
X293543Y159863D01*
Y161003D01*
X293248Y162105D01*
X292678Y163092D01*
X291872Y163899D01*
X290884Y164469D01*
X289783Y164764D01*
D02*
G37*
G36*
X278383Y159646D02*
X277522D01*
X276726Y159316D01*
X276117Y158707D01*
X275787Y157911D01*
Y157050D01*
X276117Y156254D01*
X276726Y155645D01*
X277522Y155315D01*
X278383D01*
X279179Y155645D01*
X279788Y156254D01*
X280118Y157050D01*
Y157911D01*
X279788Y158707D01*
X279179Y159316D01*
X278383Y159646D01*
D02*
G37*
G36*
X215391Y144685D02*
X214530D01*
X213734Y144355D01*
X213125Y143746D01*
X212795Y142950D01*
Y142089D01*
X213125Y141293D01*
X213734Y140684D01*
X214530Y140354D01*
X215391D01*
X216187Y140684D01*
X216796Y141293D01*
X217126Y142089D01*
Y142950D01*
X216796Y143746D01*
X216187Y144355D01*
X215391Y144685D01*
D02*
G37*
G36*
X296119Y148253D02*
X294875D01*
X293673Y147931D01*
X292596Y147309D01*
X291717Y146429D01*
X291095Y145352D01*
X290773Y144150D01*
Y142906D01*
X291095Y141705D01*
X291717Y140628D01*
X292596Y139748D01*
X293673Y139126D01*
X294875Y138804D01*
X296119D01*
X297321Y139126D01*
X298398Y139748D01*
X299277Y140628D01*
X299900Y141705D01*
X300221Y142906D01*
Y144150D01*
X299900Y145352D01*
X299277Y146429D01*
X298398Y147309D01*
X297321Y147931D01*
X296119Y148253D01*
D02*
G37*
G36*
X270529D02*
X269285D01*
X268083Y147931D01*
X267006Y147309D01*
X266126Y146429D01*
X265504Y145352D01*
X265182Y144150D01*
Y142906D01*
X265504Y141705D01*
X266126Y140628D01*
X267006Y139748D01*
X268083Y139126D01*
X269285Y138804D01*
X270529D01*
X271730Y139126D01*
X272807Y139748D01*
X273687Y140628D01*
X274309Y141705D01*
X274631Y142906D01*
Y144150D01*
X274309Y145352D01*
X273687Y146429D01*
X272807Y147309D01*
X271730Y147931D01*
X270529Y148253D01*
D02*
G37*
G36*
X209289Y140391D02*
X208428D01*
X207632Y140062D01*
X207023Y139453D01*
X206693Y138657D01*
Y137795D01*
X207023Y136999D01*
X207632Y136390D01*
X208428Y136061D01*
X209289D01*
X210085Y136390D01*
X210694Y136999D01*
X211024Y137795D01*
Y138657D01*
X210694Y139453D01*
X210085Y140062D01*
X209289Y140391D01*
D02*
G37*
G36*
X249643Y139961D02*
X248782D01*
X247986Y139631D01*
X247377Y139022D01*
X247047Y138226D01*
Y137365D01*
X247377Y136569D01*
X247986Y135960D01*
X248782Y135630D01*
X249643D01*
X250439Y135960D01*
X251048Y136569D01*
X251378Y137365D01*
Y138226D01*
X251048Y139022D01*
X250439Y139631D01*
X249643Y139961D01*
D02*
G37*
G36*
X179661Y133373D02*
Y129937D01*
X183097D01*
X182895Y130691D01*
X182297Y131727D01*
X181451Y132573D01*
X180415Y133171D01*
X179661Y133373D01*
D02*
G37*
G36*
X177661D02*
X176908Y133171D01*
X175872Y132573D01*
X175026Y131727D01*
X174428Y130691D01*
X174226Y129937D01*
X177661D01*
Y133373D01*
D02*
G37*
G36*
X296497Y130655D02*
Y126812D01*
X300340D01*
X300098Y127718D01*
X299448Y128843D01*
X298528Y129763D01*
X297403Y130412D01*
X296497Y130655D01*
D02*
G37*
G36*
X270906D02*
Y126812D01*
X274750D01*
X274507Y127718D01*
X273857Y128843D01*
X272938Y129763D01*
X271812Y130412D01*
X270906Y130655D01*
D02*
G37*
G36*
X268906Y130655D02*
X268001Y130412D01*
X266875Y129763D01*
X265956Y128843D01*
X265306Y127718D01*
X265063Y126812D01*
X268906D01*
Y130655D01*
D02*
G37*
G36*
X294497Y130655D02*
X293591Y130412D01*
X292466Y129763D01*
X291547Y128843D01*
X290897Y127718D01*
X290654Y126812D01*
X294497D01*
Y130655D01*
D02*
G37*
G36*
X151021Y131102D02*
X150160D01*
X149364Y130773D01*
X148755Y130164D01*
X148425Y129368D01*
Y128506D01*
X148755Y127710D01*
X149364Y127101D01*
X150160Y126772D01*
X151021D01*
X151817Y127101D01*
X152426Y127710D01*
X152756Y128506D01*
Y129368D01*
X152426Y130164D01*
X151817Y130773D01*
X151021Y131102D01*
D02*
G37*
G36*
X199232Y133287D02*
X198091D01*
X196990Y132992D01*
X196002Y132422D01*
X195196Y131616D01*
X194626Y130628D01*
X194331Y129527D01*
Y128387D01*
X194626Y127285D01*
X195196Y126298D01*
X196002Y125491D01*
X196990Y124921D01*
X198091Y124626D01*
X199232D01*
X200333Y124921D01*
X201321Y125491D01*
X202127Y126298D01*
X202697Y127285D01*
X202992Y128387D01*
Y129527D01*
X202697Y130628D01*
X202127Y131616D01*
X201321Y132422D01*
X200333Y132992D01*
X199232Y133287D01*
D02*
G37*
G36*
X209232Y133268D02*
X208091D01*
X206990Y132973D01*
X206002Y132402D01*
X205196Y131596D01*
X204626Y130609D01*
X204331Y129507D01*
Y128367D01*
X204626Y127265D01*
X205196Y126278D01*
X206002Y125472D01*
X206990Y124901D01*
X208091Y124606D01*
X209232D01*
X210333Y124901D01*
X211320Y125472D01*
X212127Y126278D01*
X212697Y127265D01*
X212992Y128367D01*
Y129507D01*
X212697Y130609D01*
X212127Y131596D01*
X211320Y132402D01*
X210333Y132973D01*
X209232Y133268D01*
D02*
G37*
G36*
X189232D02*
X188091D01*
X186990Y132973D01*
X186002Y132402D01*
X185196Y131596D01*
X184626Y130609D01*
X184331Y129507D01*
Y128367D01*
X184626Y127265D01*
X185196Y126278D01*
X186002Y125472D01*
X186990Y124901D01*
X188091Y124606D01*
X189232D01*
X190333Y124901D01*
X191321Y125472D01*
X192127Y126278D01*
X192697Y127265D01*
X192992Y128367D01*
Y129507D01*
X192697Y130609D01*
X192127Y131596D01*
X191321Y132402D01*
X190333Y132973D01*
X189232Y133268D01*
D02*
G37*
G36*
X169232D02*
X168091D01*
X166990Y132973D01*
X166002Y132402D01*
X165196Y131596D01*
X164626Y130609D01*
X164331Y129507D01*
Y128367D01*
X164626Y127265D01*
X165196Y126278D01*
X166002Y125472D01*
X166990Y124901D01*
X168091Y124606D01*
X169232D01*
X170333Y124901D01*
X171320Y125472D01*
X172127Y126278D01*
X172697Y127265D01*
X172992Y128367D01*
Y129507D01*
X172697Y130609D01*
X172127Y131596D01*
X171320Y132402D01*
X170333Y132973D01*
X169232Y133268D01*
D02*
G37*
G36*
X159232D02*
X158091D01*
X156990Y132973D01*
X156002Y132402D01*
X155196Y131596D01*
X154626Y130609D01*
X154331Y129507D01*
Y128367D01*
X154626Y127265D01*
X155196Y126278D01*
X156002Y125472D01*
X156990Y124901D01*
X158091Y124606D01*
X159232D01*
X160333Y124901D01*
X161320Y125472D01*
X162127Y126278D01*
X162697Y127265D01*
X162992Y128367D01*
Y129507D01*
X162697Y130609D01*
X162127Y131596D01*
X161320Y132402D01*
X160333Y132973D01*
X159232Y133268D01*
D02*
G37*
G36*
X183097Y127937D02*
X179661D01*
Y124501D01*
X180415Y124703D01*
X181451Y125302D01*
X182297Y126147D01*
X182895Y127183D01*
X183097Y127937D01*
D02*
G37*
G36*
X177661D02*
X174226D01*
X174428Y127183D01*
X175026Y126147D01*
X175872Y125302D01*
X176908Y124703D01*
X177661Y124501D01*
Y127937D01*
D02*
G37*
G36*
X343179Y136614D02*
X341861D01*
X340567Y136357D01*
X339349Y135852D01*
X338253Y135120D01*
X337321Y134188D01*
X336589Y133091D01*
X336084Y131874D01*
X335827Y130580D01*
Y129262D01*
X336084Y127969D01*
X336589Y126751D01*
X337321Y125655D01*
X338253Y124723D01*
X339349Y123990D01*
X340567Y123486D01*
X341861Y123228D01*
X343179D01*
X344472Y123486D01*
X345690Y123990D01*
X346786Y124723D01*
X347718Y125655D01*
X348451Y126751D01*
X348955Y127969D01*
X349213Y129262D01*
Y130580D01*
X348955Y131874D01*
X348451Y133091D01*
X347718Y134188D01*
X346786Y135120D01*
X345690Y135852D01*
X344472Y136357D01*
X343179Y136614D01*
D02*
G37*
G36*
X130580D02*
X129262D01*
X127969Y136357D01*
X126751Y135852D01*
X125655Y135120D01*
X124723Y134188D01*
X123990Y133091D01*
X123486Y131874D01*
X123228Y130580D01*
Y129262D01*
X123486Y127969D01*
X123990Y126751D01*
X124723Y125655D01*
X125655Y124723D01*
X126751Y123990D01*
X127969Y123486D01*
X129262Y123228D01*
X130580D01*
X131874Y123486D01*
X133091Y123990D01*
X134188Y124723D01*
X135120Y125655D01*
X135852Y126751D01*
X136357Y127969D01*
X136614Y129262D01*
Y130580D01*
X136357Y131874D01*
X135852Y133091D01*
X135120Y134188D01*
X134188Y135120D01*
X133091Y135852D01*
X131874Y136357D01*
X130580Y136614D01*
D02*
G37*
G36*
X268906Y124812D02*
X265063D01*
X265306Y123906D01*
X265956Y122781D01*
X266875Y121861D01*
X268001Y121211D01*
X268906Y120969D01*
Y124812D01*
D02*
G37*
G36*
X300340D02*
X296497D01*
Y120969D01*
X297403Y121211D01*
X298528Y121861D01*
X299448Y122781D01*
X300098Y123906D01*
X300340Y124812D01*
D02*
G37*
G36*
X294497D02*
X290654D01*
X290897Y123906D01*
X291547Y122781D01*
X292466Y121861D01*
X293591Y121211D01*
X294497Y120969D01*
Y124812D01*
D02*
G37*
G36*
X274750D02*
X270906D01*
Y120969D01*
X271812Y121211D01*
X272938Y121861D01*
X273857Y122781D01*
X274507Y123906D01*
X274750Y124812D01*
D02*
G37*
%LPD*%
D103*
X328898Y244094D02*
D03*
X154724Y342284D02*
D03*
X328898Y232283D02*
D03*
X329921Y200709D02*
D03*
X178661Y128937D02*
D03*
X175197Y342677D02*
D03*
D107*
X311368Y297448D02*
D03*
D108*
X347558Y316935D02*
D03*
X316935Y347558D02*
D03*
D109*
X295497Y125812D02*
D03*
X269906D02*
D03*
D110*
X188976Y188976D02*
D03*
X246063Y321457D02*
D03*
X240843D02*
D03*
X246063Y326677D02*
D03*
X240843D02*
D03*
M02*
