G04*
G04 #@! TF.GenerationSoftware,Altium Limited,Altium Designer,24.4.1 (13)*
G04*
G04 Layer_Physical_Order=4*
G04 Layer_Color=16711680*
%FSLAX25Y25*%
%MOIN*%
G70*
G04*
G04 #@! TF.SameCoordinates,4848AC28-F08C-4A73-8BB8-69E0F556E231*
G04*
G04*
G04 #@! TF.FilePolarity,Positive*
G04*
G01*
G75*
%ADD13C,0.00787*%
G04:AMPARAMS|DCode=25|XSize=57.09mil|YSize=43.31mil|CornerRadius=5.41mil|HoleSize=0mil|Usage=FLASHONLY|Rotation=180.000|XOffset=0mil|YOffset=0mil|HoleType=Round|Shape=RoundedRectangle|*
%AMROUNDEDRECTD25*
21,1,0.05709,0.03248,0,0,180.0*
21,1,0.04626,0.04331,0,0,180.0*
1,1,0.01083,-0.02313,0.01624*
1,1,0.01083,0.02313,0.01624*
1,1,0.01083,0.02313,-0.01624*
1,1,0.01083,-0.02313,-0.01624*
%
%ADD25ROUNDEDRECTD25*%
G04:AMPARAMS|DCode=26|XSize=57.09mil|YSize=43.31mil|CornerRadius=5.41mil|HoleSize=0mil|Usage=FLASHONLY|Rotation=270.000|XOffset=0mil|YOffset=0mil|HoleType=Round|Shape=RoundedRectangle|*
%AMROUNDEDRECTD26*
21,1,0.05709,0.03248,0,0,270.0*
21,1,0.04626,0.04331,0,0,270.0*
1,1,0.01083,-0.01624,-0.02313*
1,1,0.01083,-0.01624,0.02313*
1,1,0.01083,0.01624,0.02313*
1,1,0.01083,0.01624,-0.02313*
%
%ADD26ROUNDEDRECTD26*%
G04:AMPARAMS|DCode=29|XSize=39.37mil|YSize=37.4mil|CornerRadius=4.68mil|HoleSize=0mil|Usage=FLASHONLY|Rotation=90.000|XOffset=0mil|YOffset=0mil|HoleType=Round|Shape=RoundedRectangle|*
%AMROUNDEDRECTD29*
21,1,0.03937,0.02805,0,0,90.0*
21,1,0.03002,0.03740,0,0,90.0*
1,1,0.00935,0.01403,0.01501*
1,1,0.00935,0.01403,-0.01501*
1,1,0.00935,-0.01403,-0.01501*
1,1,0.00935,-0.01403,0.01501*
%
%ADD29ROUNDEDRECTD29*%
G04:AMPARAMS|DCode=32|XSize=39.37mil|YSize=37.4mil|CornerRadius=4.68mil|HoleSize=0mil|Usage=FLASHONLY|Rotation=0.000|XOffset=0mil|YOffset=0mil|HoleType=Round|Shape=RoundedRectangle|*
%AMROUNDEDRECTD32*
21,1,0.03937,0.02805,0,0,0.0*
21,1,0.03002,0.03740,0,0,0.0*
1,1,0.00935,0.01501,-0.01403*
1,1,0.00935,-0.01501,-0.01403*
1,1,0.00935,-0.01501,0.01403*
1,1,0.00935,0.01501,0.01403*
%
%ADD32ROUNDEDRECTD32*%
%ADD95C,0.01181*%
%ADD103C,0.07087*%
%ADD104C,0.02559*%
%ADD105O,0.07087X0.03543*%
%ADD106O,0.08268X0.04134*%
%ADD107C,0.10039*%
%ADD108C,0.05906*%
%ADD109C,0.07874*%
%ADD110C,0.02756*%
%ADD111R,0.02756X0.03937*%
%ADD112R,0.03937X0.02756*%
G36*
X352451Y326948D02*
Y134534D01*
X352451Y134534D01*
X352451Y134534D01*
X352442Y134188D01*
X352309Y132503D01*
X352261Y132135D01*
X351756Y130034D01*
X350882Y127923D01*
X349753Y126081D01*
X349527Y125786D01*
X348353Y124411D01*
X348030Y124088D01*
X346655Y122914D01*
X346360Y122688D01*
X344518Y121559D01*
X342407Y120685D01*
X340306Y120180D01*
X339938Y120132D01*
X338136Y119990D01*
X337908D01*
X337907Y119990D01*
X133532D01*
X133527Y119990D01*
X133183Y119990D01*
X132837Y119999D01*
X131152Y120132D01*
X130784Y120180D01*
X128683Y120685D01*
X126572Y121559D01*
X124729Y122688D01*
X124435Y122914D01*
X123060Y124088D01*
X122737Y124411D01*
X121563Y125786D01*
X121337Y126081D01*
X120208Y127923D01*
X119334Y130034D01*
X118829Y132135D01*
X118781Y132503D01*
X118648Y134188D01*
X118639Y134534D01*
X118639D01*
Y338916D01*
X118639Y339258D01*
X118639D01*
X118648Y339604D01*
X118781Y341289D01*
X118829Y341657D01*
X119334Y343758D01*
X120208Y345869D01*
X121337Y347711D01*
X121563Y348006D01*
X122737Y349381D01*
X123060Y349704D01*
X124435Y350878D01*
X124730Y351104D01*
X126572Y352233D01*
X128683Y353107D01*
X130784Y353612D01*
X131152Y353660D01*
X132837Y353793D01*
X133183Y353802D01*
Y353802D01*
X133183Y353802D01*
X325597D01*
X352451Y326948D01*
D02*
G37*
%LPC*%
G36*
X317456Y351511D02*
X316415D01*
X315410Y351241D01*
X314938Y350969D01*
X316935Y348972D01*
X318932Y350969D01*
X318461Y351241D01*
X317456Y351511D01*
D02*
G37*
G36*
X313524Y349555D02*
X313252Y349084D01*
X312983Y348078D01*
Y347038D01*
X313252Y346032D01*
X313524Y345561D01*
X315521Y347558D01*
X313524Y349555D01*
D02*
G37*
G36*
X320346Y349555D02*
X318350Y347558D01*
X320346Y345561D01*
X320619Y346032D01*
X320888Y347038D01*
Y348078D01*
X320619Y349084D01*
X320346Y349555D01*
D02*
G37*
G36*
X176197Y347113D02*
Y343677D01*
X179632D01*
X179430Y344431D01*
X178832Y345467D01*
X177987Y346313D01*
X176951Y346911D01*
X176197Y347113D01*
D02*
G37*
G36*
X174197D02*
X173443Y346911D01*
X172407Y346313D01*
X171561Y345467D01*
X170963Y344431D01*
X170761Y343677D01*
X174197D01*
Y347113D01*
D02*
G37*
G36*
X316935Y346144D02*
X314938Y344147D01*
X315410Y343875D01*
X316415Y343605D01*
X317456D01*
X318461Y343875D01*
X318932Y344147D01*
X316935Y346144D01*
D02*
G37*
G36*
X155724Y346719D02*
Y343283D01*
X159160D01*
X158958Y344037D01*
X158360Y345073D01*
X157514Y345919D01*
X156478Y346517D01*
X155724Y346719D01*
D02*
G37*
G36*
X153724Y346719D02*
X152971Y346517D01*
X151935Y345919D01*
X151089Y345073D01*
X150491Y344037D01*
X150289Y343283D01*
X153724D01*
Y346719D01*
D02*
G37*
G36*
X174197Y341677D02*
X170761D01*
X170963Y340924D01*
X171561Y339887D01*
X172407Y339042D01*
X173443Y338443D01*
X174197Y338242D01*
Y341677D01*
D02*
G37*
G36*
X179632D02*
X176197D01*
Y338242D01*
X176951Y338443D01*
X177987Y339042D01*
X178832Y339887D01*
X179430Y340924D01*
X179632Y341677D01*
D02*
G37*
G36*
X159160Y341283D02*
X155724D01*
Y337848D01*
X156478Y338050D01*
X157514Y338648D01*
X158360Y339494D01*
X158958Y340530D01*
X159160Y341283D01*
D02*
G37*
G36*
X153724D02*
X150289D01*
X150491Y340530D01*
X151089Y339494D01*
X151935Y338648D01*
X152971Y338050D01*
X153724Y337848D01*
Y341283D01*
D02*
G37*
G36*
X130580Y349213D02*
X129262D01*
X127969Y348955D01*
X126751Y348451D01*
X125655Y347718D01*
X124723Y346786D01*
X123990Y345690D01*
X123486Y344472D01*
X123228Y343179D01*
Y341861D01*
X123486Y340567D01*
X123990Y339349D01*
X124723Y338253D01*
X125655Y337321D01*
X126751Y336589D01*
X127969Y336084D01*
X129262Y335827D01*
X130580D01*
X131874Y336084D01*
X133091Y336589D01*
X134188Y337321D01*
X135120Y338253D01*
X135852Y339349D01*
X136357Y340567D01*
X136614Y341861D01*
Y343179D01*
X136357Y344472D01*
X135852Y345690D01*
X135120Y346786D01*
X134188Y347718D01*
X133091Y348451D01*
X131874Y348955D01*
X130580Y349213D01*
D02*
G37*
G36*
X175767Y337008D02*
X174627D01*
X173525Y336713D01*
X172538Y336143D01*
X171731Y335336D01*
X171161Y334349D01*
X170866Y333247D01*
Y332107D01*
X171161Y331006D01*
X171731Y330018D01*
X172538Y329212D01*
X173525Y328642D01*
X174627Y328346D01*
X175767D01*
X176868Y328642D01*
X177856Y329212D01*
X178662Y330018D01*
X179232Y331006D01*
X179527Y332107D01*
Y333247D01*
X179232Y334349D01*
X178662Y335336D01*
X177856Y336143D01*
X176868Y336713D01*
X175767Y337008D01*
D02*
G37*
G36*
X155295Y336614D02*
X154154D01*
X153053Y336319D01*
X152065Y335749D01*
X151259Y334943D01*
X150689Y333955D01*
X150394Y332854D01*
Y331713D01*
X150689Y330612D01*
X151259Y329624D01*
X152065Y328818D01*
X153053Y328248D01*
X154154Y327953D01*
X155295D01*
X156396Y328248D01*
X157384Y328818D01*
X158190Y329624D01*
X158760Y330612D01*
X159055Y331713D01*
Y332854D01*
X158760Y333955D01*
X158190Y334943D01*
X157384Y335749D01*
X156396Y336319D01*
X155295Y336614D01*
D02*
G37*
G36*
X217754Y326181D02*
X216892D01*
X216096Y325851D01*
X215487Y325242D01*
X215158Y324447D01*
Y323585D01*
X215487Y322789D01*
X216096Y322180D01*
X216892Y321850D01*
X217754D01*
X218549Y322180D01*
X219159Y322789D01*
X219488Y323585D01*
Y324447D01*
X219159Y325242D01*
X218549Y325851D01*
X217754Y326181D01*
D02*
G37*
G36*
X256730Y329331D02*
X255869D01*
X255073Y329001D01*
X254464Y328392D01*
X254134Y327596D01*
Y326735D01*
X254464Y325939D01*
X255073Y325330D01*
X255095Y325320D01*
Y324228D01*
X247652D01*
X247344Y324167D01*
X247084Y323993D01*
X246910Y323732D01*
X246910Y323732D01*
X246765Y323382D01*
X246765Y323382D01*
X246704Y323075D01*
X246765Y322768D01*
X246939Y322508D01*
X247218Y322229D01*
X247426Y321728D01*
Y321186D01*
X247218Y320685D01*
X246835Y320302D01*
X246334Y320094D01*
X245792D01*
X245291Y320302D01*
X244908Y320685D01*
X244701Y321186D01*
Y321728D01*
X244908Y322229D01*
X245187Y322508D01*
X245361Y322768D01*
X245422Y323075D01*
X245361Y323382D01*
X245361Y323382D01*
X245216Y323732D01*
X245216Y323732D01*
X245042Y323993D01*
X244781Y324167D01*
X244474Y324228D01*
X242431D01*
X242124Y324167D01*
X241864Y323993D01*
X241689Y323732D01*
X241689Y323732D01*
X241545Y323382D01*
X241545Y323382D01*
X241483Y323075D01*
X241545Y322768D01*
X241719Y322508D01*
X241998Y322229D01*
X242205Y321728D01*
Y321186D01*
X241998Y320685D01*
X241614Y320302D01*
X241113Y320094D01*
X240571D01*
X240071Y320302D01*
X239687Y320685D01*
X239480Y321186D01*
Y321728D01*
X239687Y322229D01*
X239966Y322508D01*
X240141Y322768D01*
X240201Y323075D01*
X240140Y323382D01*
X240140Y323382D01*
X239996Y323732D01*
X239996Y323732D01*
X239821Y323993D01*
X239561Y324167D01*
X239254Y324228D01*
X227254D01*
X226947Y324167D01*
X226686Y323993D01*
X226512Y323732D01*
X226451Y323425D01*
Y313794D01*
X226451Y313793D01*
X226451Y313793D01*
X226482Y313640D01*
X226512Y313486D01*
X226513Y313486D01*
X226513Y313486D01*
X226598Y313358D01*
X226686Y313226D01*
X226687Y313226D01*
X226687Y313225D01*
X226935Y312978D01*
X226935Y312978D01*
X226935Y312978D01*
X227066Y312891D01*
X227195Y312804D01*
X227196Y312804D01*
X227196Y312804D01*
X227347Y312774D01*
X227503Y312743D01*
X227503Y312744D01*
X227503Y312743D01*
X263781Y312819D01*
X263933Y312849D01*
X264087Y312880D01*
X264088Y312880D01*
X264088Y312880D01*
X264217Y312967D01*
X264347Y313054D01*
X264348Y313054D01*
X264348Y313055D01*
X264435Y313184D01*
X264521Y313314D01*
X264521Y313315D01*
X264522Y313316D01*
X264552Y313468D01*
X264582Y313621D01*
Y323425D01*
X264521Y323732D01*
X264347Y323993D01*
X264087Y324167D01*
X263779Y324228D01*
X257504D01*
Y325320D01*
X257526Y325330D01*
X258135Y325939D01*
X258465Y326735D01*
Y327596D01*
X258135Y328392D01*
X257526Y329001D01*
X256730Y329331D01*
D02*
G37*
G36*
X348078Y320888D02*
X347038D01*
X346032Y320619D01*
X345561Y320347D01*
X347558Y318350D01*
X349555Y320347D01*
X349084Y320619D01*
X348078Y320888D01*
D02*
G37*
G36*
X155295Y326614D02*
X154154D01*
X153053Y326319D01*
X152065Y325749D01*
X151259Y324943D01*
X150689Y323955D01*
X150394Y322854D01*
Y321713D01*
X150689Y320612D01*
X151259Y319624D01*
X152065Y318818D01*
X153053Y318248D01*
X154154Y317953D01*
X155295D01*
X156396Y318248D01*
X157384Y318818D01*
X158190Y319624D01*
X158760Y320612D01*
X159055Y321713D01*
Y322854D01*
X158760Y323955D01*
X158190Y324943D01*
X157384Y325749D01*
X156396Y326319D01*
X155295Y326614D01*
D02*
G37*
G36*
X350969Y318932D02*
X348972Y316935D01*
X350969Y314938D01*
X351241Y315410D01*
X351511Y316415D01*
Y317456D01*
X351241Y318461D01*
X350969Y318932D01*
D02*
G37*
G36*
X344147Y318932D02*
X343875Y318461D01*
X343605Y317456D01*
Y316415D01*
X343875Y315410D01*
X344147Y314938D01*
X346144Y316935D01*
X344147Y318932D01*
D02*
G37*
G36*
X347558Y315521D02*
X345561Y313524D01*
X346032Y313252D01*
X347038Y312983D01*
X348078D01*
X349084Y313252D01*
X349555Y313524D01*
X347558Y315521D01*
D02*
G37*
G36*
X298020Y317175D02*
X296876D01*
X295754Y316951D01*
X294697Y316514D01*
X293746Y315878D01*
X292937Y315069D01*
X292302Y314118D01*
X291864Y313061D01*
X291641Y311940D01*
Y310796D01*
X291864Y309674D01*
X292302Y308617D01*
X292937Y307666D01*
X293746Y306857D01*
X294697Y306221D01*
X295754Y305784D01*
X296876Y305560D01*
X298020D01*
X299142Y305784D01*
X300199Y306221D01*
X301150Y306857D01*
X301959Y307666D01*
X302594Y308617D01*
X303032Y309674D01*
X303255Y310796D01*
Y311940D01*
X303032Y313061D01*
X302594Y314118D01*
X301959Y315069D01*
X301150Y315878D01*
X300199Y316514D01*
X299142Y316951D01*
X298020Y317175D01*
D02*
G37*
G36*
X311960Y303468D02*
X310775D01*
X309612Y303237D01*
X308516Y302783D01*
X307875Y302355D01*
X311368Y298862D01*
X314860Y302355D01*
X314219Y302783D01*
X313123Y303237D01*
X311960Y303468D01*
D02*
G37*
G36*
X157517Y302559D02*
X156656D01*
X155860Y302229D01*
X155251Y301620D01*
X154921Y300824D01*
Y299963D01*
X155251Y299167D01*
X155860Y298558D01*
X156656Y298228D01*
X157517D01*
X158313Y298558D01*
X158922Y299167D01*
X159252Y299963D01*
Y300824D01*
X158922Y301620D01*
X158313Y302229D01*
X157517Y302559D01*
D02*
G37*
G36*
X306461Y300940D02*
X306033Y300300D01*
X305579Y299204D01*
X305348Y298041D01*
Y296855D01*
X305579Y295692D01*
X306033Y294597D01*
X306461Y293956D01*
X309953Y297448D01*
X306461Y300940D01*
D02*
G37*
G36*
X316274Y300940D02*
X312782Y297448D01*
X316274Y293956D01*
X316702Y294597D01*
X317156Y295692D01*
X317387Y296855D01*
Y298041D01*
X317156Y299204D01*
X316702Y300300D01*
X316274Y300940D01*
D02*
G37*
G36*
X311368Y296034D02*
X307875Y292542D01*
X308516Y292113D01*
X309612Y291660D01*
X310775Y291428D01*
X311960D01*
X313123Y291660D01*
X314219Y292113D01*
X314860Y292542D01*
X311368Y296034D01*
D02*
G37*
G36*
X157517Y294291D02*
X156656D01*
X155860Y293962D01*
X155251Y293353D01*
X154921Y292557D01*
Y291695D01*
X155251Y290899D01*
X155860Y290290D01*
X156656Y289961D01*
X157517D01*
X158313Y290290D01*
X158922Y290899D01*
X159252Y291695D01*
Y292557D01*
X158922Y293353D01*
X158313Y293962D01*
X157517Y294291D01*
D02*
G37*
G36*
X330155Y282874D02*
X329294D01*
X328498Y282544D01*
X327889Y281935D01*
X327559Y281139D01*
Y280278D01*
X327889Y279482D01*
X328498Y278873D01*
X329294Y278543D01*
X330155D01*
X330951Y278873D01*
X331560Y279482D01*
X331890Y280278D01*
Y281139D01*
X331560Y281935D01*
X330951Y282544D01*
X330155Y282874D01*
D02*
G37*
G36*
X323265D02*
X322404D01*
X321608Y282544D01*
X320999Y281935D01*
X320669Y281139D01*
Y280278D01*
X320999Y279482D01*
X321608Y278873D01*
X322404Y278543D01*
X323265D01*
X324061Y278873D01*
X324670Y279482D01*
X325000Y280278D01*
Y281139D01*
X324670Y281935D01*
X324061Y282544D01*
X323265Y282874D01*
D02*
G37*
G36*
X317360D02*
X316498D01*
X315703Y282544D01*
X315093Y281935D01*
X314764Y281139D01*
Y280278D01*
X315093Y279482D01*
X315703Y278873D01*
X316498Y278543D01*
X317360D01*
X318156Y278873D01*
X318765Y279482D01*
X319094Y280278D01*
Y281139D01*
X318765Y281935D01*
X318156Y282544D01*
X317360Y282874D01*
D02*
G37*
G36*
X157517Y277756D02*
X156656D01*
X155860Y277426D01*
X155251Y276817D01*
X154921Y276021D01*
Y275160D01*
X155251Y274364D01*
X155860Y273755D01*
X156656Y273425D01*
X157517D01*
X158313Y273755D01*
X158922Y274364D01*
X159252Y275160D01*
Y276021D01*
X158922Y276817D01*
X158313Y277426D01*
X157517Y277756D01*
D02*
G37*
G36*
X330155Y275984D02*
X329294D01*
X328498Y275655D01*
X327889Y275045D01*
X327559Y274250D01*
Y273388D01*
X327889Y272592D01*
X328498Y271983D01*
X329294Y271654D01*
X330155D01*
X330951Y271983D01*
X331560Y272592D01*
X331890Y273388D01*
Y274250D01*
X331560Y275045D01*
X330951Y275655D01*
X330155Y275984D01*
D02*
G37*
G36*
X323265D02*
X322404D01*
X321608Y275655D01*
X320999Y275045D01*
X320669Y274250D01*
Y273388D01*
X320999Y272592D01*
X321608Y271983D01*
X322404Y271654D01*
X323265D01*
X324061Y271983D01*
X324670Y272592D01*
X325000Y273388D01*
Y274250D01*
X324670Y275045D01*
X324061Y275655D01*
X323265Y275984D01*
D02*
G37*
G36*
X317360D02*
X316498D01*
X315703Y275655D01*
X315093Y275045D01*
X314764Y274250D01*
Y273388D01*
X315093Y272592D01*
X315703Y271983D01*
X316498Y271654D01*
X317360D01*
X318156Y271983D01*
X318765Y272592D01*
X319094Y273388D01*
Y274250D01*
X318765Y275045D01*
X318156Y275655D01*
X317360Y275984D01*
D02*
G37*
G36*
X174053Y281299D02*
X173191D01*
X172396Y280970D01*
X171786Y280360D01*
X171457Y279565D01*
Y278703D01*
X171786Y277907D01*
X172396Y277298D01*
X173191Y276969D01*
X173543D01*
X173604Y276954D01*
X173670Y276951D01*
X173697Y276947D01*
X173727Y276940D01*
X173763Y276928D01*
X173804Y276910D01*
X173852Y276884D01*
X173906Y276850D01*
X173958Y276811D01*
X185343Y265426D01*
X185145Y265129D01*
X185076Y265158D01*
X184215D01*
X183419Y264828D01*
X182810Y264219D01*
X182480Y263423D01*
Y262561D01*
X182810Y261766D01*
X183419Y261156D01*
X184215Y260827D01*
X185076D01*
X185872Y261156D01*
X186481Y261766D01*
X186811Y262561D01*
Y263423D01*
X186783Y263491D01*
X187079Y263690D01*
X237195Y213574D01*
X237651Y213269D01*
X238189Y213162D01*
X256782D01*
X256846Y213153D01*
X256908Y213139D01*
X256960Y213123D01*
X257002Y213107D01*
X257036Y213090D01*
X257063Y213074D01*
X257084Y213057D01*
X257132Y213013D01*
X257186Y212980D01*
X257435Y212731D01*
X258231Y212402D01*
X259092D01*
X259888Y212731D01*
X260497Y213340D01*
X260827Y214136D01*
Y214156D01*
X261150Y214289D01*
X267099Y208341D01*
Y171448D01*
X235282Y139631D01*
X210738D01*
X210674Y139640D01*
X210611Y139654D01*
X210559Y139670D01*
X210517Y139686D01*
X210484Y139703D01*
X210457Y139719D01*
X210435Y139736D01*
X210387Y139780D01*
X210333Y139813D01*
X210085Y140062D01*
X209289Y140391D01*
X208428D01*
X207632Y140062D01*
X207023Y139453D01*
X206693Y138657D01*
Y137795D01*
X207023Y136999D01*
X207632Y136390D01*
X208428Y136061D01*
X209289D01*
X210085Y136390D01*
X210333Y136639D01*
X210387Y136672D01*
X210435Y136716D01*
X210457Y136733D01*
X210484Y136749D01*
X210517Y136766D01*
X210559Y136782D01*
X210611Y136798D01*
X210674Y136812D01*
X210738Y136821D01*
X235864D01*
X236401Y136928D01*
X236857Y137232D01*
X269497Y169873D01*
X269802Y170328D01*
X269909Y170866D01*
Y202174D01*
X270259Y202280D01*
X270351Y202142D01*
X270791Y201849D01*
X271309Y201746D01*
X272205D01*
X272211Y201709D01*
X272217Y201636D01*
Y200698D01*
X272208Y200635D01*
X272194Y200572D01*
X272178Y200520D01*
X272162Y200478D01*
X272145Y200444D01*
X272129Y200418D01*
X272112Y200396D01*
X272068Y200348D01*
X272035Y200294D01*
X271786Y200045D01*
X271457Y199250D01*
Y198388D01*
X271786Y197592D01*
X272395Y196983D01*
X273191Y196653D01*
X274053D01*
X274849Y196983D01*
X275097Y197232D01*
X275151Y197265D01*
X275199Y197309D01*
X275221Y197326D01*
X275248Y197342D01*
X275281Y197359D01*
X275323Y197375D01*
X275375Y197391D01*
X275438Y197405D01*
X275501Y197414D01*
X278703D01*
X278776Y197408D01*
X278813Y197401D01*
Y197195D01*
X278916Y196676D01*
X279209Y196237D01*
X279649Y195943D01*
X280167Y195840D01*
X284793D01*
X285312Y195943D01*
X285751Y196237D01*
X286045Y196676D01*
X286148Y197195D01*
Y200443D01*
X286045Y200961D01*
X285751Y201401D01*
X285312Y201694D01*
X284793Y201798D01*
X280167D01*
X279649Y201694D01*
X279209Y201401D01*
X278916Y200961D01*
X278813Y200443D01*
Y200236D01*
X278776Y200230D01*
X278703Y200224D01*
X275501D01*
X275438Y200233D01*
X275375Y200247D01*
X275323Y200263D01*
X275281Y200279D01*
X275248Y200296D01*
X275221Y200312D01*
X275199Y200329D01*
X275164Y200361D01*
X275132Y200396D01*
X275115Y200418D01*
X275099Y200444D01*
X275082Y200478D01*
X275066Y200520D01*
X275050Y200572D01*
X275036Y200635D01*
X275027Y200698D01*
Y201636D01*
X275033Y201709D01*
X275039Y201746D01*
X275935D01*
X276453Y201849D01*
X276893Y202142D01*
X277187Y202582D01*
X277290Y203100D01*
Y206348D01*
X277187Y206867D01*
X276893Y207306D01*
X276453Y207600D01*
X275935Y207703D01*
X271309D01*
X270791Y207600D01*
X270351Y207306D01*
X270259Y207168D01*
X269909Y207275D01*
Y208923D01*
X269802Y209460D01*
X269497Y209916D01*
X258735Y220678D01*
X258279Y220983D01*
X257741Y221090D01*
X250698D01*
X250635Y221099D01*
X250572Y221113D01*
X250520Y221129D01*
X250478Y221145D01*
X250444Y221162D01*
X250418Y221178D01*
X250396Y221195D01*
X250348Y221239D01*
X250294Y221272D01*
X250045Y221521D01*
X249250Y221850D01*
X248388D01*
X247592Y221521D01*
X246983Y220912D01*
X246654Y220116D01*
Y219254D01*
X246983Y218459D01*
X247592Y217849D01*
X248388Y217520D01*
X249250D01*
X250045Y217849D01*
X250294Y218098D01*
X250348Y218131D01*
X250396Y218175D01*
X250418Y218192D01*
X250444Y218208D01*
X250478Y218225D01*
X250520Y218241D01*
X250572Y218257D01*
X250635Y218271D01*
X250698Y218280D01*
X257159D01*
X258384Y217056D01*
X258250Y216732D01*
X258231D01*
X257435Y216403D01*
X257186Y216154D01*
X257132Y216121D01*
X257084Y216077D01*
X257063Y216060D01*
X257036Y216044D01*
X257002Y216027D01*
X256960Y216011D01*
X256908Y215995D01*
X256846Y215981D01*
X256782Y215972D01*
X238771D01*
X175944Y278798D01*
X175906Y278850D01*
X175872Y278904D01*
X175846Y278952D01*
X175828Y278993D01*
X175816Y279029D01*
X175809Y279059D01*
X175805Y279086D01*
X175802Y279152D01*
X175787Y279213D01*
Y279565D01*
X175458Y280360D01*
X174849Y280970D01*
X174053Y281299D01*
D02*
G37*
G36*
X330155Y268110D02*
X329294D01*
X328498Y267781D01*
X327889Y267171D01*
X327559Y266376D01*
Y265514D01*
X327889Y264718D01*
X328498Y264109D01*
X329294Y263779D01*
X330155D01*
X330951Y264109D01*
X331560Y264718D01*
X331890Y265514D01*
Y266376D01*
X331560Y267171D01*
X330951Y267781D01*
X330155Y268110D01*
D02*
G37*
G36*
X323265D02*
X322404D01*
X321608Y267781D01*
X320999Y267171D01*
X320669Y266376D01*
Y265514D01*
X320999Y264718D01*
X321608Y264109D01*
X322404Y263779D01*
X323265D01*
X324061Y264109D01*
X324670Y264718D01*
X325000Y265514D01*
Y266376D01*
X324670Y267171D01*
X324061Y267781D01*
X323265Y268110D01*
D02*
G37*
G36*
X317360D02*
X316498D01*
X315703Y267781D01*
X315093Y267171D01*
X314764Y266376D01*
Y265514D01*
X315093Y264718D01*
X315703Y264109D01*
X316498Y263779D01*
X317360D01*
X318156Y264109D01*
X318765Y264718D01*
X319094Y265514D01*
Y266376D01*
X318765Y267171D01*
X318156Y267781D01*
X317360Y268110D01*
D02*
G37*
G36*
X157517Y286024D02*
X156656D01*
X155860Y285694D01*
X155251Y285085D01*
X154921Y284289D01*
Y283428D01*
X155251Y282632D01*
X155860Y282023D01*
X156656Y281693D01*
X157517D01*
X158313Y282023D01*
X158562Y282271D01*
X158616Y282304D01*
X158664Y282348D01*
X158686Y282365D01*
X158712Y282382D01*
X158746Y282398D01*
X158788Y282415D01*
X158840Y282430D01*
X158902Y282444D01*
X158966Y282453D01*
X204985D01*
X264506Y222932D01*
X264544Y222881D01*
X264579Y222827D01*
X264605Y222779D01*
X264623Y222738D01*
X264635Y222702D01*
X264642Y222672D01*
X264646Y222644D01*
X264648Y222579D01*
X264663Y222518D01*
Y222166D01*
X264993Y221370D01*
X265602Y220761D01*
X266398Y220431D01*
X267259D01*
X268055Y220761D01*
X268664Y221370D01*
X268994Y222166D01*
Y223027D01*
X268664Y223823D01*
X268055Y224432D01*
X267259Y224762D01*
X266908D01*
X266846Y224777D01*
X266781Y224780D01*
X266754Y224783D01*
X266723Y224791D01*
X266688Y224802D01*
X266646Y224820D01*
X266599Y224846D01*
X266544Y224881D01*
X266493Y224919D01*
X237208Y254204D01*
X237342Y254528D01*
X237570D01*
X238366Y254857D01*
X238975Y255466D01*
X239246Y256122D01*
X239625D01*
X239897Y255466D01*
X240506Y254857D01*
X241302Y254528D01*
X242163D01*
X242959Y254857D01*
X243568Y255466D01*
X243839Y256122D01*
X244218D01*
X244490Y255466D01*
X245099Y254857D01*
X245895Y254528D01*
X246756D01*
X247552Y254857D01*
X248161Y255466D01*
X248433Y256122D01*
X248812D01*
X249083Y255466D01*
X249692Y254857D01*
X250488Y254528D01*
X251349D01*
X252145Y254857D01*
X252754Y255466D01*
X253084Y256262D01*
Y257124D01*
X252754Y257920D01*
X252145Y258529D01*
X251349Y258858D01*
X250488D01*
X249692Y258529D01*
X249083Y257920D01*
X248812Y257264D01*
X248433D01*
X248161Y257920D01*
X247552Y258529D01*
X246756Y258858D01*
X245895D01*
X245099Y258529D01*
X244490Y257920D01*
X244218Y257264D01*
X243839D01*
X243568Y257920D01*
X242959Y258529D01*
X242163Y258858D01*
X241302D01*
X240506Y258529D01*
X239897Y257920D01*
X239625Y257264D01*
X239246D01*
X238975Y257920D01*
X238366Y258529D01*
X237570Y258858D01*
X236708D01*
X235912Y258529D01*
X235303Y257920D01*
X234974Y257124D01*
Y256896D01*
X234650Y256762D01*
X206560Y284852D01*
X206105Y285156D01*
X205567Y285263D01*
X158966D01*
X158903Y285273D01*
X158840Y285286D01*
X158788Y285302D01*
X158746Y285318D01*
X158712Y285335D01*
X158686Y285351D01*
X158664Y285368D01*
X158616Y285412D01*
X158562Y285445D01*
X158313Y285694D01*
X157517Y286024D01*
D02*
G37*
G36*
X127756Y256794D02*
X124213D01*
X123545Y256706D01*
X122922Y256448D01*
X122388Y256038D01*
X121977Y255503D01*
X121719Y254881D01*
X121632Y254213D01*
X121719Y253545D01*
X121977Y252922D01*
X122388Y252387D01*
X122922Y251977D01*
X123545Y251719D01*
X124213Y251631D01*
X127756D01*
X128424Y251719D01*
X129046Y251977D01*
X129581Y252387D01*
X129991Y252922D01*
X130249Y253545D01*
X130337Y254213D01*
X130249Y254881D01*
X129991Y255503D01*
X129581Y256038D01*
X129046Y256448D01*
X128424Y256706D01*
X127756Y256794D01*
D02*
G37*
G36*
X144508Y257092D02*
X140374D01*
X139629Y256994D01*
X138935Y256706D01*
X138338Y256248D01*
X137881Y255652D01*
X137593Y254958D01*
X137495Y254213D01*
X137593Y253467D01*
X137881Y252773D01*
X138338Y252177D01*
X138935Y251719D01*
X139629Y251432D01*
X140374Y251334D01*
X144508D01*
X145253Y251432D01*
X145947Y251719D01*
X146544Y252177D01*
X147001Y252773D01*
X147289Y253467D01*
X147387Y254213D01*
X147289Y254958D01*
X147001Y255652D01*
X146544Y256248D01*
X145947Y256706D01*
X145253Y256994D01*
X144508Y257092D01*
D02*
G37*
G36*
X140884Y250650D02*
X140061D01*
X139302Y250335D01*
X138720Y249753D01*
X138406Y248994D01*
Y248171D01*
X138720Y247412D01*
X139302Y246830D01*
X140061Y246516D01*
X140884D01*
X141643Y246830D01*
X142225Y247412D01*
X142539Y248171D01*
Y248994D01*
X142225Y249753D01*
X141643Y250335D01*
X140884Y250650D01*
D02*
G37*
G36*
X329898Y248530D02*
Y245094D01*
X333333D01*
X333131Y245848D01*
X332533Y246884D01*
X331687Y247730D01*
X330651Y248328D01*
X329898Y248530D01*
D02*
G37*
G36*
X327898D02*
X327144Y248328D01*
X326108Y247730D01*
X325262Y246884D01*
X324664Y245848D01*
X324462Y245094D01*
X327898D01*
Y248530D01*
D02*
G37*
G36*
X319468Y248425D02*
X318327D01*
X317226Y248130D01*
X316238Y247560D01*
X315432Y246754D01*
X314862Y245766D01*
X314567Y244665D01*
Y243524D01*
X314862Y242423D01*
X315432Y241435D01*
X316238Y240629D01*
X317226Y240059D01*
X318327Y239764D01*
X319468D01*
X320569Y240059D01*
X321557Y240629D01*
X322363Y241435D01*
X322933Y242423D01*
X323228Y243524D01*
Y244665D01*
X322933Y245766D01*
X322363Y246754D01*
X321557Y247560D01*
X320569Y248130D01*
X319468Y248425D01*
D02*
G37*
G36*
X333333Y243094D02*
X329898D01*
Y239659D01*
X330651Y239861D01*
X331687Y240459D01*
X332533Y241305D01*
X333131Y242341D01*
X333333Y243094D01*
D02*
G37*
G36*
X327898D02*
X324462D01*
X324664Y242341D01*
X325262Y241305D01*
X326108Y240459D01*
X327144Y239861D01*
X327898Y239659D01*
Y243094D01*
D02*
G37*
G36*
X329898Y236719D02*
Y233283D01*
X333333D01*
X333131Y234037D01*
X332533Y235073D01*
X331687Y235919D01*
X330651Y236517D01*
X329898Y236719D01*
D02*
G37*
G36*
X327898D02*
X327144Y236517D01*
X326108Y235919D01*
X325262Y235073D01*
X324664Y234037D01*
X324462Y233283D01*
X327898D01*
Y236719D01*
D02*
G37*
G36*
X238829Y234200D02*
X238205D01*
Y231315D01*
X240400D01*
Y232628D01*
X240281Y233229D01*
X239940Y233739D01*
X239430Y234080D01*
X238829Y234200D01*
D02*
G37*
G36*
X236205D02*
X235581D01*
X234979Y234080D01*
X234470Y233739D01*
X234129Y233229D01*
X234009Y232628D01*
Y231315D01*
X236205D01*
Y234200D01*
D02*
G37*
G36*
X319468Y236614D02*
X318327D01*
X317226Y236319D01*
X316238Y235749D01*
X315432Y234943D01*
X314862Y233955D01*
X314567Y232854D01*
Y231713D01*
X314862Y230612D01*
X315432Y229624D01*
X316238Y228818D01*
X317226Y228248D01*
X318327Y227953D01*
X319468D01*
X320569Y228248D01*
X321557Y228818D01*
X322363Y229624D01*
X322933Y230612D01*
X323228Y231713D01*
Y232854D01*
X322933Y233955D01*
X322363Y234943D01*
X321557Y235749D01*
X320569Y236319D01*
X319468Y236614D01*
D02*
G37*
G36*
X333333Y231283D02*
X329898D01*
Y227848D01*
X330651Y228050D01*
X331687Y228648D01*
X332533Y229494D01*
X333131Y230530D01*
X333333Y231283D01*
D02*
G37*
G36*
X327898D02*
X324462D01*
X324664Y230530D01*
X325262Y229494D01*
X326108Y228648D01*
X327144Y228050D01*
X327898Y227848D01*
Y231283D01*
D02*
G37*
G36*
X240400Y229315D02*
X238205D01*
Y226430D01*
X238829D01*
X239430Y226550D01*
X239940Y226891D01*
X240281Y227401D01*
X240400Y228002D01*
Y229315D01*
D02*
G37*
G36*
X236205D02*
X234009D01*
Y228002D01*
X234129Y227401D01*
X234470Y226891D01*
X234979Y226550D01*
X235581Y226430D01*
X236205D01*
Y229315D01*
D02*
G37*
G36*
X246703Y233983D02*
X243455D01*
X242936Y233880D01*
X242497Y233586D01*
X242203Y233146D01*
X242100Y232628D01*
Y228002D01*
X242203Y227484D01*
X242497Y227044D01*
X242936Y226750D01*
X243455Y226647D01*
X243563D01*
X243569Y226610D01*
X243575Y226538D01*
Y225973D01*
X243225Y225828D01*
X243141Y225913D01*
X242345Y226243D01*
X241483D01*
X240687Y225913D01*
X240078Y225304D01*
X239749Y224508D01*
Y223647D01*
X240078Y222851D01*
X240687Y222242D01*
X241483Y221912D01*
X242345D01*
X243141Y222242D01*
X243335Y222436D01*
X243373Y222458D01*
X243424Y222501D01*
X243450Y222519D01*
X243481Y222537D01*
X243520Y222555D01*
X243567Y222572D01*
X243623Y222588D01*
X243690Y222602D01*
X243755Y222611D01*
X244532D01*
X245070Y222718D01*
X245525Y223022D01*
X245974Y223471D01*
X246278Y223926D01*
X246385Y224464D01*
Y226538D01*
X246392Y226610D01*
X246398Y226647D01*
X246703D01*
X247221Y226750D01*
X247661Y227044D01*
X247954Y227484D01*
X248058Y228002D01*
Y232628D01*
X247954Y233146D01*
X247661Y233586D01*
X247221Y233880D01*
X246703Y233983D01*
D02*
G37*
G36*
X140884Y227894D02*
X140061D01*
X139302Y227579D01*
X138720Y226998D01*
X138406Y226238D01*
Y225416D01*
X138720Y224656D01*
X139302Y224075D01*
X140061Y223760D01*
X140884D01*
X141643Y224075D01*
X142225Y224656D01*
X142539Y225416D01*
Y226238D01*
X142225Y226998D01*
X141643Y227579D01*
X140884Y227894D01*
D02*
G37*
G36*
X284793Y223451D02*
X280167D01*
X279649Y223348D01*
X279209Y223054D01*
X278916Y222615D01*
X278813Y222096D01*
Y221890D01*
X278776Y221884D01*
X278703Y221877D01*
X276486D01*
X276422Y221887D01*
X276359Y221901D01*
X276307Y221916D01*
X276266Y221933D01*
X276232Y221949D01*
X276205Y221966D01*
X276183Y221982D01*
X276135Y222026D01*
X276081Y222059D01*
X275833Y222308D01*
X275037Y222638D01*
X274176D01*
X273380Y222308D01*
X272771Y221699D01*
X272441Y220903D01*
Y220042D01*
X272771Y219246D01*
X273380Y218637D01*
X274176Y218307D01*
X275037D01*
X275833Y218637D01*
X276081Y218885D01*
X276135Y218918D01*
X276183Y218963D01*
X276205Y218979D01*
X276232Y218996D01*
X276265Y219012D01*
X276307Y219029D01*
X276359Y219044D01*
X276422Y219058D01*
X276486Y219068D01*
X278703D01*
X278776Y219061D01*
X278813Y219055D01*
Y218848D01*
X278916Y218330D01*
X279209Y217891D01*
X279649Y217597D01*
X280167Y217494D01*
X284793D01*
X285312Y217597D01*
X285751Y217891D01*
X286045Y218330D01*
X286148Y218848D01*
Y222096D01*
X286045Y222615D01*
X285751Y223054D01*
X285312Y223348D01*
X284793Y223451D01*
D02*
G37*
G36*
X127756Y222778D02*
X124213D01*
X123545Y222690D01*
X122922Y222432D01*
X122388Y222022D01*
X121977Y221487D01*
X121719Y220865D01*
X121632Y220197D01*
X121719Y219529D01*
X121977Y218906D01*
X122388Y218372D01*
X122922Y217962D01*
X123545Y217704D01*
X124213Y217616D01*
X127756D01*
X128424Y217704D01*
X129046Y217962D01*
X129581Y218372D01*
X129991Y218906D01*
X130249Y219529D01*
X130337Y220197D01*
X130249Y220865D01*
X129991Y221487D01*
X129581Y222022D01*
X129046Y222432D01*
X128424Y222690D01*
X127756Y222778D01*
D02*
G37*
G36*
X144508Y223076D02*
X140374D01*
X139629Y222978D01*
X138935Y222690D01*
X138338Y222233D01*
X137881Y221636D01*
X137593Y220942D01*
X137495Y220197D01*
X137593Y219452D01*
X137881Y218757D01*
X138338Y218161D01*
X138935Y217704D01*
X139629Y217416D01*
X140374Y217318D01*
X144508D01*
X145253Y217416D01*
X145947Y217704D01*
X146544Y218161D01*
X147001Y218757D01*
X147289Y219452D01*
X147387Y220197D01*
X147289Y220942D01*
X147001Y221636D01*
X146544Y222233D01*
X145947Y222690D01*
X145253Y222978D01*
X144508Y223076D01*
D02*
G37*
G36*
X185864Y231299D02*
X185002D01*
X184206Y230970D01*
X183597Y230360D01*
X183268Y229565D01*
Y228703D01*
X183597Y227907D01*
X183704Y227801D01*
X183723Y227767D01*
X183742Y227726D01*
X183761Y227676D01*
X183779Y227618D01*
X183795Y227551D01*
X183806Y227484D01*
X183816Y227384D01*
Y183642D01*
X183847Y183484D01*
Y182665D01*
X183524Y182531D01*
X183510Y182544D01*
X182714Y182874D01*
X181853D01*
X181365Y182672D01*
X181097Y182940D01*
X181299Y183428D01*
Y184289D01*
X180970Y185085D01*
X180360Y185694D01*
X179565Y186024D01*
X178703D01*
X178453Y185920D01*
X178185Y186188D01*
X178347Y186577D01*
Y187439D01*
X178017Y188234D01*
X177408Y188844D01*
X176612Y189173D01*
X175750D01*
X174954Y188844D01*
X174345Y188234D01*
X174016Y187439D01*
Y186577D01*
X174345Y185781D01*
X174954Y185172D01*
X175750Y184843D01*
X176612D01*
X176862Y184946D01*
X177130Y184678D01*
X176969Y184289D01*
Y183428D01*
X177298Y182632D01*
X177907Y182023D01*
X178703Y181693D01*
X179565D01*
X180052Y181895D01*
X180320Y181627D01*
X180118Y181139D01*
Y180278D01*
X180448Y179482D01*
X181057Y178873D01*
X181853Y178543D01*
X182714D01*
X183510Y178873D01*
X183524Y178887D01*
X183847Y178753D01*
Y146109D01*
X171553Y133816D01*
X171542Y133806D01*
X171400Y133714D01*
X171214Y133623D01*
X170985Y133537D01*
X170711Y133460D01*
X170393Y133395D01*
X170041Y133344D01*
X169178Y133286D01*
X168691Y133283D01*
X168617Y133268D01*
X168091D01*
X166990Y132973D01*
X166002Y132402D01*
X165196Y131596D01*
X164626Y130609D01*
X164331Y129507D01*
Y128367D01*
X164626Y127265D01*
X165196Y126278D01*
X166002Y125472D01*
X166990Y124901D01*
X168091Y124606D01*
X169232D01*
X170333Y124901D01*
X171320Y125472D01*
X172127Y126278D01*
X172697Y127265D01*
X172992Y128367D01*
Y128893D01*
X173007Y128967D01*
X173011Y129454D01*
X173069Y130317D01*
X173119Y130669D01*
X173184Y130986D01*
X173261Y131260D01*
X173347Y131490D01*
X173438Y131675D01*
X173531Y131818D01*
X173540Y131829D01*
X186245Y144534D01*
X186550Y144990D01*
X186657Y145528D01*
Y183611D01*
X186625Y183769D01*
Y187563D01*
X186846Y187607D01*
X186975Y187614D01*
X187629Y186960D01*
X187976Y186817D01*
Y188976D01*
Y191136D01*
X187629Y190992D01*
X186975Y190338D01*
X186846Y190346D01*
X186625Y190390D01*
Y216942D01*
X186949Y217076D01*
X186962Y217062D01*
X187758Y216732D01*
X188620D01*
X189416Y217062D01*
X190025Y217671D01*
X190354Y218467D01*
Y219328D01*
X190025Y220124D01*
X189416Y220733D01*
X188620Y221063D01*
X187758D01*
X186962Y220733D01*
X186949Y220720D01*
X186625Y220854D01*
Y227157D01*
X186635Y227214D01*
X186647Y227262D01*
X186660Y227298D01*
X186661Y227299D01*
X187269Y227907D01*
X187598Y228703D01*
Y229565D01*
X187269Y230360D01*
X186660Y230970D01*
X185864Y231299D01*
D02*
G37*
G36*
X131139Y271457D02*
X130278D01*
X129482Y271127D01*
X128873Y270518D01*
X128543Y269722D01*
Y268861D01*
X128873Y268065D01*
X129482Y267456D01*
X130278Y267126D01*
X131139D01*
X131935Y267456D01*
X132184Y267704D01*
X132238Y267737D01*
X132286Y267782D01*
X132308Y267798D01*
X132334Y267815D01*
X132368Y267831D01*
X132410Y267848D01*
X132462Y267863D01*
X132525Y267877D01*
X132588Y267886D01*
X168709D01*
X195696Y240900D01*
Y222157D01*
X195690Y222084D01*
X195681Y222031D01*
X194936D01*
Y216520D01*
X199267D01*
Y222031D01*
X198521D01*
X198512Y222084D01*
X198506Y222157D01*
Y241481D01*
X198399Y242019D01*
X198095Y242475D01*
X170285Y270285D01*
X169829Y270589D01*
X169291Y270696D01*
X132588D01*
X132525Y270706D01*
X132462Y270720D01*
X132410Y270735D01*
X132368Y270751D01*
X132334Y270768D01*
X132308Y270784D01*
X132286Y270801D01*
X132238Y270845D01*
X132184Y270878D01*
X131935Y271127D01*
X131139Y271457D01*
D02*
G37*
G36*
X275935Y215794D02*
X274622D01*
Y213598D01*
X277507D01*
Y214222D01*
X277387Y214824D01*
X277046Y215334D01*
X276536Y215674D01*
X275935Y215794D01*
D02*
G37*
G36*
X272622D02*
X271309D01*
X270708Y215674D01*
X270198Y215334D01*
X269857Y214824D01*
X269738Y214222D01*
Y213598D01*
X272622D01*
Y215794D01*
D02*
G37*
G36*
X284793Y215794D02*
X283480D01*
Y213598D01*
X286365D01*
Y214222D01*
X286245Y214824D01*
X285905Y215334D01*
X285395Y215674D01*
X284793Y215794D01*
D02*
G37*
G36*
X281480D02*
X280167D01*
X279566Y215674D01*
X279056Y215334D01*
X278715Y214824D01*
X278596Y214222D01*
Y213598D01*
X281480D01*
Y215794D01*
D02*
G37*
G36*
X195739Y212795D02*
X194361D01*
Y210827D01*
X195739D01*
Y212795D01*
D02*
G37*
G36*
X192361D02*
X190983D01*
Y210827D01*
X192361D01*
Y212795D01*
D02*
G37*
G36*
X277507Y211598D02*
X274622D01*
Y209403D01*
X275935D01*
X276536Y209523D01*
X277046Y209863D01*
X277387Y210373D01*
X277507Y210974D01*
Y211598D01*
D02*
G37*
G36*
X272622D02*
X269738D01*
Y210974D01*
X269857Y210373D01*
X270198Y209863D01*
X270708Y209523D01*
X271309Y209403D01*
X272622D01*
Y211598D01*
D02*
G37*
G36*
X286365Y211598D02*
X282480D01*
X278596D01*
Y210974D01*
X278715Y210373D01*
X279056Y209863D01*
X279120Y209821D01*
Y209471D01*
X279056Y209428D01*
X278715Y208918D01*
X278596Y208317D01*
Y207693D01*
X286365D01*
Y208317D01*
X286245Y208918D01*
X285905Y209428D01*
X285841Y209471D01*
Y209821D01*
X285905Y209863D01*
X286245Y210373D01*
X286365Y210974D01*
Y211598D01*
D02*
G37*
G36*
X330491Y215039D02*
X329351D01*
X328250Y214744D01*
X327262Y214174D01*
X326456Y213368D01*
X325886Y212380D01*
X325591Y211279D01*
Y210139D01*
X325886Y209037D01*
X326456Y208050D01*
X327262Y207243D01*
X328250Y206673D01*
X329351Y206378D01*
X330491D01*
X331593Y206673D01*
X332580Y207243D01*
X333387Y208050D01*
X333957Y209037D01*
X334252Y210139D01*
Y211279D01*
X333957Y212380D01*
X333387Y213368D01*
X332580Y214174D01*
X331593Y214744D01*
X330491Y215039D01*
D02*
G37*
G36*
X175767Y327008D02*
X174627D01*
X173525Y326713D01*
X172538Y326143D01*
X171731Y325336D01*
X171161Y324349D01*
X170866Y323247D01*
Y322107D01*
X171161Y321006D01*
X171731Y320018D01*
X172538Y319212D01*
X173525Y318642D01*
X174627Y318347D01*
X175767D01*
X176868Y318642D01*
X177856Y319212D01*
X178228Y319584D01*
X178291Y319625D01*
X178638Y319967D01*
X179289Y320536D01*
X179573Y320749D01*
X179844Y320928D01*
X180092Y321068D01*
X180315Y321169D01*
X180511Y321236D01*
X180677Y321271D01*
X180691Y321272D01*
X199969D01*
X295839Y225402D01*
Y208966D01*
X295830Y208903D01*
X295816Y208840D01*
X295800Y208788D01*
X295784Y208746D01*
X295767Y208712D01*
X295751Y208685D01*
X295734Y208664D01*
X295690Y208616D01*
X295657Y208562D01*
X295408Y208313D01*
X295079Y207517D01*
Y206656D01*
X295408Y205860D01*
X296018Y205251D01*
X296813Y204921D01*
X297675D01*
X298471Y205251D01*
X299080Y205860D01*
X299409Y206656D01*
Y207517D01*
X299080Y208313D01*
X298831Y208562D01*
X298798Y208616D01*
X298754Y208664D01*
X298737Y208685D01*
X298721Y208712D01*
X298704Y208746D01*
X298688Y208788D01*
X298672Y208840D01*
X298658Y208902D01*
X298649Y208966D01*
Y225984D01*
X298542Y226522D01*
X298237Y226978D01*
X201545Y323671D01*
X201089Y323975D01*
X200551Y324082D01*
X180691D01*
X180677Y324083D01*
X180511Y324119D01*
X180315Y324185D01*
X180092Y324287D01*
X179844Y324426D01*
X179573Y324605D01*
X179289Y324818D01*
X178638Y325387D01*
X178291Y325729D01*
X178228Y325771D01*
X177856Y326143D01*
X176868Y326713D01*
X175767Y327008D01*
D02*
G37*
G36*
X195739Y208827D02*
X193361D01*
X190983D01*
Y206858D01*
X191721D01*
X191827Y206508D01*
X191491Y206283D01*
X191167Y205798D01*
X191053Y205225D01*
Y204724D01*
X193952D01*
X196850D01*
Y205225D01*
X196737Y205798D01*
X196412Y206283D01*
X195947Y206594D01*
X195836Y206735D01*
X195739Y206871D01*
X195739Y207002D01*
Y208827D01*
D02*
G37*
G36*
X289013Y247441D02*
X288152D01*
X287356Y247111D01*
X286747Y246502D01*
X286417Y245706D01*
Y244845D01*
X286747Y244049D01*
X287356Y243440D01*
X288152Y243110D01*
X288504D01*
X288565Y243095D01*
X288630Y243093D01*
X288657Y243089D01*
X288688Y243082D01*
X288723Y243070D01*
X288765Y243052D01*
X288812Y243026D01*
X288867Y242991D01*
X288918Y242953D01*
X302138Y229733D01*
Y208179D01*
X302129Y208115D01*
X302115Y208052D01*
X302100Y208000D01*
X302083Y207958D01*
X302067Y207925D01*
X302050Y207898D01*
X302034Y207876D01*
X301989Y207828D01*
X301956Y207774D01*
X301708Y207526D01*
X301378Y206730D01*
Y205869D01*
X301708Y205073D01*
X302317Y204464D01*
X303113Y204134D01*
X303974D01*
X304770Y204464D01*
X305379Y205073D01*
X305709Y205869D01*
Y206730D01*
X305379Y207526D01*
X305130Y207774D01*
X305097Y207828D01*
X305053Y207876D01*
X305036Y207898D01*
X305020Y207925D01*
X305003Y207958D01*
X304987Y208000D01*
X304971Y208052D01*
X304958Y208115D01*
X304948Y208179D01*
Y230315D01*
X304841Y230853D01*
X304537Y231308D01*
X290905Y244940D01*
X290867Y244992D01*
X290832Y245046D01*
X290806Y245093D01*
X290788Y245135D01*
X290776Y245170D01*
X290769Y245201D01*
X290765Y245228D01*
X290763Y245293D01*
X290748Y245355D01*
Y245706D01*
X290418Y246502D01*
X289809Y247111D01*
X289013Y247441D01*
D02*
G37*
G36*
X286365Y205693D02*
X283480D01*
Y203497D01*
X284793D01*
X285395Y203617D01*
X285905Y203958D01*
X286245Y204468D01*
X286365Y205069D01*
Y205693D01*
D02*
G37*
G36*
X281480D02*
X278596D01*
Y205069D01*
X278715Y204468D01*
X279056Y203958D01*
X279566Y203617D01*
X280167Y203497D01*
X281480D01*
Y205693D01*
D02*
G37*
G36*
X169328Y207283D02*
X168467D01*
X167671Y206954D01*
X167062Y206345D01*
X166732Y205549D01*
Y204687D01*
X167062Y203891D01*
X167671Y203282D01*
X168467Y202953D01*
X169328D01*
X170124Y203282D01*
X170733Y203891D01*
X171063Y204687D01*
Y205549D01*
X170733Y206345D01*
X170124Y206954D01*
X169328Y207283D01*
D02*
G37*
G36*
X203007Y212583D02*
X198676D01*
Y207882D01*
X198673Y207864D01*
X198676Y207848D01*
Y207071D01*
X199047D01*
Y206505D01*
X198848D01*
X198359Y206407D01*
X197943Y206130D01*
X197666Y205715D01*
X197569Y205225D01*
Y202632D01*
X197427Y202465D01*
X197200Y202239D01*
X196850Y202384D01*
Y202724D01*
X193952D01*
X191053D01*
Y202223D01*
X191167Y201651D01*
X191491Y201165D01*
X191976Y200841D01*
X192549Y200727D01*
X194260D01*
X194330Y200377D01*
X194049Y200261D01*
X193440Y199652D01*
X193110Y198856D01*
Y197994D01*
X193440Y197199D01*
X194049Y196590D01*
X194845Y196260D01*
X195706D01*
X196502Y196590D01*
X197111Y197199D01*
X197441Y197994D01*
Y198584D01*
X197447Y198629D01*
X197441Y198705D01*
Y198856D01*
X197439Y198862D01*
X197442Y198915D01*
X197452Y198978D01*
X197465Y199032D01*
X197480Y199076D01*
X197498Y199115D01*
X197518Y199149D01*
X197523Y199156D01*
X199136Y200769D01*
X199260Y200883D01*
X199335Y200944D01*
X201653D01*
X202143Y201041D01*
X202558Y201319D01*
X202835Y201734D01*
X202933Y202223D01*
Y205225D01*
X202835Y205715D01*
X202558Y206130D01*
X202143Y206407D01*
X201653Y206505D01*
X201455D01*
Y207071D01*
X203007D01*
Y212583D01*
D02*
G37*
G36*
X330921Y205145D02*
Y201709D01*
X334357D01*
X334155Y202463D01*
X333557Y203499D01*
X332711Y204345D01*
X331675Y204943D01*
X330921Y205145D01*
D02*
G37*
G36*
X328921D02*
X328168Y204943D01*
X327132Y204345D01*
X326286Y203499D01*
X325688Y202463D01*
X325486Y201709D01*
X328921D01*
Y205145D01*
D02*
G37*
G36*
X334357Y199709D02*
X330921D01*
Y196274D01*
X331675Y196475D01*
X332711Y197073D01*
X333557Y197919D01*
X334155Y198955D01*
X334357Y199709D01*
D02*
G37*
G36*
X328921D02*
X325486D01*
X325688Y198955D01*
X326286Y197919D01*
X327132Y197073D01*
X328168Y196475D01*
X328921Y196274D01*
Y199709D01*
D02*
G37*
G36*
X259498Y198766D02*
X258874D01*
Y195882D01*
X261070D01*
Y197195D01*
X260950Y197796D01*
X260609Y198306D01*
X260099Y198647D01*
X259498Y198766D01*
D02*
G37*
G36*
X256874D02*
X256250D01*
X255649Y198647D01*
X255139Y198306D01*
X254798Y197796D01*
X254679Y197195D01*
Y195882D01*
X256874D01*
Y198766D01*
D02*
G37*
G36*
X251624Y198550D02*
X248376D01*
X247857Y198447D01*
X247418Y198153D01*
X247124Y197713D01*
X247021Y197195D01*
Y196299D01*
X246984Y196293D01*
X246912Y196287D01*
X246240D01*
X245702Y196180D01*
X245247Y195875D01*
X244563Y195192D01*
X244514Y195157D01*
X244466Y195127D01*
X244426Y195107D01*
X244394Y195095D01*
X244369Y195088D01*
X244349Y195085D01*
X244332Y195083D01*
X244271Y195086D01*
X244221Y195079D01*
X243968D01*
X243918Y195086D01*
X243857Y195083D01*
X243840Y195085D01*
X243820Y195088D01*
X243795Y195095D01*
X243763Y195107D01*
X243723Y195127D01*
X243675Y195157D01*
X243626Y195192D01*
X242942Y195875D01*
X242487Y196180D01*
X241949Y196287D01*
X240982D01*
X240909Y196293D01*
X240873Y196299D01*
Y196506D01*
X240769Y197024D01*
X240476Y197464D01*
X240036Y197757D01*
X239518Y197861D01*
X234892D01*
X234373Y197757D01*
X233934Y197464D01*
X233640Y197024D01*
X233537Y196506D01*
Y193258D01*
X233640Y192739D01*
X233934Y192300D01*
X234373Y192006D01*
X234892Y191903D01*
X239518D01*
X240036Y192006D01*
X240476Y192300D01*
X240769Y192739D01*
X240873Y193258D01*
Y193465D01*
X240909Y193471D01*
X240982Y193477D01*
X241367D01*
X241743Y193101D01*
X241783Y193049D01*
X241823Y192990D01*
X241855Y192935D01*
X241879Y192886D01*
X241897Y192842D01*
X241909Y192803D01*
X241916Y192769D01*
X241925Y192701D01*
X241929Y192687D01*
Y192483D01*
X242259Y191687D01*
X242868Y191078D01*
X243664Y190748D01*
X244525D01*
X245321Y191078D01*
X245930Y191687D01*
X246260Y192483D01*
Y192687D01*
X246264Y192701D01*
X246273Y192769D01*
X246281Y192803D01*
X246292Y192842D01*
X246310Y192886D01*
X246334Y192935D01*
X246366Y192989D01*
X246400Y193040D01*
X246466Y193121D01*
X246671Y193326D01*
X247021Y193181D01*
Y192569D01*
X247124Y192051D01*
X247418Y191611D01*
X247857Y191317D01*
X248376Y191214D01*
X251624D01*
X252143Y191317D01*
X252582Y191611D01*
X252876Y192051D01*
X252979Y192569D01*
Y197195D01*
X252876Y197713D01*
X252582Y198153D01*
X252143Y198447D01*
X251624Y198550D01*
D02*
G37*
G36*
X261070Y193882D02*
X258874D01*
Y190997D01*
X259498D01*
X260099Y191117D01*
X260609Y191458D01*
X260950Y191967D01*
X261070Y192569D01*
Y193882D01*
D02*
G37*
G36*
X256874D02*
X254679D01*
Y192569D01*
X254798Y191967D01*
X255139Y191458D01*
X255649Y191117D01*
X256250Y190997D01*
X256874D01*
Y193882D01*
D02*
G37*
G36*
X189976Y191136D02*
Y189976D01*
X191136D01*
X190992Y190323D01*
X190323Y190992D01*
X189976Y191136D01*
D02*
G37*
G36*
X239518Y190203D02*
X238205D01*
Y188008D01*
X241089D01*
Y188632D01*
X240970Y189233D01*
X240629Y189743D01*
X240119Y190084D01*
X239518Y190203D01*
D02*
G37*
G36*
X236205D02*
X234892D01*
X234290Y190084D01*
X233781Y189743D01*
X233440Y189233D01*
X233320Y188632D01*
Y188008D01*
X236205D01*
Y190203D01*
D02*
G37*
G36*
X191136Y187976D02*
X189976D01*
Y186817D01*
X190323Y186960D01*
X190992Y187629D01*
X191136Y187976D01*
D02*
G37*
G36*
X216179Y210827D02*
X215317D01*
X214522Y210497D01*
X213912Y209888D01*
X213583Y209092D01*
Y208231D01*
X213912Y207435D01*
X214161Y207186D01*
X214194Y207132D01*
X214238Y207084D01*
X214255Y207063D01*
X214271Y207036D01*
X214288Y207002D01*
X214304Y206960D01*
X214320Y206908D01*
X214334Y206846D01*
X214343Y206782D01*
Y203830D01*
X213478Y202965D01*
X213274Y202775D01*
X213107Y202641D01*
X213025Y202584D01*
X210999D01*
X210509Y202486D01*
X210094Y202209D01*
X209817Y201794D01*
X209719Y201304D01*
Y198302D01*
X209817Y197812D01*
X210094Y197397D01*
X210509Y197120D01*
X210999Y197023D01*
X213804D01*
X214294Y197120D01*
X214709Y197397D01*
X214986Y197812D01*
X215084Y198302D01*
Y200525D01*
X215135Y200598D01*
X215414Y200927D01*
X215669Y201182D01*
X216019Y201037D01*
Y198302D01*
X216116Y197812D01*
X216393Y197397D01*
X216809Y197120D01*
X217283Y197026D01*
X217289Y196986D01*
X217296Y196913D01*
Y191267D01*
X217289Y191194D01*
X217281Y191142D01*
X216535D01*
Y186811D01*
X222047D01*
Y191142D01*
X220121D01*
X220112Y191194D01*
X220106Y191267D01*
Y196913D01*
X220112Y196986D01*
X220119Y197026D01*
X220593Y197120D01*
X221008Y197397D01*
X221286Y197812D01*
X221383Y198302D01*
Y201304D01*
X221327Y201585D01*
X221327Y201593D01*
X221322Y201607D01*
X221309Y201673D01*
X221308Y201687D01*
X221305Y201694D01*
X221286Y201794D01*
X221227Y201881D01*
X221224Y201889D01*
X221194Y201940D01*
X221180Y201972D01*
X221165Y202012D01*
X221119Y202201D01*
X221105Y202286D01*
X221084Y202562D01*
X224468Y205945D01*
X224519Y205984D01*
X224573Y206018D01*
X224621Y206044D01*
X224662Y206062D01*
X224698Y206074D01*
X224728Y206081D01*
X224756Y206085D01*
X224821Y206088D01*
X224882Y206102D01*
X225234D01*
X226030Y206432D01*
X226639Y207041D01*
X226969Y207837D01*
Y208698D01*
X226639Y209494D01*
X226030Y210103D01*
X225234Y210433D01*
X224372D01*
X223577Y210103D01*
X222968Y209494D01*
X222638Y208698D01*
Y208347D01*
X222623Y208285D01*
X222621Y208220D01*
X222617Y208193D01*
X222609Y208162D01*
X222598Y208127D01*
X222579Y208086D01*
X222554Y208038D01*
X222519Y207984D01*
X222481Y207932D01*
X218680Y204132D01*
X218376Y203676D01*
X218269Y203138D01*
Y202673D01*
X218262Y202591D01*
X218261Y202584D01*
X217351D01*
X217350Y202584D01*
X217210Y202713D01*
X217083Y202898D01*
X217153Y203248D01*
Y206782D01*
X217162Y206846D01*
X217176Y206908D01*
X217192Y206960D01*
X217208Y207002D01*
X217225Y207036D01*
X217241Y207063D01*
X217258Y207084D01*
X217302Y207132D01*
X217335Y207186D01*
X217584Y207435D01*
X217913Y208231D01*
Y209092D01*
X217584Y209888D01*
X216975Y210497D01*
X216179Y210827D01*
D02*
G37*
G36*
X330491Y195040D02*
X329351D01*
X328250Y194745D01*
X327262Y194175D01*
X326456Y193369D01*
X325886Y192381D01*
X325591Y191280D01*
Y190139D01*
X325886Y189038D01*
X326456Y188050D01*
X327262Y187244D01*
X328250Y186674D01*
X329351Y186379D01*
X330491D01*
X331593Y186674D01*
X332580Y187244D01*
X333387Y188050D01*
X333957Y189038D01*
X334252Y190139D01*
Y191280D01*
X333957Y192381D01*
X333387Y193369D01*
X332580Y194175D01*
X331593Y194745D01*
X330491Y195040D01*
D02*
G37*
G36*
X164801Y190157D02*
X163939D01*
X163144Y189828D01*
X162534Y189219D01*
X162205Y188423D01*
Y187561D01*
X162534Y186766D01*
X163144Y186156D01*
X163939Y185827D01*
X164801D01*
X165597Y186156D01*
X166206Y186766D01*
X166535Y187561D01*
Y188423D01*
X166206Y189219D01*
X165597Y189828D01*
X164801Y190157D01*
D02*
G37*
G36*
X154761Y189173D02*
X153900D01*
X153104Y188844D01*
X152495Y188234D01*
X152165Y187439D01*
Y186577D01*
X152495Y185781D01*
X153104Y185172D01*
X153900Y184843D01*
X154761D01*
X155557Y185172D01*
X156166Y185781D01*
X156496Y186577D01*
Y187439D01*
X156166Y188234D01*
X155557Y188844D01*
X154761Y189173D01*
D02*
G37*
G36*
X241089Y186008D02*
X238205D01*
Y183812D01*
X239518D01*
X240119Y183932D01*
X240629Y184273D01*
X240970Y184783D01*
X241089Y185384D01*
Y186008D01*
D02*
G37*
G36*
X236205D02*
X233320D01*
Y185384D01*
X233440Y184783D01*
X233781Y184273D01*
X234290Y183932D01*
X234892Y183812D01*
X236205D01*
Y186008D01*
D02*
G37*
G36*
X330491Y185039D02*
X329351D01*
X328250Y184744D01*
X327262Y184174D01*
X326456Y183368D01*
X325886Y182380D01*
X325591Y181279D01*
Y180139D01*
X325886Y179037D01*
X326456Y178050D01*
X327262Y177243D01*
X328250Y176673D01*
X329351Y176378D01*
X330491D01*
X331593Y176673D01*
X332580Y177243D01*
X333387Y178050D01*
X333957Y179037D01*
X334252Y180139D01*
Y181279D01*
X333957Y182380D01*
X333387Y183368D01*
X332580Y184174D01*
X331593Y184744D01*
X330491Y185039D01*
D02*
G37*
G36*
X203187Y199803D02*
X202325D01*
X201529Y199474D01*
X200920Y198864D01*
X200591Y198068D01*
Y197207D01*
X200920Y196411D01*
X201175Y196157D01*
X201214Y196096D01*
X201306Y196001D01*
X201370Y195926D01*
X201423Y195855D01*
X201466Y195790D01*
X201498Y195730D01*
X201522Y195675D01*
X201539Y195625D01*
X201550Y195579D01*
X201552Y195568D01*
Y194597D01*
X201550Y194577D01*
X201334Y194433D01*
X201057Y194018D01*
X200960Y193528D01*
Y190723D01*
X200811Y190543D01*
X200000D01*
X199693Y190481D01*
X199432Y190307D01*
X199258Y190047D01*
X199197Y189740D01*
Y183812D01*
X199224Y183676D01*
X199245Y183539D01*
X199255Y183523D01*
X199258Y183504D01*
X199335Y183389D01*
X199407Y183271D01*
X205818Y176231D01*
X205834Y176220D01*
X205844Y176204D01*
X205959Y176127D01*
X206070Y176045D01*
X206089Y176040D01*
X206105Y176030D01*
X206240Y176003D01*
X206375Y175970D01*
X206393Y175972D01*
X206412Y175969D01*
X213795D01*
X214102Y176030D01*
X214363Y176204D01*
X214537Y176464D01*
X214598Y176772D01*
Y189740D01*
X214537Y190047D01*
X214363Y190307D01*
X214102Y190481D01*
X213795Y190543D01*
X212945D01*
X212598Y190551D01*
Y194882D01*
X207087D01*
Y193330D01*
X206521D01*
Y193528D01*
X206423Y194018D01*
X206146Y194433D01*
X205731Y194711D01*
X205241Y194808D01*
X203960D01*
Y195568D01*
X203962Y195579D01*
X203973Y195625D01*
X203990Y195675D01*
X204014Y195730D01*
X204046Y195790D01*
X204088Y195855D01*
X204141Y195925D01*
X204206Y196001D01*
X204298Y196096D01*
X204337Y196157D01*
X204592Y196411D01*
X204921Y197207D01*
Y198068D01*
X204592Y198864D01*
X203982Y199474D01*
X203187Y199803D01*
D02*
G37*
G36*
X193344Y178021D02*
X192483D01*
X191687Y177692D01*
X191078Y177083D01*
X190748Y176287D01*
Y175425D01*
X191078Y174629D01*
X191687Y174020D01*
X192483Y173691D01*
X193344D01*
X194140Y174020D01*
X194749Y174629D01*
X195079Y175425D01*
Y176287D01*
X194749Y177083D01*
X194140Y177692D01*
X193344Y178021D01*
D02*
G37*
G36*
X158305Y174606D02*
X157443D01*
X156648Y174277D01*
X156038Y173668D01*
X155709Y172872D01*
Y172010D01*
X156038Y171214D01*
X156648Y170605D01*
X157443Y170276D01*
X158305D01*
X159101Y170605D01*
X159710Y171214D01*
X160039Y172010D01*
Y172872D01*
X159710Y173668D01*
X159101Y174277D01*
X158305Y174606D01*
D02*
G37*
G36*
X154761Y170669D02*
X153900D01*
X153104Y170340D01*
X152495Y169730D01*
X152165Y168935D01*
Y168073D01*
X152495Y167277D01*
X153104Y166668D01*
X153900Y166339D01*
X154761D01*
X155557Y166668D01*
X156166Y167277D01*
X156496Y168073D01*
Y168935D01*
X156166Y169730D01*
X155557Y170340D01*
X154761Y170669D01*
D02*
G37*
G36*
X158305Y166732D02*
X157443D01*
X156648Y166403D01*
X156038Y165794D01*
X155709Y164998D01*
Y164136D01*
X156038Y163340D01*
X156648Y162731D01*
X157443Y162402D01*
X158305D01*
X159101Y162731D01*
X159710Y163340D01*
X160039Y164136D01*
Y164998D01*
X159710Y165794D01*
X159101Y166403D01*
X158305Y166732D01*
D02*
G37*
G36*
X299783Y164764D02*
X298642D01*
X297541Y164469D01*
X296553Y163899D01*
X295747Y163092D01*
X295177Y162105D01*
X294882Y161003D01*
Y159863D01*
X295177Y158762D01*
X295747Y157774D01*
X296553Y156968D01*
X297541Y156397D01*
X298642Y156102D01*
X299783D01*
X300884Y156397D01*
X301872Y156968D01*
X302678Y157774D01*
X303248Y158762D01*
X303543Y159863D01*
Y161003D01*
X303248Y162105D01*
X302678Y163092D01*
X301872Y163899D01*
X300884Y164469D01*
X299783Y164764D01*
D02*
G37*
G36*
X289783D02*
X288643D01*
X287541Y164469D01*
X286554Y163899D01*
X285747Y163092D01*
X285177Y162105D01*
X284882Y161003D01*
Y159863D01*
X285177Y158762D01*
X285747Y157774D01*
X286554Y156968D01*
X287541Y156397D01*
X288643Y156102D01*
X289783D01*
X290884Y156397D01*
X291872Y156968D01*
X292678Y157774D01*
X293248Y158762D01*
X293543Y159863D01*
Y161003D01*
X293248Y162105D01*
X292678Y163092D01*
X291872Y163899D01*
X290884Y164469D01*
X289783Y164764D01*
D02*
G37*
G36*
X278383Y159646D02*
X277522D01*
X276726Y159316D01*
X276117Y158707D01*
X275787Y157911D01*
Y157050D01*
X276117Y156254D01*
X276726Y155645D01*
X277522Y155315D01*
X278383D01*
X279179Y155645D01*
X279788Y156254D01*
X280118Y157050D01*
Y157911D01*
X279788Y158707D01*
X279179Y159316D01*
X278383Y159646D01*
D02*
G37*
G36*
X246887Y212795D02*
X246026D01*
X245230Y212466D01*
X244621Y211857D01*
X244291Y211061D01*
Y210199D01*
X244621Y209403D01*
X245230Y208794D01*
X246026Y208465D01*
X246887D01*
X247683Y208794D01*
X247932Y209043D01*
X247986Y209076D01*
X248034Y209120D01*
X248056Y209137D01*
X248082Y209153D01*
X248116Y209170D01*
X248158Y209186D01*
X248210Y209202D01*
X248272Y209216D01*
X248336Y209225D01*
X254536D01*
X262768Y200993D01*
Y174991D01*
X231701Y143925D01*
X216840D01*
X216776Y143934D01*
X216714Y143948D01*
X216662Y143963D01*
X216620Y143980D01*
X216586Y143997D01*
X216560Y144013D01*
X216538Y144029D01*
X216490Y144074D01*
X216436Y144107D01*
X216187Y144355D01*
X215391Y144685D01*
X214530D01*
X213734Y144355D01*
X213125Y143746D01*
X212795Y142950D01*
Y142089D01*
X213125Y141293D01*
X213734Y140684D01*
X214530Y140354D01*
X215391D01*
X216187Y140684D01*
X216436Y140933D01*
X216490Y140966D01*
X216538Y141010D01*
X216560Y141026D01*
X216586Y141043D01*
X216620Y141060D01*
X216662Y141076D01*
X216714Y141092D01*
X216776Y141105D01*
X216840Y141115D01*
X232283D01*
X232821Y141222D01*
X233277Y141526D01*
X265167Y173416D01*
X265471Y173872D01*
X265578Y174409D01*
Y201575D01*
X265471Y202112D01*
X265167Y202568D01*
X256112Y211623D01*
X255656Y211928D01*
X255118Y212035D01*
X248336D01*
X248273Y212044D01*
X248210Y212058D01*
X248158Y212074D01*
X248116Y212090D01*
X248082Y212107D01*
X248056Y212123D01*
X248034Y212140D01*
X247986Y212184D01*
X247932Y212217D01*
X247683Y212466D01*
X246887Y212795D01*
D02*
G37*
G36*
X296119Y148253D02*
X294875D01*
X293673Y147931D01*
X292596Y147309D01*
X291717Y146429D01*
X291095Y145352D01*
X290773Y144150D01*
Y142906D01*
X291095Y141705D01*
X291717Y140628D01*
X292596Y139748D01*
X293673Y139126D01*
X294875Y138804D01*
X296119D01*
X297321Y139126D01*
X298398Y139748D01*
X299277Y140628D01*
X299900Y141705D01*
X300221Y142906D01*
Y144150D01*
X299900Y145352D01*
X299277Y146429D01*
X298398Y147309D01*
X297321Y147931D01*
X296119Y148253D01*
D02*
G37*
G36*
X270529D02*
X269285D01*
X268083Y147931D01*
X267006Y147309D01*
X266126Y146429D01*
X265504Y145352D01*
X265182Y144150D01*
Y142906D01*
X265504Y141705D01*
X266126Y140628D01*
X267006Y139748D01*
X268083Y139126D01*
X269285Y138804D01*
X270529D01*
X271730Y139126D01*
X272807Y139748D01*
X273687Y140628D01*
X274309Y141705D01*
X274631Y142906D01*
Y144150D01*
X274309Y145352D01*
X273687Y146429D01*
X272807Y147309D01*
X271730Y147931D01*
X270529Y148253D01*
D02*
G37*
G36*
X249643Y139961D02*
X248782D01*
X247986Y139631D01*
X247377Y139022D01*
X247047Y138226D01*
Y137365D01*
X247377Y136569D01*
X247986Y135960D01*
X248782Y135630D01*
X249643D01*
X250439Y135960D01*
X251048Y136569D01*
X251378Y137365D01*
Y138226D01*
X251048Y139022D01*
X250439Y139631D01*
X249643Y139961D01*
D02*
G37*
G36*
X179661Y133373D02*
Y129937D01*
X183097D01*
X182895Y130691D01*
X182297Y131727D01*
X181451Y132573D01*
X180415Y133171D01*
X179661Y133373D01*
D02*
G37*
G36*
X177661D02*
X176908Y133171D01*
X175872Y132573D01*
X175026Y131727D01*
X174428Y130691D01*
X174226Y129937D01*
X177661D01*
Y133373D01*
D02*
G37*
G36*
X296497Y130655D02*
Y126812D01*
X300340D01*
X300098Y127718D01*
X299448Y128843D01*
X298528Y129763D01*
X297403Y130412D01*
X296497Y130655D01*
D02*
G37*
G36*
X270906D02*
Y126812D01*
X274750D01*
X274507Y127718D01*
X273857Y128843D01*
X272938Y129763D01*
X271812Y130412D01*
X270906Y130655D01*
D02*
G37*
G36*
X268906Y130655D02*
X268001Y130412D01*
X266875Y129763D01*
X265956Y128843D01*
X265306Y127718D01*
X265063Y126812D01*
X268906D01*
Y130655D01*
D02*
G37*
G36*
X294497Y130655D02*
X293591Y130412D01*
X292466Y129763D01*
X291547Y128843D01*
X290897Y127718D01*
X290654Y126812D01*
X294497D01*
Y130655D01*
D02*
G37*
G36*
X151021Y131102D02*
X150160D01*
X149364Y130773D01*
X148755Y130164D01*
X148425Y129368D01*
Y128506D01*
X148755Y127710D01*
X149364Y127101D01*
X150160Y126772D01*
X151021D01*
X151817Y127101D01*
X152426Y127710D01*
X152756Y128506D01*
Y129368D01*
X152426Y130164D01*
X151817Y130773D01*
X151021Y131102D01*
D02*
G37*
G36*
X199232Y133287D02*
X198091D01*
X196990Y132992D01*
X196002Y132422D01*
X195196Y131616D01*
X194626Y130628D01*
X194331Y129527D01*
Y128387D01*
X194626Y127285D01*
X195196Y126298D01*
X196002Y125491D01*
X196990Y124921D01*
X198091Y124626D01*
X199232D01*
X200333Y124921D01*
X201321Y125491D01*
X202127Y126298D01*
X202697Y127285D01*
X202992Y128387D01*
Y129527D01*
X202697Y130628D01*
X202127Y131616D01*
X201321Y132422D01*
X200333Y132992D01*
X199232Y133287D01*
D02*
G37*
G36*
X209232Y133268D02*
X208091D01*
X206990Y132973D01*
X206002Y132402D01*
X205196Y131596D01*
X204626Y130609D01*
X204331Y129507D01*
Y128367D01*
X204626Y127265D01*
X205196Y126278D01*
X206002Y125472D01*
X206990Y124901D01*
X208091Y124606D01*
X209232D01*
X210333Y124901D01*
X211320Y125472D01*
X212127Y126278D01*
X212697Y127265D01*
X212992Y128367D01*
Y129507D01*
X212697Y130609D01*
X212127Y131596D01*
X211320Y132402D01*
X210333Y132973D01*
X209232Y133268D01*
D02*
G37*
G36*
X189232D02*
X188091D01*
X186990Y132973D01*
X186002Y132402D01*
X185196Y131596D01*
X184626Y130609D01*
X184331Y129507D01*
Y128367D01*
X184626Y127265D01*
X185196Y126278D01*
X186002Y125472D01*
X186990Y124901D01*
X188091Y124606D01*
X189232D01*
X190333Y124901D01*
X191321Y125472D01*
X192127Y126278D01*
X192697Y127265D01*
X192992Y128367D01*
Y129507D01*
X192697Y130609D01*
X192127Y131596D01*
X191321Y132402D01*
X190333Y132973D01*
X189232Y133268D01*
D02*
G37*
G36*
X159232D02*
X158091D01*
X156990Y132973D01*
X156002Y132402D01*
X155196Y131596D01*
X154626Y130609D01*
X154331Y129507D01*
Y128367D01*
X154626Y127265D01*
X155196Y126278D01*
X156002Y125472D01*
X156990Y124901D01*
X158091Y124606D01*
X159232D01*
X160333Y124901D01*
X161320Y125472D01*
X162127Y126278D01*
X162697Y127265D01*
X162992Y128367D01*
Y129507D01*
X162697Y130609D01*
X162127Y131596D01*
X161320Y132402D01*
X160333Y132973D01*
X159232Y133268D01*
D02*
G37*
G36*
X183097Y127937D02*
X179661D01*
Y124501D01*
X180415Y124703D01*
X181451Y125302D01*
X182297Y126147D01*
X182895Y127183D01*
X183097Y127937D01*
D02*
G37*
G36*
X177661D02*
X174226D01*
X174428Y127183D01*
X175026Y126147D01*
X175872Y125302D01*
X176908Y124703D01*
X177661Y124501D01*
Y127937D01*
D02*
G37*
G36*
X343179Y136614D02*
X341861D01*
X340567Y136357D01*
X339349Y135852D01*
X338253Y135120D01*
X337321Y134188D01*
X336589Y133091D01*
X336084Y131874D01*
X335827Y130580D01*
Y129262D01*
X336084Y127969D01*
X336589Y126751D01*
X337321Y125655D01*
X338253Y124723D01*
X339349Y123990D01*
X340567Y123486D01*
X341861Y123228D01*
X343179D01*
X344472Y123486D01*
X345690Y123990D01*
X346786Y124723D01*
X347718Y125655D01*
X348451Y126751D01*
X348955Y127969D01*
X349213Y129262D01*
Y130580D01*
X348955Y131874D01*
X348451Y133091D01*
X347718Y134188D01*
X346786Y135120D01*
X345690Y135852D01*
X344472Y136357D01*
X343179Y136614D01*
D02*
G37*
G36*
X130580D02*
X129262D01*
X127969Y136357D01*
X126751Y135852D01*
X125655Y135120D01*
X124723Y134188D01*
X123990Y133091D01*
X123486Y131874D01*
X123228Y130580D01*
Y129262D01*
X123486Y127969D01*
X123990Y126751D01*
X124723Y125655D01*
X125655Y124723D01*
X126751Y123990D01*
X127969Y123486D01*
X129262Y123228D01*
X130580D01*
X131874Y123486D01*
X133091Y123990D01*
X134188Y124723D01*
X135120Y125655D01*
X135852Y126751D01*
X136357Y127969D01*
X136614Y129262D01*
Y130580D01*
X136357Y131874D01*
X135852Y133091D01*
X135120Y134188D01*
X134188Y135120D01*
X133091Y135852D01*
X131874Y136357D01*
X130580Y136614D01*
D02*
G37*
G36*
X268906Y124812D02*
X265063D01*
X265306Y123906D01*
X265956Y122781D01*
X266875Y121861D01*
X268001Y121211D01*
X268906Y120969D01*
Y124812D01*
D02*
G37*
G36*
X300340D02*
X296497D01*
Y120969D01*
X297403Y121211D01*
X298528Y121861D01*
X299448Y122781D01*
X300098Y123906D01*
X300340Y124812D01*
D02*
G37*
G36*
X294497D02*
X290654D01*
X290897Y123906D01*
X291547Y122781D01*
X292466Y121861D01*
X293591Y121211D01*
X294497Y120969D01*
Y124812D01*
D02*
G37*
G36*
X274750D02*
X270906D01*
Y120969D01*
X271812Y121211D01*
X272938Y121861D01*
X273857Y122781D01*
X274507Y123906D01*
X274750Y124812D01*
D02*
G37*
%LPD*%
G36*
X256932Y326402D02*
X256882Y326338D01*
X256838Y326270D01*
X256799Y326197D01*
X256767Y326120D01*
X256740Y326039D01*
X256719Y325954D01*
X256705Y325864D01*
X256696Y325771D01*
X256693Y325673D01*
X255906D01*
X255903Y325771D01*
X255894Y325864D01*
X255879Y325954D01*
X255858Y326039D01*
X255832Y326120D01*
X255799Y326197D01*
X255761Y326270D01*
X255716Y326338D01*
X255666Y326402D01*
X255610Y326462D01*
X256988D01*
X256932Y326402D01*
D02*
G37*
G36*
X263779Y313621D02*
X227502Y313546D01*
X227254Y313794D01*
Y323425D01*
X239254D01*
X239399Y323075D01*
X239007Y322683D01*
X238677Y321887D01*
Y321026D01*
X239007Y320230D01*
X239616Y319621D01*
X240412Y319291D01*
X241273D01*
X242069Y319621D01*
X242678Y320230D01*
X243008Y321026D01*
Y321887D01*
X242678Y322683D01*
X242286Y323075D01*
X242431Y323425D01*
X244474D01*
X244619Y323075D01*
X244227Y322683D01*
X243898Y321887D01*
Y321026D01*
X244227Y320230D01*
X244836Y319621D01*
X245632Y319291D01*
X246494D01*
X247290Y319621D01*
X247899Y320230D01*
X248228Y321026D01*
Y321887D01*
X247899Y322683D01*
X247507Y323075D01*
X247652Y323425D01*
X263779D01*
Y313621D01*
D02*
G37*
G36*
X175004Y279015D02*
X175019Y278911D01*
X175043Y278807D01*
X175078Y278703D01*
X175124Y278600D01*
X175179Y278497D01*
X175245Y278394D01*
X175321Y278291D01*
X175408Y278189D01*
X175505Y278086D01*
X174669Y277251D01*
X174567Y277348D01*
X174465Y277435D01*
X174362Y277511D01*
X174259Y277577D01*
X174156Y277632D01*
X174053Y277678D01*
X173949Y277713D01*
X173845Y277737D01*
X173740Y277752D01*
X173636Y277756D01*
X175000Y279120D01*
X175004Y279015D01*
D02*
G37*
G36*
X249880Y220579D02*
X249964Y220515D01*
X250055Y220459D01*
X250153Y220410D01*
X250258Y220369D01*
X250371Y220335D01*
X250490Y220309D01*
X250616Y220290D01*
X250750Y220279D01*
X250891Y220276D01*
Y219094D01*
X250750Y219091D01*
X250616Y219079D01*
X250490Y219061D01*
X250371Y219035D01*
X250258Y219001D01*
X250153Y218960D01*
X250055Y218911D01*
X249964Y218855D01*
X249880Y218792D01*
X249803Y218721D01*
Y220650D01*
X249880Y220579D01*
D02*
G37*
G36*
X257677Y213602D02*
X257600Y213673D01*
X257517Y213737D01*
X257425Y213793D01*
X257327Y213842D01*
X257222Y213883D01*
X257110Y213916D01*
X256990Y213943D01*
X256864Y213961D01*
X256730Y213973D01*
X256590Y213976D01*
Y215158D01*
X256730Y215161D01*
X256864Y215172D01*
X256990Y215191D01*
X257110Y215217D01*
X257222Y215251D01*
X257327Y215292D01*
X257425Y215341D01*
X257517Y215397D01*
X257600Y215460D01*
X257677Y215531D01*
Y213602D01*
D02*
G37*
G36*
X274691Y202561D02*
X274590Y202525D01*
X274502Y202465D01*
X274425Y202382D01*
X274360Y202274D01*
X274307Y202143D01*
X274266Y201988D01*
X274236Y201809D01*
X274219Y201606D01*
X274213Y201380D01*
X273031D01*
X273026Y201606D01*
X273008Y201809D01*
X272978Y201988D01*
X272937Y202143D01*
X272884Y202274D01*
X272819Y202382D01*
X272742Y202465D01*
X272654Y202525D01*
X272553Y202561D01*
X272441Y202573D01*
X274803D01*
X274691Y202561D01*
D02*
G37*
G36*
X274216Y200750D02*
X274228Y200616D01*
X274246Y200490D01*
X274272Y200371D01*
X274306Y200258D01*
X274347Y200153D01*
X274396Y200055D01*
X274452Y199964D01*
X274516Y199880D01*
X274587Y199803D01*
X272657D01*
X272728Y199880D01*
X272792Y199964D01*
X272848Y200055D01*
X272897Y200153D01*
X272938Y200258D01*
X272972Y200371D01*
X272998Y200490D01*
X273017Y200616D01*
X273028Y200750D01*
X273031Y200891D01*
X274213D01*
X274216Y200750D01*
D02*
G37*
G36*
X274683Y199712D02*
X274767Y199649D01*
X274858Y199593D01*
X274956Y199544D01*
X275061Y199503D01*
X275174Y199469D01*
X275293Y199443D01*
X275420Y199424D01*
X275553Y199413D01*
X275694Y199409D01*
Y198228D01*
X275553Y198225D01*
X275420Y198213D01*
X275293Y198195D01*
X275174Y198169D01*
X275061Y198135D01*
X274956Y198094D01*
X274858Y198045D01*
X274767Y197989D01*
X274683Y197925D01*
X274606Y197854D01*
Y199784D01*
X274683Y199712D01*
D02*
G37*
G36*
X279640Y197638D02*
X279628Y197750D01*
X279592Y197850D01*
X279532Y197939D01*
X279449Y198016D01*
X279341Y198081D01*
X279210Y198134D01*
X279055Y198175D01*
X278876Y198205D01*
X278673Y198222D01*
X278447Y198228D01*
Y199409D01*
X278673Y199415D01*
X278876Y199433D01*
X279055Y199463D01*
X279210Y199504D01*
X279341Y199557D01*
X279449Y199622D01*
X279532Y199699D01*
X279592Y199787D01*
X279628Y199888D01*
X279640Y200000D01*
Y197638D01*
D02*
G37*
G36*
X209919Y139120D02*
X210003Y139056D01*
X210094Y139000D01*
X210192Y138951D01*
X210298Y138910D01*
X210410Y138876D01*
X210529Y138850D01*
X210656Y138831D01*
X210789Y138820D01*
X210930Y138816D01*
Y137635D01*
X210789Y137632D01*
X210656Y137620D01*
X210529Y137602D01*
X210410Y137576D01*
X210298Y137542D01*
X210192Y137501D01*
X210094Y137452D01*
X210003Y137396D01*
X209919Y137332D01*
X209842Y137261D01*
Y139191D01*
X209919Y139120D01*
D02*
G37*
G36*
X158148Y284752D02*
X158231Y284688D01*
X158323Y284632D01*
X158421Y284583D01*
X158526Y284542D01*
X158638Y284509D01*
X158758Y284483D01*
X158884Y284464D01*
X159018Y284453D01*
X159158Y284449D01*
Y283268D01*
X159018Y283264D01*
X158884Y283253D01*
X158758Y283234D01*
X158638Y283208D01*
X158526Y283174D01*
X158421Y283133D01*
X158323Y283085D01*
X158231Y283028D01*
X158148Y282965D01*
X158071Y282894D01*
Y284823D01*
X158148Y284752D01*
D02*
G37*
G36*
X265883Y224382D02*
X265985Y224296D01*
X266088Y224220D01*
X266191Y224154D01*
X266294Y224098D01*
X266398Y224053D01*
X266502Y224018D01*
X266606Y223993D01*
X266710Y223979D01*
X266815Y223975D01*
X265451Y222611D01*
X265446Y222715D01*
X265432Y222819D01*
X265407Y222924D01*
X265372Y223027D01*
X265327Y223131D01*
X265271Y223234D01*
X265205Y223337D01*
X265129Y223440D01*
X265043Y223542D01*
X264946Y223644D01*
X265781Y224479D01*
X265883Y224382D01*
D02*
G37*
G36*
X246049Y227462D02*
X245949Y227427D01*
X245860Y227367D01*
X245783Y227283D01*
X245719Y227176D01*
X245665Y227045D01*
X245624Y226890D01*
X245595Y226711D01*
X245577Y226508D01*
X245571Y226281D01*
X244390D01*
X244384Y226508D01*
X244366Y226711D01*
X244337Y226890D01*
X244295Y227045D01*
X244242Y227176D01*
X244177Y227283D01*
X244100Y227367D01*
X244012Y227427D01*
X243911Y227462D01*
X243799Y227474D01*
X246161D01*
X246049Y227462D01*
D02*
G37*
G36*
X243014Y224923D02*
X243095Y224856D01*
X243184Y224798D01*
X243280Y224747D01*
X243384Y224704D01*
X243495Y224669D01*
X243613Y224641D01*
X243739Y224622D01*
X243872Y224610D01*
X244013Y224606D01*
X243955Y223425D01*
X243814Y223422D01*
X243680Y223411D01*
X243553Y223393D01*
X243433Y223368D01*
X243320Y223336D01*
X243213Y223297D01*
X243113Y223251D01*
X243020Y223198D01*
X242934Y223137D01*
X242854Y223070D01*
X242940Y224997D01*
X243014Y224923D01*
D02*
G37*
G36*
X275667Y221366D02*
X275751Y221302D01*
X275842Y221246D01*
X275940Y221198D01*
X276046Y221157D01*
X276158Y221123D01*
X276277Y221097D01*
X276404Y221078D01*
X276537Y221067D01*
X276678Y221063D01*
Y219882D01*
X276537Y219878D01*
X276404Y219867D01*
X276277Y219848D01*
X276158Y219822D01*
X276046Y219788D01*
X275940Y219747D01*
X275842Y219699D01*
X275751Y219642D01*
X275667Y219579D01*
X275590Y219508D01*
Y221437D01*
X275667Y221366D01*
D02*
G37*
G36*
X279640Y219291D02*
X279628Y219404D01*
X279592Y219504D01*
X279532Y219592D01*
X279449Y219669D01*
X279341Y219734D01*
X279210Y219787D01*
X279055Y219829D01*
X278876Y219858D01*
X278673Y219876D01*
X278447Y219882D01*
Y221063D01*
X278673Y221069D01*
X278876Y221087D01*
X279055Y221116D01*
X279210Y221158D01*
X279341Y221211D01*
X279449Y221276D01*
X279532Y221352D01*
X279592Y221441D01*
X279628Y221541D01*
X279640Y221654D01*
Y219291D01*
D02*
G37*
G36*
X186234Y228013D02*
X186154Y227948D01*
X186082Y227875D01*
X186018Y227793D01*
X185963Y227703D01*
X185917Y227604D01*
X185879Y227497D01*
X185849Y227381D01*
X185828Y227256D01*
X185815Y227123D01*
X185811Y226982D01*
X184630Y227187D01*
X184627Y227328D01*
X184603Y227590D01*
X184582Y227712D01*
X184555Y227827D01*
X184521Y227936D01*
X184482Y228039D01*
X184437Y228136D01*
X184386Y228226D01*
X184328Y228310D01*
X186234Y228013D01*
D02*
G37*
G36*
X173053Y132493D02*
X172887Y132300D01*
X172739Y132072D01*
X172609Y131809D01*
X172497Y131510D01*
X172403Y131176D01*
X172328Y130806D01*
X172270Y130401D01*
X172208Y129484D01*
X172204Y128972D01*
X168697Y132480D01*
X169208Y132484D01*
X170125Y132545D01*
X170530Y132603D01*
X170900Y132679D01*
X171234Y132773D01*
X171533Y132885D01*
X171797Y133015D01*
X172025Y133162D01*
X172218Y133328D01*
X173053Y132493D01*
D02*
G37*
G36*
X131770Y270185D02*
X131853Y270121D01*
X131945Y270065D01*
X132043Y270017D01*
X132148Y269975D01*
X132260Y269942D01*
X132380Y269916D01*
X132506Y269897D01*
X132640Y269886D01*
X132780Y269882D01*
Y268701D01*
X132640Y268697D01*
X132506Y268686D01*
X132380Y268667D01*
X132260Y268641D01*
X132148Y268607D01*
X132043Y268566D01*
X131945Y268517D01*
X131853Y268461D01*
X131770Y268398D01*
X131693Y268327D01*
Y270256D01*
X131770Y270185D01*
D02*
G37*
G36*
X197698Y222186D02*
X197715Y221984D01*
X197745Y221805D01*
X197786Y221650D01*
X197839Y221518D01*
X197904Y221411D01*
X197981Y221327D01*
X198070Y221268D01*
X198170Y221232D01*
X198282Y221220D01*
X195920D01*
X196032Y221232D01*
X196133Y221268D01*
X196221Y221327D01*
X196298Y221411D01*
X196363Y221518D01*
X196416Y221650D01*
X196458Y221805D01*
X196487Y221984D01*
X196505Y222186D01*
X196511Y222413D01*
X197692D01*
X197698Y222186D01*
D02*
G37*
G36*
X178092Y324798D02*
X178783Y324194D01*
X179111Y323948D01*
X179426Y323740D01*
X179728Y323570D01*
X180019Y323438D01*
X180297Y323343D01*
X180563Y323287D01*
X180817Y323268D01*
Y322087D01*
X180563Y322068D01*
X180297Y322011D01*
X180019Y321917D01*
X179728Y321784D01*
X179426Y321614D01*
X179111Y321406D01*
X178783Y321161D01*
X178092Y320556D01*
X177727Y320197D01*
Y325157D01*
X178092Y324798D01*
D02*
G37*
G36*
X297838Y209018D02*
X297850Y208884D01*
X297868Y208758D01*
X297895Y208638D01*
X297928Y208526D01*
X297969Y208421D01*
X298018Y208323D01*
X298074Y208231D01*
X298138Y208148D01*
X298209Y208071D01*
X296280D01*
X296351Y208148D01*
X296414Y208231D01*
X296470Y208323D01*
X296519Y208421D01*
X296560Y208526D01*
X296594Y208638D01*
X296620Y208758D01*
X296639Y208884D01*
X296650Y209018D01*
X296654Y209158D01*
X297835D01*
X297838Y209018D01*
D02*
G37*
G36*
X289965Y245157D02*
X289979Y245053D01*
X290004Y244949D01*
X290039Y244845D01*
X290084Y244742D01*
X290140Y244638D01*
X290206Y244535D01*
X290282Y244433D01*
X290368Y244330D01*
X290465Y244228D01*
X289630Y243393D01*
X289528Y243490D01*
X289426Y243576D01*
X289323Y243653D01*
X289220Y243719D01*
X289117Y243774D01*
X289013Y243819D01*
X288909Y243854D01*
X288805Y243879D01*
X288701Y243894D01*
X288597Y243898D01*
X289961Y245262D01*
X289965Y245157D01*
D02*
G37*
G36*
X304138Y208230D02*
X304149Y208097D01*
X304168Y207970D01*
X304194Y207851D01*
X304227Y207738D01*
X304269Y207633D01*
X304317Y207535D01*
X304373Y207444D01*
X304437Y207360D01*
X304508Y207283D01*
X302579D01*
X302650Y207360D01*
X302713Y207444D01*
X302769Y207535D01*
X302818Y207633D01*
X302859Y207738D01*
X302893Y207851D01*
X302919Y207970D01*
X302938Y208097D01*
X302949Y208230D01*
X302953Y208371D01*
X304134D01*
X304138Y208230D01*
D02*
G37*
G36*
X200963Y207874D02*
X200897Y207849D01*
X200837Y207809D01*
X200786Y207753D01*
X200743Y207681D01*
X200708Y207593D01*
X200680Y207489D01*
X200660Y207370D01*
X200648Y207234D01*
X200644Y207083D01*
X199857D01*
X199853Y207232D01*
X199842Y207366D01*
X199823Y207485D01*
X199796Y207587D01*
X199762Y207673D01*
X199720Y207744D01*
X199670Y207799D01*
X199613Y207839D01*
X199548Y207862D01*
X199475Y207870D01*
X201038Y207882D01*
X200963Y207874D01*
D02*
G37*
G36*
X200648Y206325D02*
X200660Y206189D01*
X200680Y206069D01*
X200708Y205966D01*
X200743Y205878D01*
X200786Y205806D01*
X200837Y205750D01*
X200897Y205710D01*
X200963Y205686D01*
X201038Y205678D01*
X199463D01*
X199538Y205686D01*
X199605Y205710D01*
X199664Y205750D01*
X199715Y205806D01*
X199759Y205878D01*
X199794Y205966D01*
X199822Y206069D01*
X199841Y206189D01*
X199853Y206325D01*
X199857Y206477D01*
X200644D01*
X200648Y206325D01*
D02*
G37*
G36*
X199537Y201771D02*
X199475Y201813D01*
X199402Y201832D01*
X199319Y201830D01*
X199224Y201806D01*
X199118Y201760D01*
X199001Y201692D01*
X198873Y201603D01*
X198734Y201491D01*
X198424Y201202D01*
X197827Y201719D01*
X197986Y201883D01*
X198236Y202177D01*
X198327Y202306D01*
X198395Y202423D01*
X198440Y202528D01*
X198463Y202622D01*
X198463Y202704D01*
X198441Y202774D01*
X198396Y202833D01*
X199537Y201771D01*
D02*
G37*
G36*
X197002Y199781D02*
X196920Y199690D01*
X196848Y199592D01*
X196786Y199488D01*
X196735Y199377D01*
X196694Y199259D01*
X196664Y199135D01*
X196644Y199004D01*
X196634Y198866D01*
X196635Y198721D01*
X196646Y198570D01*
X195158Y199798D01*
X195318Y199816D01*
X195613Y199871D01*
X195748Y199909D01*
X195875Y199954D01*
X195994Y200006D01*
X196105Y200065D01*
X196208Y200130D01*
X196303Y200203D01*
X196390Y200282D01*
X197002Y199781D01*
D02*
G37*
G36*
X246018Y193825D02*
X245921Y193723D01*
X245755Y193519D01*
X245686Y193417D01*
X245626Y193315D01*
X245576Y193212D01*
X245535Y193110D01*
X245503Y193008D01*
X245481Y192905D01*
X245468Y192802D01*
X244233Y194284D01*
X244338Y194279D01*
X244442Y194286D01*
X244545Y194304D01*
X244649Y194333D01*
X244752Y194373D01*
X244856Y194424D01*
X244959Y194488D01*
X245062Y194562D01*
X245164Y194647D01*
X245267Y194744D01*
X246018Y193825D01*
D02*
G37*
G36*
X247848Y193701D02*
X247836Y193813D01*
X247801Y193913D01*
X247741Y194002D01*
X247657Y194079D01*
X247550Y194144D01*
X247419Y194197D01*
X247264Y194238D01*
X247085Y194268D01*
X246882Y194285D01*
X246655Y194291D01*
Y195472D01*
X246882Y195478D01*
X247085Y195496D01*
X247264Y195526D01*
X247419Y195567D01*
X247550Y195620D01*
X247657Y195685D01*
X247741Y195762D01*
X247801Y195850D01*
X247836Y195951D01*
X247848Y196063D01*
Y193701D01*
D02*
G37*
G36*
X240057Y195951D02*
X240093Y195850D01*
X240153Y195762D01*
X240236Y195685D01*
X240344Y195620D01*
X240475Y195567D01*
X240630Y195526D01*
X240809Y195496D01*
X241012Y195478D01*
X241238Y195472D01*
Y194291D01*
X241012Y194285D01*
X240809Y194268D01*
X240630Y194238D01*
X240475Y194197D01*
X240344Y194144D01*
X240236Y194079D01*
X240153Y194002D01*
X240093Y193913D01*
X240057Y193813D01*
X240045Y193701D01*
Y196063D01*
X240057Y195951D01*
D02*
G37*
G36*
X243024Y194647D02*
X243127Y194562D01*
X243230Y194488D01*
X243333Y194424D01*
X243437Y194373D01*
X243540Y194333D01*
X243644Y194304D01*
X243747Y194286D01*
X243851Y194279D01*
X243956Y194284D01*
X242721Y192802D01*
X242708Y192905D01*
X242686Y193008D01*
X242654Y193110D01*
X242613Y193212D01*
X242563Y193315D01*
X242503Y193417D01*
X242434Y193519D01*
X242356Y193621D01*
X242268Y193723D01*
X242171Y193825D01*
X242922Y194744D01*
X243024Y194647D01*
D02*
G37*
G36*
X216641Y207600D02*
X216578Y207517D01*
X216522Y207425D01*
X216473Y207327D01*
X216432Y207222D01*
X216398Y207110D01*
X216372Y206990D01*
X216354Y206864D01*
X216342Y206730D01*
X216339Y206590D01*
X215158D01*
X215154Y206730D01*
X215142Y206864D01*
X215124Y206990D01*
X215098Y207110D01*
X215064Y207222D01*
X215023Y207327D01*
X214974Y207425D01*
X214918Y207517D01*
X214855Y207600D01*
X214784Y207677D01*
X216713D01*
X216641Y207600D01*
D02*
G37*
G36*
X224789Y206890D02*
X224685Y206886D01*
X224580Y206871D01*
X224476Y206847D01*
X224373Y206812D01*
X224269Y206766D01*
X224166Y206711D01*
X224063Y206645D01*
X223960Y206569D01*
X223858Y206482D01*
X223756Y206385D01*
X222921Y207220D01*
X223017Y207323D01*
X223104Y207425D01*
X223180Y207527D01*
X223246Y207630D01*
X223302Y207734D01*
X223347Y207837D01*
X223382Y207941D01*
X223407Y208045D01*
X223421Y208149D01*
X223425Y208254D01*
X224789Y206890D01*
D02*
G37*
G36*
X220264Y202918D02*
X220267Y202717D01*
X220307Y202191D01*
X220331Y202041D01*
X220396Y201780D01*
X220436Y201668D01*
X220481Y201568D01*
X220532Y201482D01*
X218493Y201757D01*
X218605Y201754D01*
X218705Y201779D01*
X218794Y201831D01*
X218871Y201909D01*
X218936Y202015D01*
X218989Y202148D01*
X219030Y202308D01*
X219060Y202495D01*
X219077Y202709D01*
X219083Y202950D01*
X220264Y202918D01*
D02*
G37*
G36*
X215104Y201769D02*
X214869Y201525D01*
X214499Y201090D01*
X214364Y200897D01*
X214263Y200722D01*
X214195Y200563D01*
X214160Y200421D01*
X214159Y200297D01*
X214191Y200189D01*
X214257Y200098D01*
X212598Y201757D01*
X212689Y201691D01*
X212797Y201659D01*
X212921Y201660D01*
X213063Y201695D01*
X213222Y201763D01*
X213397Y201864D01*
X213590Y201999D01*
X213799Y202167D01*
X214269Y202604D01*
X215104Y201769D01*
D02*
G37*
G36*
X219770Y197838D02*
X219669Y197802D01*
X219581Y197742D01*
X219504Y197659D01*
X219439Y197552D01*
X219386Y197420D01*
X219344Y197265D01*
X219315Y197086D01*
X219297Y196883D01*
X219291Y196657D01*
X218110D01*
X218104Y196883D01*
X218087Y197086D01*
X218057Y197265D01*
X218016Y197420D01*
X217963Y197552D01*
X217898Y197659D01*
X217821Y197742D01*
X217732Y197802D01*
X217632Y197838D01*
X217520Y197850D01*
X219882D01*
X219770Y197838D01*
D02*
G37*
G36*
X219297Y191297D02*
X219315Y191094D01*
X219344Y190915D01*
X219386Y190760D01*
X219439Y190629D01*
X219504Y190521D01*
X219581Y190438D01*
X219669Y190378D01*
X219770Y190342D01*
X219882Y190330D01*
X217520D01*
X217632Y190342D01*
X217732Y190378D01*
X217821Y190438D01*
X217898Y190521D01*
X217963Y190629D01*
X218016Y190760D01*
X218057Y190915D01*
X218087Y191094D01*
X218104Y191297D01*
X218110Y191523D01*
X219291D01*
X219297Y191297D01*
D02*
G37*
G36*
X203612Y196541D02*
X203515Y196428D01*
X203429Y196314D01*
X203355Y196199D01*
X203292Y196083D01*
X203241Y195966D01*
X203201Y195849D01*
X203172Y195730D01*
X203155Y195611D01*
X203150Y195491D01*
X202362D01*
X202357Y195611D01*
X202339Y195730D01*
X202311Y195849D01*
X202271Y195966D01*
X202220Y196083D01*
X202157Y196199D01*
X202082Y196314D01*
X201997Y196428D01*
X201900Y196541D01*
X201791Y196654D01*
X203720D01*
X203612Y196541D01*
D02*
G37*
G36*
X203153Y194624D02*
X203165Y194485D01*
X203185Y194363D01*
X203213Y194257D01*
X203248Y194169D01*
X203291Y194097D01*
X203343Y194043D01*
X203402Y194005D01*
X203468Y193985D01*
X203543Y193981D01*
X201975Y193886D01*
X202049Y193899D01*
X202115Y193929D01*
X202173Y193976D01*
X202223Y194040D01*
X202266Y194121D01*
X202300Y194219D01*
X202327Y194334D01*
X202347Y194466D01*
X202358Y194615D01*
X202362Y194780D01*
X203150D01*
X203153Y194624D01*
D02*
G37*
G36*
X207886Y191351D02*
X207878Y191423D01*
X207855Y191488D01*
X207815Y191545D01*
X207760Y191595D01*
X207689Y191637D01*
X207603Y191671D01*
X207500Y191698D01*
X207382Y191717D01*
X207248Y191728D01*
X207099Y191732D01*
Y192520D01*
X207250Y192524D01*
X207385Y192535D01*
X207505Y192555D01*
X207609Y192583D01*
X207697Y192618D01*
X207769Y192661D01*
X207825Y192713D01*
X207865Y192772D01*
X207890Y192839D01*
X207898Y192913D01*
X207886Y191351D01*
D02*
G37*
G36*
X205702Y192839D02*
X205726Y192772D01*
X205766Y192713D01*
X205821Y192661D01*
X205893Y192618D01*
X205981Y192583D01*
X206085Y192555D01*
X206205Y192535D01*
X206341Y192524D01*
X206493Y192520D01*
Y191732D01*
X206341Y191728D01*
X206205Y191717D01*
X206085Y191697D01*
X205981Y191669D01*
X205893Y191634D01*
X205821Y191591D01*
X205766Y191539D01*
X205726Y191480D01*
X205702Y191413D01*
X205694Y191339D01*
Y192913D01*
X205702Y192839D01*
D02*
G37*
G36*
X213795Y176772D02*
X206412D01*
X200000Y183812D01*
Y189740D01*
X201453D01*
X201749Y189541D01*
X202239Y189444D01*
X205241D01*
X205731Y189541D01*
X206028Y189740D01*
X213795D01*
Y176772D01*
D02*
G37*
%LPC*%
G36*
X202740Y188726D02*
X202239D01*
X201667Y188612D01*
X201181Y188287D01*
X200857Y187802D01*
X200743Y187229D01*
Y186827D01*
X202740D01*
Y188726D01*
D02*
G37*
G36*
X210842Y187614D02*
Y186236D01*
X212811D01*
Y187614D01*
X210842D01*
D02*
G37*
G36*
X202740Y184827D02*
X200743D01*
Y184424D01*
X200857Y183852D01*
X201181Y183366D01*
X201667Y183042D01*
X202239Y182928D01*
X202740D01*
Y184827D01*
D02*
G37*
G36*
X212811Y184236D02*
X210842D01*
Y182858D01*
X212811D01*
Y184236D01*
D02*
G37*
G36*
X205241Y188726D02*
X204740D01*
Y185827D01*
Y182928D01*
X205241D01*
X205814Y183042D01*
X206299Y183366D01*
X206524Y183703D01*
X206874Y183597D01*
Y182858D01*
X208842D01*
Y185236D01*
Y187614D01*
X207018D01*
X206887Y187614D01*
X206751Y187711D01*
X206610Y187822D01*
X206299Y188287D01*
X205814Y188612D01*
X205241Y188726D01*
D02*
G37*
%LPD*%
G36*
X247518Y211523D02*
X247602Y211460D01*
X247693Y211404D01*
X247791Y211355D01*
X247896Y211314D01*
X248008Y211280D01*
X248128Y211254D01*
X248254Y211235D01*
X248388Y211224D01*
X248529Y211221D01*
Y210039D01*
X248388Y210036D01*
X248254Y210024D01*
X248128Y210006D01*
X248008Y209980D01*
X247896Y209946D01*
X247791Y209905D01*
X247693Y209856D01*
X247602Y209800D01*
X247518Y209736D01*
X247441Y209665D01*
Y211595D01*
X247518Y211523D01*
D02*
G37*
G36*
X216021Y143413D02*
X216106Y143350D01*
X216197Y143293D01*
X216295Y143245D01*
X216400Y143204D01*
X216512Y143170D01*
X216632Y143144D01*
X216758Y143125D01*
X216892Y143114D01*
X217032Y143110D01*
Y141929D01*
X216892Y141925D01*
X216758Y141914D01*
X216632Y141895D01*
X216512Y141869D01*
X216400Y141836D01*
X216295Y141795D01*
X216197Y141746D01*
X216106Y141690D01*
X216021Y141626D01*
X215945Y141555D01*
Y143484D01*
X216021Y143413D01*
D02*
G37*
D13*
X195276Y198425D02*
Y198611D01*
X200251Y203586D02*
Y203724D01*
X195276Y198611D02*
X200251Y203586D01*
X203740Y192126D02*
X209252D01*
X209842Y192717D01*
X200251Y209236D02*
X200841Y209827D01*
X200251Y203724D02*
Y209236D01*
X202756Y193110D02*
Y197638D01*
Y193110D02*
X203740Y192126D01*
X256299Y320472D02*
Y327165D01*
D25*
X273622Y212598D02*
D03*
Y204724D02*
D03*
X282480Y212598D02*
D03*
Y220472D02*
D03*
X237205Y187008D02*
D03*
Y194882D02*
D03*
X282480Y206693D02*
D03*
Y198819D02*
D03*
D26*
X257874Y194882D02*
D03*
X250000D02*
D03*
X237205Y230315D02*
D03*
X245079D02*
D03*
D29*
X193952Y203724D02*
D03*
X200251D02*
D03*
X218701Y199803D02*
D03*
X212402D02*
D03*
D32*
X203740Y192126D02*
D03*
Y185827D02*
D03*
D95*
X303543Y206299D02*
Y230315D01*
X288583Y245276D02*
X303543Y230315D01*
X297244Y207087D02*
Y225984D01*
X175197Y322677D02*
X200551D01*
X297244Y225984D01*
X169291Y269291D02*
X197101Y241481D01*
X130709Y269291D02*
X169291D01*
X218701Y199803D02*
X219674Y200776D01*
Y203138D01*
X224803Y208268D01*
X185221Y183642D02*
X185252Y183611D01*
X185221Y228921D02*
X185433Y229134D01*
X185221Y183642D02*
Y228921D01*
X185252Y145528D02*
Y183611D01*
X168661Y128937D02*
X185252Y145528D01*
X241976Y224016D02*
X244532D01*
X244980Y224464D01*
Y230217D01*
X241914Y224078D02*
X241976Y224016D01*
X257741Y219685D02*
X268504Y208923D01*
X248819Y219685D02*
X257741D01*
X268504Y170866D02*
Y208923D01*
X235864Y138226D02*
X268504Y170866D01*
X264173Y174409D02*
Y201575D01*
X255118Y210630D02*
X264173Y201575D01*
X208858Y138226D02*
X235864D01*
X232283Y142520D02*
X264173Y174409D01*
X214961Y142520D02*
X232283D01*
X246457Y210630D02*
X255118D01*
X173622Y279134D02*
X238189Y214567D01*
X258661D01*
X212402Y199902D02*
X215748Y203248D01*
Y208661D01*
X197101Y219276D02*
Y241481D01*
X157087Y283858D02*
X205567D01*
X266828Y222597D01*
X218701Y189567D02*
Y199803D01*
Y189567D02*
X219291Y188976D01*
X212402Y199803D02*
Y199902D01*
X243917Y192913D02*
X244094D01*
X241949Y194882D02*
X243917Y192913D01*
X237205Y194882D02*
X241949D01*
X282480Y198819D02*
X282480Y198819D01*
X244980Y230217D02*
X245079Y230315D01*
X273622Y198819D02*
Y204724D01*
X244094Y192913D02*
X244271D01*
X273622Y198819D02*
X282480D01*
X246240Y194882D02*
X250000D01*
X274606Y220472D02*
X282480D01*
X244271Y192913D02*
X246240Y194882D01*
D103*
X328898Y244094D02*
D03*
X154724Y332283D02*
D03*
Y342284D02*
D03*
X328898Y232283D02*
D03*
X318898D02*
D03*
X329921Y210709D02*
D03*
Y200709D02*
D03*
X318898Y244094D02*
D03*
X154724Y322284D02*
D03*
X299213Y160433D02*
D03*
X289213D02*
D03*
X208661Y128937D02*
D03*
X198661Y128957D02*
D03*
X188661Y128937D02*
D03*
X178661D02*
D03*
X329921Y190709D02*
D03*
X168661Y128937D02*
D03*
X158661D02*
D03*
X329921Y180709D02*
D03*
X175197Y342677D02*
D03*
Y332677D02*
D03*
Y322677D02*
D03*
D104*
X140472Y248583D02*
D03*
Y225827D02*
D03*
D105*
X125984Y220197D02*
D03*
Y254213D02*
D03*
D106*
X142441Y220197D02*
D03*
Y254213D02*
D03*
D107*
X297448Y311368D02*
D03*
X311368Y297448D02*
D03*
D108*
X347558Y316935D02*
D03*
X316935Y347558D02*
D03*
D109*
X295497Y125812D02*
D03*
X269906D02*
D03*
X295497Y143528D02*
D03*
X269906D02*
D03*
D110*
X188976Y188976D02*
D03*
X246063Y321457D02*
D03*
X240843D02*
D03*
X246063Y326677D02*
D03*
X240843D02*
D03*
X157087Y300394D02*
D03*
X288583Y245276D02*
D03*
X303543Y206299D02*
D03*
X184646Y262992D02*
D03*
X195276Y198425D02*
D03*
X130709Y269291D02*
D03*
X157087Y275590D02*
D03*
X224803Y208268D02*
D03*
X185433Y229134D02*
D03*
X241914Y224078D02*
D03*
X248819Y219685D02*
D03*
X214961Y142520D02*
D03*
X208858Y138226D02*
D03*
X246457Y210630D02*
D03*
X258661Y214567D02*
D03*
X157874Y172441D02*
D03*
Y164567D02*
D03*
X173622Y279134D02*
D03*
X297244Y207087D02*
D03*
X154331Y187008D02*
D03*
X188189Y218898D02*
D03*
X215748Y208661D02*
D03*
X168898Y205118D02*
D03*
X157087Y283858D02*
D03*
X202756Y197638D02*
D03*
X259879Y320472D02*
D03*
X274606Y220472D02*
D03*
X256299Y327165D02*
D03*
Y320472D02*
D03*
X266828Y222597D02*
D03*
X244094Y192913D02*
D03*
X232299Y320488D02*
D03*
X229331D02*
D03*
X232283Y317520D02*
D03*
X259842Y317323D02*
D03*
X273622Y198819D02*
D03*
X229315Y317520D02*
D03*
X256299Y317323D02*
D03*
X250919Y256693D02*
D03*
X246325D02*
D03*
X241732D02*
D03*
X237139D02*
D03*
X157087Y292126D02*
D03*
X154331Y168504D02*
D03*
X329724Y265945D02*
D03*
Y273819D02*
D03*
X322835D02*
D03*
X329724Y280709D02*
D03*
X209449Y178740D02*
D03*
X192913Y175856D02*
D03*
X182283Y180709D02*
D03*
X179134Y183858D02*
D03*
X176181Y187008D02*
D03*
X164370Y187992D02*
D03*
X150591Y128937D02*
D03*
X249213Y137795D02*
D03*
X277953Y157480D02*
D03*
X322835Y280709D02*
D03*
X316929Y265945D02*
D03*
X322835D02*
D03*
X316929Y273819D02*
D03*
X217323Y324016D02*
D03*
X316929Y280709D02*
D03*
D111*
X197101Y219276D02*
D03*
X193361Y209827D02*
D03*
X200841D02*
D03*
D112*
X219291Y188976D02*
D03*
X209842Y192717D02*
D03*
Y185236D02*
D03*
M02*
