G04*
G04 #@! TF.GenerationSoftware,Altium Limited,Altium Designer,24.4.1 (13)*
G04*
G04 Layer_Color=16711935*
%FSLAX25Y25*%
%MOIN*%
G70*
G04*
G04 #@! TF.SameCoordinates,4848AC28-F08C-4A73-8BB8-69E0F556E231*
G04*
G04*
G04 #@! TF.FilePolarity,Negative*
G04*
G01*
G75*
G04:AMPARAMS|DCode=60|XSize=65.09mil|YSize=51.31mil|CornerRadius=9.41mil|HoleSize=0mil|Usage=FLASHONLY|Rotation=180.000|XOffset=0mil|YOffset=0mil|HoleType=Round|Shape=RoundedRectangle|*
%AMROUNDEDRECTD60*
21,1,0.06509,0.03248,0,0,180.0*
21,1,0.04626,0.05131,0,0,180.0*
1,1,0.01883,-0.02313,0.01624*
1,1,0.01883,0.02313,0.01624*
1,1,0.01883,0.02313,-0.01624*
1,1,0.01883,-0.02313,-0.01624*
%
%ADD60ROUNDEDRECTD60*%
G04:AMPARAMS|DCode=61|XSize=65.09mil|YSize=51.31mil|CornerRadius=9.41mil|HoleSize=0mil|Usage=FLASHONLY|Rotation=270.000|XOffset=0mil|YOffset=0mil|HoleType=Round|Shape=RoundedRectangle|*
%AMROUNDEDRECTD61*
21,1,0.06509,0.03248,0,0,270.0*
21,1,0.04626,0.05131,0,0,270.0*
1,1,0.01883,-0.01624,-0.02313*
1,1,0.01883,-0.01624,0.02313*
1,1,0.01883,0.01624,0.02313*
1,1,0.01883,0.01624,-0.02313*
%
%ADD61ROUNDEDRECTD61*%
G04:AMPARAMS|DCode=64|XSize=47.37mil|YSize=45.4mil|CornerRadius=8.68mil|HoleSize=0mil|Usage=FLASHONLY|Rotation=90.000|XOffset=0mil|YOffset=0mil|HoleType=Round|Shape=RoundedRectangle|*
%AMROUNDEDRECTD64*
21,1,0.04737,0.02805,0,0,90.0*
21,1,0.03002,0.04540,0,0,90.0*
1,1,0.01735,0.01403,0.01501*
1,1,0.01735,0.01403,-0.01501*
1,1,0.01735,-0.01403,-0.01501*
1,1,0.01735,-0.01403,0.01501*
%
%ADD64ROUNDEDRECTD64*%
G04:AMPARAMS|DCode=67|XSize=47.37mil|YSize=45.4mil|CornerRadius=8.68mil|HoleSize=0mil|Usage=FLASHONLY|Rotation=0.000|XOffset=0mil|YOffset=0mil|HoleType=Round|Shape=RoundedRectangle|*
%AMROUNDEDRECTD67*
21,1,0.04737,0.02805,0,0,0.0*
21,1,0.03002,0.04540,0,0,0.0*
1,1,0.01735,0.01501,-0.01403*
1,1,0.01735,-0.01501,-0.01403*
1,1,0.01735,-0.01501,0.01403*
1,1,0.01735,0.01501,0.01403*
%
%ADD67ROUNDEDRECTD67*%
%ADD86C,0.07887*%
%ADD87C,0.03359*%
%ADD88O,0.07887X0.04343*%
%ADD89O,0.09068X0.04934*%
%ADD90C,0.10839*%
%ADD91C,0.06706*%
%ADD92C,0.08674*%
%ADD93O,0.00800X0.06800*%
%ADD94C,0.03556*%
%ADD113R,0.03556X0.04737*%
%ADD114R,0.04737X0.03556*%
D60*
X273622Y212598D02*
D03*
Y204724D02*
D03*
X282480Y212598D02*
D03*
Y220472D02*
D03*
X237205Y187008D02*
D03*
Y194882D02*
D03*
X282480Y206693D02*
D03*
Y198819D02*
D03*
D61*
X257874Y194882D02*
D03*
X250000D02*
D03*
X237205Y230315D02*
D03*
X245079D02*
D03*
D64*
X193952Y203724D02*
D03*
X200251D02*
D03*
X218701Y199803D02*
D03*
X212402D02*
D03*
D67*
X203740Y192126D02*
D03*
Y185827D02*
D03*
D86*
X328898Y244094D02*
D03*
X154724Y332283D02*
D03*
Y342284D02*
D03*
X328898Y232283D02*
D03*
X318898D02*
D03*
X329921Y210709D02*
D03*
Y200709D02*
D03*
X318898Y244094D02*
D03*
X154724Y322284D02*
D03*
X299213Y160433D02*
D03*
X289213D02*
D03*
X208661Y128937D02*
D03*
X198661Y128957D02*
D03*
X188661Y128937D02*
D03*
X178661D02*
D03*
X329921Y190709D02*
D03*
X168661Y128937D02*
D03*
X158661D02*
D03*
X329921Y180709D02*
D03*
X175197Y342677D02*
D03*
Y332677D02*
D03*
Y322677D02*
D03*
D87*
X140472Y248583D02*
D03*
Y225827D02*
D03*
D88*
X125984Y220197D02*
D03*
Y254213D02*
D03*
D89*
X142441Y220197D02*
D03*
Y254213D02*
D03*
D90*
X297448Y311368D02*
D03*
X311368Y297448D02*
D03*
D91*
X347558Y316935D02*
D03*
X316935Y347558D02*
D03*
D92*
X295497Y125812D02*
D03*
X269906D02*
D03*
X295497Y143528D02*
D03*
X269906D02*
D03*
D93*
X129921Y342520D02*
D03*
Y129921D02*
D03*
X342520D02*
D03*
D94*
X188976Y188976D02*
D03*
X246063Y321457D02*
D03*
X240843D02*
D03*
X246063Y326677D02*
D03*
X240843D02*
D03*
X157087Y300394D02*
D03*
X288583Y245276D02*
D03*
X303543Y206299D02*
D03*
X184646Y262992D02*
D03*
X195276Y198425D02*
D03*
X130709Y269291D02*
D03*
X157087Y275590D02*
D03*
X224803Y208268D02*
D03*
X185433Y229134D02*
D03*
X241914Y224078D02*
D03*
X248819Y219685D02*
D03*
X214961Y142520D02*
D03*
X208858Y138226D02*
D03*
X246457Y210630D02*
D03*
X258661Y214567D02*
D03*
X157874Y172441D02*
D03*
Y164567D02*
D03*
X173622Y279134D02*
D03*
X297244Y207087D02*
D03*
X154331Y187008D02*
D03*
X188189Y218898D02*
D03*
X215748Y208661D02*
D03*
X168898Y205118D02*
D03*
X157087Y283858D02*
D03*
X202756Y197638D02*
D03*
X259879Y320472D02*
D03*
X274606Y220472D02*
D03*
X256299Y327165D02*
D03*
Y320472D02*
D03*
X266828Y222597D02*
D03*
X244094Y192913D02*
D03*
X232299Y320488D02*
D03*
X229331D02*
D03*
X232283Y317520D02*
D03*
X259842Y317323D02*
D03*
X273622Y198819D02*
D03*
X229315Y317520D02*
D03*
X256299Y317323D02*
D03*
X250919Y256693D02*
D03*
X246325D02*
D03*
X241732D02*
D03*
X237139D02*
D03*
X157087Y292126D02*
D03*
X154331Y168504D02*
D03*
X329724Y265945D02*
D03*
Y273819D02*
D03*
X322835D02*
D03*
X329724Y280709D02*
D03*
X209449Y178740D02*
D03*
X192913Y175856D02*
D03*
X182283Y180709D02*
D03*
X179134Y183858D02*
D03*
X176181Y187008D02*
D03*
X164370Y187992D02*
D03*
X150591Y128937D02*
D03*
X249213Y137795D02*
D03*
X277953Y157480D02*
D03*
X322835Y280709D02*
D03*
X316929Y265945D02*
D03*
X322835D02*
D03*
X316929Y273819D02*
D03*
X217323Y324016D02*
D03*
X316929Y280709D02*
D03*
D113*
X197101Y219276D02*
D03*
X193361Y209827D02*
D03*
X200841D02*
D03*
D114*
X219291Y188976D02*
D03*
X209842Y192717D02*
D03*
Y185236D02*
D03*
M02*
