G04*
G04 #@! TF.GenerationSoftware,Altium Limited,Altium Designer,24.4.1 (13)*
G04*
G04 Layer_Physical_Order=3*
G04 Layer_Color=16440176*
%FSLAX25Y25*%
%MOIN*%
G70*
G04*
G04 #@! TF.SameCoordinates,4848AC28-F08C-4A73-8BB8-69E0F556E231*
G04*
G04*
G04 #@! TF.FilePolarity,Positive*
G04*
G01*
G75*
%ADD103C,0.07087*%
%ADD110C,0.02756*%
G36*
X352451Y326948D02*
Y134534D01*
X352451Y134534D01*
X352451Y134534D01*
X352442Y134188D01*
X352309Y132503D01*
X352261Y132135D01*
X351756Y130034D01*
X350882Y127923D01*
X349753Y126081D01*
X349527Y125786D01*
X348353Y124411D01*
X348030Y124088D01*
X346655Y122914D01*
X346360Y122688D01*
X344518Y121559D01*
X342407Y120685D01*
X340306Y120180D01*
X339938Y120132D01*
X338136Y119990D01*
X337908D01*
X337907Y119990D01*
X133532D01*
X133527Y119990D01*
X133183Y119990D01*
X132837Y119999D01*
X131152Y120132D01*
X130784Y120180D01*
X128683Y120685D01*
X126572Y121559D01*
X124729Y122688D01*
X124435Y122914D01*
X123060Y124088D01*
X122737Y124411D01*
X121563Y125786D01*
X121337Y126081D01*
X120208Y127923D01*
X119334Y130034D01*
X118829Y132135D01*
X118781Y132503D01*
X118648Y134188D01*
X118639Y134534D01*
X118639D01*
Y338916D01*
X118639Y339258D01*
X118639D01*
X118648Y339604D01*
X118781Y341289D01*
X118829Y341657D01*
X119334Y343758D01*
X120208Y345869D01*
X121337Y347711D01*
X121563Y348006D01*
X122737Y349381D01*
X123060Y349704D01*
X124435Y350878D01*
X124730Y351104D01*
X126572Y352233D01*
X128683Y353107D01*
X130784Y353612D01*
X131152Y353660D01*
X132837Y353793D01*
X133183Y353802D01*
Y353802D01*
X133183Y353802D01*
X325597D01*
X352451Y326948D01*
D02*
G37*
%LPC*%
G36*
X255906Y349228D02*
X155512Y349228D01*
X154736Y349228D01*
X154659Y349213D01*
X154580D01*
X153058Y348910D01*
X152985Y348880D01*
X152908Y348864D01*
X151475Y348271D01*
X151409Y348227D01*
X151336Y348197D01*
X150046Y347335D01*
X149990Y347279D01*
X149925Y347235D01*
X148828Y346138D01*
X148784Y346073D01*
X148728Y346017D01*
X147866Y344727D01*
X147836Y344654D01*
X147792Y344588D01*
X147199Y343155D01*
X147183Y343078D01*
X147153Y343004D01*
X146850Y341483D01*
Y341404D01*
X146835Y341327D01*
X146835Y340551D01*
X146835Y340551D01*
X146835Y340551D01*
X146835Y340222D01*
X146835Y301181D01*
X146835Y300793D01*
X146850Y300716D01*
Y300637D01*
X147002Y299876D01*
X147032Y299803D01*
X147047Y299726D01*
X147344Y299009D01*
X147388Y298943D01*
X147418Y298870D01*
X147849Y298225D01*
X147905Y298169D01*
X147949Y298104D01*
X148497Y297555D01*
X148563Y297511D01*
X148619Y297456D01*
X149264Y297025D01*
X149337Y296994D01*
X149403Y296950D01*
X150119Y296654D01*
X150197Y296638D01*
X150270Y296608D01*
X151030Y296457D01*
X151109D01*
X151187Y296441D01*
X151575Y296441D01*
X208648Y296441D01*
X209368Y296418D01*
X210809Y296228D01*
X212199Y295855D01*
X213529Y295304D01*
X214776Y294585D01*
X215918Y293708D01*
X216936Y292690D01*
X217813Y291548D01*
X218533Y290301D01*
X219084Y288971D01*
X219456Y287580D01*
X219646Y286140D01*
X219670Y285418D01*
Y259842D01*
X219670Y259261D01*
X219685Y259183D01*
Y259104D01*
X219912Y257963D01*
X219942Y257890D01*
X219958Y257813D01*
X220403Y256738D01*
X220447Y256672D01*
X220477Y256599D01*
X221123Y255632D01*
X221179Y255576D01*
X221223Y255510D01*
X222046Y254688D01*
X222111Y254644D01*
X222167Y254588D01*
X223135Y253942D01*
X223208Y253911D01*
X223273Y253867D01*
X224348Y253422D01*
X224426Y253407D01*
X224499Y253377D01*
X225640Y253150D01*
X225719D01*
X225796Y253134D01*
X226378Y253134D01*
X260424D01*
X260502Y253150D01*
X260581D01*
X261722Y253377D01*
X261795Y253407D01*
X261872Y253422D01*
X262947Y253867D01*
X263013Y253911D01*
X263086Y253942D01*
X264053Y254588D01*
X264109Y254644D01*
X264175Y254688D01*
X264997Y255510D01*
X265041Y255576D01*
X265097Y255632D01*
X265743Y256599D01*
X265774Y256672D01*
X265818Y256738D01*
X266263Y257813D01*
X266278Y257890D01*
X266308Y257963D01*
X266535Y259104D01*
Y259183D01*
X266551Y259261D01*
Y259842D01*
X266551Y259842D01*
X266551Y338583D01*
X266551Y339552D01*
X266535Y339630D01*
Y339709D01*
X266157Y341610D01*
X266127Y341683D01*
X266111Y341761D01*
X265370Y343552D01*
X265326Y343618D01*
X265295Y343691D01*
X264218Y345303D01*
X264162Y345359D01*
X264118Y345425D01*
X262747Y346796D01*
X262682Y346839D01*
X262626Y346895D01*
X261014Y347972D01*
X260941Y348003D01*
X260875Y348047D01*
X259084Y348789D01*
X259006Y348804D01*
X258933Y348834D01*
X257031Y349213D01*
X256952D01*
X256875Y349228D01*
X255906Y349228D01*
X255906Y349228D01*
D02*
G37*
G36*
X317428Y351298D02*
X316443D01*
X315492Y351043D01*
X314639Y350551D01*
X313942Y349854D01*
X313450Y349002D01*
X313195Y348050D01*
Y347066D01*
X313450Y346114D01*
X313942Y345262D01*
X314639Y344565D01*
X315492Y344073D01*
X316443Y343818D01*
X317428D01*
X318379Y344073D01*
X319232Y344565D01*
X319928Y345262D01*
X320421Y346114D01*
X320675Y347066D01*
Y348050D01*
X320421Y349002D01*
X319928Y349854D01*
X319232Y350551D01*
X318379Y351043D01*
X317428Y351298D01*
D02*
G37*
G36*
X130580Y349213D02*
X129262D01*
X127969Y348955D01*
X126751Y348451D01*
X125655Y347718D01*
X124723Y346786D01*
X123990Y345690D01*
X123486Y344472D01*
X123228Y343179D01*
Y341861D01*
X123486Y340567D01*
X123990Y339349D01*
X124723Y338253D01*
X125655Y337321D01*
X126751Y336589D01*
X127969Y336084D01*
X129262Y335827D01*
X130580D01*
X131874Y336084D01*
X133091Y336589D01*
X134188Y337321D01*
X135120Y338253D01*
X135852Y339349D01*
X136357Y340567D01*
X136614Y341861D01*
Y343179D01*
X136357Y344472D01*
X135852Y345690D01*
X135120Y346786D01*
X134188Y347718D01*
X133091Y348451D01*
X131874Y348955D01*
X130580Y349213D01*
D02*
G37*
G36*
X348050Y320675D02*
X347066D01*
X346114Y320421D01*
X345262Y319928D01*
X344565Y319232D01*
X344073Y318379D01*
X343818Y317428D01*
Y316443D01*
X344073Y315492D01*
X344565Y314639D01*
X345262Y313942D01*
X346114Y313450D01*
X347066Y313195D01*
X348050D01*
X349002Y313450D01*
X349854Y313942D01*
X350551Y314639D01*
X351043Y315492D01*
X351298Y316443D01*
Y317428D01*
X351043Y318379D01*
X350551Y319232D01*
X349854Y319928D01*
X349002Y320421D01*
X348050Y320675D01*
D02*
G37*
G36*
X298020Y317175D02*
X296876D01*
X295754Y316951D01*
X294697Y316514D01*
X293746Y315878D01*
X292937Y315069D01*
X292302Y314118D01*
X291864Y313061D01*
X291641Y311940D01*
Y310796D01*
X291864Y309674D01*
X292302Y308617D01*
X292937Y307666D01*
X293746Y306857D01*
X294697Y306221D01*
X295754Y305784D01*
X296876Y305560D01*
X298020D01*
X299142Y305784D01*
X300199Y306221D01*
X301150Y306857D01*
X301959Y307666D01*
X302594Y308617D01*
X303032Y309674D01*
X303255Y310796D01*
Y311940D01*
X303032Y313061D01*
X302594Y314118D01*
X301959Y315069D01*
X301150Y315878D01*
X300199Y316514D01*
X299142Y316951D01*
X298020Y317175D01*
D02*
G37*
G36*
X311940Y303255D02*
X310796D01*
X309674Y303032D01*
X308617Y302594D01*
X307666Y301959D01*
X306857Y301150D01*
X306221Y300199D01*
X305784Y299142D01*
X305560Y298020D01*
Y296876D01*
X305784Y295754D01*
X306221Y294697D01*
X306857Y293746D01*
X307666Y292937D01*
X308617Y292302D01*
X309674Y291864D01*
X310796Y291641D01*
X311940D01*
X313061Y291864D01*
X314118Y292302D01*
X315069Y292937D01*
X315878Y293746D01*
X316514Y294697D01*
X316951Y295754D01*
X317175Y296876D01*
Y298020D01*
X316951Y299142D01*
X316514Y300199D01*
X315878Y301150D01*
X315069Y301959D01*
X314118Y302594D01*
X313061Y303032D01*
X311940Y303255D01*
D02*
G37*
G36*
X157517Y286024D02*
X156656D01*
X155860Y285694D01*
X155251Y285085D01*
X154921Y284289D01*
Y283428D01*
X155251Y282632D01*
X155860Y282023D01*
X156656Y281693D01*
X157517D01*
X158313Y282023D01*
X158922Y282632D01*
X159252Y283428D01*
Y284289D01*
X158922Y285085D01*
X158313Y285694D01*
X157517Y286024D01*
D02*
G37*
G36*
X174053Y281299D02*
X173191D01*
X172396Y280970D01*
X171786Y280360D01*
X171457Y279565D01*
Y278703D01*
X171786Y277907D01*
X172396Y277298D01*
X173191Y276969D01*
X174053D01*
X174849Y277298D01*
X175458Y277907D01*
X175787Y278703D01*
Y279565D01*
X175458Y280360D01*
X174849Y280970D01*
X174053Y281299D01*
D02*
G37*
G36*
X131139Y271457D02*
X130278D01*
X129482Y271127D01*
X128873Y270518D01*
X128543Y269722D01*
Y268861D01*
X128873Y268065D01*
X129482Y267456D01*
X130278Y267126D01*
X131139D01*
X131935Y267456D01*
X132544Y268065D01*
X132874Y268861D01*
Y269722D01*
X132544Y270518D01*
X131935Y271127D01*
X131139Y271457D01*
D02*
G37*
G36*
X127756Y256794D02*
X124213D01*
X123545Y256706D01*
X122922Y256448D01*
X122388Y256038D01*
X121977Y255503D01*
X121719Y254881D01*
X121632Y254213D01*
X121719Y253545D01*
X121977Y252922D01*
X122388Y252387D01*
X122922Y251977D01*
X123545Y251719D01*
X124213Y251631D01*
X127756D01*
X128424Y251719D01*
X129046Y251977D01*
X129581Y252387D01*
X129991Y252922D01*
X130249Y253545D01*
X130337Y254213D01*
X130249Y254881D01*
X129991Y255503D01*
X129581Y256038D01*
X129046Y256448D01*
X128424Y256706D01*
X127756Y256794D01*
D02*
G37*
G36*
X144508Y257092D02*
X140374D01*
X139629Y256994D01*
X138935Y256706D01*
X138338Y256248D01*
X137881Y255652D01*
X137593Y254958D01*
X137495Y254213D01*
X137593Y253467D01*
X137881Y252773D01*
X138338Y252177D01*
X138935Y251719D01*
X139629Y251432D01*
X140374Y251334D01*
X144508D01*
X145253Y251432D01*
X145947Y251719D01*
X146544Y252177D01*
X147001Y252773D01*
X147289Y253467D01*
X147387Y254213D01*
X147289Y254958D01*
X147001Y255652D01*
X146544Y256248D01*
X145947Y256706D01*
X145253Y256994D01*
X144508Y257092D01*
D02*
G37*
G36*
X140884Y250650D02*
X140061D01*
X139302Y250335D01*
X138720Y249753D01*
X138406Y248994D01*
Y248171D01*
X138720Y247412D01*
X139302Y246830D01*
X140061Y246516D01*
X140884D01*
X141643Y246830D01*
X142225Y247412D01*
X142539Y248171D01*
Y248994D01*
X142225Y249753D01*
X141643Y250335D01*
X140884Y250650D01*
D02*
G37*
G36*
X289013Y247441D02*
X288152D01*
X287356Y247111D01*
X286747Y246502D01*
X286417Y245706D01*
Y244845D01*
X286747Y244049D01*
X287356Y243440D01*
X288152Y243110D01*
X289013D01*
X289809Y243440D01*
X290418Y244049D01*
X290748Y244845D01*
Y245706D01*
X290418Y246502D01*
X289809Y247111D01*
X289013Y247441D01*
D02*
G37*
G36*
X329468Y248425D02*
X328327D01*
X327226Y248130D01*
X326238Y247560D01*
X325432Y246754D01*
X324862Y245766D01*
X324567Y244665D01*
Y243524D01*
X324862Y242423D01*
X325432Y241435D01*
X326238Y240629D01*
X327226Y240059D01*
X328327Y239764D01*
X329468D01*
X330569Y240059D01*
X331557Y240629D01*
X332363Y241435D01*
X332933Y242423D01*
X333228Y243524D01*
Y244665D01*
X332933Y245766D01*
X332363Y246754D01*
X331557Y247560D01*
X330569Y248130D01*
X329468Y248425D01*
D02*
G37*
G36*
X319468D02*
X318327D01*
X317226Y248130D01*
X316238Y247560D01*
X315432Y246754D01*
X314862Y245766D01*
X314567Y244665D01*
Y243524D01*
X314862Y242423D01*
X315432Y241435D01*
X316238Y240629D01*
X317226Y240059D01*
X318327Y239764D01*
X319468D01*
X320569Y240059D01*
X321557Y240629D01*
X322363Y241435D01*
X322933Y242423D01*
X323228Y243524D01*
Y244665D01*
X322933Y245766D01*
X322363Y246754D01*
X321557Y247560D01*
X320569Y248130D01*
X319468Y248425D01*
D02*
G37*
G36*
X319898Y236719D02*
Y233283D01*
X323333D01*
X323131Y234037D01*
X322533Y235073D01*
X321687Y235919D01*
X320651Y236517D01*
X319898Y236719D01*
D02*
G37*
G36*
X317898D02*
X317144Y236517D01*
X316108Y235919D01*
X315262Y235073D01*
X314664Y234037D01*
X314462Y233283D01*
X317898D01*
Y236719D01*
D02*
G37*
G36*
X329468Y236614D02*
X328327D01*
X327226Y236319D01*
X326238Y235749D01*
X325432Y234943D01*
X324862Y233955D01*
X324567Y232854D01*
Y231713D01*
X324862Y230612D01*
X325432Y229624D01*
X326238Y228818D01*
X327226Y228248D01*
X328327Y227953D01*
X329468D01*
X330569Y228248D01*
X331557Y228818D01*
X332363Y229624D01*
X332933Y230612D01*
X333228Y231713D01*
Y232854D01*
X332933Y233955D01*
X332363Y234943D01*
X331557Y235749D01*
X330569Y236319D01*
X329468Y236614D01*
D02*
G37*
G36*
X323333Y231283D02*
X319898D01*
Y227848D01*
X320651Y228050D01*
X321687Y228648D01*
X322533Y229494D01*
X323131Y230530D01*
X323333Y231283D01*
D02*
G37*
G36*
X317898D02*
X314462D01*
X314664Y230530D01*
X315262Y229494D01*
X316108Y228648D01*
X317144Y228050D01*
X317898Y227848D01*
Y231283D01*
D02*
G37*
G36*
X185864Y231299D02*
X185002D01*
X184206Y230970D01*
X183597Y230360D01*
X183268Y229565D01*
Y228703D01*
X183597Y227907D01*
X184206Y227298D01*
X185002Y226969D01*
X185864D01*
X186660Y227298D01*
X187269Y227907D01*
X187598Y228703D01*
Y229565D01*
X187269Y230360D01*
X186660Y230970D01*
X185864Y231299D01*
D02*
G37*
G36*
X140884Y227894D02*
X140061D01*
X139302Y227579D01*
X138720Y226998D01*
X138406Y226238D01*
Y225416D01*
X138720Y224656D01*
X139302Y224075D01*
X140061Y223760D01*
X140884D01*
X141643Y224075D01*
X142225Y224656D01*
X142539Y225416D01*
Y226238D01*
X142225Y226998D01*
X141643Y227579D01*
X140884Y227894D01*
D02*
G37*
G36*
X267259Y224762D02*
X266398D01*
X265602Y224432D01*
X264993Y223823D01*
X264663Y223027D01*
Y222166D01*
X264993Y221370D01*
X265602Y220761D01*
X266398Y220431D01*
X267259D01*
X268055Y220761D01*
X268664Y221370D01*
X268994Y222166D01*
Y223027D01*
X268664Y223823D01*
X268055Y224432D01*
X267259Y224762D01*
D02*
G37*
G36*
X127756Y222778D02*
X124213D01*
X123545Y222690D01*
X122922Y222432D01*
X122388Y222022D01*
X121977Y221487D01*
X121719Y220865D01*
X121632Y220197D01*
X121719Y219529D01*
X121977Y218906D01*
X122388Y218372D01*
X122922Y217962D01*
X123545Y217704D01*
X124213Y217616D01*
X127756D01*
X128424Y217704D01*
X129046Y217962D01*
X129581Y218372D01*
X129991Y218906D01*
X130249Y219529D01*
X130337Y220197D01*
X130249Y220865D01*
X129991Y221487D01*
X129581Y222022D01*
X129046Y222432D01*
X128424Y222690D01*
X127756Y222778D01*
D02*
G37*
G36*
X249250Y221850D02*
X248388D01*
X247592Y221521D01*
X246983Y220912D01*
X246654Y220116D01*
Y219254D01*
X246983Y218459D01*
X247592Y217849D01*
X248388Y217520D01*
X249250D01*
X250045Y217849D01*
X250655Y218459D01*
X250984Y219254D01*
Y220116D01*
X250655Y220912D01*
X250045Y221521D01*
X249250Y221850D01*
D02*
G37*
G36*
X144508Y223076D02*
X140374D01*
X139629Y222978D01*
X138935Y222690D01*
X138338Y222233D01*
X137881Y221636D01*
X137593Y220942D01*
X137495Y220197D01*
X137593Y219452D01*
X137881Y218757D01*
X138338Y218161D01*
X138935Y217704D01*
X139629Y217416D01*
X140374Y217318D01*
X144508D01*
X145253Y217416D01*
X145947Y217704D01*
X146544Y218161D01*
X147001Y218757D01*
X147289Y219452D01*
X147387Y220197D01*
X147289Y220942D01*
X147001Y221636D01*
X146544Y222233D01*
X145947Y222690D01*
X145253Y222978D01*
X144508Y223076D01*
D02*
G37*
G36*
X183805Y215654D02*
X183805Y215654D01*
X183072Y215654D01*
X183036Y215647D01*
X182999Y215651D01*
X181538Y215517D01*
X181503Y215507D01*
X181466Y215507D01*
X180024Y215241D01*
X179989Y215227D01*
X179952Y215224D01*
X178541Y214828D01*
X178508Y214811D01*
X178471Y214805D01*
X177101Y214282D01*
X177070Y214262D01*
X177034Y214252D01*
X175718Y213606D01*
X175688Y213584D01*
X175653Y213571D01*
X174401Y212808D01*
X174374Y212783D01*
X174341Y212767D01*
X173163Y211893D01*
X173138Y211865D01*
X173106Y211846D01*
X172560Y211358D01*
X160073Y200185D01*
X159686Y199839D01*
X159635Y199771D01*
X159573Y199714D01*
X158960Y198875D01*
X158925Y198798D01*
X158876Y198729D01*
X158452Y197781D01*
X158433Y197698D01*
X158399Y197620D01*
X158183Y196604D01*
X158181Y196520D01*
X158165Y196437D01*
Y189035D01*
X158181Y188954D01*
X158182Y188872D01*
X158400Y187813D01*
X158432Y187738D01*
X158449Y187657D01*
X158877Y186664D01*
X158924Y186597D01*
X158957Y186522D01*
X159577Y185635D01*
X159636Y185579D01*
X159683Y185512D01*
X160076Y185141D01*
X173618Y172352D01*
X174218Y171785D01*
X174283Y171744D01*
X174338Y171692D01*
X175730Y170804D01*
X175801Y170776D01*
X175865Y170735D01*
X177400Y170124D01*
X177475Y170110D01*
X177545Y170082D01*
X179167Y169771D01*
X179244Y169772D01*
X179318Y169757D01*
X206212D01*
X206791Y169757D01*
X206868Y169772D01*
X206947Y169772D01*
X208083Y169997D01*
X208156Y170027D01*
X208233Y170043D01*
X209304Y170484D01*
X209370Y170528D01*
X209442Y170558D01*
X210407Y171199D01*
X210463Y171254D01*
X210529Y171298D01*
X211350Y172114D01*
X211395Y172180D01*
X211450Y172235D01*
X212098Y173196D01*
X212128Y173268D01*
X212172Y173333D01*
X212621Y174401D01*
X212637Y174478D01*
X212667Y174551D01*
X212900Y175686D01*
X212900Y175765D01*
X212916Y175842D01*
X212920Y176421D01*
X212919Y176423D01*
X212920Y176426D01*
Y205993D01*
X212920Y205993D01*
X212920Y206865D01*
X212905Y206943D01*
Y207022D01*
X212564Y208733D01*
X212534Y208806D01*
X212519Y208884D01*
X211851Y210496D01*
X211807Y210562D01*
X211777Y210635D01*
X210807Y212086D01*
X210751Y212142D01*
X210707Y212207D01*
X209473Y213441D01*
X209408Y213485D01*
X209352Y213541D01*
X207901Y214510D01*
X207828Y214541D01*
X207762Y214585D01*
X206150Y215252D01*
X206073Y215268D01*
X205999Y215298D01*
X204288Y215638D01*
X204209D01*
X204132Y215654D01*
X203259Y215654D01*
X183805Y215654D01*
D02*
G37*
G36*
X259092Y216732D02*
X258231D01*
X257435Y216403D01*
X256826Y215793D01*
X256496Y214998D01*
Y214136D01*
X256826Y213340D01*
X257435Y212731D01*
X258231Y212402D01*
X259092D01*
X259888Y212731D01*
X260497Y213340D01*
X260827Y214136D01*
Y214998D01*
X260497Y215793D01*
X259888Y216403D01*
X259092Y216732D01*
D02*
G37*
G36*
X246887Y212795D02*
X246026D01*
X245230Y212466D01*
X244621Y211857D01*
X244291Y211061D01*
Y210199D01*
X244621Y209403D01*
X245230Y208794D01*
X246026Y208465D01*
X246887D01*
X247683Y208794D01*
X248292Y209403D01*
X248622Y210199D01*
Y211061D01*
X248292Y211857D01*
X247683Y212466D01*
X246887Y212795D01*
D02*
G37*
G36*
X330491Y215039D02*
X329351D01*
X328250Y214744D01*
X327262Y214174D01*
X326456Y213368D01*
X325886Y212380D01*
X325591Y211279D01*
Y210139D01*
X325886Y209037D01*
X326456Y208050D01*
X327262Y207243D01*
X328250Y206673D01*
X329351Y206378D01*
X330491D01*
X331593Y206673D01*
X332580Y207243D01*
X333387Y208050D01*
X333957Y209037D01*
X334252Y210139D01*
Y211279D01*
X333957Y212380D01*
X333387Y213368D01*
X332580Y214174D01*
X331593Y214744D01*
X330491Y215039D01*
D02*
G37*
G36*
X225234Y210433D02*
X224372D01*
X223577Y210103D01*
X222968Y209494D01*
X222638Y208698D01*
Y207837D01*
X222968Y207041D01*
X223577Y206432D01*
X224372Y206102D01*
X225234D01*
X226030Y206432D01*
X226639Y207041D01*
X226969Y207837D01*
Y208698D01*
X226639Y209494D01*
X226030Y210103D01*
X225234Y210433D01*
D02*
G37*
G36*
X297675Y209252D02*
X296813D01*
X296018Y208922D01*
X295408Y208313D01*
X295079Y207517D01*
Y206656D01*
X295408Y205860D01*
X296018Y205251D01*
X296813Y204921D01*
X297675D01*
X298471Y205251D01*
X299080Y205860D01*
X299409Y206656D01*
Y207517D01*
X299080Y208313D01*
X298471Y208922D01*
X297675Y209252D01*
D02*
G37*
G36*
X303974Y208465D02*
X303113D01*
X302317Y208135D01*
X301708Y207526D01*
X301378Y206730D01*
Y205869D01*
X301708Y205073D01*
X302317Y204464D01*
X303113Y204134D01*
X303974D01*
X304770Y204464D01*
X305379Y205073D01*
X305709Y205869D01*
Y206730D01*
X305379Y207526D01*
X304770Y208135D01*
X303974Y208465D01*
D02*
G37*
G36*
X330491Y205040D02*
X329351D01*
X328250Y204745D01*
X327262Y204174D01*
X326456Y203368D01*
X325886Y202381D01*
X325591Y201279D01*
Y200139D01*
X325886Y199038D01*
X326456Y198050D01*
X327262Y197244D01*
X328250Y196674D01*
X329351Y196378D01*
X330491D01*
X331593Y196674D01*
X332580Y197244D01*
X333387Y198050D01*
X333957Y199038D01*
X334252Y200139D01*
Y201279D01*
X333957Y202381D01*
X333387Y203368D01*
X332580Y204174D01*
X331593Y204745D01*
X330491Y205040D01*
D02*
G37*
G36*
Y195040D02*
X329351D01*
X328250Y194745D01*
X327262Y194175D01*
X326456Y193369D01*
X325886Y192381D01*
X325591Y191280D01*
Y190139D01*
X325886Y189038D01*
X326456Y188050D01*
X327262Y187244D01*
X328250Y186674D01*
X329351Y186379D01*
X330491D01*
X331593Y186674D01*
X332580Y187244D01*
X333387Y188050D01*
X333957Y189038D01*
X334252Y190139D01*
Y191280D01*
X333957Y192381D01*
X333387Y193369D01*
X332580Y194175D01*
X331593Y194745D01*
X330491Y195040D01*
D02*
G37*
G36*
Y185039D02*
X329351D01*
X328250Y184744D01*
X327262Y184174D01*
X326456Y183368D01*
X325886Y182380D01*
X325591Y181279D01*
Y180139D01*
X325886Y179037D01*
X326456Y178050D01*
X327262Y177243D01*
X328250Y176673D01*
X329351Y176378D01*
X330491D01*
X331593Y176673D01*
X332580Y177243D01*
X333387Y178050D01*
X333957Y179037D01*
X334252Y180139D01*
Y181279D01*
X333957Y182380D01*
X333387Y183368D01*
X332580Y184174D01*
X331593Y184744D01*
X330491Y185039D01*
D02*
G37*
G36*
X299783Y164764D02*
X298642D01*
X297541Y164469D01*
X296553Y163899D01*
X295747Y163092D01*
X295177Y162105D01*
X294882Y161003D01*
Y159863D01*
X295177Y158762D01*
X295747Y157774D01*
X296553Y156968D01*
X297541Y156397D01*
X298642Y156102D01*
X299783D01*
X300884Y156397D01*
X301872Y156968D01*
X302678Y157774D01*
X303248Y158762D01*
X303543Y159863D01*
Y161003D01*
X303248Y162105D01*
X302678Y163092D01*
X301872Y163899D01*
X300884Y164469D01*
X299783Y164764D01*
D02*
G37*
G36*
X289783D02*
X288643D01*
X287541Y164469D01*
X286554Y163899D01*
X285747Y163092D01*
X285177Y162105D01*
X284882Y161003D01*
Y159863D01*
X285177Y158762D01*
X285747Y157774D01*
X286554Y156968D01*
X287541Y156397D01*
X288643Y156102D01*
X289783D01*
X290884Y156397D01*
X291872Y156968D01*
X292678Y157774D01*
X293248Y158762D01*
X293543Y159863D01*
Y161003D01*
X293248Y162105D01*
X292678Y163092D01*
X291872Y163899D01*
X290884Y164469D01*
X289783Y164764D01*
D02*
G37*
G36*
X215391Y144685D02*
X214530D01*
X213734Y144355D01*
X213125Y143746D01*
X212795Y142950D01*
Y142089D01*
X213125Y141293D01*
X213734Y140684D01*
X214530Y140354D01*
X215391D01*
X216187Y140684D01*
X216796Y141293D01*
X217126Y142089D01*
Y142950D01*
X216796Y143746D01*
X216187Y144355D01*
X215391Y144685D01*
D02*
G37*
G36*
X296119Y148253D02*
X294875D01*
X293673Y147931D01*
X292596Y147309D01*
X291717Y146429D01*
X291095Y145352D01*
X290773Y144150D01*
Y142906D01*
X291095Y141705D01*
X291717Y140628D01*
X292596Y139748D01*
X293673Y139126D01*
X294875Y138804D01*
X296119D01*
X297321Y139126D01*
X298398Y139748D01*
X299277Y140628D01*
X299900Y141705D01*
X300221Y142906D01*
Y144150D01*
X299900Y145352D01*
X299277Y146429D01*
X298398Y147309D01*
X297321Y147931D01*
X296119Y148253D01*
D02*
G37*
G36*
X270529D02*
X269285D01*
X268083Y147931D01*
X267006Y147309D01*
X266126Y146429D01*
X265504Y145352D01*
X265182Y144150D01*
Y142906D01*
X265504Y141705D01*
X266126Y140628D01*
X267006Y139748D01*
X268083Y139126D01*
X269285Y138804D01*
X270529D01*
X271730Y139126D01*
X272807Y139748D01*
X273687Y140628D01*
X274309Y141705D01*
X274631Y142906D01*
Y144150D01*
X274309Y145352D01*
X273687Y146429D01*
X272807Y147309D01*
X271730Y147931D01*
X270529Y148253D01*
D02*
G37*
G36*
X209289Y140391D02*
X208428D01*
X207632Y140062D01*
X207023Y139453D01*
X206693Y138657D01*
Y137795D01*
X207023Y136999D01*
X207632Y136390D01*
X208428Y136061D01*
X209289D01*
X210085Y136390D01*
X210694Y136999D01*
X211024Y137795D01*
Y138657D01*
X210694Y139453D01*
X210085Y140062D01*
X209289Y140391D01*
D02*
G37*
G36*
X159661Y133373D02*
Y129937D01*
X163097D01*
X162895Y130691D01*
X162297Y131727D01*
X161451Y132573D01*
X160415Y133171D01*
X159661Y133373D01*
D02*
G37*
G36*
X157661D02*
X156908Y133171D01*
X155872Y132573D01*
X155026Y131727D01*
X154428Y130691D01*
X154226Y129937D01*
X157661D01*
Y133373D01*
D02*
G37*
G36*
X199232Y133287D02*
X198091D01*
X196990Y132992D01*
X196002Y132422D01*
X195196Y131616D01*
X194626Y130628D01*
X194331Y129527D01*
Y128387D01*
X194626Y127285D01*
X195196Y126298D01*
X196002Y125491D01*
X196990Y124921D01*
X198091Y124626D01*
X199232D01*
X200333Y124921D01*
X201321Y125491D01*
X202127Y126298D01*
X202697Y127285D01*
X202992Y128387D01*
Y129527D01*
X202697Y130628D01*
X202127Y131616D01*
X201321Y132422D01*
X200333Y132992D01*
X199232Y133287D01*
D02*
G37*
G36*
X209232Y133268D02*
X208091D01*
X206990Y132973D01*
X206002Y132402D01*
X205196Y131596D01*
X204626Y130609D01*
X204331Y129507D01*
Y128367D01*
X204626Y127265D01*
X205196Y126278D01*
X206002Y125472D01*
X206990Y124901D01*
X208091Y124606D01*
X209232D01*
X210333Y124901D01*
X211320Y125472D01*
X212127Y126278D01*
X212697Y127265D01*
X212992Y128367D01*
Y129507D01*
X212697Y130609D01*
X212127Y131596D01*
X211320Y132402D01*
X210333Y132973D01*
X209232Y133268D01*
D02*
G37*
G36*
X189232D02*
X188091D01*
X186990Y132973D01*
X186002Y132402D01*
X185196Y131596D01*
X184626Y130609D01*
X184331Y129507D01*
Y128367D01*
X184626Y127265D01*
X185196Y126278D01*
X186002Y125472D01*
X186990Y124901D01*
X188091Y124606D01*
X189232D01*
X190333Y124901D01*
X191321Y125472D01*
X192127Y126278D01*
X192697Y127265D01*
X192992Y128367D01*
Y129507D01*
X192697Y130609D01*
X192127Y131596D01*
X191321Y132402D01*
X190333Y132973D01*
X189232Y133268D01*
D02*
G37*
G36*
X179232D02*
X178091D01*
X176990Y132973D01*
X176002Y132402D01*
X175196Y131596D01*
X174626Y130609D01*
X174331Y129507D01*
Y128367D01*
X174626Y127265D01*
X175196Y126278D01*
X176002Y125472D01*
X176990Y124901D01*
X178091Y124606D01*
X179232D01*
X180333Y124901D01*
X181321Y125472D01*
X182127Y126278D01*
X182697Y127265D01*
X182992Y128367D01*
Y129507D01*
X182697Y130609D01*
X182127Y131596D01*
X181321Y132402D01*
X180333Y132973D01*
X179232Y133268D01*
D02*
G37*
G36*
X169232D02*
X168091D01*
X166990Y132973D01*
X166002Y132402D01*
X165196Y131596D01*
X164626Y130609D01*
X164331Y129507D01*
Y128367D01*
X164626Y127265D01*
X165196Y126278D01*
X166002Y125472D01*
X166990Y124901D01*
X168091Y124606D01*
X169232D01*
X170333Y124901D01*
X171320Y125472D01*
X172127Y126278D01*
X172697Y127265D01*
X172992Y128367D01*
Y129507D01*
X172697Y130609D01*
X172127Y131596D01*
X171320Y132402D01*
X170333Y132973D01*
X169232Y133268D01*
D02*
G37*
G36*
X163097Y127937D02*
X159661D01*
Y124501D01*
X160415Y124703D01*
X161451Y125302D01*
X162297Y126147D01*
X162895Y127183D01*
X163097Y127937D01*
D02*
G37*
G36*
X157661D02*
X154226D01*
X154428Y127183D01*
X155026Y126147D01*
X155872Y125302D01*
X156908Y124703D01*
X157661Y124501D01*
Y127937D01*
D02*
G37*
G36*
X343179Y136614D02*
X341861D01*
X340567Y136357D01*
X339349Y135852D01*
X338253Y135120D01*
X337321Y134188D01*
X336589Y133091D01*
X336084Y131874D01*
X335827Y130580D01*
Y129262D01*
X336084Y127969D01*
X336589Y126751D01*
X337321Y125655D01*
X338253Y124723D01*
X339349Y123990D01*
X340567Y123486D01*
X341861Y123228D01*
X343179D01*
X344472Y123486D01*
X345690Y123990D01*
X346786Y124723D01*
X347718Y125655D01*
X348451Y126751D01*
X348955Y127969D01*
X349213Y129262D01*
Y130580D01*
X348955Y131874D01*
X348451Y133091D01*
X347718Y134188D01*
X346786Y135120D01*
X345690Y135852D01*
X344472Y136357D01*
X343179Y136614D01*
D02*
G37*
G36*
X130580D02*
X129262D01*
X127969Y136357D01*
X126751Y135852D01*
X125655Y135120D01*
X124723Y134188D01*
X123990Y133091D01*
X123486Y131874D01*
X123228Y130580D01*
Y129262D01*
X123486Y127969D01*
X123990Y126751D01*
X124723Y125655D01*
X125655Y124723D01*
X126751Y123990D01*
X127969Y123486D01*
X129262Y123228D01*
X130580D01*
X131874Y123486D01*
X133091Y123990D01*
X134188Y124723D01*
X135120Y125655D01*
X135852Y126751D01*
X136357Y127969D01*
X136614Y129262D01*
Y130580D01*
X136357Y131874D01*
X135852Y133091D01*
X135120Y134188D01*
X134188Y135120D01*
X133091Y135852D01*
X131874Y136357D01*
X130580Y136614D01*
D02*
G37*
G36*
X296119Y130536D02*
X294875D01*
X293673Y130214D01*
X292596Y129593D01*
X291717Y128713D01*
X291095Y127636D01*
X290773Y126434D01*
Y125190D01*
X291095Y123988D01*
X291717Y122911D01*
X292596Y122031D01*
X293673Y121409D01*
X294875Y121088D01*
X296119D01*
X297321Y121409D01*
X298398Y122031D01*
X299277Y122911D01*
X299900Y123988D01*
X300221Y125190D01*
Y126434D01*
X299900Y127636D01*
X299277Y128713D01*
X298398Y129593D01*
X297321Y130214D01*
X296119Y130536D01*
D02*
G37*
G36*
X270529D02*
X269285D01*
X268083Y130214D01*
X267006Y129593D01*
X266126Y128713D01*
X265504Y127636D01*
X265182Y126434D01*
Y125190D01*
X265504Y123988D01*
X266126Y122911D01*
X267006Y122031D01*
X268083Y121409D01*
X269285Y121088D01*
X270529D01*
X271730Y121409D01*
X272807Y122031D01*
X273687Y122911D01*
X274309Y123988D01*
X274631Y125190D01*
Y126434D01*
X274309Y127636D01*
X273687Y128713D01*
X272807Y129593D01*
X271730Y130214D01*
X270529Y130536D01*
D02*
G37*
%LPD*%
G36*
X255906Y348425D02*
X256875Y348425D01*
X258776Y348047D01*
X260568Y347305D01*
X262180Y346228D01*
X263551Y344857D01*
X264628Y343245D01*
X265370Y341454D01*
X265748Y339552D01*
X265748Y338583D01*
X265748Y259842D01*
X265748Y259842D01*
Y259261D01*
X265521Y258120D01*
X265076Y257045D01*
X264430Y256078D01*
X263607Y255255D01*
X262640Y254609D01*
X261565Y254164D01*
X260424Y253937D01*
X226378D01*
X225796Y253937D01*
X224655Y254164D01*
X223581Y254609D01*
X222613Y255255D01*
X221791Y256078D01*
X221145Y257045D01*
X220699Y258120D01*
X220472Y259261D01*
X220472Y259842D01*
Y285433D01*
X220472Y285433D01*
X220472Y285433D01*
X220447Y286206D01*
X220245Y287737D01*
X219846Y289230D01*
X219254Y290657D01*
X218482Y291995D01*
X217541Y293221D01*
X216449Y294313D01*
X215223Y295253D01*
X213885Y296026D01*
X212458Y296617D01*
X210966Y297017D01*
X209434Y297219D01*
X208661Y297244D01*
X151575Y297244D01*
X151187Y297244D01*
X150426Y297395D01*
X149710Y297692D01*
X149065Y298123D01*
X148517Y298671D01*
X148086Y299316D01*
X147789Y300033D01*
X147638Y300793D01*
X147638Y301181D01*
X147638Y340222D01*
X147638Y340551D01*
X147638Y340551D01*
X147638Y340551D01*
X147638Y340551D01*
X147638Y341327D01*
X147940Y342848D01*
X148534Y344281D01*
X149396Y345571D01*
X150492Y346667D01*
X151782Y347529D01*
X153215Y348123D01*
X154736Y348425D01*
X155512Y348425D01*
X255906Y348425D01*
Y348425D01*
D02*
G37*
%LPC*%
G36*
X175767Y347008D02*
X174627D01*
X173525Y346713D01*
X172538Y346143D01*
X171731Y345336D01*
X171161Y344349D01*
X170866Y343247D01*
Y342107D01*
X171161Y341006D01*
X171731Y340018D01*
X172538Y339212D01*
X173525Y338642D01*
X174627Y338347D01*
X175767D01*
X176868Y338642D01*
X177856Y339212D01*
X178662Y340018D01*
X179232Y341006D01*
X179527Y342107D01*
Y343247D01*
X179232Y344349D01*
X178662Y345336D01*
X177856Y346143D01*
X176868Y346713D01*
X175767Y347008D01*
D02*
G37*
G36*
X155295Y346614D02*
X154154D01*
X153053Y346319D01*
X152065Y345749D01*
X151259Y344943D01*
X150689Y343955D01*
X150394Y342854D01*
Y341713D01*
X150689Y340612D01*
X151259Y339624D01*
X152065Y338818D01*
X153053Y338248D01*
X154154Y337953D01*
X155295D01*
X156396Y338248D01*
X157384Y338818D01*
X158190Y339624D01*
X158760Y340612D01*
X159055Y341713D01*
Y342854D01*
X158760Y343955D01*
X158190Y344943D01*
X157384Y345749D01*
X156396Y346319D01*
X155295Y346614D01*
D02*
G37*
G36*
X155724Y336719D02*
Y333283D01*
X159160D01*
X158958Y334037D01*
X158360Y335073D01*
X157514Y335919D01*
X156478Y336517D01*
X155724Y336719D01*
D02*
G37*
G36*
X153724D02*
X152971Y336517D01*
X151935Y335919D01*
X151089Y335073D01*
X150491Y334037D01*
X150289Y333283D01*
X153724D01*
Y336719D01*
D02*
G37*
G36*
X175767Y337008D02*
X174627D01*
X173525Y336713D01*
X172538Y336143D01*
X171731Y335336D01*
X171161Y334349D01*
X170866Y333247D01*
Y332107D01*
X171161Y331006D01*
X171731Y330018D01*
X172538Y329212D01*
X173525Y328642D01*
X174627Y328346D01*
X175767D01*
X176868Y328642D01*
X177856Y329212D01*
X178662Y330018D01*
X179232Y331006D01*
X179527Y332107D01*
Y333247D01*
X179232Y334349D01*
X178662Y335336D01*
X177856Y336143D01*
X176868Y336713D01*
X175767Y337008D01*
D02*
G37*
G36*
X159160Y331283D02*
X155724D01*
Y327848D01*
X156478Y328050D01*
X157514Y328648D01*
X158360Y329494D01*
X158958Y330530D01*
X159160Y331283D01*
D02*
G37*
G36*
X153724D02*
X150289D01*
X150491Y330530D01*
X151089Y329494D01*
X151935Y328648D01*
X152971Y328050D01*
X153724Y327848D01*
Y331283D01*
D02*
G37*
G36*
X256730Y329331D02*
X255869D01*
X255073Y329001D01*
X254464Y328392D01*
X254134Y327596D01*
Y326735D01*
X254464Y325939D01*
X255073Y325330D01*
X255869Y325000D01*
X256730D01*
X257526Y325330D01*
X258135Y325939D01*
X258465Y326735D01*
Y327596D01*
X258135Y328392D01*
X257526Y329001D01*
X256730Y329331D01*
D02*
G37*
G36*
X246494Y328842D02*
X245632D01*
X244836Y328513D01*
X244227Y327904D01*
X243898Y327108D01*
Y326247D01*
X244227Y325451D01*
X244836Y324841D01*
X245632Y324512D01*
X246494D01*
X247290Y324841D01*
X247899Y325451D01*
X248228Y326247D01*
Y327108D01*
X247899Y327904D01*
X247290Y328513D01*
X246494Y328842D01*
D02*
G37*
G36*
X241273D02*
X240412D01*
X239616Y328513D01*
X239007Y327904D01*
X238677Y327108D01*
Y326247D01*
X239007Y325451D01*
X239616Y324841D01*
X240412Y324512D01*
X241273D01*
X242069Y324841D01*
X242678Y325451D01*
X243008Y326247D01*
Y327108D01*
X242678Y327904D01*
X242069Y328513D01*
X241273Y328842D01*
D02*
G37*
G36*
X232730Y322654D02*
X231869D01*
X231073Y322324D01*
X230815Y322066D01*
X230557Y322324D01*
X229762Y322654D01*
X228900D01*
X228104Y322324D01*
X227495Y321715D01*
X227165Y320919D01*
Y320057D01*
X227495Y319262D01*
X227745Y319012D01*
X227479Y318746D01*
X227150Y317950D01*
Y317089D01*
X227479Y316293D01*
X228088Y315684D01*
X228884Y315354D01*
X229746D01*
X230541Y315684D01*
X230799Y315942D01*
X231057Y315684D01*
X231853Y315354D01*
X232714D01*
X233510Y315684D01*
X234119Y316293D01*
X234449Y317089D01*
Y317950D01*
X234119Y318746D01*
X233869Y318996D01*
X234135Y319262D01*
X234465Y320057D01*
Y320919D01*
X234135Y321715D01*
X233526Y322324D01*
X232730Y322654D01*
D02*
G37*
G36*
X260310Y322638D02*
X259448D01*
X258652Y322308D01*
X258089Y321745D01*
X257526Y322308D01*
X256730Y322638D01*
X255869D01*
X255073Y322308D01*
X254464Y321699D01*
X254134Y320903D01*
Y320042D01*
X254464Y319246D01*
X254812Y318898D01*
X254464Y318549D01*
X254134Y317754D01*
Y316892D01*
X254464Y316096D01*
X255073Y315487D01*
X255869Y315158D01*
X256730D01*
X257526Y315487D01*
X258071Y316032D01*
X258616Y315487D01*
X259412Y315158D01*
X260273D01*
X261069Y315487D01*
X261678Y316096D01*
X262008Y316892D01*
Y317754D01*
X261678Y318549D01*
X261348Y318879D01*
X261715Y319246D01*
X262045Y320042D01*
Y320903D01*
X261715Y321699D01*
X261106Y322308D01*
X260310Y322638D01*
D02*
G37*
G36*
X246494Y323622D02*
X245632D01*
X244836Y323292D01*
X244227Y322683D01*
X243898Y321887D01*
Y321026D01*
X244227Y320230D01*
X244836Y319621D01*
X245632Y319291D01*
X246494D01*
X247290Y319621D01*
X247899Y320230D01*
X248228Y321026D01*
Y321887D01*
X247899Y322683D01*
X247290Y323292D01*
X246494Y323622D01*
D02*
G37*
G36*
X241273D02*
X240412D01*
X239616Y323292D01*
X239007Y322683D01*
X238677Y321887D01*
Y321026D01*
X239007Y320230D01*
X239616Y319621D01*
X240412Y319291D01*
X241273D01*
X242069Y319621D01*
X242678Y320230D01*
X243008Y321026D01*
Y321887D01*
X242678Y322683D01*
X242069Y323292D01*
X241273Y323622D01*
D02*
G37*
G36*
X175767Y327008D02*
X174627D01*
X173525Y326713D01*
X172538Y326143D01*
X171731Y325336D01*
X171161Y324349D01*
X170866Y323247D01*
Y322107D01*
X171161Y321006D01*
X171731Y320018D01*
X172538Y319212D01*
X173525Y318642D01*
X174627Y318347D01*
X175767D01*
X176868Y318642D01*
X177856Y319212D01*
X178662Y320018D01*
X179232Y321006D01*
X179527Y322107D01*
Y323247D01*
X179232Y324349D01*
X178662Y325336D01*
X177856Y326143D01*
X176868Y326713D01*
X175767Y327008D01*
D02*
G37*
G36*
X155295Y326614D02*
X154154D01*
X153053Y326319D01*
X152065Y325749D01*
X151259Y324943D01*
X150689Y323955D01*
X150394Y322854D01*
Y321713D01*
X150689Y320612D01*
X151259Y319624D01*
X152065Y318818D01*
X153053Y318248D01*
X154154Y317953D01*
X155295D01*
X156396Y318248D01*
X157384Y318818D01*
X158190Y319624D01*
X158760Y320612D01*
X159055Y321713D01*
Y322854D01*
X158760Y323955D01*
X158190Y324943D01*
X157384Y325749D01*
X156396Y326319D01*
X155295Y326614D01*
D02*
G37*
%LPD*%
G36*
X203259Y214851D02*
X204132Y214851D01*
X205843Y214511D01*
X207455Y213843D01*
X208906Y212874D01*
X210140Y211640D01*
X211109Y210189D01*
X211777Y208577D01*
X212117Y206865D01*
X212117Y205993D01*
X212117Y205993D01*
X212117Y205993D01*
Y176426D01*
X212113Y175847D01*
X211881Y174712D01*
X211432Y173644D01*
X210785Y172684D01*
X209963Y171868D01*
X208998Y171226D01*
X207927Y170785D01*
X206791Y170560D01*
X206212Y170560D01*
X179318D01*
X177696Y170870D01*
X176162Y171481D01*
X174769Y172368D01*
X174169Y172935D01*
X160628Y185724D01*
X160235Y186096D01*
X159615Y186982D01*
X159186Y187975D01*
X158968Y189035D01*
Y196437D01*
X159185Y197453D01*
X159609Y198401D01*
X160221Y199240D01*
X160608Y199587D01*
X173095Y210759D01*
X173642Y211248D01*
X174819Y212122D01*
X176071Y212886D01*
X177388Y213532D01*
X178758Y214055D01*
X180169Y214451D01*
X181612Y214718D01*
X183072Y214851D01*
X183805Y214851D01*
X183805Y214851D01*
X203259Y214851D01*
D02*
G37*
%LPC*%
G36*
X203187Y199803D02*
X202325D01*
X201529Y199474D01*
X200920Y198864D01*
X200591Y198068D01*
Y197207D01*
X200920Y196411D01*
X201529Y195802D01*
X202325Y195473D01*
X203187D01*
X203982Y195802D01*
X204592Y196411D01*
X204921Y197207D01*
Y198068D01*
X204592Y198864D01*
X203982Y199474D01*
X203187Y199803D01*
D02*
G37*
G36*
X189407Y191142D02*
X188546D01*
X187750Y190812D01*
X187141Y190203D01*
X186811Y189407D01*
Y188546D01*
X187141Y187750D01*
X187750Y187141D01*
X188546Y186811D01*
X189407D01*
X190203Y187141D01*
X190812Y187750D01*
X191142Y188546D01*
Y189407D01*
X190812Y190203D01*
X190203Y190812D01*
X189407Y191142D01*
D02*
G37*
%LPD*%
D103*
X154724Y332283D02*
D03*
X318898Y232283D02*
D03*
X158661Y128937D02*
D03*
D110*
X157087Y300394D02*
D03*
X184646Y262992D02*
D03*
X195276Y198425D02*
D03*
X157087Y275590D02*
D03*
X241914Y224078D02*
D03*
X157874Y172441D02*
D03*
Y164567D02*
D03*
X154331Y187008D02*
D03*
X188189Y218898D02*
D03*
X215748Y208661D02*
D03*
X168898Y205118D02*
D03*
X274606Y220472D02*
D03*
X244094Y192913D02*
D03*
X273622Y198819D02*
D03*
X250919Y256693D02*
D03*
X246325D02*
D03*
X241732D02*
D03*
X237139D02*
D03*
X157087Y292126D02*
D03*
X154331Y168504D02*
D03*
X329724Y265945D02*
D03*
Y273819D02*
D03*
X322835D02*
D03*
X329724Y280709D02*
D03*
X209449Y178740D02*
D03*
X192913Y175856D02*
D03*
X182283Y180709D02*
D03*
X179134Y183858D02*
D03*
X176181Y187008D02*
D03*
X164370Y187992D02*
D03*
X150591Y128937D02*
D03*
X249213Y137795D02*
D03*
X277953Y157480D02*
D03*
X322835Y280709D02*
D03*
X316929Y265945D02*
D03*
X322835D02*
D03*
X316929Y273819D02*
D03*
X217323Y324016D02*
D03*
X316929Y280709D02*
D03*
M02*
