M48
;Layer_Color=9474304
;FILE_FORMAT=2:4
INCH,TZ
;TYPE=PLATED
T01F00S00C0.0197
T02F00S00C0.0268
T03F00S00C0.0394
T04F00S00C0.0400
T05F00S00C0.0669
%
T01
X16634Y26378
X15846Y28346
X18898Y29921
X19488
X20079
X21850Y29626
X21752Y28937
X22421Y28481
X23130Y27657
X23637Y28100
X25394Y27657
X26083
X26181Y25591
Y25000
Y24409
X25000Y23819
X24409
X23228Y24409
Y25000
Y25591
X21850Y30610
Y31201
X18209
X30020Y31102
Y30512
Y29921
Y29331
X30217Y28543
X13189Y34941
X18209Y31988
X22736Y32283
X23327Y32360
X25098Y32382
X25689
X24508Y31594
X25197Y34646
X22835
X23327Y35531
X30217Y35827
Y35139
X31004
Y35827
Y36517
Y37106
X30217
Y36517
X30020Y31693
X31791Y35138
Y35825
Y36516
Y37106
T02
X19685Y23917
X18326Y25276
T03
X11024Y28346
Y30118
X13583
Y28346
X32730Y43653
Y47984
T04
X11516Y32972
Y33957
Y34941
Y35925
Y36909
Y37894
T05
X28793Y44834
Y46803
M30
