M48
;Layer_Color=9474304
;FILE_FORMAT=2:4
INCH,TZ
;TYPE=PLATED
T01F00S00C0.0157
T03F00S00C0.0394
T04F00S00C0.0400
T05F00S00C0.0669
;TYPE=NON_PLATED
T06F00S00C0.0256
T07F00S00C0.1181
%
T01
X15059Y12894
X20886Y13823
X21496Y14252
X24921Y13780
X31693Y26594
X32283
X32972
Y27382
X32283
X31693
Y28071
X32283
X32972
X28858Y24528
X27461Y22047
X26683Y22260
X25866Y21457
X24882Y21969
X24191Y22408
X24646Y21063
X24409Y19291
X22480Y20827
X21575Y20866
X20276Y19764
X19528Y19843
X18898Y18898
X17618Y18701
X17913Y18386
X18228Y18071
X19291Y17586
X20945Y17874
X16437Y18799
X16890Y20512
X18819Y21890
X18543Y22913
X18465Y26299
X17362Y27913
X15709Y27559
Y28386
Y29213
Y30039
X23714Y25669
X24173
X24633
X25092
X27362Y19882
X29724Y20709
X30354Y20630
X27795Y15748
X15787Y16457
Y17244
X15433Y16850
Y18701
X13071Y26929
X21732Y32402
X22933Y32049
X23230
X23228Y31752
X22931
X24084Y32146
X24606
Y32668
X24084
X25630Y32717
Y32047
Y31732
X25984
X25988Y32047
T03
X26991Y12581
Y14353
X29550
Y12581
X34756Y31694
X31694Y34756
T04
X15866Y12894
X16866
X17866
X18866
X19866Y12896
X20866Y12894
X32992Y18071
Y19071
Y20071
Y21071
X32890Y23228
X31890
Y24409
X32890
X29921Y16043
X28921
X15472Y32228
Y33228
Y34228
X17520Y34268
Y33268
Y32268
T05
X29745Y31137
X31137Y29745
T06
X14047Y22583
Y24858
T07
X12992Y12992
X34252
X12992Y34252
M30
