G04*
G04 #@! TF.GenerationSoftware,Altium Limited,Altium Designer,24.4.1 (13)*
G04*
G04 Layer_Physical_Order=1*
G04 Layer_Color=255*
%FSLAX25Y25*%
%MOIN*%
G70*
G04*
G04 #@! TF.SameCoordinates,15B434A4-4527-47F9-A3CB-D7505B607EAD*
G04*
G04*
G04 #@! TF.FilePolarity,Positive*
G04*
G01*
G75*
%ADD11C,0.00787*%
G04:AMPARAMS|DCode=15|XSize=57.09mil|YSize=43.31mil|CornerRadius=5.41mil|HoleSize=0mil|Usage=FLASHONLY|Rotation=270.000|XOffset=0mil|YOffset=0mil|HoleType=Round|Shape=RoundedRectangle|*
%AMROUNDEDRECTD15*
21,1,0.05709,0.03248,0,0,270.0*
21,1,0.04626,0.04331,0,0,270.0*
1,1,0.01083,-0.01624,-0.02313*
1,1,0.01083,-0.01624,0.02313*
1,1,0.01083,0.01624,0.02313*
1,1,0.01083,0.01624,-0.02313*
%
%ADD15ROUNDEDRECTD15*%
G04:AMPARAMS|DCode=16|XSize=78.74mil|YSize=78.74mil|CornerRadius=19.68mil|HoleSize=0mil|Usage=FLASHONLY|Rotation=90.000|XOffset=0mil|YOffset=0mil|HoleType=Round|Shape=RoundedRectangle|*
%AMROUNDEDRECTD16*
21,1,0.07874,0.03937,0,0,90.0*
21,1,0.03937,0.07874,0,0,90.0*
1,1,0.03937,0.01968,0.01968*
1,1,0.03937,0.01968,-0.01968*
1,1,0.03937,-0.01968,-0.01968*
1,1,0.03937,-0.01968,0.01968*
%
%ADD16ROUNDEDRECTD16*%
%ADD17R,0.15551X0.03937*%
%ADD18R,0.34449X0.42323*%
G04:AMPARAMS|DCode=19|XSize=62.99mil|YSize=118.11mil|CornerRadius=7.87mil|HoleSize=0mil|Usage=FLASHONLY|Rotation=0.000|XOffset=0mil|YOffset=0mil|HoleType=Round|Shape=RoundedRectangle|*
%AMROUNDEDRECTD19*
21,1,0.06299,0.10236,0,0,0.0*
21,1,0.04724,0.11811,0,0,0.0*
1,1,0.01575,0.02362,-0.05118*
1,1,0.01575,-0.02362,-0.05118*
1,1,0.01575,-0.02362,0.05118*
1,1,0.01575,0.02362,0.05118*
%
%ADD19ROUNDEDRECTD19*%
G04:AMPARAMS|DCode=20|XSize=228.35mil|YSize=283.47mil|CornerRadius=11.42mil|HoleSize=0mil|Usage=FLASHONLY|Rotation=0.000|XOffset=0mil|YOffset=0mil|HoleType=Round|Shape=RoundedRectangle|*
%AMROUNDEDRECTD20*
21,1,0.22835,0.26063,0,0,0.0*
21,1,0.20551,0.28347,0,0,0.0*
1,1,0.02284,0.10276,-0.13031*
1,1,0.02284,-0.10276,-0.13031*
1,1,0.02284,-0.10276,0.13031*
1,1,0.02284,0.10276,0.13031*
%
%ADD20ROUNDEDRECTD20*%
%ADD21R,0.05906X0.04331*%
G04:AMPARAMS|DCode=22|XSize=39.37mil|YSize=37.4mil|CornerRadius=4.68mil|HoleSize=0mil|Usage=FLASHONLY|Rotation=0.000|XOffset=0mil|YOffset=0mil|HoleType=Round|Shape=RoundedRectangle|*
%AMROUNDEDRECTD22*
21,1,0.03937,0.02805,0,0,0.0*
21,1,0.03002,0.03740,0,0,0.0*
1,1,0.00935,0.01501,-0.01403*
1,1,0.00935,-0.01501,-0.01403*
1,1,0.00935,-0.01501,0.01403*
1,1,0.00935,0.01501,0.01403*
%
%ADD22ROUNDEDRECTD22*%
G04:AMPARAMS|DCode=23|XSize=39.37mil|YSize=37.4mil|CornerRadius=4.68mil|HoleSize=0mil|Usage=FLASHONLY|Rotation=90.000|XOffset=0mil|YOffset=0mil|HoleType=Round|Shape=RoundedRectangle|*
%AMROUNDEDRECTD23*
21,1,0.03937,0.02805,0,0,90.0*
21,1,0.03002,0.03740,0,0,90.0*
1,1,0.00935,0.01403,0.01501*
1,1,0.00935,0.01403,-0.01501*
1,1,0.00935,-0.01403,-0.01501*
1,1,0.00935,-0.01403,0.01501*
%
%ADD23ROUNDEDRECTD23*%
%ADD24R,0.21260X0.11417*%
%ADD25R,0.01181X0.05807*%
%ADD26R,0.05807X0.01181*%
G04:AMPARAMS|DCode=27|XSize=68.9mil|YSize=49.21mil|CornerRadius=6.15mil|HoleSize=0mil|Usage=FLASHONLY|Rotation=180.000|XOffset=0mil|YOffset=0mil|HoleType=Round|Shape=RoundedRectangle|*
%AMROUNDEDRECTD27*
21,1,0.06890,0.03691,0,0,180.0*
21,1,0.05659,0.04921,0,0,180.0*
1,1,0.01230,-0.02830,0.01846*
1,1,0.01230,0.02830,0.01846*
1,1,0.01230,0.02830,-0.01846*
1,1,0.01230,-0.02830,-0.01846*
%
%ADD27ROUNDEDRECTD27*%
G04:AMPARAMS|DCode=28|XSize=53.15mil|YSize=49.21mil|CornerRadius=4.92mil|HoleSize=0mil|Usage=FLASHONLY|Rotation=90.000|XOffset=0mil|YOffset=0mil|HoleType=Round|Shape=RoundedRectangle|*
%AMROUNDEDRECTD28*
21,1,0.05315,0.03937,0,0,90.0*
21,1,0.04331,0.04921,0,0,90.0*
1,1,0.00984,0.01968,0.02165*
1,1,0.00984,0.01968,-0.02165*
1,1,0.00984,-0.01968,-0.02165*
1,1,0.00984,-0.01968,0.02165*
%
%ADD28ROUNDEDRECTD28*%
%ADD29R,0.07284X0.13976*%
G04:AMPARAMS|DCode=30|XSize=111.02mil|YSize=46.46mil|CornerRadius=11.61mil|HoleSize=0mil|Usage=FLASHONLY|Rotation=180.000|XOffset=0mil|YOffset=0mil|HoleType=Round|Shape=RoundedRectangle|*
%AMROUNDEDRECTD30*
21,1,0.11102,0.02323,0,0,180.0*
21,1,0.08780,0.04646,0,0,180.0*
1,1,0.02323,-0.04390,0.01161*
1,1,0.02323,0.04390,0.01161*
1,1,0.02323,0.04390,-0.01161*
1,1,0.02323,-0.04390,-0.01161*
%
%ADD30ROUNDEDRECTD30*%
G04:AMPARAMS|DCode=31|XSize=39.37mil|YSize=39.37mil|CornerRadius=4.92mil|HoleSize=0mil|Usage=FLASHONLY|Rotation=90.000|XOffset=0mil|YOffset=0mil|HoleType=Round|Shape=RoundedRectangle|*
%AMROUNDEDRECTD31*
21,1,0.03937,0.02953,0,0,90.0*
21,1,0.02953,0.03937,0,0,90.0*
1,1,0.00984,0.01476,0.01476*
1,1,0.00984,0.01476,-0.01476*
1,1,0.00984,-0.01476,-0.01476*
1,1,0.00984,-0.01476,0.01476*
%
%ADD31ROUNDEDRECTD31*%
G04:AMPARAMS|DCode=32|XSize=57.09mil|YSize=43.31mil|CornerRadius=5.41mil|HoleSize=0mil|Usage=FLASHONLY|Rotation=0.000|XOffset=0mil|YOffset=0mil|HoleType=Round|Shape=RoundedRectangle|*
%AMROUNDEDRECTD32*
21,1,0.05709,0.03248,0,0,0.0*
21,1,0.04626,0.04331,0,0,0.0*
1,1,0.01083,0.02313,-0.01624*
1,1,0.01083,-0.02313,-0.01624*
1,1,0.01083,-0.02313,0.01624*
1,1,0.01083,0.02313,0.01624*
%
%ADD32ROUNDEDRECTD32*%
G04:AMPARAMS|DCode=33|XSize=39.37mil|YSize=39.37mil|CornerRadius=4.92mil|HoleSize=0mil|Usage=FLASHONLY|Rotation=180.000|XOffset=0mil|YOffset=0mil|HoleType=Round|Shape=RoundedRectangle|*
%AMROUNDEDRECTD33*
21,1,0.03937,0.02953,0,0,180.0*
21,1,0.02953,0.03937,0,0,180.0*
1,1,0.00984,-0.01476,0.01476*
1,1,0.00984,0.01476,0.01476*
1,1,0.00984,0.01476,-0.01476*
1,1,0.00984,-0.01476,-0.01476*
%
%ADD33ROUNDEDRECTD33*%
G04:AMPARAMS|DCode=34|XSize=57.09mil|YSize=43.31mil|CornerRadius=5.41mil|HoleSize=0mil|Usage=FLASHONLY|Rotation=45.000|XOffset=0mil|YOffset=0mil|HoleType=Round|Shape=RoundedRectangle|*
%AMROUNDEDRECTD34*
21,1,0.05709,0.03248,0,0,45.0*
21,1,0.04626,0.04331,0,0,45.0*
1,1,0.01083,0.02784,0.00487*
1,1,0.01083,-0.00487,-0.02784*
1,1,0.01083,-0.02784,-0.00487*
1,1,0.01083,0.00487,0.02784*
%
%ADD34ROUNDEDRECTD34*%
%ADD61C,0.01575*%
%ADD62C,0.02756*%
%ADD63C,0.02362*%
%ADD64C,0.05906*%
%ADD65C,0.07874*%
%ADD66C,0.05433*%
%ADD67C,0.07087*%
%ADD68C,0.10039*%
%ADD69C,0.05906*%
%ADD70C,0.07874*%
%ADD71C,0.03937*%
G36*
X320516Y494859D02*
X320866Y494859D01*
X321214Y494852D01*
X323000Y494712D01*
X323445Y494653D01*
X325671Y494119D01*
X327925Y493185D01*
X329878Y491989D01*
X330234Y491715D01*
X331657Y490500D01*
X332035Y490122D01*
X333251Y488698D01*
X333524Y488342D01*
X334720Y486390D01*
X335654Y484136D01*
X336189Y481909D01*
X336247Y481464D01*
X336388Y479678D01*
X336394Y479331D01*
D01*
X336394Y478989D01*
Y239173D01*
X336394Y239173D01*
X336394Y239173D01*
X336382Y238828D01*
X336266Y237049D01*
X336224Y236730D01*
X335840Y234801D01*
X335756Y234489D01*
X335124Y232627D01*
X335001Y232328D01*
X334131Y230565D01*
X333969Y230285D01*
X332877Y228650D01*
X332680Y228394D01*
X331384Y226915D01*
X331155Y226687D01*
X329677Y225390D01*
X329421Y225194D01*
X327786Y224101D01*
X327506Y223940D01*
X325742Y223070D01*
X325444Y222947D01*
X323582Y222315D01*
X323270Y222231D01*
X321341Y221847D01*
X321022Y221805D01*
X319059Y221677D01*
X318898D01*
X318898Y221677D01*
X114173D01*
X114173Y221677D01*
Y221677D01*
X113827Y221686D01*
X112143Y221818D01*
X111774Y221867D01*
X109673Y222371D01*
X107562Y223246D01*
X105720Y224375D01*
X105425Y224601D01*
X104051Y225775D01*
X103728Y226098D01*
X102554Y227473D01*
X102328Y227767D01*
X101198Y229609D01*
X100324Y231721D01*
X99820Y233822D01*
X99771Y234190D01*
X99639Y235874D01*
X99629Y236220D01*
X99629D01*
X99629Y481933D01*
X99629Y482283D01*
X99629Y482283D01*
X99645Y482627D01*
X99761Y484108D01*
X99789Y484323D01*
X100234Y486173D01*
X100989Y487998D01*
X101983Y489620D01*
X102115Y489792D01*
X103206Y491069D01*
X103419Y491282D01*
X104696Y492373D01*
X104868Y492505D01*
X106490Y493499D01*
X108315Y494255D01*
X110165Y494699D01*
X110380Y494727D01*
X111861Y494844D01*
X112205Y494859D01*
X112205Y494859D01*
X320516Y494859D01*
D02*
G37*
%LPC*%
G36*
X150984Y487939D02*
X150016D01*
Y485252D01*
X152506D01*
Y486417D01*
X152390Y487000D01*
X152060Y487493D01*
X151566Y487823D01*
X150984Y487939D01*
D02*
G37*
G36*
X148016D02*
X147047D01*
X146465Y487823D01*
X145972Y487493D01*
X145642Y487000D01*
X145526Y486417D01*
Y485252D01*
X148016D01*
Y487939D01*
D02*
G37*
G36*
X328295Y483663D02*
Y480839D01*
X331119D01*
X330979Y481364D01*
X330458Y482266D01*
X329722Y483002D01*
X328821Y483522D01*
X328295Y483663D01*
D02*
G37*
G36*
X326295Y483663D02*
X325770Y483522D01*
X324868Y483002D01*
X324132Y482266D01*
X323612Y481364D01*
X323471Y480839D01*
X326295D01*
Y483663D01*
D02*
G37*
G36*
X152506Y483252D02*
X150016D01*
Y480565D01*
X150984D01*
X151566Y480681D01*
X152060Y481011D01*
X152390Y481504D01*
X152506Y482087D01*
Y483252D01*
D02*
G37*
G36*
X148016D02*
X145526D01*
Y482087D01*
X145642Y481504D01*
X145972Y481011D01*
X146465Y480681D01*
X147047Y480565D01*
X148016D01*
Y483252D01*
D02*
G37*
G36*
X331119Y478839D02*
X328295D01*
Y476014D01*
X328821Y476155D01*
X329722Y476676D01*
X330458Y477412D01*
X330979Y478313D01*
X331119Y478839D01*
D02*
G37*
G36*
X326295D02*
X323471D01*
X323612Y478313D01*
X324132Y477412D01*
X324868Y476676D01*
X325770Y476155D01*
X326295Y476014D01*
Y478839D01*
D02*
G37*
G36*
X139764Y487722D02*
X135827D01*
X135327Y487623D01*
X134904Y487340D01*
X134622Y486917D01*
X134522Y486417D01*
Y482087D01*
X134622Y481587D01*
X134904Y481164D01*
X135327Y480881D01*
X135588Y480830D01*
Y478346D01*
X126378D01*
Y465354D01*
X138768D01*
Y465323D01*
X138936Y464479D01*
X139415Y463762D01*
X157092Y446084D01*
X157809Y445606D01*
X158653Y445438D01*
X165650D01*
Y444890D01*
X182776D01*
Y450402D01*
X177377D01*
X177264Y450733D01*
X177582Y450977D01*
X178053Y451590D01*
X182776D01*
Y457102D01*
X178053D01*
X177994Y457180D01*
Y469698D01*
X178343Y469804D01*
X178550Y469495D01*
X179044Y469165D01*
X179626Y469050D01*
X180102D01*
Y472047D01*
X182102D01*
Y469050D01*
X182579D01*
X183161Y469165D01*
X183654Y469495D01*
X183845Y469780D01*
X184266D01*
X184456Y469495D01*
X184949Y469165D01*
X185531Y469050D01*
X186008D01*
Y472047D01*
X187008D01*
Y473047D01*
X190006D01*
Y473524D01*
X190053Y473581D01*
X191387D01*
X191493Y473231D01*
X191458Y473208D01*
X191117Y472698D01*
X190997Y472096D01*
Y471472D01*
X194882D01*
Y470472D01*
X195882D01*
Y467277D01*
X197195D01*
X197796Y467396D01*
X198306Y467737D01*
X198637Y468232D01*
X198736Y468247D01*
X198902D01*
X199001Y468232D01*
X199332Y467737D01*
X199841Y467396D01*
X200443Y467277D01*
X201756D01*
Y470472D01*
X203756D01*
Y467277D01*
X205069D01*
X205655Y467393D01*
X205717Y467398D01*
X206005Y467217D01*
Y465610D01*
X206173Y464767D01*
X206650Y464052D01*
X207365Y463574D01*
X207958Y463456D01*
X207924Y463106D01*
X196343D01*
Y441945D01*
X214567D01*
X232791D01*
Y463106D01*
X231053D01*
X231018Y463456D01*
X231611Y463574D01*
X232326Y464052D01*
X232804Y464767D01*
X232972Y465610D01*
Y465772D01*
X219784D01*
Y465610D01*
X219952Y464767D01*
X220430Y464052D01*
X221145Y463574D01*
X221738Y463456D01*
X221703Y463106D01*
X217273D01*
X217239Y463456D01*
X217831Y463574D01*
X218547Y464052D01*
X219024Y464767D01*
X219192Y465610D01*
Y465772D01*
X212598D01*
Y466772D01*
X211598D01*
Y470137D01*
X208209D01*
X207365Y469969D01*
X206990Y469719D01*
X206640Y469906D01*
Y472096D01*
X206521Y472698D01*
X206180Y473208D01*
X206145Y473231D01*
X206251Y473581D01*
X245571D01*
Y470571D01*
X254429D01*
Y473975D01*
X273622D01*
X274856Y474137D01*
X276005Y474613D01*
X276992Y475371D01*
X277303Y475777D01*
X277463Y475883D01*
X277773Y476347D01*
X277799Y476479D01*
X278225Y477507D01*
X278388Y478740D01*
X278225Y479974D01*
X277799Y481001D01*
X277773Y481133D01*
X277463Y481597D01*
X277303Y481704D01*
X276992Y482110D01*
X276005Y482867D01*
X274856Y483343D01*
X273622Y483505D01*
X254429D01*
Y486122D01*
X245571D01*
Y483112D01*
X177690D01*
X176457Y482949D01*
X175308Y482473D01*
X174321Y481716D01*
X169859Y477254D01*
X169102Y476267D01*
X168625Y475118D01*
X168463Y473885D01*
Y457102D01*
X165650D01*
Y451590D01*
X170229D01*
X170843Y450977D01*
X171161Y450733D01*
X171048Y450402D01*
X165650D01*
Y449853D01*
X159568D01*
X144390Y465031D01*
X144524Y465354D01*
X149213D01*
Y478346D01*
X140003D01*
Y480830D01*
X140263Y480881D01*
X140686Y481164D01*
X140969Y481587D01*
X141068Y482087D01*
Y486417D01*
X140969Y486917D01*
X140686Y487340D01*
X140263Y487623D01*
X139764Y487722D01*
D02*
G37*
G36*
X190006Y471047D02*
X188008D01*
Y469050D01*
X188484D01*
X189067Y469165D01*
X189560Y469495D01*
X189890Y469989D01*
X190006Y470571D01*
Y471047D01*
D02*
G37*
G36*
X230768Y470137D02*
X227378D01*
Y467772D01*
X232972D01*
Y467933D01*
X232804Y468776D01*
X232326Y469491D01*
X231611Y469969D01*
X230768Y470137D01*
D02*
G37*
G36*
X225378D02*
X221988D01*
X221145Y469969D01*
X220430Y469491D01*
X219952Y468776D01*
X219784Y467933D01*
Y467772D01*
X225378D01*
Y470137D01*
D02*
G37*
G36*
X216988D02*
X213598D01*
Y467772D01*
X219192D01*
Y467933D01*
X219024Y468776D01*
X218547Y469491D01*
X217831Y469969D01*
X216988Y470137D01*
D02*
G37*
G36*
X193882Y469472D02*
X190997D01*
Y468848D01*
X191117Y468247D01*
X191458Y467737D01*
X191967Y467396D01*
X192569Y467277D01*
X193882D01*
Y469472D01*
D02*
G37*
G36*
X288497Y473835D02*
X287353D01*
X286231Y473611D01*
X285174Y473174D01*
X284604Y472793D01*
X273933D01*
X272700Y472630D01*
X271551Y472154D01*
X270564Y471397D01*
X270090Y470779D01*
X269781Y470573D01*
X269472Y470109D01*
X269363Y469562D01*
Y469338D01*
X269331Y469261D01*
X269168Y468028D01*
X269331Y466794D01*
X269363Y466717D01*
Y465871D01*
X269472Y465324D01*
X269781Y464860D01*
X270245Y464550D01*
X270793Y464441D01*
X270847D01*
X271551Y463901D01*
X272700Y463425D01*
X273933Y463262D01*
X284604D01*
X285174Y462881D01*
X286231Y462444D01*
X287353Y462220D01*
X288497D01*
X289619Y462444D01*
X290676Y462881D01*
X291627Y463517D01*
X292436Y464326D01*
X293071Y465277D01*
X293509Y466334D01*
X293732Y467456D01*
Y468600D01*
X293509Y469721D01*
X293071Y470778D01*
X292436Y471729D01*
X291627Y472538D01*
X290676Y473174D01*
X289619Y473611D01*
X288497Y473835D01*
D02*
G37*
G36*
X254642Y465665D02*
X251000D01*
Y458677D01*
X254642D01*
Y465665D01*
D02*
G37*
G36*
X249000D02*
X245358D01*
Y458677D01*
X249000D01*
Y465665D01*
D02*
G37*
G36*
X254642Y456677D02*
X251000D01*
Y449689D01*
X254642D01*
Y456677D01*
D02*
G37*
G36*
X249000D02*
X245358D01*
Y449689D01*
X249000D01*
Y456677D01*
D02*
G37*
G36*
X288925Y454281D02*
Y449342D01*
X293864D01*
X293713Y450098D01*
X293260Y451194D01*
X292601Y452180D01*
X291762Y453018D01*
X290777Y453677D01*
X289681Y454131D01*
X288925Y454281D01*
D02*
G37*
G36*
X286925D02*
X286169Y454131D01*
X285074Y453677D01*
X284088Y453018D01*
X283249Y452180D01*
X282591Y451194D01*
X282137Y450098D01*
X281986Y449342D01*
X286925D01*
Y454281D01*
D02*
G37*
G36*
X293864Y447342D02*
X288925D01*
Y442404D01*
X289681Y442554D01*
X290777Y443008D01*
X291762Y443667D01*
X292601Y444505D01*
X293260Y445491D01*
X293713Y446587D01*
X293864Y447342D01*
D02*
G37*
G36*
X286925D02*
X281986D01*
X282137Y446587D01*
X282591Y445491D01*
X283249Y444505D01*
X284088Y443667D01*
X285074Y443008D01*
X286169Y442554D01*
X286925Y442404D01*
Y447342D01*
D02*
G37*
G36*
X182988Y443913D02*
X175213D01*
Y441945D01*
X182988D01*
Y443913D01*
D02*
G37*
G36*
X173213D02*
X165437D01*
Y441945D01*
X173213D01*
Y443913D01*
D02*
G37*
G36*
X328295Y440356D02*
Y437532D01*
X331119D01*
X330979Y438057D01*
X330458Y438959D01*
X329722Y439694D01*
X328821Y440215D01*
X328295Y440356D01*
D02*
G37*
G36*
X326295D02*
X325770Y440215D01*
X324868Y439694D01*
X324132Y438959D01*
X323612Y438057D01*
X323471Y437532D01*
X326295D01*
Y440356D01*
D02*
G37*
G36*
Y435532D02*
X323471D01*
X323612Y435006D01*
X324132Y434104D01*
X324868Y433368D01*
X325770Y432848D01*
X326295Y432707D01*
Y435532D01*
D02*
G37*
G36*
X331119D02*
X328295D01*
Y432707D01*
X328821Y432848D01*
X329722Y433368D01*
X330458Y434104D01*
X330979Y435006D01*
X331119Y435532D01*
D02*
G37*
G36*
X149213Y440158D02*
X126378D01*
Y427165D01*
X143275D01*
Y423819D01*
X143403Y422843D01*
X143780Y421933D01*
X143865Y421822D01*
Y417323D01*
Y409449D01*
Y401575D01*
Y395669D01*
X143994Y394693D01*
X144371Y393783D01*
X144970Y393002D01*
X154577Y383396D01*
X155358Y382796D01*
X156268Y382419D01*
X157244Y382291D01*
X200295D01*
Y379035D01*
X209154D01*
Y383039D01*
X235728D01*
Y379035D01*
X244587D01*
Y383039D01*
X271161D01*
Y379035D01*
X280020D01*
Y382054D01*
X297213D01*
Y380709D01*
X297336Y380094D01*
X297684Y379573D01*
X298204Y379225D01*
X298819Y379103D01*
X303543D01*
X304158Y379225D01*
X304679Y379573D01*
X305027Y380094D01*
X305149Y380709D01*
Y390280D01*
X310901Y396032D01*
X322835D01*
X322835Y396032D01*
X323449Y396154D01*
X323970Y396502D01*
X325939Y398471D01*
X326287Y398992D01*
X326409Y399606D01*
X326409Y399606D01*
Y402772D01*
X326695Y402829D01*
X327111Y403106D01*
X327388Y403521D01*
X327485Y404011D01*
Y407013D01*
X327388Y407502D01*
X327111Y407917D01*
X326695Y408195D01*
X326206Y408292D01*
X323401D01*
X322911Y408195D01*
X322496Y407917D01*
X322218Y407502D01*
X322121Y407013D01*
Y404011D01*
X322218Y403521D01*
X322496Y403106D01*
X322911Y402829D01*
X323198Y402772D01*
Y400271D01*
X322170Y399243D01*
X310236D01*
X309622Y399121D01*
X309101Y398773D01*
X309101Y398773D01*
X302878Y392550D01*
X298819D01*
X298204Y392428D01*
X297684Y392080D01*
X297336Y391559D01*
X297213Y390945D01*
Y389599D01*
X280020D01*
Y394587D01*
X271161D01*
Y390583D01*
X244587D01*
Y394587D01*
X235728D01*
Y390583D01*
X209154D01*
Y394587D01*
X200295D01*
Y389835D01*
X158807D01*
X151410Y397232D01*
Y401575D01*
Y409449D01*
Y414383D01*
X151719Y414547D01*
X151878Y414441D01*
X152461Y414325D01*
X152937D01*
Y417323D01*
X153937D01*
Y418323D01*
X156935D01*
Y418799D01*
X156819Y419381D01*
X156489Y419875D01*
X156205Y420065D01*
Y420486D01*
X156489Y420676D01*
X156819Y421170D01*
X156935Y421752D01*
Y422228D01*
X153937D01*
Y423228D01*
X152937D01*
Y426226D01*
X152461D01*
X151878Y426110D01*
X151385Y425780D01*
X151170Y425458D01*
X150820Y425564D01*
Y429331D01*
X150715Y430122D01*
X150970Y430472D01*
X165437D01*
Y428543D01*
X182988D01*
Y430512D01*
X175890D01*
X175821Y430862D01*
X176099Y430977D01*
X176765Y431488D01*
X182776D01*
Y437000D01*
X176765D01*
X176099Y437511D01*
X175821Y437626D01*
X175890Y437976D01*
X182988D01*
Y439945D01*
X165437D01*
Y438017D01*
X149213D01*
Y440158D01*
D02*
G37*
G36*
X182988Y426543D02*
X175213D01*
Y424575D01*
X182988D01*
Y426543D01*
D02*
G37*
G36*
X173213D02*
X165437D01*
Y424575D01*
X173213D01*
Y426543D01*
D02*
G37*
G36*
X155413Y426226D02*
X154937D01*
Y424228D01*
X156935D01*
Y424705D01*
X156819Y425287D01*
X156489Y425780D01*
X155996Y426110D01*
X155413Y426226D01*
D02*
G37*
G36*
X232791Y439945D02*
X215567D01*
Y418784D01*
X232791D01*
Y439945D01*
D02*
G37*
G36*
X213567D02*
X196343D01*
Y418784D01*
X213567D01*
Y439945D01*
D02*
G37*
G36*
X304774Y417270D02*
X304150D01*
Y414386D01*
X306345D01*
Y415699D01*
X306225Y416300D01*
X305885Y416810D01*
X305375Y417151D01*
X304774Y417270D01*
D02*
G37*
G36*
X302150D02*
X301526D01*
X300924Y417151D01*
X300414Y416810D01*
X300074Y416300D01*
X299954Y415699D01*
Y414386D01*
X302150D01*
Y417270D01*
D02*
G37*
G36*
X156935Y416323D02*
X154937D01*
Y414325D01*
X155413D01*
X155996Y414441D01*
X156489Y414771D01*
X156819Y415264D01*
X156935Y415846D01*
Y416323D01*
D02*
G37*
G36*
X312648Y417054D02*
X309400D01*
X308881Y416951D01*
X308442Y416657D01*
X308148Y416217D01*
X308045Y415699D01*
Y411073D01*
X308148Y410554D01*
X308442Y410115D01*
X308881Y409821D01*
X309400Y409718D01*
X312648D01*
X313166Y409821D01*
X313606Y410115D01*
X313899Y410554D01*
X314002Y411073D01*
Y411178D01*
X316064D01*
X316197Y410980D01*
X316612Y410703D01*
X317101Y410605D01*
X319906D01*
X320396Y410703D01*
X320811Y410980D01*
X321089Y411395D01*
X321186Y411885D01*
Y414887D01*
X321089Y415377D01*
X320811Y415792D01*
X320396Y416069D01*
X319906Y416166D01*
X317101D01*
X316612Y416069D01*
X316197Y415792D01*
X316064Y415594D01*
X314002D01*
Y415699D01*
X313899Y416217D01*
X313606Y416657D01*
X313166Y416951D01*
X312648Y417054D01*
D02*
G37*
G36*
X157136Y413333D02*
X156512D01*
Y410449D01*
X158707D01*
Y411762D01*
X158588Y412363D01*
X158247Y412873D01*
X157737Y413214D01*
X157136Y413333D01*
D02*
G37*
G36*
X154512D02*
X153888D01*
X153286Y413214D01*
X152777Y412873D01*
X152436Y412363D01*
X152316Y411762D01*
Y410449D01*
X154512D01*
Y413333D01*
D02*
G37*
G36*
X280232Y415469D02*
X276591D01*
Y408480D01*
X280232D01*
Y415469D01*
D02*
G37*
G36*
X244799D02*
X241158D01*
Y408480D01*
X244799D01*
Y415469D01*
D02*
G37*
G36*
X209366D02*
X205724D01*
Y408480D01*
X209366D01*
Y415469D01*
D02*
G37*
G36*
X203724D02*
X200083D01*
Y408480D01*
X203724D01*
Y415469D01*
D02*
G37*
G36*
X239158D02*
X235516D01*
Y408480D01*
X239158D01*
Y415469D01*
D02*
G37*
G36*
X274591D02*
X270949D01*
Y408480D01*
X274591D01*
Y415469D01*
D02*
G37*
G36*
X306345Y412386D02*
X303150D01*
X299954D01*
Y411073D01*
X300074Y410471D01*
X300414Y409962D01*
X300910Y409631D01*
X300924Y409532D01*
Y409366D01*
X300910Y409267D01*
X300414Y408936D01*
X300074Y408426D01*
X299954Y407825D01*
Y406512D01*
X303150D01*
X306345D01*
Y407825D01*
X306225Y408426D01*
X305885Y408936D01*
X305390Y409267D01*
X305375Y409366D01*
Y409532D01*
X305390Y409631D01*
X305885Y409962D01*
X306225Y410471D01*
X306345Y411073D01*
Y412386D01*
D02*
G37*
G36*
X312648Y409180D02*
X309400D01*
X308881Y409076D01*
X308442Y408783D01*
X308148Y408343D01*
X308045Y407825D01*
Y403199D01*
X308148Y402680D01*
X308442Y402241D01*
X308881Y401947D01*
X309400Y401844D01*
X312648D01*
X313166Y401947D01*
X313606Y402241D01*
X313899Y402680D01*
X314002Y403199D01*
Y403304D01*
X316064D01*
X316197Y403106D01*
X316612Y402829D01*
X317101Y402731D01*
X319906D01*
X320396Y402829D01*
X320811Y403106D01*
X321089Y403521D01*
X321186Y404011D01*
Y407013D01*
X321089Y407502D01*
X320811Y407917D01*
X320396Y408195D01*
X319906Y408292D01*
X317101D01*
X316612Y408195D01*
X316197Y407917D01*
X316064Y407720D01*
X314002D01*
Y407825D01*
X313899Y408343D01*
X313606Y408783D01*
X313166Y409076D01*
X312648Y409180D01*
D02*
G37*
G36*
X158707Y408449D02*
X155512D01*
X152316D01*
Y407136D01*
X152436Y406534D01*
X152777Y406025D01*
X153272Y405694D01*
X153286Y405595D01*
Y405429D01*
X153272Y405330D01*
X152777Y404999D01*
X152436Y404489D01*
X152316Y403888D01*
Y402575D01*
X155512D01*
X158707D01*
Y403888D01*
X158588Y404489D01*
X158247Y404999D01*
X157752Y405330D01*
X157737Y405429D01*
Y405595D01*
X157752Y405694D01*
X158247Y406025D01*
X158588Y406534D01*
X158707Y407136D01*
Y408449D01*
D02*
G37*
G36*
X306345Y404512D02*
X304150D01*
Y401627D01*
X304774D01*
X305375Y401747D01*
X305885Y402088D01*
X306225Y402597D01*
X306345Y403199D01*
Y404512D01*
D02*
G37*
G36*
X302150D02*
X299954D01*
Y403199D01*
X300074Y402597D01*
X300414Y402088D01*
X300924Y401747D01*
X301526Y401627D01*
X302150D01*
Y404512D01*
D02*
G37*
G36*
X164354Y401003D02*
X160965D01*
X160121Y400835D01*
X159406Y400357D01*
X159057Y399835D01*
X158707Y399941D01*
Y400575D01*
X156512D01*
Y397690D01*
X157136D01*
X157737Y397810D01*
X158247Y398151D01*
X158411Y398396D01*
X158761Y398289D01*
Y396476D01*
X158929Y395633D01*
X159406Y394918D01*
X160121Y394440D01*
X160965Y394273D01*
X164354D01*
Y397638D01*
Y401003D01*
D02*
G37*
G36*
X280232Y406480D02*
X276591D01*
Y399492D01*
X280232D01*
Y406480D01*
D02*
G37*
G36*
X274591D02*
X270949D01*
Y399492D01*
X274591D01*
Y406480D01*
D02*
G37*
G36*
X244799D02*
X241158D01*
Y399492D01*
X244799D01*
Y406480D01*
D02*
G37*
G36*
X239158D02*
X235516D01*
Y399492D01*
X239158D01*
Y406480D01*
D02*
G37*
G36*
X209366D02*
X205724D01*
Y399492D01*
X209366D01*
Y406480D01*
D02*
G37*
G36*
X203724D02*
X200083D01*
Y399492D01*
X203724D01*
Y406480D01*
D02*
G37*
G36*
X183524Y401003D02*
X180134D01*
Y398638D01*
X185727D01*
Y398799D01*
X185560Y399642D01*
X185082Y400357D01*
X184367Y400835D01*
X183524Y401003D01*
D02*
G37*
G36*
X169744D02*
X166354D01*
Y398638D01*
X171948D01*
Y398799D01*
X171780Y399642D01*
X171302Y400357D01*
X170587Y400835D01*
X169744Y401003D01*
D02*
G37*
G36*
X178134D02*
X174744D01*
X173901Y400835D01*
X173186Y400357D01*
X172708Y399642D01*
X172540Y398799D01*
Y398638D01*
X178134D01*
Y401003D01*
D02*
G37*
G36*
X154512Y400575D02*
X152316D01*
Y399262D01*
X152436Y398660D01*
X152777Y398151D01*
X153286Y397810D01*
X153888Y397690D01*
X154512D01*
Y400575D01*
D02*
G37*
G36*
X185727Y396638D02*
X180134D01*
Y394273D01*
X183524D01*
X184367Y394440D01*
X185082Y394918D01*
X185560Y395633D01*
X185727Y396476D01*
Y396638D01*
D02*
G37*
G36*
X178134D02*
X172540D01*
Y396476D01*
X172708Y395633D01*
X173186Y394918D01*
X173901Y394440D01*
X174744Y394273D01*
X178134D01*
Y396638D01*
D02*
G37*
G36*
X171948D02*
X166354D01*
Y394273D01*
X169744D01*
X170587Y394440D01*
X171302Y394918D01*
X171780Y395633D01*
X171948Y396476D01*
Y396638D01*
D02*
G37*
G36*
X321575Y392767D02*
X320213D01*
Y386827D01*
X323397D01*
Y390945D01*
X323258Y391642D01*
X322864Y392233D01*
X322272Y392629D01*
X321575Y392767D01*
D02*
G37*
G36*
X318213D02*
X316850D01*
X316153Y392629D01*
X315562Y392233D01*
X315167Y391642D01*
X315028Y390945D01*
Y386827D01*
X318213D01*
Y392767D01*
D02*
G37*
G36*
X323397Y384827D02*
X320213D01*
Y378886D01*
X321575D01*
X322272Y379025D01*
X322864Y379420D01*
X323258Y380011D01*
X323397Y380709D01*
Y384827D01*
D02*
G37*
G36*
X318213D02*
X315028D01*
Y380709D01*
X315167Y380011D01*
X315562Y379420D01*
X316153Y379025D01*
X316850Y378886D01*
X318213D01*
Y384827D01*
D02*
G37*
G36*
X115728Y383268D02*
X114587D01*
X113486Y382973D01*
X112498Y382402D01*
X111692Y381596D01*
X111122Y380609D01*
X110827Y379507D01*
Y378367D01*
X111122Y377265D01*
X111692Y376278D01*
X112498Y375472D01*
X113486Y374901D01*
X114587Y374606D01*
X115728D01*
X116829Y374901D01*
X117817Y375472D01*
X118623Y376278D01*
X119193Y377265D01*
X119488Y378367D01*
Y379507D01*
X119193Y380609D01*
X118623Y381596D01*
X117817Y382402D01*
X116829Y382973D01*
X115728Y383268D01*
D02*
G37*
G36*
X326206Y416166D02*
X323401D01*
X322911Y416069D01*
X322496Y415792D01*
X322218Y415377D01*
X322121Y414887D01*
Y411885D01*
X322218Y411395D01*
X322496Y410980D01*
X322911Y410703D01*
X323401Y410605D01*
X326206D01*
X326695Y410703D01*
X327111Y410980D01*
X327164Y411060D01*
X327512Y411094D01*
X330087Y408519D01*
Y367791D01*
X325910Y363614D01*
X322439D01*
Y375039D01*
X322290Y375792D01*
X321863Y376430D01*
X321225Y376857D01*
X320472Y377006D01*
X299921D01*
X299169Y376857D01*
X298531Y376430D01*
X298104Y375792D01*
X297954Y375039D01*
Y348976D01*
X298104Y348224D01*
X298531Y347586D01*
X299169Y347159D01*
X299921Y347009D01*
X320472D01*
X321225Y347159D01*
X321863Y347586D01*
X322290Y348224D01*
X322439Y348976D01*
Y360402D01*
X326575D01*
X326575Y360402D01*
X327189Y360524D01*
X327710Y360873D01*
X332828Y365991D01*
X332828Y365991D01*
X333176Y366512D01*
X333299Y367126D01*
Y409184D01*
X333299Y409184D01*
X333176Y409799D01*
X332828Y410320D01*
X332828Y410320D01*
X328627Y414521D01*
X328106Y414869D01*
X327491Y414992D01*
X327399Y415319D01*
X327388Y415377D01*
X327111Y415792D01*
X326695Y416069D01*
X326206Y416166D01*
D02*
G37*
G36*
X116157Y363688D02*
Y360252D01*
X119593D01*
X119391Y361006D01*
X118793Y362042D01*
X117947Y362888D01*
X116911Y363486D01*
X116157Y363688D01*
D02*
G37*
G36*
X114157D02*
X113404Y363486D01*
X112368Y362888D01*
X111522Y362042D01*
X110924Y361006D01*
X110722Y360252D01*
X114157D01*
Y363688D01*
D02*
G37*
G36*
X119593Y358252D02*
X116157D01*
Y354816D01*
X116911Y355018D01*
X117947Y355616D01*
X118793Y356462D01*
X119391Y357498D01*
X119593Y358252D01*
D02*
G37*
G36*
X114157D02*
X110722D01*
X110924Y357498D01*
X111522Y356462D01*
X112368Y355616D01*
X113404Y355018D01*
X114157Y354816D01*
Y358252D01*
D02*
G37*
G36*
X115728Y353740D02*
X114587D01*
X113486Y353445D01*
X112498Y352875D01*
X111692Y352069D01*
X111122Y351081D01*
X110827Y349980D01*
Y348839D01*
X111122Y347738D01*
X111692Y346750D01*
X112498Y345944D01*
X113486Y345374D01*
X114587Y345079D01*
X115728D01*
X116829Y345374D01*
X117817Y345944D01*
X118623Y346750D01*
X119193Y347738D01*
X119318Y348205D01*
X129403D01*
X129684Y347717D01*
X130198Y347204D01*
X130826Y346841D01*
X131527Y346654D01*
X132253D01*
X132954Y346841D01*
X133582Y347204D01*
X134095Y347717D01*
X134458Y348346D01*
X134646Y349047D01*
Y349772D01*
X134458Y350473D01*
X134095Y351102D01*
X133582Y351615D01*
X132954Y351977D01*
X132253Y352165D01*
X131527D01*
X130826Y351977D01*
X130198Y351615D01*
X129684Y351102D01*
X129403Y350614D01*
X119318D01*
X119193Y351081D01*
X118623Y352069D01*
X117817Y352875D01*
X116829Y353445D01*
X115728Y353740D01*
D02*
G37*
G36*
X229823Y343549D02*
X229346D01*
Y341551D01*
X231344D01*
Y342028D01*
X231228Y342610D01*
X230899Y343103D01*
X230405Y343433D01*
X229823Y343549D01*
D02*
G37*
G36*
X227346D02*
X226870D01*
X226288Y343433D01*
X225794Y343103D01*
X225465Y342610D01*
X225349Y342028D01*
Y341551D01*
X227346D01*
Y343549D01*
D02*
G37*
G36*
X253051D02*
X252575D01*
Y341551D01*
X254573D01*
Y342028D01*
X254457Y342610D01*
X254127Y343103D01*
X253633Y343433D01*
X253051Y343549D01*
D02*
G37*
G36*
X250575D02*
X250098D01*
X249516Y343433D01*
X249023Y343103D01*
X248693Y342610D01*
X248577Y342028D01*
Y341551D01*
X250575D01*
Y343549D01*
D02*
G37*
G36*
X254573Y339551D02*
X252575D01*
Y337553D01*
X253051D01*
X253633Y337669D01*
X254127Y337999D01*
X254457Y338493D01*
X254573Y339075D01*
Y339551D01*
D02*
G37*
G36*
X250575D02*
X248577D01*
Y339075D01*
X248693Y338493D01*
X249023Y337999D01*
X249516Y337669D01*
X250098Y337553D01*
X250575D01*
Y339551D01*
D02*
G37*
G36*
X231344Y339551D02*
X229346D01*
Y337553D01*
X229823D01*
X230405Y337669D01*
X230899Y337999D01*
X231228Y338493D01*
X231344Y339075D01*
Y339551D01*
D02*
G37*
G36*
X227346D02*
X225349D01*
Y339075D01*
X225465Y338493D01*
X225794Y337999D01*
X226288Y337669D01*
X226870Y337553D01*
X227346D01*
Y339551D01*
D02*
G37*
G36*
X115728Y343898D02*
X114587D01*
X113486Y343602D01*
X112498Y343032D01*
X111692Y342226D01*
X111122Y341238D01*
X110827Y340137D01*
Y338997D01*
X111122Y337895D01*
X111364Y337476D01*
X108400Y334513D01*
X108139Y334122D01*
X108048Y333661D01*
X108048Y333661D01*
Y320518D01*
X108048Y320518D01*
X108139Y320057D01*
X108400Y319666D01*
X139548Y288519D01*
X139548Y288519D01*
X139939Y288258D01*
X140400Y288166D01*
X140400Y288166D01*
X142001D01*
Y287746D01*
X142105Y287228D01*
X142398Y286788D01*
X142838Y286494D01*
X143356Y286391D01*
X143512D01*
X143618Y286041D01*
X143362Y285870D01*
X143085Y285455D01*
X142987Y284965D01*
Y284669D01*
X140395D01*
X140229Y285288D01*
X139607Y286365D01*
X138728Y287245D01*
X137650Y287867D01*
X136449Y288189D01*
X135205D01*
X134003Y287867D01*
X132926Y287245D01*
X132046Y286365D01*
X131424Y285288D01*
X131258Y284669D01*
X114805D01*
X114639Y285288D01*
X114017Y286365D01*
X113137Y287245D01*
X112060Y287867D01*
X110858Y288189D01*
X109614D01*
X108413Y287867D01*
X107335Y287245D01*
X106456Y286365D01*
X105834Y285288D01*
X105512Y284086D01*
Y282843D01*
X105834Y281641D01*
X106456Y280564D01*
X107335Y279684D01*
X108413Y279062D01*
X109614Y278740D01*
X110858D01*
X112060Y279062D01*
X113137Y279684D01*
X114017Y280564D01*
X114639Y281641D01*
X114805Y282260D01*
X131258D01*
X131424Y281641D01*
X132046Y280564D01*
X132926Y279684D01*
X134003Y279062D01*
X135205Y278740D01*
X136449D01*
X137650Y279062D01*
X138728Y279684D01*
X139607Y280564D01*
X140229Y281641D01*
X140395Y282260D01*
X142987D01*
Y281964D01*
X143085Y281474D01*
X143362Y281059D01*
X143777Y280782D01*
X144267Y280684D01*
X147072D01*
X147562Y280782D01*
X147977Y281059D01*
X148254Y281474D01*
X148351Y281964D01*
Y284965D01*
X148254Y285455D01*
X147977Y285870D01*
X147721Y286041D01*
X147827Y286391D01*
X147982D01*
X148501Y286494D01*
X148940Y286788D01*
X149234Y287228D01*
X149337Y287746D01*
Y288166D01*
X185268D01*
X201412Y272022D01*
X201412Y272022D01*
X201803Y271761D01*
X202264Y271669D01*
X202264Y271669D01*
X214802D01*
X214803Y271669D01*
X215263Y271761D01*
X215654Y272022D01*
X216118Y272485D01*
X216441Y272352D01*
Y266073D01*
X216134Y265968D01*
X205223D01*
X196718Y274474D01*
X196327Y274735D01*
X195866Y274826D01*
X195866Y274826D01*
X191756D01*
Y275591D01*
X191661Y276310D01*
X191384Y276980D01*
X190942Y277556D01*
X190366Y277998D01*
X189696Y278275D01*
X188976Y278370D01*
X185039D01*
X184320Y278275D01*
X183650Y277998D01*
X183074Y277556D01*
X182632Y276980D01*
X182354Y276310D01*
X182260Y275591D01*
Y271654D01*
X182354Y270934D01*
X182632Y270264D01*
X183074Y269688D01*
X183650Y269246D01*
X184320Y268969D01*
X185039Y268874D01*
X188976D01*
X189696Y268969D01*
X190366Y269246D01*
X190942Y269688D01*
X191384Y270264D01*
X191661Y270934D01*
X191756Y271654D01*
Y272418D01*
X195367D01*
X203462Y264323D01*
X203328Y264000D01*
X202418D01*
X201957Y263908D01*
X201567Y263647D01*
X201567Y263647D01*
X199408Y261488D01*
X199111Y261785D01*
X198671Y262078D01*
X198153Y262181D01*
X197634Y262078D01*
X197195Y261785D01*
X194170Y258760D01*
X188062D01*
X187601Y258668D01*
X187211Y258407D01*
X187211Y258407D01*
X184750Y255947D01*
X184617Y256024D01*
X183726Y256262D01*
X182804D01*
X181913Y256024D01*
X181114Y255562D01*
X180461Y254910D01*
X180000Y254111D01*
X179761Y253220D01*
Y252297D01*
X180000Y251406D01*
X180461Y250607D01*
X181114Y249955D01*
X181913Y249493D01*
X182804Y249255D01*
X183726D01*
X184617Y249493D01*
X185416Y249955D01*
X186069Y250607D01*
X186530Y251406D01*
X186769Y252297D01*
Y253220D01*
X186530Y254111D01*
X186453Y254244D01*
X188561Y256351D01*
X194170D01*
X196221Y254301D01*
X196660Y254007D01*
X197179Y253904D01*
X197613Y253991D01*
X197736Y253910D01*
X197808Y253839D01*
X197888Y253716D01*
X197802Y253281D01*
X197905Y252763D01*
X198199Y252323D01*
X200249Y250273D01*
Y244275D01*
X198336Y242362D01*
X198203Y242438D01*
X197312Y242677D01*
X196389D01*
X195498Y242438D01*
X194699Y241977D01*
X194047Y241325D01*
X193585Y240526D01*
X193347Y239634D01*
Y238712D01*
X193585Y237821D01*
X194047Y237022D01*
X194699Y236369D01*
X195498Y235908D01*
X196389Y235669D01*
X197312D01*
X198203Y235908D01*
X199002Y236369D01*
X199654Y237022D01*
X200115Y237821D01*
X200354Y238712D01*
Y239634D01*
X200115Y240526D01*
X200039Y240659D01*
X202305Y242925D01*
X202305Y242925D01*
X202566Y243315D01*
X202658Y243776D01*
Y250273D01*
X205682Y253297D01*
X205976Y253737D01*
X206079Y254255D01*
X205976Y254774D01*
X205682Y255213D01*
X205386Y255510D01*
X206545Y256669D01*
X208635D01*
Y255561D01*
X208738Y255042D01*
X209032Y254603D01*
X209471Y254309D01*
X209990Y254206D01*
X213238D01*
X213756Y254309D01*
X214196Y254603D01*
X214490Y255042D01*
X214593Y255561D01*
Y260187D01*
X214490Y260705D01*
X214196Y261145D01*
X214052Y261241D01*
X214158Y261591D01*
X216944D01*
X217050Y261241D01*
X216906Y261145D01*
X216612Y260705D01*
X216509Y260187D01*
Y255561D01*
X216612Y255042D01*
X216906Y254603D01*
X217345Y254309D01*
X217864Y254206D01*
X221112D01*
X221630Y254309D01*
X222070Y254603D01*
X222363Y255042D01*
X222467Y255561D01*
Y258165D01*
X228513Y264211D01*
X228513Y264211D01*
X228774Y264602D01*
X228866Y265062D01*
Y266073D01*
X230008D01*
Y265860D01*
X230598D01*
Y266073D01*
X231008D01*
Y269764D01*
Y273455D01*
X230808D01*
X230766Y273667D01*
X230766D01*
X230743Y273784D01*
X230481Y274174D01*
X230481Y274174D01*
X229198Y275458D01*
X228807Y275719D01*
X228346Y275811D01*
X228346Y275811D01*
X216535D01*
X216535Y275811D01*
X216075Y275719D01*
X215684Y275458D01*
X215684Y275458D01*
X214304Y274078D01*
X202763D01*
X186619Y290222D01*
X186228Y290483D01*
X185767Y290574D01*
X185767Y290574D01*
X149337D01*
Y290994D01*
X149234Y291512D01*
X148940Y291952D01*
X148501Y292246D01*
X147982Y292349D01*
X143356D01*
X142838Y292246D01*
X142398Y291952D01*
X142105Y291512D01*
X142001Y290994D01*
Y290574D01*
X140899D01*
X135552Y295921D01*
X135686Y296244D01*
X136477D01*
X137732Y296581D01*
X138858Y297231D01*
X139777Y298150D01*
X140427Y299275D01*
X140670Y300181D01*
X135827D01*
Y301181D01*
X134827D01*
Y306024D01*
X133921Y305782D01*
X132795Y305132D01*
X131876Y304212D01*
X131226Y303087D01*
X130890Y301831D01*
Y301040D01*
X130566Y300906D01*
X110456Y321017D01*
Y333163D01*
X113067Y335773D01*
X113486Y335531D01*
X114587Y335236D01*
X115728D01*
X116829Y335531D01*
X117817Y336102D01*
X118623Y336908D01*
X119193Y337895D01*
X119488Y338997D01*
Y340137D01*
X119193Y341238D01*
X118623Y342226D01*
X117817Y343032D01*
X116829Y343602D01*
X115728Y343898D01*
D02*
G37*
G36*
X199787Y328982D02*
X199311D01*
X198729Y328866D01*
X198235Y328536D01*
X198045Y328252D01*
X197624D01*
X197434Y328536D01*
X196941Y328866D01*
X196358Y328982D01*
X195882D01*
Y325984D01*
Y322987D01*
X196358D01*
X196941Y323102D01*
X197434Y323432D01*
X197624Y323717D01*
X198045D01*
X198235Y323432D01*
X198729Y323102D01*
X199311Y322987D01*
X199787D01*
Y325984D01*
Y328982D01*
D02*
G37*
G36*
X187976Y328982D02*
X187500D01*
X186918Y328866D01*
X186424Y328536D01*
X186094Y328043D01*
X185979Y327461D01*
Y326984D01*
X187976D01*
Y328982D01*
D02*
G37*
G36*
X202264Y328982D02*
X201787D01*
Y326984D01*
X203785D01*
Y327461D01*
X203669Y328043D01*
X203340Y328536D01*
X202846Y328866D01*
X202264Y328982D01*
D02*
G37*
G36*
X187976Y324984D02*
X185979D01*
Y324508D01*
X186094Y323926D01*
X186424Y323432D01*
X186918Y323102D01*
X187500Y322987D01*
X187976D01*
Y324984D01*
D02*
G37*
G36*
X203785Y324984D02*
X201787D01*
Y322987D01*
X202264D01*
X202846Y323102D01*
X203340Y323432D01*
X203669Y323926D01*
X203785Y324508D01*
Y324984D01*
D02*
G37*
G36*
X190453Y328982D02*
X189976D01*
Y325984D01*
Y322987D01*
X190453D01*
X191035Y323102D01*
X191528Y323432D01*
X191719Y323717D01*
X192140D01*
X192330Y323432D01*
X192823Y323102D01*
X193405Y322987D01*
X193882D01*
Y325984D01*
Y328982D01*
X193405D01*
X192823Y328866D01*
X192330Y328536D01*
X192140Y328252D01*
X191719D01*
X191528Y328536D01*
X191035Y328866D01*
X190453Y328982D01*
D02*
G37*
G36*
X115728Y373425D02*
X114587D01*
X113486Y373130D01*
X112498Y372560D01*
X111692Y371754D01*
X111122Y370766D01*
X110827Y369665D01*
Y368524D01*
X111122Y367423D01*
X111692Y366435D01*
X112498Y365629D01*
X113486Y365059D01*
X114587Y364764D01*
X115728D01*
X116829Y365059D01*
X117817Y365629D01*
X118623Y366435D01*
X119193Y367423D01*
X119318Y367890D01*
X210304D01*
X234539Y343655D01*
X234405Y343332D01*
X233169D01*
X232670Y343233D01*
X232247Y342950D01*
X231964Y342527D01*
X231865Y342028D01*
Y339075D01*
X231964Y338576D01*
X232247Y338152D01*
X232670Y337870D01*
X233169Y337770D01*
X233441D01*
Y337033D01*
X232715Y336307D01*
X232454Y335916D01*
X232363Y335455D01*
X232363Y335455D01*
Y334596D01*
X230008D01*
Y334384D01*
X216441D01*
Y327002D01*
X228426D01*
Y325732D01*
X228124Y325483D01*
X227725Y325590D01*
X226999D01*
X226298Y325403D01*
X225670Y325040D01*
X225157Y324527D01*
X224794Y323898D01*
X224606Y323198D01*
Y322472D01*
X224794Y321771D01*
X225157Y321143D01*
X225670Y320629D01*
X226298Y320267D01*
X226999Y320079D01*
X227725D01*
X228426Y320267D01*
X229054Y320629D01*
X229568Y321143D01*
X229930Y321771D01*
X230118Y322472D01*
Y323198D01*
X229972Y323742D01*
X230481Y324251D01*
X230655Y324511D01*
X231063Y324597D01*
X232064Y323597D01*
X232155Y323138D01*
X232416Y322747D01*
X232807Y322486D01*
X233268Y322395D01*
X233729Y322486D01*
X234119Y322747D01*
X234380Y323138D01*
X234472Y323599D01*
Y324096D01*
X234472Y324096D01*
X234380Y324557D01*
X234119Y324948D01*
X234119Y324948D01*
X232803Y326264D01*
Y326789D01*
X233189D01*
Y327002D01*
X249930D01*
Y326389D01*
X249921Y326387D01*
X249292Y326024D01*
X248779Y325511D01*
X248416Y324883D01*
X248228Y324182D01*
Y323456D01*
X248416Y322755D01*
X248779Y322127D01*
X249292Y321614D01*
X249921Y321251D01*
X250621Y321063D01*
X251347D01*
X252048Y321251D01*
X252676Y321614D01*
X253189Y322127D01*
X253552Y322755D01*
X253740Y323456D01*
Y324182D01*
X253552Y324883D01*
X253449Y325062D01*
X253729Y325276D01*
X256038Y322967D01*
X256429Y322706D01*
X256890Y322615D01*
X257351Y322706D01*
X257741Y322967D01*
X258002Y323358D01*
X258094Y323819D01*
X258002Y324280D01*
X257741Y324670D01*
X255733Y326679D01*
X255867Y327002D01*
X266441D01*
Y334384D01*
X256857D01*
X256713Y334734D01*
X258726Y336747D01*
X258726Y336747D01*
X258987Y337138D01*
X259078Y337598D01*
Y337770D01*
X259350D01*
X259850Y337870D01*
X260273Y338152D01*
X260556Y338576D01*
X260655Y339075D01*
Y342028D01*
X260556Y342527D01*
X260273Y342950D01*
X259850Y343233D01*
X259350Y343332D01*
X256398D01*
X255898Y343233D01*
X255475Y342950D01*
X255192Y342527D01*
X255093Y342028D01*
Y339075D01*
X255192Y338576D01*
X255475Y338152D01*
X255898Y337870D01*
X255988Y337852D01*
X256089Y337517D01*
X254369Y335796D01*
X254108Y335406D01*
X254016Y334945D01*
X254016Y334945D01*
Y334596D01*
X251661D01*
Y334384D01*
X240677D01*
Y349110D01*
X240677Y349110D01*
X240585Y349571D01*
X240324Y349962D01*
X235878Y354408D01*
X236024Y354952D01*
Y355678D01*
X235836Y356379D01*
X235473Y357007D01*
X234960Y357520D01*
X234331Y357883D01*
X233630Y358071D01*
X232905D01*
X232204Y357883D01*
X231576Y357520D01*
X231062Y357007D01*
X230700Y356379D01*
X230512Y355678D01*
Y354952D01*
X230700Y354251D01*
X231062Y353623D01*
X231576Y353110D01*
X232204Y352747D01*
X232905Y352559D01*
X233630D01*
X234175Y352705D01*
X238268Y348611D01*
Y343790D01*
X237945Y343655D01*
X211654Y369946D01*
X211264Y370207D01*
X210803Y370299D01*
X210803Y370299D01*
X119318D01*
X119193Y370766D01*
X118623Y371754D01*
X117817Y372560D01*
X116829Y373130D01*
X115728Y373425D01*
D02*
G37*
G36*
X209646Y351205D02*
X205709D01*
X204989Y351110D01*
X204319Y350833D01*
X203743Y350391D01*
X203301Y349815D01*
X203024Y349145D01*
X202929Y348425D01*
Y344488D01*
X203024Y343769D01*
X203301Y343098D01*
X203743Y342523D01*
X204319Y342081D01*
X204591Y341968D01*
X204504Y341535D01*
X204504Y341535D01*
Y323819D01*
X204504Y323819D01*
X204596Y323358D01*
X204857Y322967D01*
X206383Y321441D01*
X206250Y321118D01*
X203568D01*
Y321161D01*
X203469Y321661D01*
X203186Y322084D01*
X202763Y322367D01*
X202264Y322466D01*
X199311D01*
X198812Y322367D01*
X198389Y322084D01*
X198127Y321692D01*
X197543D01*
X197281Y322084D01*
X196858Y322367D01*
X196358Y322466D01*
X193405D01*
X192906Y322367D01*
X192483Y322084D01*
X192221Y321692D01*
X191637D01*
X191375Y322084D01*
X190952Y322367D01*
X190453Y322466D01*
X187500D01*
X187001Y322367D01*
X186577Y322084D01*
X186516Y321991D01*
X183875D01*
X183779Y322087D01*
X183150Y322450D01*
X182449Y322638D01*
X181724D01*
X181023Y322450D01*
X180394Y322087D01*
X179881Y321574D01*
X179518Y320946D01*
X179331Y320245D01*
Y319519D01*
X179518Y318818D01*
X179881Y318190D01*
X180394Y317677D01*
X181023Y317314D01*
X181724Y317126D01*
X182449D01*
X183150Y317314D01*
X183604Y317576D01*
X186384D01*
X186577Y317286D01*
X187001Y317003D01*
X187500Y316904D01*
X190453D01*
X190952Y317003D01*
X191375Y317286D01*
X191637Y317678D01*
X192221D01*
X192483Y317286D01*
X192906Y317003D01*
X193405Y316904D01*
X196358D01*
X196858Y317003D01*
X197281Y317286D01*
X197543Y317678D01*
X198127D01*
X198389Y317286D01*
X198812Y317003D01*
X199311Y316904D01*
X202264D01*
X202763Y317003D01*
X203186Y317286D01*
X203469Y317709D01*
X203568Y318209D01*
Y318709D01*
X207073D01*
Y316354D01*
X207285D01*
Y313244D01*
X203568D01*
Y313681D01*
X203469Y314180D01*
X203186Y314604D01*
X202763Y314886D01*
X202264Y314986D01*
X199311D01*
X198812Y314886D01*
X198389Y314604D01*
X198127Y314212D01*
X197543D01*
X197281Y314604D01*
X196858Y314886D01*
X196358Y314986D01*
X193405D01*
X192906Y314886D01*
X192483Y314604D01*
X192221Y314212D01*
X191637D01*
X191375Y314604D01*
X190952Y314886D01*
X190453Y314986D01*
X187500D01*
X187001Y314886D01*
X186577Y314604D01*
X186384Y314314D01*
X183604D01*
X183150Y314576D01*
X182449Y314764D01*
X181724D01*
X181023Y314576D01*
X180394Y314213D01*
X179881Y313700D01*
X179518Y313072D01*
X179331Y312371D01*
Y311645D01*
X179518Y310944D01*
X179881Y310316D01*
X180394Y309803D01*
X181023Y309440D01*
X181724Y309252D01*
X182449D01*
X183150Y309440D01*
X183779Y309803D01*
X183875Y309898D01*
X186516D01*
X186577Y309806D01*
X187001Y309523D01*
X187500Y309424D01*
X190453D01*
X190952Y309523D01*
X191375Y309806D01*
X191637Y310198D01*
X192221D01*
X192483Y309806D01*
X192906Y309523D01*
X193405Y309424D01*
X196358D01*
X196858Y309523D01*
X197281Y309806D01*
X197543Y310198D01*
X198127D01*
X198389Y309806D01*
X198812Y309523D01*
X199311Y309424D01*
X202264D01*
X202763Y309523D01*
X203186Y309806D01*
X203469Y310229D01*
X203568Y310728D01*
Y310835D01*
X207285D01*
Y306724D01*
Y302787D01*
Y298850D01*
Y295527D01*
X180864D01*
X145815Y330576D01*
X145424Y330837D01*
X144964Y330929D01*
X144963Y330929D01*
X119318D01*
X119193Y331396D01*
X118623Y332383D01*
X117817Y333190D01*
X116829Y333760D01*
X115728Y334055D01*
X114587D01*
X113486Y333760D01*
X112498Y333190D01*
X111692Y332383D01*
X111122Y331396D01*
X110827Y330295D01*
Y329154D01*
X111122Y328053D01*
X111692Y327065D01*
X112498Y326259D01*
X113486Y325689D01*
X114587Y325394D01*
X115728D01*
X116829Y325689D01*
X117817Y326259D01*
X118623Y327065D01*
X119193Y328053D01*
X119318Y328520D01*
X144465D01*
X179514Y293471D01*
X179514Y293471D01*
X179904Y293210D01*
X180365Y293119D01*
X198080D01*
X198267Y292769D01*
X198106Y292527D01*
X198006Y292028D01*
Y289075D01*
X198106Y288576D01*
X198389Y288152D01*
X198812Y287870D01*
X199311Y287770D01*
X202264D01*
X202763Y287870D01*
X203186Y288152D01*
X203469Y288576D01*
X203568Y289075D01*
Y289170D01*
X203918Y289273D01*
X205626Y287566D01*
X205626Y287566D01*
X206017Y287305D01*
X206478Y287213D01*
X207073D01*
Y284858D01*
X207285D01*
Y283102D01*
Y279165D01*
Y275228D01*
X214667D01*
Y279165D01*
Y283442D01*
X221821D01*
X222007Y283120D01*
X222520Y282606D01*
X223149Y282244D01*
X223850Y282056D01*
X224575D01*
X225276Y282244D01*
X225905Y282606D01*
X226418Y283120D01*
X226781Y283748D01*
X226969Y284449D01*
Y285174D01*
X226781Y285875D01*
X226418Y286504D01*
X225905Y287017D01*
X225276Y287380D01*
X224575Y287567D01*
X223850D01*
X223149Y287380D01*
X222520Y287017D01*
X222007Y286504D01*
X221644Y285875D01*
X221638Y285850D01*
X216160D01*
X216026Y286174D01*
X218371Y288519D01*
X218632Y288909D01*
X218724Y289370D01*
X218632Y289831D01*
X218371Y290222D01*
X217981Y290483D01*
X217520Y290574D01*
X217059Y290483D01*
X216668Y290222D01*
X214991Y288544D01*
X214667Y288678D01*
Y290976D01*
Y295087D01*
X215999D01*
X216299Y294568D01*
X216812Y294055D01*
X217440Y293692D01*
X218141Y293504D01*
X218867D01*
X219568Y293692D01*
X220196Y294055D01*
X220709Y294568D01*
X221072Y295196D01*
X221260Y295897D01*
Y296623D01*
X221072Y297324D01*
X220709Y297952D01*
X220196Y298465D01*
X219568Y298828D01*
X218867Y299016D01*
X218141D01*
X217440Y298828D01*
X216812Y298465D01*
X216299Y297952D01*
X216035Y297496D01*
X214667D01*
Y300819D01*
Y304930D01*
X215999D01*
X216299Y304410D01*
X216812Y303897D01*
X217440Y303534D01*
X218141Y303346D01*
X218867D01*
X219568Y303534D01*
X220196Y303897D01*
X220709Y304410D01*
X221072Y305039D01*
X221260Y305739D01*
Y306465D01*
X221072Y307166D01*
X220709Y307794D01*
X220196Y308308D01*
X219568Y308670D01*
X218867Y308858D01*
X218141D01*
X217440Y308670D01*
X216812Y308308D01*
X216299Y307794D01*
X216035Y307338D01*
X214667D01*
Y312630D01*
Y316354D01*
X214880D01*
Y316945D01*
X214668D01*
Y317354D01*
X210976D01*
Y318535D01*
X214668D01*
Y318945D01*
X214880D01*
Y319535D01*
X214667D01*
Y325228D01*
X207285D01*
Y324799D01*
X206935Y324612D01*
X206913Y324627D01*
Y341037D01*
X207585Y341708D01*
X209646D01*
X210365Y341803D01*
X211035Y342081D01*
X211611Y342523D01*
X212053Y343098D01*
X212331Y343769D01*
X212425Y344488D01*
Y348425D01*
X212331Y349145D01*
X212053Y349815D01*
X211611Y350391D01*
X211035Y350833D01*
X210365Y351110D01*
X209646Y351205D01*
D02*
G37*
G36*
X295965Y319927D02*
X295488D01*
Y317929D01*
X297486D01*
Y318406D01*
X297370Y318988D01*
X297040Y319481D01*
X296547Y319811D01*
X295965Y319927D01*
D02*
G37*
G36*
X293488D02*
X293012D01*
X292430Y319811D01*
X291936Y319481D01*
X291606Y318988D01*
X291491Y318406D01*
Y317929D01*
X293488D01*
Y319927D01*
D02*
G37*
G36*
X297486Y315929D02*
X294488D01*
X291491D01*
Y315453D01*
X291606Y314871D01*
X291936Y314377D01*
X292221Y314187D01*
Y313766D01*
X291936Y313576D01*
X291606Y313082D01*
X291491Y312500D01*
Y312024D01*
X294488D01*
X297486D01*
Y312500D01*
X297370Y313082D01*
X297040Y313576D01*
X296756Y313766D01*
Y314187D01*
X297040Y314377D01*
X297370Y314871D01*
X297486Y315453D01*
Y315929D01*
D02*
G37*
G36*
X199787Y308903D02*
X199311D01*
X198729Y308787D01*
X198235Y308458D01*
X198045Y308173D01*
X197624D01*
X197434Y308458D01*
X196941Y308787D01*
X196358Y308903D01*
X195882D01*
Y305906D01*
Y302908D01*
X196358D01*
X196941Y303024D01*
X197434Y303353D01*
X197624Y303638D01*
X198045D01*
X198235Y303353D01*
X198729Y303024D01*
X199311Y302908D01*
X199787D01*
Y305906D01*
Y308903D01*
D02*
G37*
G36*
X193882D02*
X193405D01*
X192823Y308787D01*
X192330Y308458D01*
X192140Y308173D01*
X191719D01*
X191528Y308458D01*
X191035Y308787D01*
X190453Y308903D01*
X189976D01*
Y305906D01*
X188976D01*
D01*
X189976D01*
Y302908D01*
X190453D01*
X191035Y303024D01*
X191528Y303353D01*
X191719Y303638D01*
X192140D01*
X192330Y303353D01*
X192823Y303024D01*
X193405Y302908D01*
X193882D01*
Y305906D01*
Y308903D01*
D02*
G37*
G36*
X202264D02*
X201787D01*
Y306906D01*
X203785D01*
Y307382D01*
X203669Y307964D01*
X203340Y308458D01*
X202846Y308787D01*
X202264Y308903D01*
D02*
G37*
G36*
X187976D02*
X187500D01*
X186918Y308787D01*
X186424Y308458D01*
X186094Y307964D01*
X185979Y307382D01*
Y306906D01*
X187976D01*
Y308903D01*
D02*
G37*
G36*
X297486Y310024D02*
X294488D01*
X291491D01*
Y309547D01*
X291606Y308965D01*
X291936Y308471D01*
X292221Y308281D01*
Y307860D01*
X291936Y307670D01*
X291606Y307177D01*
X291491Y306594D01*
Y306118D01*
X294488D01*
X297486D01*
Y306594D01*
X297370Y307177D01*
X297040Y307670D01*
X296756Y307860D01*
Y308281D01*
X297040Y308471D01*
X297370Y308965D01*
X297486Y309547D01*
Y310024D01*
D02*
G37*
G36*
X203785Y304906D02*
X201787D01*
Y302908D01*
X202264D01*
X202846Y303024D01*
X203340Y303353D01*
X203669Y303847D01*
X203785Y304429D01*
Y304906D01*
D02*
G37*
G36*
X187976D02*
X185979D01*
Y304429D01*
X186094Y303847D01*
X186424Y303353D01*
X186918Y303024D01*
X187500Y302908D01*
X187976D01*
Y304906D01*
D02*
G37*
G36*
X136827Y306024D02*
Y302181D01*
X140670D01*
X140427Y303087D01*
X139777Y304212D01*
X138858Y305132D01*
X137732Y305782D01*
X136827Y306024D01*
D02*
G37*
G36*
X111236D02*
Y302181D01*
X115079D01*
X114837Y303087D01*
X114187Y304212D01*
X113268Y305132D01*
X112142Y305782D01*
X111236Y306024D01*
D02*
G37*
G36*
X109236D02*
X108331Y305782D01*
X107205Y305132D01*
X106286Y304212D01*
X105636Y303087D01*
X105393Y302181D01*
X109236D01*
Y306024D01*
D02*
G37*
G36*
X297486Y304118D02*
X294488D01*
X291491D01*
Y303642D01*
X291606Y303060D01*
X291936Y302566D01*
X292221Y302376D01*
Y301955D01*
X291936Y301765D01*
X291606Y301271D01*
X291491Y300689D01*
Y300213D01*
X294488D01*
X297486D01*
Y300689D01*
X297370Y301271D01*
X297040Y301765D01*
X296756Y301955D01*
Y302376D01*
X297040Y302566D01*
X297370Y303060D01*
X297486Y303642D01*
Y304118D01*
D02*
G37*
G36*
X147982Y300440D02*
X146669D01*
Y298244D01*
X149554D01*
Y298868D01*
X149434Y299469D01*
X149093Y299979D01*
X148584Y300320D01*
X147982Y300440D01*
D02*
G37*
G36*
X144669D02*
X143356D01*
X142755Y300320D01*
X142245Y299979D01*
X141904Y299469D01*
X141785Y298868D01*
Y298244D01*
X144669D01*
Y300440D01*
D02*
G37*
G36*
X115079Y300181D02*
X111236D01*
Y296338D01*
X112142Y296581D01*
X113268Y297231D01*
X114187Y298150D01*
X114837Y299275D01*
X115079Y300181D01*
D02*
G37*
G36*
X109236D02*
X105393D01*
X105636Y299275D01*
X106286Y298150D01*
X107205Y297231D01*
X108331Y296581D01*
X109236Y296338D01*
Y300181D01*
D02*
G37*
G36*
X297486Y298213D02*
X294488D01*
X291491D01*
Y297736D01*
X291606Y297154D01*
X291936Y296660D01*
X292221Y296470D01*
Y296049D01*
X291936Y295859D01*
X291606Y295366D01*
X291491Y294783D01*
Y294307D01*
X294488D01*
X297486D01*
Y294783D01*
X297370Y295366D01*
X297040Y295859D01*
X296756Y296049D01*
Y296470D01*
X297040Y296660D01*
X297370Y297154D01*
X297486Y297736D01*
Y298213D01*
D02*
G37*
G36*
X149554Y296244D02*
X146669D01*
Y294049D01*
X147982D01*
X148584Y294168D01*
X149093Y294509D01*
X149434Y295019D01*
X149554Y295620D01*
Y296244D01*
D02*
G37*
G36*
X144669D02*
X141785D01*
Y295620D01*
X141904Y295019D01*
X142245Y294509D01*
X142755Y294168D01*
X143356Y294049D01*
X144669D01*
Y296244D01*
D02*
G37*
G36*
X297486Y292307D02*
X295488D01*
Y290309D01*
X295965D01*
X296547Y290425D01*
X297040Y290755D01*
X297370Y291248D01*
X297486Y291831D01*
Y292307D01*
D02*
G37*
G36*
X293488D02*
X291491D01*
Y291831D01*
X291606Y291248D01*
X291936Y290755D01*
X292430Y290425D01*
X293012Y290309D01*
X293488D01*
Y292307D01*
D02*
G37*
G36*
X202264Y287250D02*
X201787D01*
Y285252D01*
X203785D01*
Y285728D01*
X203669Y286311D01*
X203340Y286804D01*
X202846Y287134D01*
X202264Y287250D01*
D02*
G37*
G36*
X199787D02*
X199311D01*
X198729Y287134D01*
X198235Y286804D01*
X197906Y286311D01*
X197790Y285728D01*
Y285252D01*
X199787D01*
Y287250D01*
D02*
G37*
G36*
X296900Y289101D02*
X293652D01*
X293133Y288998D01*
X292694Y288704D01*
X292400Y288265D01*
X292297Y287746D01*
Y283120D01*
X292400Y282602D01*
X292694Y282162D01*
X293133Y281869D01*
X293652Y281766D01*
X296900D01*
X297418Y281869D01*
X297858Y282162D01*
X298152Y282602D01*
X298255Y283120D01*
Y283426D01*
X300275D01*
X300473Y283228D01*
X301102Y282865D01*
X301802Y282677D01*
X302528D01*
X303229Y282865D01*
X303857Y283228D01*
X304371Y283741D01*
X304733Y284369D01*
X304921Y285070D01*
Y285796D01*
X304733Y286497D01*
X304371Y287125D01*
X303857Y287638D01*
X303229Y288001D01*
X302528Y288189D01*
X301802D01*
X301102Y288001D01*
X300473Y287638D01*
X300275Y287440D01*
X298255D01*
Y287746D01*
X298152Y288265D01*
X297858Y288704D01*
X297418Y288998D01*
X296900Y289101D01*
D02*
G37*
G36*
X275596Y325228D02*
X268215D01*
Y322472D01*
Y319535D01*
X268002D01*
Y318945D01*
X268214D01*
Y318535D01*
X271905D01*
Y317354D01*
X268214D01*
Y316945D01*
X268002D01*
Y316354D01*
X268215D01*
Y312630D01*
Y307724D01*
X268002D01*
Y307134D01*
X268214D01*
Y306724D01*
X271905D01*
Y305543D01*
X268214D01*
Y305134D01*
X268002D01*
Y304543D01*
X268215D01*
Y300819D01*
Y295913D01*
X268002D01*
Y295323D01*
X268214D01*
Y294913D01*
X271905D01*
Y293733D01*
X268214D01*
Y293323D01*
X268002D01*
Y292732D01*
X268215D01*
Y288039D01*
X268002D01*
Y287449D01*
X268214D01*
Y287039D01*
X271905D01*
Y285858D01*
X268214D01*
Y285449D01*
X268002D01*
Y284858D01*
X268215D01*
Y283102D01*
Y279165D01*
Y275228D01*
X275596D01*
Y279165D01*
Y283276D01*
X284423D01*
Y283120D01*
X284526Y282602D01*
X284820Y282162D01*
X285259Y281869D01*
X285778Y281766D01*
X289026D01*
X289544Y281869D01*
X289984Y282162D01*
X290278Y282602D01*
X290381Y283120D01*
Y287746D01*
X290278Y288265D01*
X289984Y288704D01*
X289803Y288825D01*
Y290553D01*
X290165Y290625D01*
X290588Y290908D01*
X290871Y291332D01*
X290970Y291831D01*
Y294783D01*
X290871Y295283D01*
X290588Y295706D01*
X290196Y295968D01*
Y296552D01*
X290588Y296814D01*
X290871Y297237D01*
X290970Y297736D01*
Y300689D01*
X290871Y301188D01*
X290588Y301611D01*
X290196Y301873D01*
Y302457D01*
X290588Y302719D01*
X290871Y303142D01*
X290970Y303642D01*
Y306594D01*
X290871Y307094D01*
X290588Y307517D01*
X290196Y307779D01*
Y308363D01*
X290588Y308625D01*
X290871Y309048D01*
X290970Y309547D01*
Y312500D01*
X290871Y312999D01*
X290588Y313422D01*
X290196Y313684D01*
Y314268D01*
X290588Y314530D01*
X290871Y314953D01*
X290970Y315453D01*
Y318406D01*
X290871Y318905D01*
X290588Y319328D01*
X290165Y319611D01*
X289665Y319710D01*
X286713D01*
X286213Y319611D01*
X285790Y319328D01*
X285507Y318905D01*
X285408Y318406D01*
Y318133D01*
X282509D01*
X279878Y320765D01*
X279487Y321026D01*
X279026Y321118D01*
X279026Y321118D01*
X275596D01*
Y322472D01*
Y325228D01*
D02*
G37*
G36*
X203785Y283252D02*
X201787D01*
Y281254D01*
X202264D01*
X202846Y281370D01*
X203340Y281700D01*
X203669Y282193D01*
X203785Y282776D01*
Y283252D01*
D02*
G37*
G36*
X199787D02*
X197790D01*
Y282776D01*
X197906Y282193D01*
X198235Y281700D01*
X198729Y281370D01*
X199311Y281254D01*
X199787D01*
Y283252D01*
D02*
G37*
G36*
X153371Y286245D02*
X150566D01*
X150076Y286148D01*
X149661Y285870D01*
X149384Y285455D01*
X149286Y284965D01*
Y281964D01*
X149384Y281474D01*
X149661Y281059D01*
X150076Y280782D01*
X150566Y280684D01*
X150764D01*
Y279436D01*
X146155Y274826D01*
X120473D01*
X120472Y274826D01*
X120012Y274735D01*
X119621Y274474D01*
X111880Y266732D01*
X106890D01*
Y260827D01*
X114370D01*
Y265817D01*
X120971Y272418D01*
X146653D01*
X146653Y272418D01*
X147114Y272510D01*
X147505Y272771D01*
X152820Y278085D01*
X152820Y278085D01*
X153081Y278476D01*
X153173Y278937D01*
X153173Y278937D01*
Y280684D01*
X153371D01*
X153861Y280782D01*
X154276Y281059D01*
X154542Y281457D01*
X156574D01*
X156772Y281259D01*
X157401Y280896D01*
X158102Y280709D01*
X158827D01*
X159528Y280896D01*
X160157Y281259D01*
X160670Y281772D01*
X161033Y282401D01*
X161221Y283102D01*
Y283827D01*
X161033Y284528D01*
X160670Y285157D01*
X160157Y285670D01*
X159528Y286033D01*
X158827Y286221D01*
X158102D01*
X157401Y286033D01*
X156772Y285670D01*
X156574Y285472D01*
X154542D01*
X154276Y285870D01*
X153861Y286148D01*
X153371Y286245D01*
D02*
G37*
G36*
X261190Y279331D02*
X260464D01*
X259763Y279143D01*
X259135Y278780D01*
X258622Y278267D01*
X258259Y277639D01*
X258071Y276938D01*
Y276212D01*
X258259Y275511D01*
X258622Y274883D01*
X259135Y274370D01*
X259763Y274007D01*
X259772Y274004D01*
Y273455D01*
X256811D01*
Y273667D01*
X256221D01*
Y273455D01*
X255811D01*
Y269764D01*
Y266073D01*
X256221D01*
Y265860D01*
X256811D01*
Y266073D01*
X266441D01*
Y273455D01*
X262181D01*
Y274174D01*
X262519Y274370D01*
X263032Y274883D01*
X263395Y275511D01*
X263583Y276212D01*
Y276938D01*
X263395Y277639D01*
X263032Y278267D01*
X262519Y278780D01*
X261891Y279143D01*
X261190Y279331D01*
D02*
G37*
G36*
X254221Y273667D02*
X253630D01*
Y273455D01*
X243032D01*
Y273667D01*
X242441D01*
Y273455D01*
X242031D01*
Y269764D01*
X240472D01*
Y265860D01*
X242205D01*
Y262804D01*
X242205Y262804D01*
X242297Y262344D01*
X242558Y261953D01*
X242890Y261620D01*
Y258686D01*
X242618D01*
X242119Y258587D01*
X241696Y258304D01*
X241413Y257881D01*
X241314Y257382D01*
Y254429D01*
X241413Y253930D01*
X241696Y253507D01*
X242087Y253245D01*
Y252661D01*
X241696Y252399D01*
X241413Y251976D01*
X241314Y251476D01*
Y248524D01*
X241413Y248024D01*
X241696Y247601D01*
X242087Y247339D01*
Y246755D01*
X241696Y246493D01*
X241413Y246070D01*
X241314Y245571D01*
Y242618D01*
X241413Y242119D01*
X241696Y241696D01*
X241887Y241568D01*
Y239877D01*
X241526Y239253D01*
X241339Y238552D01*
Y237826D01*
X241526Y237125D01*
X241889Y236497D01*
X242402Y235984D01*
X243031Y235621D01*
X243732Y235433D01*
X244457D01*
X245158Y235621D01*
X245787Y235984D01*
X246300Y236497D01*
X246663Y237125D01*
X246850Y237826D01*
Y238552D01*
X246663Y239253D01*
X246302Y239877D01*
Y241568D01*
X246493Y241696D01*
X246776Y242119D01*
X246876Y242618D01*
X247219Y242618D01*
X247318Y242119D01*
X247601Y241696D01*
X247792Y241568D01*
Y239877D01*
X247432Y239253D01*
X247244Y238552D01*
Y237826D01*
X247432Y237125D01*
X247795Y236497D01*
X248308Y235984D01*
X248936Y235621D01*
X249637Y235433D01*
X250363D01*
X251064Y235621D01*
X251692Y235984D01*
X252205Y236497D01*
X252568Y237125D01*
X252756Y237826D01*
Y238552D01*
X252568Y239253D01*
X252208Y239877D01*
Y241568D01*
X252399Y241696D01*
X252682Y242119D01*
X252781Y242618D01*
Y245571D01*
X252682Y246070D01*
X252399Y246493D01*
X252007Y246755D01*
Y247339D01*
X252399Y247601D01*
X252682Y248024D01*
X252781Y248524D01*
Y251476D01*
X252682Y251976D01*
X252399Y252399D01*
X252007Y252661D01*
Y253245D01*
X252399Y253507D01*
X252682Y253930D01*
X252781Y254429D01*
Y257382D01*
X252682Y257881D01*
X252399Y258304D01*
X251976Y258587D01*
X251476Y258686D01*
X251204D01*
Y260151D01*
X251113Y260612D01*
X250851Y261002D01*
X246582Y265272D01*
Y266073D01*
X253630D01*
Y265860D01*
X254221D01*
Y266073D01*
X254630D01*
Y269764D01*
Y273455D01*
X254221D01*
Y273667D01*
D02*
G37*
G36*
X157013Y272978D02*
X156512D01*
Y271079D01*
X158509D01*
Y271481D01*
X158395Y272054D01*
X158071Y272539D01*
X157585Y272864D01*
X157013Y272978D01*
D02*
G37*
G36*
X154512D02*
X154011D01*
X153438Y272864D01*
X152953Y272539D01*
X152628Y272054D01*
X152515Y271481D01*
Y271079D01*
X154512D01*
Y272978D01*
D02*
G37*
G36*
X158509Y269079D02*
X156512D01*
Y267180D01*
X157013D01*
X157585Y267294D01*
X158071Y267618D01*
X158395Y268104D01*
X158509Y268676D01*
Y269079D01*
D02*
G37*
G36*
X154512D02*
X152515D01*
Y268676D01*
X152628Y268104D01*
X152953Y267618D01*
X153438Y267294D01*
X154011Y267180D01*
X154512D01*
Y269079D01*
D02*
G37*
G36*
X236735Y283760D02*
X236010D01*
X235309Y283572D01*
X234680Y283209D01*
X234167Y282696D01*
X233804Y282068D01*
X233616Y281367D01*
Y280641D01*
X233804Y279940D01*
X234167Y279312D01*
X234324Y279155D01*
X234245Y278756D01*
X234245Y278756D01*
Y275355D01*
X232715Y273826D01*
X232610Y273667D01*
X232598D01*
Y273651D01*
X232468Y273455D01*
X232189D01*
Y269764D01*
Y266073D01*
X232598D01*
Y265860D01*
X233189D01*
Y266073D01*
X237882D01*
Y265860D01*
X238472D01*
Y266073D01*
X238882D01*
Y269764D01*
Y273455D01*
X238472D01*
Y273667D01*
X237882D01*
Y273455D01*
X236208D01*
X236074Y273778D01*
X236300Y274004D01*
X236561Y274395D01*
X236653Y274856D01*
X236653Y274856D01*
Y278248D01*
X236735D01*
X237436Y278436D01*
X238065Y278799D01*
X238578Y279312D01*
X238940Y279940D01*
X239128Y280641D01*
Y281367D01*
X238940Y282068D01*
X238578Y282696D01*
X238065Y283209D01*
X237436Y283572D01*
X236735Y283760D01*
D02*
G37*
G36*
X192585Y267966D02*
X191984Y267846D01*
X191474Y267506D01*
X190545Y266577D01*
X192098Y265025D01*
X194138Y267064D01*
X193696Y267506D01*
X193187Y267846D01*
X192585Y267966D01*
D02*
G37*
G36*
X195552Y265650D02*
X193512Y263611D01*
X195065Y262058D01*
X195993Y262987D01*
X196334Y263496D01*
X196453Y264098D01*
X196334Y264699D01*
X195993Y265209D01*
X195552Y265650D01*
D02*
G37*
G36*
X189131Y265163D02*
X188203Y264235D01*
X187862Y263725D01*
X187743Y263123D01*
X187862Y262522D01*
X188203Y262012D01*
X188644Y261571D01*
X190684Y263611D01*
X189131Y265163D01*
D02*
G37*
G36*
X149409Y266732D02*
X141929D01*
Y260827D01*
X149409D01*
Y261772D01*
X152905D01*
X153106Y261472D01*
X153521Y261195D01*
X154011Y261097D01*
X157013D01*
X157502Y261195D01*
X157917Y261472D01*
X158195Y261887D01*
X158292Y262377D01*
Y262575D01*
X163852D01*
X164133Y262087D01*
X164646Y261574D01*
X165275Y261211D01*
X165976Y261024D01*
X166701D01*
X167402Y261211D01*
X168031Y261574D01*
X168544Y262087D01*
X168907Y262716D01*
X169095Y263417D01*
Y264142D01*
X168907Y264843D01*
X168544Y265472D01*
X168031Y265985D01*
X167402Y266348D01*
X166701Y266535D01*
X165976D01*
X165275Y266348D01*
X164646Y265985D01*
X164133Y265472D01*
X163852Y264984D01*
X158292D01*
Y265182D01*
X158195Y265672D01*
X157917Y266087D01*
X157502Y266364D01*
X157013Y266462D01*
X154011D01*
X153521Y266364D01*
X153106Y266087D01*
X152905Y265787D01*
X149409D01*
Y266732D01*
D02*
G37*
G36*
X192098Y262196D02*
X190058Y260157D01*
X190500Y259716D01*
X191009Y259375D01*
X191611Y259255D01*
X192212Y259375D01*
X192722Y259716D01*
X193650Y260644D01*
X192098Y262196D01*
D02*
G37*
G36*
X239272Y258903D02*
X238795D01*
Y256906D01*
X240793D01*
Y257382D01*
X240677Y257964D01*
X240347Y258458D01*
X239854Y258787D01*
X239272Y258903D01*
D02*
G37*
G36*
X236795D02*
X236319D01*
X235737Y258787D01*
X235243Y258458D01*
X234913Y257964D01*
X234798Y257382D01*
Y256906D01*
X236795D01*
Y258903D01*
D02*
G37*
G36*
X257776D02*
X257299D01*
Y256906D01*
X259297D01*
Y257382D01*
X259181Y257964D01*
X258851Y258458D01*
X258358Y258787D01*
X257776Y258903D01*
D02*
G37*
G36*
X255299D02*
X254823D01*
X254241Y258787D01*
X253747Y258458D01*
X253417Y257964D01*
X253302Y257382D01*
Y256906D01*
X255299D01*
Y258903D01*
D02*
G37*
G36*
X240793Y254906D02*
X237795D01*
X234798D01*
Y254429D01*
X234913Y253847D01*
X235243Y253353D01*
X235528Y253163D01*
Y252742D01*
X235243Y252552D01*
X234913Y252059D01*
X234798Y251476D01*
Y251000D01*
X237795D01*
X240793D01*
Y251476D01*
X240677Y252059D01*
X240347Y252552D01*
X240063Y252742D01*
Y253163D01*
X240347Y253353D01*
X240677Y253847D01*
X240793Y254429D01*
Y254906D01*
D02*
G37*
G36*
X259297Y254906D02*
X256299D01*
X253302D01*
Y254429D01*
X253417Y253847D01*
X253747Y253353D01*
X254032Y253163D01*
Y252742D01*
X253747Y252552D01*
X253417Y252059D01*
X253302Y251476D01*
Y251000D01*
X256299D01*
X259297D01*
Y251476D01*
X259181Y252059D01*
X258851Y252552D01*
X258567Y252742D01*
Y253163D01*
X258851Y253353D01*
X259181Y253847D01*
X259297Y254429D01*
Y254906D01*
D02*
G37*
G36*
X207996Y252556D02*
X207394Y252436D01*
X206884Y252096D01*
X205956Y251167D01*
X207508Y249615D01*
X209548Y251654D01*
X209107Y252096D01*
X208597Y252436D01*
X207996Y252556D01*
D02*
G37*
G36*
X210962Y250240D02*
X208923Y248200D01*
X210475Y246648D01*
X211403Y247576D01*
X211744Y248086D01*
X211864Y248688D01*
X211744Y249289D01*
X211403Y249799D01*
X210962Y250240D01*
D02*
G37*
G36*
X204542Y249753D02*
X203613Y248824D01*
X203273Y248315D01*
X203153Y247713D01*
X203273Y247112D01*
X203613Y246602D01*
X204054Y246161D01*
X206094Y248200D01*
X204542Y249753D01*
D02*
G37*
G36*
X240793Y249000D02*
X237795D01*
X234798D01*
Y248524D01*
X234913Y247941D01*
X235243Y247448D01*
X235528Y247258D01*
Y246837D01*
X235243Y246647D01*
X234913Y246153D01*
X234798Y245571D01*
Y245094D01*
X237795D01*
X240793D01*
Y245571D01*
X240677Y246153D01*
X240347Y246647D01*
X240063Y246837D01*
Y247258D01*
X240347Y247448D01*
X240677Y247941D01*
X240793Y248524D01*
Y249000D01*
D02*
G37*
G36*
X259297Y249000D02*
X256299D01*
X253302D01*
Y248524D01*
X253417Y247941D01*
X253747Y247448D01*
X254032Y247258D01*
Y246837D01*
X253747Y246647D01*
X253417Y246153D01*
X253302Y245571D01*
Y245094D01*
X256299D01*
X259297D01*
Y245571D01*
X259181Y246153D01*
X258851Y246647D01*
X258567Y246837D01*
Y247258D01*
X258851Y247448D01*
X259181Y247941D01*
X259297Y248524D01*
Y249000D01*
D02*
G37*
G36*
X207508Y246786D02*
X205469Y244746D01*
X205910Y244305D01*
X206420Y243965D01*
X207021Y243845D01*
X207623Y243965D01*
X208132Y244305D01*
X209061Y245234D01*
X207508Y246786D01*
D02*
G37*
G36*
X240793Y243094D02*
X238795D01*
Y241097D01*
X239272D01*
X239854Y241213D01*
X240347Y241542D01*
X240677Y242036D01*
X240793Y242618D01*
Y243094D01*
D02*
G37*
G36*
X236795D02*
X234798D01*
Y242618D01*
X234913Y242036D01*
X235243Y241542D01*
X235737Y241213D01*
X236319Y241097D01*
X236795D01*
Y243094D01*
D02*
G37*
G36*
X259297Y243094D02*
X257299D01*
Y241097D01*
X257776D01*
X258358Y241213D01*
X258851Y241542D01*
X259181Y242036D01*
X259297Y242618D01*
Y243094D01*
D02*
G37*
G36*
X255299D02*
X253302D01*
Y242618D01*
X253417Y242036D01*
X253747Y241542D01*
X254241Y241213D01*
X254823Y241097D01*
X255299D01*
Y243094D01*
D02*
G37*
%LPD*%
G36*
X281159Y316078D02*
X281550Y315817D01*
X282011Y315725D01*
X285408D01*
Y315453D01*
X285507Y314953D01*
X285790Y314530D01*
X286182Y314268D01*
Y313684D01*
X285790Y313422D01*
X285507Y312999D01*
X285408Y312500D01*
Y309547D01*
X285507Y309048D01*
X285790Y308625D01*
X286182Y308363D01*
Y307779D01*
X285790Y307517D01*
X285507Y307094D01*
X285408Y306594D01*
Y306322D01*
X282509D01*
X279878Y308954D01*
X279487Y309215D01*
X279026Y309307D01*
X279026Y309307D01*
X275596D01*
Y310661D01*
Y312630D01*
Y314598D01*
Y316354D01*
X275809D01*
Y318709D01*
X278528D01*
X281159Y316078D01*
D02*
G37*
G36*
Y304267D02*
X281550Y304006D01*
X282011Y303914D01*
X285408D01*
Y303642D01*
X285507Y303142D01*
X285790Y302719D01*
X286182Y302457D01*
Y301873D01*
X285790Y301611D01*
X285507Y301188D01*
X285408Y300689D01*
Y297736D01*
X285507Y297237D01*
X285790Y296814D01*
X286182Y296552D01*
Y295968D01*
X285790Y295706D01*
X285507Y295283D01*
X285408Y294783D01*
Y294511D01*
X282411D01*
X279780Y297143D01*
X279389Y297404D01*
X278928Y297496D01*
X278928Y297496D01*
X275596D01*
Y298850D01*
Y300819D01*
Y302787D01*
Y304543D01*
X275809D01*
Y306898D01*
X278528D01*
X281159Y304267D01*
D02*
G37*
G36*
X281061Y292456D02*
X281061Y292456D01*
X281451Y292195D01*
X281912Y292103D01*
X281912Y292103D01*
X285408D01*
Y291831D01*
X285507Y291332D01*
X285788Y290911D01*
Y289101D01*
X285778D01*
X285259Y288998D01*
X284820Y288704D01*
X284526Y288265D01*
X284423Y287746D01*
Y285684D01*
X275809D01*
Y288039D01*
X275596D01*
Y289008D01*
Y290976D01*
Y292732D01*
X275809D01*
Y295087D01*
X278429D01*
X281061Y292456D01*
D02*
G37*
D11*
X207677Y343504D02*
Y344488D01*
X205709Y341535D02*
X207677Y343504D01*
X205709Y323819D02*
Y341535D01*
X233268Y323599D02*
Y324096D01*
X231598Y325765D02*
Y330693D01*
Y325765D02*
X233268Y324096D01*
X109252Y320518D02*
X140400Y289370D01*
X109252Y333661D02*
X115157Y339567D01*
X109252Y320518D02*
Y333661D01*
X253449Y327260D02*
X256890Y323819D01*
X253252Y330693D02*
X253449Y330496D01*
Y327260D02*
Y330496D01*
X260976Y269913D02*
X261126Y269764D01*
X260976Y269913D02*
Y276425D01*
X260827Y276575D02*
X260976Y276425D01*
X210976Y286449D02*
X214598D01*
X217520Y289370D01*
X224047Y284646D02*
X224213Y284812D01*
X210976Y284480D02*
X211142Y284646D01*
X224047D01*
X217486Y264764D02*
X217819Y265097D01*
Y269764D01*
X204724Y264764D02*
X217486D01*
X195866Y273622D02*
X204724Y264764D01*
X222441Y262795D02*
X225693Y266047D01*
X202418Y262795D02*
X222441D01*
X197666Y258043D02*
X202418Y262795D01*
X187008Y273622D02*
X195866D01*
X185767Y289370D02*
X202264Y272873D01*
X214803D01*
X251134Y330543D02*
X251284Y330693D01*
X251134Y323969D02*
Y330543D01*
X250984Y323819D02*
X251134Y323969D01*
X227362Y322835D02*
X229630Y325102D01*
Y330693D01*
X279026Y308102D02*
X282011Y305118D01*
X271905Y308102D02*
X279026D01*
X282011Y305118D02*
X288189D01*
X271905Y319913D02*
X279026D01*
X278928Y296291D02*
X281912Y293307D01*
X288189D01*
X271905Y296291D02*
X278928D01*
X282011Y316929D02*
X288189D01*
X279026Y319913D02*
X282011Y316929D01*
X218472Y306134D02*
X218504Y306102D01*
X210976Y306134D02*
X218472D01*
X233567Y272974D02*
X235449Y274856D01*
X233567Y269764D02*
Y272974D01*
X235449Y274856D02*
Y278756D01*
X236221Y279528D01*
X204344Y290551D02*
X206478Y288417D01*
X200787Y290551D02*
X204344D01*
X206478Y288417D02*
X210976D01*
X155512Y263779D02*
X166339D01*
X155512Y263779D02*
X155512Y263779D01*
X218472Y296291D02*
X218504Y296260D01*
X210976Y296291D02*
X218472D01*
X140400Y289370D02*
X145669D01*
X115157Y349410D02*
X131890D01*
X233268Y355315D02*
X239472Y349110D01*
Y330693D02*
Y349110D01*
X115157Y369094D02*
X210803D01*
X237504Y342393D01*
Y330693D02*
Y342393D01*
X110630Y263779D02*
X120472Y273622D01*
X146653D02*
X151969Y278937D01*
X120472Y273622D02*
X146653D01*
X151969Y278937D02*
Y283465D01*
X287402Y285433D02*
X287795Y285827D01*
X286449Y284480D02*
X287402Y285433D01*
X271905Y284480D02*
X286449D01*
X245378Y264773D02*
Y269764D01*
Y264773D02*
X250000Y260151D01*
Y255906D02*
Y260151D01*
X243409Y262804D02*
X244094Y262119D01*
X243409Y262804D02*
Y269764D01*
X244094Y255906D02*
Y262119D01*
X207646Y321882D02*
X210976D01*
X205709Y323819D02*
X207646Y321882D01*
X255221Y334945D02*
X257874Y337598D01*
Y340551D01*
X255221Y330693D02*
Y334945D01*
X234646Y336534D02*
Y340551D01*
X233567Y335455D02*
X234646Y336534D01*
X233567Y330693D02*
Y335455D01*
X194882Y319685D02*
X194882Y319685D01*
X201016Y319913D02*
X210976D01*
X200787Y319685D02*
X201016Y319913D01*
X200953Y312039D02*
X210976D01*
X200787Y312205D02*
X200953Y312039D01*
X144964Y329724D02*
X180365Y294323D01*
X210976D01*
X115157Y329724D02*
X144964D01*
X110236Y283465D02*
X135827D01*
X145669D01*
Y289370D01*
X185767D01*
X214803Y272873D02*
X216535Y274606D01*
X228346D01*
X229630Y269764D02*
Y273323D01*
X228346Y274606D02*
X229630Y273323D01*
X225693Y266047D02*
Y269764D01*
X220304Y257705D02*
X227661Y265062D01*
X220304Y257705D02*
Y257705D01*
X201453Y243776D02*
Y253281D01*
X201940Y253768D01*
X196850Y239173D02*
X201453Y243776D01*
X188062Y257556D02*
X197179D01*
X183265Y252759D02*
X188062Y257556D01*
X197179D02*
X197666Y258043D01*
X197666D01*
X201940Y253768D02*
X206046Y257874D01*
X201940Y253768D02*
X201940D01*
X206046Y257874D02*
X211614D01*
X227661Y265062D02*
Y269764D01*
D15*
X303150Y405512D02*
D03*
X311024D02*
D03*
X211614Y257874D02*
D03*
X219488D02*
D03*
X295276Y285433D02*
D03*
X287402D02*
D03*
X311024Y413386D02*
D03*
X303150D02*
D03*
X155512Y401575D02*
D03*
X147638D02*
D03*
X155512Y409449D02*
D03*
X147638D02*
D03*
D16*
X207677Y346457D02*
D03*
X187008Y273622D02*
D03*
D17*
X174213Y454347D02*
D03*
Y447646D02*
D03*
Y440945D02*
D03*
Y434244D02*
D03*
Y427543D02*
D03*
D18*
X214567Y440945D02*
D03*
D19*
X319213Y385827D02*
D03*
X301181D02*
D03*
D20*
X310197Y362008D02*
D03*
D21*
X110630Y263779D02*
D03*
X145669D02*
D03*
D22*
X155512Y270079D02*
D03*
Y263779D02*
D03*
D23*
X318504Y413386D02*
D03*
X324803D02*
D03*
X318504Y405512D02*
D03*
X324803D02*
D03*
X145669Y283465D02*
D03*
X151969D02*
D03*
D24*
X137795Y433661D02*
D03*
Y471850D02*
D03*
D25*
X217819Y269764D02*
D03*
X219787D02*
D03*
X221756D02*
D03*
X223724D02*
D03*
X225693D02*
D03*
X227661D02*
D03*
X229630D02*
D03*
X231598D02*
D03*
X233567D02*
D03*
X235535D02*
D03*
X237504D02*
D03*
X239472D02*
D03*
X241441D02*
D03*
X243409D02*
D03*
X245378D02*
D03*
X247346D02*
D03*
X249315D02*
D03*
X251284D02*
D03*
X253252D02*
D03*
X255221D02*
D03*
X257189D02*
D03*
X259157D02*
D03*
X261126D02*
D03*
X263094D02*
D03*
X265063D02*
D03*
Y330693D02*
D03*
X263094D02*
D03*
X261126D02*
D03*
X259157D02*
D03*
X257189D02*
D03*
X255221D02*
D03*
X253252D02*
D03*
X251284D02*
D03*
X249315D02*
D03*
X247346D02*
D03*
X245378D02*
D03*
X243409D02*
D03*
X241441D02*
D03*
X239472D02*
D03*
X237504D02*
D03*
X235535D02*
D03*
X233567D02*
D03*
X231598D02*
D03*
X229630D02*
D03*
X227661D02*
D03*
X225693D02*
D03*
X223724D02*
D03*
X221756D02*
D03*
X219787D02*
D03*
X217819D02*
D03*
D26*
X271905Y276606D02*
D03*
Y278575D02*
D03*
Y280543D02*
D03*
Y282512D02*
D03*
Y284480D02*
D03*
Y286449D02*
D03*
Y288417D02*
D03*
Y290386D02*
D03*
Y292354D02*
D03*
Y294323D02*
D03*
Y296291D02*
D03*
Y298260D02*
D03*
Y300228D02*
D03*
Y302197D02*
D03*
Y304165D02*
D03*
Y306134D02*
D03*
Y308102D02*
D03*
Y310071D02*
D03*
Y312039D02*
D03*
Y314008D02*
D03*
Y315976D02*
D03*
Y317945D02*
D03*
Y319913D02*
D03*
Y321882D02*
D03*
Y323850D02*
D03*
X210976D02*
D03*
Y321882D02*
D03*
Y319913D02*
D03*
Y317945D02*
D03*
Y315976D02*
D03*
Y314008D02*
D03*
Y312039D02*
D03*
Y310071D02*
D03*
Y308102D02*
D03*
Y306134D02*
D03*
Y304165D02*
D03*
Y302197D02*
D03*
Y300228D02*
D03*
Y298260D02*
D03*
Y296291D02*
D03*
Y294323D02*
D03*
Y292354D02*
D03*
Y290386D02*
D03*
Y288417D02*
D03*
Y286449D02*
D03*
Y284480D02*
D03*
Y282512D02*
D03*
Y280543D02*
D03*
Y278575D02*
D03*
Y276606D02*
D03*
D27*
X273622Y467717D02*
D03*
Y478740D02*
D03*
D28*
X149016Y484252D02*
D03*
X137795D02*
D03*
D29*
X275590Y386811D02*
D03*
Y407480D02*
D03*
X240158Y386811D02*
D03*
Y407480D02*
D03*
X204724Y386811D02*
D03*
Y407480D02*
D03*
X250000Y478346D02*
D03*
Y457677D02*
D03*
D30*
X179134Y397638D02*
D03*
Y386063D02*
D03*
X165354Y397638D02*
D03*
Y386063D02*
D03*
X226378Y466772D02*
D03*
Y478346D02*
D03*
X212598Y466772D02*
D03*
Y478346D02*
D03*
D31*
X147638Y417323D02*
D03*
X153937D02*
D03*
X147638Y423228D02*
D03*
X153937D02*
D03*
X228346Y340551D02*
D03*
X234646D02*
D03*
X251575D02*
D03*
X257874D02*
D03*
X294488Y316929D02*
D03*
X288189D02*
D03*
X294488Y311024D02*
D03*
X288189D02*
D03*
X294488Y305118D02*
D03*
X288189D02*
D03*
X294488Y293307D02*
D03*
X288189D02*
D03*
X294488Y299213D02*
D03*
X288189D02*
D03*
X256299Y255906D02*
D03*
X250000D02*
D03*
X256299Y244094D02*
D03*
X250000D02*
D03*
X256299Y250000D02*
D03*
X250000D02*
D03*
X237795Y244094D02*
D03*
X244094D02*
D03*
X237795Y250000D02*
D03*
X244094D02*
D03*
X237795Y255906D02*
D03*
X244094D02*
D03*
D32*
X202756Y470472D02*
D03*
Y478346D02*
D03*
X194882Y470472D02*
D03*
Y478346D02*
D03*
X145669Y289370D02*
D03*
Y297244D02*
D03*
D33*
X200787Y284252D02*
D03*
Y290551D02*
D03*
X188976Y325984D02*
D03*
Y319685D02*
D03*
X200787Y325984D02*
D03*
Y319685D02*
D03*
X194882Y325984D02*
D03*
Y319685D02*
D03*
X200787Y305906D02*
D03*
Y312205D02*
D03*
X194882Y305906D02*
D03*
Y312205D02*
D03*
X188976Y305906D02*
D03*
Y312205D02*
D03*
X181102Y478346D02*
D03*
Y472047D02*
D03*
X187008Y478346D02*
D03*
Y472047D02*
D03*
D34*
X197666Y258043D02*
D03*
X192098Y263611D02*
D03*
X201940Y253768D02*
D03*
X207508Y248200D02*
D03*
D61*
X309924Y362280D02*
Y365754D01*
Y362280D02*
X310197Y362008D01*
X301181Y388583D02*
X310236Y397638D01*
X326575Y362008D02*
X331693Y367126D01*
Y409184D01*
X327491Y413386D02*
X331693Y409184D01*
X324803Y413386D02*
X327491D01*
X310197Y362008D02*
X326575D01*
X322835Y397638D02*
X324803Y399606D01*
X310236Y397638D02*
X322835D01*
X324803Y399606D02*
Y405512D01*
D62*
X301181Y385827D02*
Y388583D01*
X250000Y238189D02*
X250000Y238189D01*
X250000Y238189D02*
Y244094D01*
X244094Y238189D02*
X244094Y238189D01*
X244094Y238189D02*
Y244094D01*
X182185Y312106D02*
X188878D01*
X188976Y312205D01*
X182087Y312008D02*
X182185Y312106D01*
Y319783D02*
X188878D01*
X188976Y319685D01*
X182087Y319882D02*
X182185Y319783D01*
X311024Y413386D02*
X318504D01*
X311024Y405512D02*
X318504D01*
X137795Y471850D02*
Y484252D01*
Y471850D02*
X140976Y468670D01*
Y465323D02*
Y468670D01*
Y465323D02*
X158653Y447646D01*
X174213D01*
D63*
X158465Y283465D02*
X158465Y283465D01*
X151969Y283465D02*
X158465D01*
X151969Y283465D02*
X151969Y283465D01*
X302165Y285433D02*
X302165Y285433D01*
X295276Y285433D02*
X295276Y285433D01*
X302165D01*
X145669Y263779D02*
X155512D01*
X287795Y292914D02*
X288189Y293307D01*
X287795Y285827D02*
Y292914D01*
X288189Y293307D02*
Y299213D01*
Y305118D01*
Y311024D01*
Y316929D01*
X244094Y250000D02*
Y255906D01*
Y244094D02*
Y250000D01*
X250000D02*
Y255906D01*
Y244094D02*
Y250000D01*
X188976Y319685D02*
X194882D01*
X194882Y319685D02*
X200787D01*
X188976Y312205D02*
X194882D01*
X200787D01*
D64*
X275590Y386811D02*
X276575Y385827D01*
X301181D01*
X240158Y386811D02*
X275590D01*
X204724D02*
X240158D01*
X203976Y386063D02*
X204724Y386811D01*
X179134Y386063D02*
X203976D01*
X165354D02*
X179134D01*
X157244D02*
X165354D01*
X147638Y395669D02*
X157244Y386063D01*
X147638Y395669D02*
Y401575D01*
Y409449D01*
Y417323D01*
Y423228D01*
X142717Y433661D02*
X147047Y429331D01*
Y423819D02*
X147638Y423228D01*
X137795Y433661D02*
X142717D01*
X147047Y423819D02*
Y429331D01*
X137795Y433661D02*
X138378Y434244D01*
X174213D01*
D65*
X177690Y478346D02*
X187008D01*
X173228Y455331D02*
X174213Y454347D01*
X173228Y473885D02*
X177690Y478346D01*
X173228Y455331D02*
Y473885D01*
X273933Y468028D02*
X287925D01*
X187008Y478346D02*
X194882D01*
X202756D01*
X212598D01*
X226378D01*
X250000D01*
X250394Y478740D01*
X273622D01*
D66*
X196850Y239173D02*
D03*
X183265Y252759D02*
D03*
D67*
X115157Y329724D02*
D03*
Y339567D02*
D03*
Y349410D02*
D03*
Y359252D02*
D03*
Y369094D02*
D03*
Y378937D02*
D03*
D68*
X287925Y468028D02*
D03*
Y448343D02*
D03*
D69*
X327295Y436531D02*
D03*
Y479839D02*
D03*
D70*
X110236Y301181D02*
D03*
X135827D02*
D03*
X110236Y283465D02*
D03*
X135827D02*
D03*
D71*
X233268Y323599D02*
D03*
X302165Y365173D02*
D03*
Y358268D02*
D03*
Y351394D02*
D03*
X310039Y365173D02*
D03*
Y358268D02*
D03*
Y351394D02*
D03*
X317913Y351378D02*
D03*
Y358252D02*
D03*
Y371063D02*
D03*
X310039D02*
D03*
X302165D02*
D03*
X260827Y276575D02*
D03*
X224213Y284812D02*
D03*
X158465Y283465D02*
D03*
X250984Y323819D02*
D03*
X227362Y322835D02*
D03*
X250000Y238189D02*
D03*
X244094D02*
D03*
X182087Y312008D02*
D03*
Y319882D02*
D03*
X218504Y306102D02*
D03*
X231299Y276575D02*
D03*
X236372Y281004D02*
D03*
X302165Y285433D02*
D03*
X166339Y263779D02*
D03*
X218504Y296260D02*
D03*
X131890Y349410D02*
D03*
X233268Y355315D02*
D03*
X217520Y289370D02*
D03*
X232283Y255906D02*
D03*
Y244094D02*
D03*
Y250000D02*
D03*
X253937Y276575D02*
D03*
X256890Y323819D02*
D03*
X245079Y315945D02*
D03*
X218504Y312008D02*
D03*
X251969Y346457D02*
D03*
X228346D02*
D03*
X300197Y316929D02*
D03*
Y311024D02*
D03*
Y293307D02*
D03*
Y299213D02*
D03*
Y305118D02*
D03*
X261811Y244094D02*
D03*
Y250000D02*
D03*
Y255906D02*
D03*
X200787Y299213D02*
D03*
X194882D02*
D03*
X188976D02*
D03*
X317913Y365158D02*
D03*
M02*
