G04*
G04 #@! TF.GenerationSoftware,Altium Limited,Altium Designer,24.4.1 (13)*
G04*
G04 Layer_Color=16711935*
%FSLAX25Y25*%
%MOIN*%
G70*
G04*
G04 #@! TF.SameCoordinates,15B434A4-4527-47F9-A3CB-D7505B607EAD*
G04*
G04*
G04 #@! TF.FilePolarity,Positive*
G04*
G01*
G75*
%ADD11C,0.00787*%
D11*
X337598Y479331D02*
X337568Y480341D01*
X337476Y481348D01*
X337324Y482347D01*
X337112Y483335D01*
X336841Y484309D01*
X336511Y485264D01*
X336124Y486198D01*
X335682Y487107D01*
X335185Y487987D01*
X334636Y488836D01*
X334037Y489650D01*
X333390Y490426D01*
X332698Y491162D01*
X331962Y491855D01*
X331185Y492502D01*
X330371Y493101D01*
X329522Y493650D01*
X328642Y494146D01*
X327733Y494589D01*
X326800Y494976D01*
X325844Y495305D01*
X324870Y495577D01*
X323882Y495789D01*
X322883Y495941D01*
X321876Y496032D01*
X320866Y496063D01*
X318898Y220472D02*
X319910Y220500D01*
X320920Y220582D01*
X321923Y220719D01*
X322918Y220910D01*
X323901Y221154D01*
X324869Y221451D01*
X325819Y221801D01*
X326750Y222201D01*
X327657Y222651D01*
X328539Y223149D01*
X329392Y223695D01*
X330215Y224286D01*
X331004Y224920D01*
X331758Y225597D01*
X332474Y226313D01*
X333151Y227067D01*
X333785Y227856D01*
X334376Y228679D01*
X334922Y229532D01*
X335420Y230414D01*
X335870Y231321D01*
X336270Y232251D01*
X336619Y233202D01*
X336917Y234170D01*
X337161Y235153D01*
X337352Y236148D01*
X337489Y237151D01*
X337571Y238161D01*
X337598Y239173D01*
X98425Y236220D02*
X98456Y235232D01*
X98549Y234247D01*
X98704Y233270D01*
X98920Y232304D01*
X99196Y231354D01*
X99531Y230423D01*
X99924Y229515D01*
X100373Y228634D01*
X100877Y227782D01*
X101433Y226964D01*
X102039Y226182D01*
X102693Y225440D01*
X103393Y224741D01*
X104135Y224086D01*
X104917Y223480D01*
X105735Y222924D01*
X106587Y222420D01*
X107468Y221971D01*
X108376Y221578D01*
X109307Y221243D01*
X110257Y220967D01*
X111222Y220751D01*
X112199Y220597D01*
X113184Y220503D01*
X114173Y220472D01*
X112205Y496063D02*
X111222Y496028D01*
X110244Y495923D01*
X109276Y495748D01*
X108323Y495505D01*
X107389Y495194D01*
X106481Y494818D01*
X105601Y494378D01*
X104755Y493876D01*
X103947Y493315D01*
X103181Y492697D01*
X102461Y492027D01*
X101791Y491307D01*
X101174Y490541D01*
X100613Y489733D01*
X100111Y488887D01*
X99670Y488008D01*
X99294Y487099D01*
X98983Y486166D01*
X98740Y485213D01*
X98565Y484244D01*
X98460Y483266D01*
X98425Y482283D01*
X337598Y479331D02*
X337568Y480341D01*
X337476Y481348D01*
X337324Y482347D01*
X337112Y483335D01*
X336841Y484309D01*
X336511Y485264D01*
X336124Y486198D01*
X335682Y487107D01*
X335185Y487987D01*
X334636Y488836D01*
X334037Y489650D01*
X333390Y490426D01*
X332698Y491162D01*
X331962Y491855D01*
X331185Y492502D01*
X330371Y493101D01*
X329522Y493650D01*
X328642Y494146D01*
X327733Y494589D01*
X326800Y494976D01*
X325844Y495305D01*
X324870Y495577D01*
X323882Y495789D01*
X322883Y495941D01*
X321876Y496032D01*
X320866Y496063D01*
X318898Y220472D02*
X319910Y220500D01*
X320920Y220582D01*
X321923Y220719D01*
X322918Y220910D01*
X323901Y221154D01*
X324869Y221451D01*
X325819Y221801D01*
X326750Y222201D01*
X327657Y222651D01*
X328539Y223149D01*
X329392Y223695D01*
X330215Y224286D01*
X331004Y224920D01*
X331758Y225597D01*
X332474Y226313D01*
X333151Y227067D01*
X333785Y227856D01*
X334376Y228679D01*
X334922Y229532D01*
X335420Y230414D01*
X335870Y231321D01*
X336270Y232251D01*
X336619Y233202D01*
X336917Y234170D01*
X337161Y235153D01*
X337352Y236148D01*
X337489Y237151D01*
X337571Y238161D01*
X337598Y239173D01*
X98425Y236220D02*
X98456Y235232D01*
X98549Y234247D01*
X98704Y233270D01*
X98920Y232304D01*
X99196Y231354D01*
X99531Y230423D01*
X99924Y229515D01*
X100373Y228634D01*
X100877Y227782D01*
X101433Y226964D01*
X102039Y226182D01*
X102693Y225440D01*
X103393Y224741D01*
X104135Y224086D01*
X104917Y223480D01*
X105735Y222924D01*
X106587Y222420D01*
X107468Y221971D01*
X108376Y221578D01*
X109307Y221243D01*
X110257Y220967D01*
X111222Y220751D01*
X112199Y220597D01*
X113184Y220503D01*
X114173Y220472D01*
X112205Y496063D02*
X111222Y496028D01*
X110244Y495923D01*
X109276Y495748D01*
X108323Y495505D01*
X107389Y495194D01*
X106481Y494818D01*
X105601Y494378D01*
X104755Y493876D01*
X103947Y493315D01*
X103181Y492697D01*
X102461Y492027D01*
X101791Y491307D01*
X101174Y490541D01*
X100613Y489733D01*
X100111Y488887D01*
X99670Y488008D01*
X99294Y487099D01*
X98983Y486166D01*
X98740Y485213D01*
X98565Y484244D01*
X98460Y483266D01*
X98425Y482283D01*
X337598Y239173D02*
Y479331D01*
X114173Y220472D02*
X318898D01*
X98425Y236220D02*
X98425Y482283D01*
X112205Y496063D02*
X320866Y496063D01*
X337598Y239173D02*
Y479331D01*
X114173Y220472D02*
X318898D01*
X98425Y236220D02*
X98425Y482283D01*
X112205Y496063D02*
X320866Y496063D01*
M02*
