G04*
G04 #@! TF.GenerationSoftware,Altium Limited,Altium Designer,24.4.1 (13)*
G04*
G04 Layer_Color=8388736*
%FSLAX25Y25*%
%MOIN*%
G70*
G04*
G04 #@! TF.SameCoordinates,15B434A4-4527-47F9-A3CB-D7505B607EAD*
G04*
G04*
G04 #@! TF.FilePolarity,Negative*
G04*
G01*
G75*
G04:AMPARAMS|DCode=35|XSize=65.09mil|YSize=51.31mil|CornerRadius=9.41mil|HoleSize=0mil|Usage=FLASHONLY|Rotation=270.000|XOffset=0mil|YOffset=0mil|HoleType=Round|Shape=RoundedRectangle|*
%AMROUNDEDRECTD35*
21,1,0.06509,0.03248,0,0,270.0*
21,1,0.04626,0.05131,0,0,270.0*
1,1,0.01883,-0.01624,-0.02313*
1,1,0.01883,-0.01624,0.02313*
1,1,0.01883,0.01624,0.02313*
1,1,0.01883,0.01624,-0.02313*
%
%ADD35ROUNDEDRECTD35*%
G04:AMPARAMS|DCode=36|XSize=86.74mil|YSize=86.74mil|CornerRadius=23.68mil|HoleSize=0mil|Usage=FLASHONLY|Rotation=90.000|XOffset=0mil|YOffset=0mil|HoleType=Round|Shape=RoundedRectangle|*
%AMROUNDEDRECTD36*
21,1,0.08674,0.03937,0,0,90.0*
21,1,0.03937,0.08674,0,0,90.0*
1,1,0.04737,0.01968,0.01968*
1,1,0.04737,0.01968,-0.01968*
1,1,0.04737,-0.01968,-0.01968*
1,1,0.04737,-0.01968,0.01968*
%
%ADD36ROUNDEDRECTD36*%
%ADD37R,0.16351X0.04737*%
%ADD38R,0.35249X0.43123*%
G04:AMPARAMS|DCode=39|XSize=70.99mil|YSize=126.11mil|CornerRadius=11.87mil|HoleSize=0mil|Usage=FLASHONLY|Rotation=0.000|XOffset=0mil|YOffset=0mil|HoleType=Round|Shape=RoundedRectangle|*
%AMROUNDEDRECTD39*
21,1,0.07099,0.10236,0,0,0.0*
21,1,0.04724,0.12611,0,0,0.0*
1,1,0.02375,0.02362,-0.05118*
1,1,0.02375,-0.02362,-0.05118*
1,1,0.02375,-0.02362,0.05118*
1,1,0.02375,0.02362,0.05118*
%
%ADD39ROUNDEDRECTD39*%
G04:AMPARAMS|DCode=40|XSize=236.35mil|YSize=291.47mil|CornerRadius=15.42mil|HoleSize=0mil|Usage=FLASHONLY|Rotation=0.000|XOffset=0mil|YOffset=0mil|HoleType=Round|Shape=RoundedRectangle|*
%AMROUNDEDRECTD40*
21,1,0.23635,0.26063,0,0,0.0*
21,1,0.20551,0.29147,0,0,0.0*
1,1,0.03084,0.10276,-0.13031*
1,1,0.03084,-0.10276,-0.13031*
1,1,0.03084,-0.10276,0.13031*
1,1,0.03084,0.10276,0.13031*
%
%ADD40ROUNDEDRECTD40*%
%ADD41R,0.06706X0.05131*%
G04:AMPARAMS|DCode=42|XSize=47.37mil|YSize=45.4mil|CornerRadius=8.68mil|HoleSize=0mil|Usage=FLASHONLY|Rotation=0.000|XOffset=0mil|YOffset=0mil|HoleType=Round|Shape=RoundedRectangle|*
%AMROUNDEDRECTD42*
21,1,0.04737,0.02805,0,0,0.0*
21,1,0.03002,0.04540,0,0,0.0*
1,1,0.01735,0.01501,-0.01403*
1,1,0.01735,-0.01501,-0.01403*
1,1,0.01735,-0.01501,0.01403*
1,1,0.01735,0.01501,0.01403*
%
%ADD42ROUNDEDRECTD42*%
G04:AMPARAMS|DCode=43|XSize=47.37mil|YSize=45.4mil|CornerRadius=8.68mil|HoleSize=0mil|Usage=FLASHONLY|Rotation=90.000|XOffset=0mil|YOffset=0mil|HoleType=Round|Shape=RoundedRectangle|*
%AMROUNDEDRECTD43*
21,1,0.04737,0.02805,0,0,90.0*
21,1,0.03002,0.04540,0,0,90.0*
1,1,0.01735,0.01403,0.01501*
1,1,0.01735,0.01403,-0.01501*
1,1,0.01735,-0.01403,-0.01501*
1,1,0.01735,-0.01403,0.01501*
%
%ADD43ROUNDEDRECTD43*%
%ADD44R,0.22060X0.12217*%
%ADD45R,0.01981X0.06607*%
%ADD46R,0.06607X0.01981*%
G04:AMPARAMS|DCode=47|XSize=76.9mil|YSize=57.21mil|CornerRadius=10.15mil|HoleSize=0mil|Usage=FLASHONLY|Rotation=180.000|XOffset=0mil|YOffset=0mil|HoleType=Round|Shape=RoundedRectangle|*
%AMROUNDEDRECTD47*
21,1,0.07690,0.03691,0,0,180.0*
21,1,0.05659,0.05721,0,0,180.0*
1,1,0.02030,-0.02830,0.01846*
1,1,0.02030,0.02830,0.01846*
1,1,0.02030,0.02830,-0.01846*
1,1,0.02030,-0.02830,-0.01846*
%
%ADD47ROUNDEDRECTD47*%
G04:AMPARAMS|DCode=48|XSize=61.15mil|YSize=57.21mil|CornerRadius=8.92mil|HoleSize=0mil|Usage=FLASHONLY|Rotation=90.000|XOffset=0mil|YOffset=0mil|HoleType=Round|Shape=RoundedRectangle|*
%AMROUNDEDRECTD48*
21,1,0.06115,0.03937,0,0,90.0*
21,1,0.04331,0.05721,0,0,90.0*
1,1,0.01784,0.01968,0.02165*
1,1,0.01784,0.01968,-0.02165*
1,1,0.01784,-0.01968,-0.02165*
1,1,0.01784,-0.01968,0.02165*
%
%ADD48ROUNDEDRECTD48*%
%ADD49R,0.08083X0.14776*%
G04:AMPARAMS|DCode=50|XSize=119.02mil|YSize=54.46mil|CornerRadius=15.61mil|HoleSize=0mil|Usage=FLASHONLY|Rotation=180.000|XOffset=0mil|YOffset=0mil|HoleType=Round|Shape=RoundedRectangle|*
%AMROUNDEDRECTD50*
21,1,0.11902,0.02323,0,0,180.0*
21,1,0.08780,0.05446,0,0,180.0*
1,1,0.03123,-0.04390,0.01161*
1,1,0.03123,0.04390,0.01161*
1,1,0.03123,0.04390,-0.01161*
1,1,0.03123,-0.04390,-0.01161*
%
%ADD50ROUNDEDRECTD50*%
G04:AMPARAMS|DCode=51|XSize=47.37mil|YSize=47.37mil|CornerRadius=8.92mil|HoleSize=0mil|Usage=FLASHONLY|Rotation=90.000|XOffset=0mil|YOffset=0mil|HoleType=Round|Shape=RoundedRectangle|*
%AMROUNDEDRECTD51*
21,1,0.04737,0.02953,0,0,90.0*
21,1,0.02953,0.04737,0,0,90.0*
1,1,0.01784,0.01476,0.01476*
1,1,0.01784,0.01476,-0.01476*
1,1,0.01784,-0.01476,-0.01476*
1,1,0.01784,-0.01476,0.01476*
%
%ADD51ROUNDEDRECTD51*%
G04:AMPARAMS|DCode=52|XSize=65.09mil|YSize=51.31mil|CornerRadius=9.41mil|HoleSize=0mil|Usage=FLASHONLY|Rotation=0.000|XOffset=0mil|YOffset=0mil|HoleType=Round|Shape=RoundedRectangle|*
%AMROUNDEDRECTD52*
21,1,0.06509,0.03248,0,0,0.0*
21,1,0.04626,0.05131,0,0,0.0*
1,1,0.01883,0.02313,-0.01624*
1,1,0.01883,-0.02313,-0.01624*
1,1,0.01883,-0.02313,0.01624*
1,1,0.01883,0.02313,0.01624*
%
%ADD52ROUNDEDRECTD52*%
G04:AMPARAMS|DCode=53|XSize=47.37mil|YSize=47.37mil|CornerRadius=8.92mil|HoleSize=0mil|Usage=FLASHONLY|Rotation=180.000|XOffset=0mil|YOffset=0mil|HoleType=Round|Shape=RoundedRectangle|*
%AMROUNDEDRECTD53*
21,1,0.04737,0.02953,0,0,180.0*
21,1,0.02953,0.04737,0,0,180.0*
1,1,0.01784,-0.01476,0.01476*
1,1,0.01784,0.01476,0.01476*
1,1,0.01784,0.01476,-0.01476*
1,1,0.01784,-0.01476,-0.01476*
%
%ADD53ROUNDEDRECTD53*%
G04:AMPARAMS|DCode=54|XSize=65.09mil|YSize=51.31mil|CornerRadius=9.41mil|HoleSize=0mil|Usage=FLASHONLY|Rotation=45.000|XOffset=0mil|YOffset=0mil|HoleType=Round|Shape=RoundedRectangle|*
%AMROUNDEDRECTD54*
21,1,0.06509,0.03248,0,0,45.0*
21,1,0.04626,0.05131,0,0,45.0*
1,1,0.01883,0.02784,0.00487*
1,1,0.01883,-0.00487,-0.02784*
1,1,0.01883,-0.02784,-0.00487*
1,1,0.01883,0.00487,0.02784*
%
%ADD54ROUNDEDRECTD54*%
%ADD55C,0.06233*%
%ADD56C,0.07887*%
%ADD57C,0.10839*%
%ADD58C,0.06706*%
%ADD59C,0.08674*%
%ADD60C,0.04737*%
D35*
X303150Y405512D02*
D03*
X311024D02*
D03*
X211614Y257874D02*
D03*
X219488D02*
D03*
X295276Y285433D02*
D03*
X287402D02*
D03*
X311024Y413386D02*
D03*
X303150D02*
D03*
X155512Y401575D02*
D03*
X147638D02*
D03*
X155512Y409449D02*
D03*
X147638D02*
D03*
D36*
X207677Y346457D02*
D03*
X187008Y273622D02*
D03*
D37*
X174213Y454347D02*
D03*
Y447646D02*
D03*
Y440945D02*
D03*
Y434244D02*
D03*
Y427543D02*
D03*
D38*
X214567Y440945D02*
D03*
D39*
X319213Y385827D02*
D03*
X301181D02*
D03*
D40*
X310197Y362008D02*
D03*
D41*
X110630Y263779D02*
D03*
X145669D02*
D03*
D42*
X155512Y270079D02*
D03*
Y263779D02*
D03*
D43*
X318504Y413386D02*
D03*
X324803D02*
D03*
X318504Y405512D02*
D03*
X324803D02*
D03*
X145669Y283465D02*
D03*
X151969D02*
D03*
D44*
X137795Y433661D02*
D03*
Y471850D02*
D03*
D45*
X217819Y269764D02*
D03*
X219787D02*
D03*
X221756D02*
D03*
X223724D02*
D03*
X225693D02*
D03*
X227661D02*
D03*
X229630D02*
D03*
X231598D02*
D03*
X233567D02*
D03*
X235535D02*
D03*
X237504D02*
D03*
X239472D02*
D03*
X241441D02*
D03*
X243409D02*
D03*
X245378D02*
D03*
X247346D02*
D03*
X249315D02*
D03*
X251284D02*
D03*
X253252D02*
D03*
X255221D02*
D03*
X257189D02*
D03*
X259157D02*
D03*
X261126D02*
D03*
X263094D02*
D03*
X265063D02*
D03*
Y330693D02*
D03*
X263094D02*
D03*
X261126D02*
D03*
X259157D02*
D03*
X257189D02*
D03*
X255221D02*
D03*
X253252D02*
D03*
X251284D02*
D03*
X249315D02*
D03*
X247346D02*
D03*
X245378D02*
D03*
X243409D02*
D03*
X241441D02*
D03*
X239472D02*
D03*
X237504D02*
D03*
X235535D02*
D03*
X233567D02*
D03*
X231598D02*
D03*
X229630D02*
D03*
X227661D02*
D03*
X225693D02*
D03*
X223724D02*
D03*
X221756D02*
D03*
X219787D02*
D03*
X217819D02*
D03*
D46*
X271905Y276606D02*
D03*
Y278575D02*
D03*
Y280543D02*
D03*
Y282512D02*
D03*
Y284480D02*
D03*
Y286449D02*
D03*
Y288417D02*
D03*
Y290386D02*
D03*
Y292354D02*
D03*
Y294323D02*
D03*
Y296291D02*
D03*
Y298260D02*
D03*
Y300228D02*
D03*
Y302197D02*
D03*
Y304165D02*
D03*
Y306134D02*
D03*
Y308102D02*
D03*
Y310071D02*
D03*
Y312039D02*
D03*
Y314008D02*
D03*
Y315976D02*
D03*
Y317945D02*
D03*
Y319913D02*
D03*
Y321882D02*
D03*
Y323850D02*
D03*
X210976D02*
D03*
Y321882D02*
D03*
Y319913D02*
D03*
Y317945D02*
D03*
Y315976D02*
D03*
Y314008D02*
D03*
Y312039D02*
D03*
Y310071D02*
D03*
Y308102D02*
D03*
Y306134D02*
D03*
Y304165D02*
D03*
Y302197D02*
D03*
Y300228D02*
D03*
Y298260D02*
D03*
Y296291D02*
D03*
Y294323D02*
D03*
Y292354D02*
D03*
Y290386D02*
D03*
Y288417D02*
D03*
Y286449D02*
D03*
Y284480D02*
D03*
Y282512D02*
D03*
Y280543D02*
D03*
Y278575D02*
D03*
Y276606D02*
D03*
D47*
X273622Y467717D02*
D03*
Y478740D02*
D03*
D48*
X149016Y484252D02*
D03*
X137795D02*
D03*
D49*
X275590Y386811D02*
D03*
Y407480D02*
D03*
X240158Y386811D02*
D03*
Y407480D02*
D03*
X204724Y386811D02*
D03*
Y407480D02*
D03*
X250000Y478346D02*
D03*
Y457677D02*
D03*
D50*
X179134Y397638D02*
D03*
Y386063D02*
D03*
X165354Y397638D02*
D03*
Y386063D02*
D03*
X226378Y466772D02*
D03*
Y478346D02*
D03*
X212598Y466772D02*
D03*
Y478346D02*
D03*
D51*
X147638Y417323D02*
D03*
X153937D02*
D03*
X147638Y423228D02*
D03*
X153937D02*
D03*
X228346Y340551D02*
D03*
X234646D02*
D03*
X251575D02*
D03*
X257874D02*
D03*
X294488Y316929D02*
D03*
X288189D02*
D03*
X294488Y311024D02*
D03*
X288189D02*
D03*
X294488Y305118D02*
D03*
X288189D02*
D03*
X294488Y293307D02*
D03*
X288189D02*
D03*
X294488Y299213D02*
D03*
X288189D02*
D03*
X256299Y255906D02*
D03*
X250000D02*
D03*
X256299Y244094D02*
D03*
X250000D02*
D03*
X256299Y250000D02*
D03*
X250000D02*
D03*
X237795Y244094D02*
D03*
X244094D02*
D03*
X237795Y250000D02*
D03*
X244094D02*
D03*
X237795Y255906D02*
D03*
X244094D02*
D03*
D52*
X202756Y470472D02*
D03*
Y478346D02*
D03*
X194882Y470472D02*
D03*
Y478346D02*
D03*
X145669Y289370D02*
D03*
Y297244D02*
D03*
D53*
X200787Y284252D02*
D03*
Y290551D02*
D03*
X188976Y325984D02*
D03*
Y319685D02*
D03*
X200787Y325984D02*
D03*
Y319685D02*
D03*
X194882Y325984D02*
D03*
Y319685D02*
D03*
X200787Y305906D02*
D03*
Y312205D02*
D03*
X194882Y305906D02*
D03*
Y312205D02*
D03*
X188976Y305906D02*
D03*
Y312205D02*
D03*
X181102Y478346D02*
D03*
Y472047D02*
D03*
X187008Y478346D02*
D03*
Y472047D02*
D03*
D54*
X197666Y258043D02*
D03*
X192098Y263611D02*
D03*
X201940Y253768D02*
D03*
X207508Y248200D02*
D03*
D55*
X196850Y239173D02*
D03*
X183265Y252759D02*
D03*
D56*
X115157Y329724D02*
D03*
Y339567D02*
D03*
Y349410D02*
D03*
Y359252D02*
D03*
Y369094D02*
D03*
Y378937D02*
D03*
D57*
X287925Y468028D02*
D03*
Y448343D02*
D03*
D58*
X327295Y436531D02*
D03*
Y479839D02*
D03*
D59*
X110236Y301181D02*
D03*
X135827D02*
D03*
X110236Y283465D02*
D03*
X135827D02*
D03*
D60*
X233268Y323599D02*
D03*
X302165Y365173D02*
D03*
Y358268D02*
D03*
Y351394D02*
D03*
X310039Y365173D02*
D03*
Y358268D02*
D03*
Y351394D02*
D03*
X317913Y351378D02*
D03*
Y358252D02*
D03*
Y371063D02*
D03*
X310039D02*
D03*
X302165D02*
D03*
X260827Y276575D02*
D03*
X224213Y284812D02*
D03*
X158465Y283465D02*
D03*
X250984Y323819D02*
D03*
X227362Y322835D02*
D03*
X250000Y238189D02*
D03*
X244094D02*
D03*
X182087Y312008D02*
D03*
Y319882D02*
D03*
X218504Y306102D02*
D03*
X231299Y276575D02*
D03*
X236372Y281004D02*
D03*
X302165Y285433D02*
D03*
X166339Y263779D02*
D03*
X218504Y296260D02*
D03*
X131890Y349410D02*
D03*
X233268Y355315D02*
D03*
X217520Y289370D02*
D03*
X232283Y255906D02*
D03*
Y244094D02*
D03*
Y250000D02*
D03*
X253937Y276575D02*
D03*
X256890Y323819D02*
D03*
X245079Y315945D02*
D03*
X218504Y312008D02*
D03*
X251969Y346457D02*
D03*
X228346D02*
D03*
X300197Y316929D02*
D03*
Y311024D02*
D03*
Y293307D02*
D03*
Y299213D02*
D03*
Y305118D02*
D03*
X261811Y244094D02*
D03*
Y250000D02*
D03*
Y255906D02*
D03*
X200787Y299213D02*
D03*
X194882D02*
D03*
X188976D02*
D03*
X317913Y365158D02*
D03*
M02*
