G04*
G04 #@! TF.GenerationSoftware,Altium Limited,Altium Designer,24.4.1 (13)*
G04*
G04 Layer_Color=16711935*
%FSLAX25Y25*%
%MOIN*%
G70*
G04*
G04 #@! TF.SameCoordinates,15B434A4-4527-47F9-A3CB-D7505B607EAD*
G04*
G04*
G04 #@! TF.FilePolarity,Negative*
G04*
G01*
G75*
G04:AMPARAMS|DCode=51|XSize=47.37mil|YSize=47.37mil|CornerRadius=8.92mil|HoleSize=0mil|Usage=FLASHONLY|Rotation=90.000|XOffset=0mil|YOffset=0mil|HoleType=Round|Shape=RoundedRectangle|*
%AMROUNDEDRECTD51*
21,1,0.04737,0.02953,0,0,90.0*
21,1,0.02953,0.04737,0,0,90.0*
1,1,0.01784,0.01476,0.01476*
1,1,0.01784,0.01476,-0.01476*
1,1,0.01784,-0.01476,-0.01476*
1,1,0.01784,-0.01476,0.01476*
%
%ADD51ROUNDEDRECTD51*%
G04:AMPARAMS|DCode=53|XSize=47.37mil|YSize=47.37mil|CornerRadius=8.92mil|HoleSize=0mil|Usage=FLASHONLY|Rotation=180.000|XOffset=0mil|YOffset=0mil|HoleType=Round|Shape=RoundedRectangle|*
%AMROUNDEDRECTD53*
21,1,0.04737,0.02953,0,0,180.0*
21,1,0.02953,0.04737,0,0,180.0*
1,1,0.01784,-0.01476,0.01476*
1,1,0.01784,0.01476,0.01476*
1,1,0.01784,0.01476,-0.01476*
1,1,0.01784,-0.01476,-0.01476*
%
%ADD53ROUNDEDRECTD53*%
%ADD55C,0.06233*%
%ADD56C,0.07887*%
%ADD57C,0.10839*%
%ADD58C,0.06706*%
%ADD59C,0.08674*%
%ADD60C,0.04737*%
D51*
X245276Y322835D02*
D03*
X238976D02*
D03*
X247396Y277067D02*
D03*
X241097D02*
D03*
X233465Y330709D02*
D03*
X227165D02*
D03*
X257087D02*
D03*
X250787D02*
D03*
X254724Y269685D02*
D03*
X261024D02*
D03*
X229134D02*
D03*
X235433D02*
D03*
D53*
X210630Y290551D02*
D03*
Y284252D02*
D03*
Y312205D02*
D03*
Y305906D02*
D03*
D55*
X196850Y239173D02*
D03*
X183265Y252759D02*
D03*
D56*
X115157Y329724D02*
D03*
Y339567D02*
D03*
Y349410D02*
D03*
Y359252D02*
D03*
Y369094D02*
D03*
Y378937D02*
D03*
D57*
X287925Y468028D02*
D03*
Y448343D02*
D03*
D58*
X327295Y436531D02*
D03*
Y479839D02*
D03*
D59*
X110236Y301181D02*
D03*
X135827D02*
D03*
X110236Y283465D02*
D03*
X135827D02*
D03*
D60*
X233268Y323599D02*
D03*
X302165Y365173D02*
D03*
Y358268D02*
D03*
Y351394D02*
D03*
X310039Y365173D02*
D03*
Y358268D02*
D03*
Y351394D02*
D03*
X317913Y351378D02*
D03*
Y358252D02*
D03*
Y371063D02*
D03*
X310039D02*
D03*
X302165D02*
D03*
X260827Y276575D02*
D03*
X224213Y284812D02*
D03*
X158465Y283465D02*
D03*
X250984Y323819D02*
D03*
X227362Y322835D02*
D03*
X250000Y238189D02*
D03*
X244094D02*
D03*
X182087Y312008D02*
D03*
Y319882D02*
D03*
X218504Y306102D02*
D03*
X231299Y276575D02*
D03*
X236372Y281004D02*
D03*
X302165Y285433D02*
D03*
X166339Y263779D02*
D03*
X218504Y296260D02*
D03*
X131890Y349410D02*
D03*
X233268Y355315D02*
D03*
X217520Y289370D02*
D03*
X232283Y255906D02*
D03*
Y244094D02*
D03*
Y250000D02*
D03*
X253937Y276575D02*
D03*
X256890Y323819D02*
D03*
X245079Y315945D02*
D03*
X218504Y312008D02*
D03*
X251969Y346457D02*
D03*
X228346D02*
D03*
X300197Y316929D02*
D03*
Y311024D02*
D03*
Y293307D02*
D03*
Y299213D02*
D03*
Y305118D02*
D03*
X261811Y244094D02*
D03*
Y250000D02*
D03*
Y255906D02*
D03*
X200787Y299213D02*
D03*
X194882D02*
D03*
X188976D02*
D03*
X317913Y365158D02*
D03*
M02*
