G04*
G04 #@! TF.GenerationSoftware,Altium Limited,Altium Designer,24.4.1 (13)*
G04*
G04 Layer_Physical_Order=3*
G04 Layer_Color=16440176*
%FSLAX25Y25*%
%MOIN*%
G70*
G04*
G04 #@! TF.SameCoordinates,15B434A4-4527-47F9-A3CB-D7505B607EAD*
G04*
G04*
G04 #@! TF.FilePolarity,Positive*
G04*
G01*
G75*
%ADD67C,0.07087*%
%ADD71C,0.03937*%
G36*
X320516Y494859D02*
X320866Y494859D01*
X321214Y494852D01*
X323000Y494712D01*
X323445Y494653D01*
X325671Y494119D01*
X327925Y493185D01*
X329878Y491989D01*
X330234Y491715D01*
X331657Y490500D01*
X332035Y490122D01*
X333251Y488698D01*
X333524Y488342D01*
X334720Y486390D01*
X335654Y484136D01*
X336189Y481909D01*
X336247Y481464D01*
X336388Y479678D01*
X336394Y479331D01*
D01*
X336394Y478989D01*
Y239173D01*
X336394Y239173D01*
X336394Y239173D01*
X336382Y238828D01*
X336266Y237049D01*
X336224Y236730D01*
X335840Y234801D01*
X335756Y234489D01*
X335124Y232627D01*
X335001Y232328D01*
X334131Y230565D01*
X333969Y230285D01*
X332877Y228650D01*
X332680Y228394D01*
X331384Y226915D01*
X331155Y226687D01*
X329677Y225390D01*
X329421Y225194D01*
X327786Y224101D01*
X327506Y223940D01*
X325742Y223070D01*
X325444Y222947D01*
X323582Y222315D01*
X323270Y222231D01*
X321341Y221847D01*
X321022Y221805D01*
X319059Y221677D01*
X318898D01*
X318898Y221677D01*
X114173D01*
X114173Y221677D01*
Y221677D01*
X113827Y221686D01*
X112143Y221818D01*
X111774Y221867D01*
X109673Y222371D01*
X107562Y223246D01*
X105720Y224375D01*
X105425Y224601D01*
X104051Y225775D01*
X103728Y226098D01*
X102554Y227473D01*
X102328Y227767D01*
X101198Y229609D01*
X100324Y231721D01*
X99820Y233822D01*
X99771Y234190D01*
X99639Y235874D01*
X99629Y236220D01*
X99629D01*
X99629Y481933D01*
X99629Y482283D01*
X99629Y482283D01*
X99645Y482627D01*
X99761Y484108D01*
X99789Y484323D01*
X100234Y486173D01*
X100989Y487998D01*
X101983Y489620D01*
X102115Y489792D01*
X103206Y491069D01*
X103419Y491282D01*
X104696Y492373D01*
X104868Y492505D01*
X106490Y493499D01*
X108315Y494255D01*
X110165Y494699D01*
X110380Y494727D01*
X111861Y494844D01*
X112205Y494859D01*
X112205Y494859D01*
X320516Y494859D01*
D02*
G37*
%LPC*%
G36*
X327788Y483579D02*
X326803D01*
X325852Y483324D01*
X324999Y482831D01*
X324302Y482135D01*
X323810Y481282D01*
X323555Y480331D01*
Y479346D01*
X323810Y478395D01*
X324302Y477542D01*
X324999Y476846D01*
X325852Y476353D01*
X326803Y476098D01*
X327788D01*
X328739Y476353D01*
X329592Y476846D01*
X330288Y477542D01*
X330781Y478395D01*
X331035Y479346D01*
Y480331D01*
X330781Y481282D01*
X330288Y482135D01*
X329592Y482831D01*
X328739Y483324D01*
X327788Y483579D01*
D02*
G37*
G36*
X288497Y473835D02*
X287353D01*
X286231Y473611D01*
X285174Y473174D01*
X284223Y472538D01*
X283415Y471729D01*
X282779Y470778D01*
X282341Y469721D01*
X282118Y468600D01*
Y467456D01*
X282341Y466334D01*
X282779Y465277D01*
X283415Y464326D01*
X284223Y463517D01*
X285174Y462881D01*
X286231Y462444D01*
X287353Y462220D01*
X288497D01*
X289619Y462444D01*
X290676Y462881D01*
X291627Y463517D01*
X292436Y464326D01*
X293071Y465277D01*
X293509Y466334D01*
X293732Y467456D01*
Y468600D01*
X293509Y469721D01*
X293071Y470778D01*
X292436Y471729D01*
X291627Y472538D01*
X290676Y473174D01*
X289619Y473611D01*
X288497Y473835D01*
D02*
G37*
G36*
Y454150D02*
X287353D01*
X286231Y453926D01*
X285174Y453489D01*
X284223Y452853D01*
X283415Y452044D01*
X282779Y451093D01*
X282341Y450036D01*
X282118Y448914D01*
Y447771D01*
X282341Y446649D01*
X282779Y445592D01*
X283415Y444641D01*
X284223Y443832D01*
X285174Y443196D01*
X286231Y442759D01*
X287353Y442535D01*
X288497D01*
X289619Y442759D01*
X290676Y443196D01*
X291627Y443832D01*
X292436Y444641D01*
X293071Y445592D01*
X293509Y446649D01*
X293732Y447771D01*
Y448914D01*
X293509Y450036D01*
X293071Y451093D01*
X292436Y452044D01*
X291627Y452853D01*
X290676Y453489D01*
X289619Y453926D01*
X288497Y454150D01*
D02*
G37*
G36*
X327788Y440272D02*
X326803D01*
X325852Y440017D01*
X324999Y439524D01*
X324302Y438828D01*
X323810Y437975D01*
X323555Y437024D01*
Y436039D01*
X323810Y435088D01*
X324302Y434235D01*
X324999Y433539D01*
X325852Y433046D01*
X326803Y432791D01*
X327788D01*
X328739Y433046D01*
X329592Y433539D01*
X330288Y434235D01*
X330781Y435088D01*
X331035Y436039D01*
Y437024D01*
X330781Y437975D01*
X330288Y438828D01*
X329592Y439524D01*
X328739Y440017D01*
X327788Y440272D01*
D02*
G37*
G36*
X116157Y383373D02*
Y379937D01*
X119593D01*
X119391Y380691D01*
X118793Y381727D01*
X117947Y382573D01*
X116911Y383171D01*
X116157Y383373D01*
D02*
G37*
G36*
X114157D02*
X113404Y383171D01*
X112368Y382573D01*
X111522Y381727D01*
X110924Y380691D01*
X110722Y379937D01*
X114157D01*
Y383373D01*
D02*
G37*
G36*
X119593Y377937D02*
X116157D01*
Y374501D01*
X116911Y374703D01*
X117947Y375302D01*
X118793Y376147D01*
X119391Y377183D01*
X119593Y377937D01*
D02*
G37*
G36*
X114157D02*
X110722D01*
X110924Y377183D01*
X111522Y376147D01*
X112368Y375302D01*
X113404Y374703D01*
X114157Y374501D01*
Y377937D01*
D02*
G37*
G36*
X115728Y373425D02*
X114587D01*
X113486Y373130D01*
X112498Y372560D01*
X111692Y371754D01*
X111122Y370766D01*
X110827Y369665D01*
Y368524D01*
X111122Y367423D01*
X111692Y366435D01*
X112498Y365629D01*
X113486Y365059D01*
X114587Y364764D01*
X115728D01*
X116829Y365059D01*
X117817Y365629D01*
X118623Y366435D01*
X119193Y367423D01*
X119488Y368524D01*
Y369665D01*
X119193Y370766D01*
X118623Y371754D01*
X117817Y372560D01*
X116829Y373130D01*
X115728Y373425D01*
D02*
G37*
G36*
Y363583D02*
X114587D01*
X113486Y363287D01*
X112498Y362717D01*
X111692Y361911D01*
X111122Y360924D01*
X110827Y359822D01*
Y358682D01*
X111122Y357580D01*
X111692Y356593D01*
X112498Y355786D01*
X113486Y355216D01*
X114587Y354921D01*
X115728D01*
X116829Y355216D01*
X117817Y355786D01*
X118623Y356593D01*
X119193Y357580D01*
X119488Y358682D01*
Y359822D01*
X119193Y360924D01*
X118623Y361911D01*
X117817Y362717D01*
X116829Y363287D01*
X115728Y363583D01*
D02*
G37*
G36*
X233630Y358071D02*
X232905D01*
X232204Y357883D01*
X231576Y357520D01*
X231062Y357007D01*
X230700Y356379D01*
X230512Y355678D01*
Y354952D01*
X230700Y354251D01*
X231062Y353623D01*
X231576Y353110D01*
X232204Y352747D01*
X232905Y352559D01*
X233630D01*
X234331Y352747D01*
X234960Y353110D01*
X235473Y353623D01*
X235836Y354251D01*
X236024Y354952D01*
Y355678D01*
X235836Y356379D01*
X235473Y357007D01*
X234960Y357520D01*
X234331Y357883D01*
X233630Y358071D01*
D02*
G37*
G36*
X132253Y352165D02*
X131527D01*
X130826Y351977D01*
X130198Y351615D01*
X129684Y351102D01*
X129322Y350473D01*
X129134Y349772D01*
Y349047D01*
X129322Y348346D01*
X129684Y347717D01*
X130198Y347204D01*
X130826Y346841D01*
X131527Y346654D01*
X132253D01*
X132954Y346841D01*
X133582Y347204D01*
X134095Y347717D01*
X134458Y348346D01*
X134646Y349047D01*
Y349772D01*
X134458Y350473D01*
X134095Y351102D01*
X133582Y351615D01*
X132954Y351977D01*
X132253Y352165D01*
D02*
G37*
G36*
X115728Y353740D02*
X114587D01*
X113486Y353445D01*
X112498Y352875D01*
X111692Y352069D01*
X111122Y351081D01*
X110827Y349980D01*
Y348839D01*
X111122Y347738D01*
X111692Y346750D01*
X112498Y345944D01*
X113486Y345374D01*
X114587Y345079D01*
X115728D01*
X116829Y345374D01*
X117817Y345944D01*
X118623Y346750D01*
X119193Y347738D01*
X119488Y348839D01*
Y349980D01*
X119193Y351081D01*
X118623Y352069D01*
X117817Y352875D01*
X116829Y353445D01*
X115728Y353740D01*
D02*
G37*
G36*
X252331Y349213D02*
X251606D01*
X250905Y349025D01*
X250276Y348662D01*
X249763Y348149D01*
X249400Y347520D01*
X249213Y346819D01*
Y346094D01*
X249400Y345393D01*
X249763Y344764D01*
X250276Y344251D01*
X250905Y343889D01*
X251606Y343701D01*
X252331D01*
X253032Y343889D01*
X253661Y344251D01*
X254174Y344764D01*
X254537Y345393D01*
X254724Y346094D01*
Y346819D01*
X254537Y347520D01*
X254174Y348149D01*
X253661Y348662D01*
X253032Y349025D01*
X252331Y349213D01*
D02*
G37*
G36*
X228709D02*
X227984D01*
X227283Y349025D01*
X226654Y348662D01*
X226141Y348149D01*
X225778Y347520D01*
X225591Y346819D01*
Y346094D01*
X225778Y345393D01*
X226141Y344764D01*
X226654Y344251D01*
X227283Y343889D01*
X227984Y343701D01*
X228709D01*
X229410Y343889D01*
X230039Y344251D01*
X230552Y344764D01*
X230915Y345393D01*
X231102Y346094D01*
Y346819D01*
X230915Y347520D01*
X230552Y348149D01*
X230039Y348662D01*
X229410Y349025D01*
X228709Y349213D01*
D02*
G37*
G36*
X115728Y343898D02*
X114587D01*
X113486Y343602D01*
X112498Y343032D01*
X111692Y342226D01*
X111122Y341238D01*
X110827Y340137D01*
Y338997D01*
X111122Y337895D01*
X111692Y336908D01*
X112498Y336102D01*
X113486Y335531D01*
X114587Y335236D01*
X115728D01*
X116829Y335531D01*
X117817Y336102D01*
X118623Y336908D01*
X119193Y337895D01*
X119488Y338997D01*
Y340137D01*
X119193Y341238D01*
X118623Y342226D01*
X117817Y343032D01*
X116829Y343602D01*
X115728Y343898D01*
D02*
G37*
G36*
Y334055D02*
X114587D01*
X113486Y333760D01*
X112498Y333190D01*
X111692Y332383D01*
X111122Y331396D01*
X110827Y330295D01*
Y329154D01*
X111122Y328053D01*
X111692Y327065D01*
X112498Y326259D01*
X113486Y325689D01*
X114587Y325394D01*
X115728D01*
X116829Y325689D01*
X117817Y326259D01*
X118623Y327065D01*
X119193Y328053D01*
X119488Y329154D01*
Y330295D01*
X119193Y331396D01*
X118623Y332383D01*
X117817Y333190D01*
X116829Y333760D01*
X115728Y334055D01*
D02*
G37*
G36*
X257253Y326575D02*
X256527D01*
X255826Y326387D01*
X255198Y326024D01*
X254684Y325511D01*
X254322Y324883D01*
X254134Y324182D01*
Y323456D01*
X254322Y322755D01*
X254684Y322127D01*
X255198Y321614D01*
X255826Y321251D01*
X256527Y321063D01*
X257253D01*
X257954Y321251D01*
X258582Y321614D01*
X259095Y322127D01*
X259458Y322755D01*
X259646Y323456D01*
Y324182D01*
X259458Y324883D01*
X259095Y325511D01*
X258582Y326024D01*
X257954Y326387D01*
X257253Y326575D01*
D02*
G37*
G36*
X233630Y326355D02*
X232905D01*
X232204Y326167D01*
X231576Y325804D01*
X231062Y325291D01*
X230700Y324663D01*
X230512Y323962D01*
Y323236D01*
X230700Y322535D01*
X231062Y321907D01*
X231576Y321394D01*
X232204Y321031D01*
X232905Y320843D01*
X233630D01*
X234331Y321031D01*
X234960Y321394D01*
X235473Y321907D01*
X235836Y322535D01*
X236024Y323236D01*
Y323962D01*
X235836Y324663D01*
X235473Y325291D01*
X234960Y325804D01*
X234331Y326167D01*
X233630Y326355D01*
D02*
G37*
G36*
X300560Y319685D02*
X299834D01*
X299133Y319497D01*
X298505Y319134D01*
X297992Y318621D01*
X297629Y317993D01*
X297441Y317292D01*
Y316566D01*
X297629Y315865D01*
X297992Y315237D01*
X298505Y314724D01*
X299133Y314361D01*
X299834Y314173D01*
X300560D01*
X301261Y314361D01*
X301889Y314724D01*
X302402Y315237D01*
X302765Y315865D01*
X302953Y316566D01*
Y317292D01*
X302765Y317993D01*
X302402Y318621D01*
X301889Y319134D01*
X301261Y319497D01*
X300560Y319685D01*
D02*
G37*
G36*
X245442Y318701D02*
X244716D01*
X244015Y318513D01*
X243387Y318150D01*
X242874Y317637D01*
X242511Y317009D01*
X242323Y316308D01*
Y315582D01*
X242511Y314881D01*
X242874Y314253D01*
X243387Y313740D01*
X244015Y313377D01*
X244716Y313189D01*
X245442D01*
X246143Y313377D01*
X246771Y313740D01*
X247284Y314253D01*
X247647Y314881D01*
X247835Y315582D01*
Y316308D01*
X247647Y317009D01*
X247284Y317637D01*
X246771Y318150D01*
X246143Y318513D01*
X245442Y318701D01*
D02*
G37*
G36*
X218867Y314764D02*
X218141D01*
X217440Y314576D01*
X216812Y314213D01*
X216299Y313700D01*
X215936Y313072D01*
X215748Y312371D01*
Y311645D01*
X215936Y310944D01*
X216299Y310316D01*
X216812Y309803D01*
X217440Y309440D01*
X218141Y309252D01*
X218867D01*
X219568Y309440D01*
X220196Y309803D01*
X220709Y310316D01*
X221072Y310944D01*
X221260Y311645D01*
Y312371D01*
X221072Y313072D01*
X220709Y313700D01*
X220196Y314213D01*
X219568Y314576D01*
X218867Y314764D01*
D02*
G37*
G36*
X300560Y313779D02*
X299834D01*
X299133Y313592D01*
X298505Y313229D01*
X297992Y312716D01*
X297629Y312087D01*
X297441Y311386D01*
Y310661D01*
X297629Y309960D01*
X297992Y309331D01*
X298505Y308818D01*
X299133Y308455D01*
X299834Y308268D01*
X300560D01*
X301261Y308455D01*
X301889Y308818D01*
X302402Y309331D01*
X302765Y309960D01*
X302953Y310661D01*
Y311386D01*
X302765Y312087D01*
X302402Y312716D01*
X301889Y313229D01*
X301261Y313592D01*
X300560Y313779D01*
D02*
G37*
G36*
Y307874D02*
X299834D01*
X299133Y307686D01*
X298505Y307323D01*
X297992Y306810D01*
X297629Y306182D01*
X297441Y305481D01*
Y304755D01*
X297629Y304054D01*
X297992Y303426D01*
X298505Y302913D01*
X299133Y302550D01*
X299834Y302362D01*
X300560D01*
X301261Y302550D01*
X301889Y302913D01*
X302402Y303426D01*
X302765Y304054D01*
X302953Y304755D01*
Y305481D01*
X302765Y306182D01*
X302402Y306810D01*
X301889Y307323D01*
X301261Y307686D01*
X300560Y307874D01*
D02*
G37*
G36*
Y301969D02*
X299834D01*
X299133Y301781D01*
X298505Y301418D01*
X297992Y300905D01*
X297629Y300276D01*
X297441Y299575D01*
Y298850D01*
X297629Y298149D01*
X297992Y297520D01*
X298505Y297007D01*
X299133Y296644D01*
X299834Y296457D01*
X300560D01*
X301261Y296644D01*
X301889Y297007D01*
X302402Y297520D01*
X302765Y298149D01*
X302953Y298850D01*
Y299575D01*
X302765Y300276D01*
X302402Y300905D01*
X301889Y301418D01*
X301261Y301781D01*
X300560Y301969D01*
D02*
G37*
G36*
X201150D02*
X200425D01*
X199724Y301781D01*
X199095Y301418D01*
X198582Y300905D01*
X198219Y300276D01*
X198031Y299575D01*
Y298850D01*
X198219Y298149D01*
X198582Y297520D01*
X199095Y297007D01*
X199724Y296644D01*
X200425Y296457D01*
X201150D01*
X201851Y296644D01*
X202480Y297007D01*
X202993Y297520D01*
X203356Y298149D01*
X203543Y298850D01*
Y299575D01*
X203356Y300276D01*
X202993Y300905D01*
X202480Y301418D01*
X201851Y301781D01*
X201150Y301969D01*
D02*
G37*
G36*
X195245D02*
X194519D01*
X193818Y301781D01*
X193190Y301418D01*
X192677Y300905D01*
X192314Y300276D01*
X192126Y299575D01*
Y298850D01*
X192314Y298149D01*
X192677Y297520D01*
X193190Y297007D01*
X193818Y296644D01*
X194519Y296457D01*
X195245D01*
X195946Y296644D01*
X196574Y297007D01*
X197087Y297520D01*
X197450Y298149D01*
X197638Y298850D01*
Y299575D01*
X197450Y300276D01*
X197087Y300905D01*
X196574Y301418D01*
X195946Y301781D01*
X195245Y301969D01*
D02*
G37*
G36*
X189339D02*
X188614D01*
X187913Y301781D01*
X187284Y301418D01*
X186771Y300905D01*
X186408Y300276D01*
X186221Y299575D01*
Y298850D01*
X186408Y298149D01*
X186771Y297520D01*
X187284Y297007D01*
X187913Y296644D01*
X188614Y296457D01*
X189339D01*
X190040Y296644D01*
X190668Y297007D01*
X191182Y297520D01*
X191544Y298149D01*
X191732Y298850D01*
Y299575D01*
X191544Y300276D01*
X191182Y300905D01*
X190668Y301418D01*
X190040Y301781D01*
X189339Y301969D01*
D02*
G37*
G36*
X136449Y305906D02*
X135205D01*
X134003Y305584D01*
X132926Y304962D01*
X132046Y304082D01*
X131424Y303005D01*
X131102Y301803D01*
Y300559D01*
X131424Y299358D01*
X132046Y298280D01*
X132926Y297401D01*
X134003Y296779D01*
X135205Y296457D01*
X136449D01*
X137650Y296779D01*
X138728Y297401D01*
X139607Y298280D01*
X140229Y299358D01*
X140551Y300559D01*
Y301803D01*
X140229Y303005D01*
X139607Y304082D01*
X138728Y304962D01*
X137650Y305584D01*
X136449Y305906D01*
D02*
G37*
G36*
X110858D02*
X109614D01*
X108413Y305584D01*
X107335Y304962D01*
X106456Y304082D01*
X105834Y303005D01*
X105512Y301803D01*
Y300559D01*
X105834Y299358D01*
X106456Y298280D01*
X107335Y297401D01*
X108413Y296779D01*
X109614Y296457D01*
X110858D01*
X112060Y296779D01*
X113137Y297401D01*
X114017Y298280D01*
X114639Y299358D01*
X114961Y300559D01*
Y301803D01*
X114639Y303005D01*
X114017Y304082D01*
X113137Y304962D01*
X112060Y305584D01*
X110858Y305906D01*
D02*
G37*
G36*
X218867Y299016D02*
X218141D01*
X217440Y298828D01*
X216812Y298465D01*
X216299Y297952D01*
X215936Y297324D01*
X215748Y296623D01*
Y295897D01*
X215936Y295196D01*
X216299Y294568D01*
X216812Y294055D01*
X217440Y293692D01*
X218141Y293504D01*
X218867D01*
X219568Y293692D01*
X220196Y294055D01*
X220709Y294568D01*
X221072Y295196D01*
X221260Y295897D01*
Y296623D01*
X221072Y297324D01*
X220709Y297952D01*
X220196Y298465D01*
X219568Y298828D01*
X218867Y299016D01*
D02*
G37*
G36*
X300560Y296063D02*
X299834D01*
X299133Y295875D01*
X298505Y295512D01*
X297992Y294999D01*
X297629Y294371D01*
X297441Y293670D01*
Y292944D01*
X297629Y292243D01*
X297992Y291615D01*
X298505Y291102D01*
X299133Y290739D01*
X299834Y290551D01*
X300560D01*
X301261Y290739D01*
X301889Y291102D01*
X302402Y291615D01*
X302765Y292243D01*
X302953Y292944D01*
Y293670D01*
X302765Y294371D01*
X302402Y294999D01*
X301889Y295512D01*
X301261Y295875D01*
X300560Y296063D01*
D02*
G37*
G36*
X217882Y292126D02*
X217157D01*
X216456Y291938D01*
X215827Y291575D01*
X215314Y291062D01*
X214952Y290434D01*
X214764Y289733D01*
Y289007D01*
X214952Y288306D01*
X215314Y287678D01*
X215827Y287165D01*
X216456Y286802D01*
X217157Y286614D01*
X217882D01*
X218583Y286802D01*
X219212Y287165D01*
X219725Y287678D01*
X220088Y288306D01*
X220276Y289007D01*
Y289733D01*
X220088Y290434D01*
X219725Y291062D01*
X219212Y291575D01*
X218583Y291938D01*
X217882Y292126D01*
D02*
G37*
G36*
X136449Y288189D02*
X135205D01*
X134003Y287867D01*
X132926Y287245D01*
X132046Y286365D01*
X131424Y285288D01*
X131102Y284086D01*
Y282843D01*
X131424Y281641D01*
X132046Y280564D01*
X132926Y279684D01*
X134003Y279062D01*
X135205Y278740D01*
X136449D01*
X137650Y279062D01*
X138728Y279684D01*
X139607Y280564D01*
X140229Y281641D01*
X140551Y282843D01*
Y284086D01*
X140229Y285288D01*
X139607Y286365D01*
X138728Y287245D01*
X137650Y287867D01*
X136449Y288189D01*
D02*
G37*
G36*
X110858D02*
X109614D01*
X108413Y287867D01*
X107335Y287245D01*
X106456Y286365D01*
X105834Y285288D01*
X105512Y284086D01*
Y282843D01*
X105834Y281641D01*
X106456Y280564D01*
X107335Y279684D01*
X108413Y279062D01*
X109614Y278740D01*
X110858D01*
X112060Y279062D01*
X113137Y279684D01*
X114017Y280564D01*
X114639Y281641D01*
X114961Y282843D01*
Y284086D01*
X114639Y285288D01*
X114017Y286365D01*
X113137Y287245D01*
X112060Y287867D01*
X110858Y288189D01*
D02*
G37*
G36*
X254300Y279331D02*
X253574D01*
X252873Y279143D01*
X252245Y278780D01*
X251732Y278267D01*
X251369Y277639D01*
X251181Y276938D01*
Y276212D01*
X251369Y275511D01*
X251732Y274883D01*
X252245Y274370D01*
X252873Y274007D01*
X253574Y273819D01*
X254300D01*
X255001Y274007D01*
X255629Y274370D01*
X256142Y274883D01*
X256505Y275511D01*
X256693Y276212D01*
Y276938D01*
X256505Y277639D01*
X256142Y278267D01*
X255629Y278780D01*
X255001Y279143D01*
X254300Y279331D01*
D02*
G37*
G36*
X231662D02*
X230936D01*
X230236Y279143D01*
X229607Y278780D01*
X229094Y278267D01*
X228731Y277639D01*
X228543Y276938D01*
Y276212D01*
X228731Y275511D01*
X229094Y274883D01*
X229607Y274370D01*
X230236Y274007D01*
X230936Y273819D01*
X231662D01*
X232363Y274007D01*
X232991Y274370D01*
X233505Y274883D01*
X233867Y275511D01*
X234055Y276212D01*
Y276938D01*
X233867Y277639D01*
X233505Y278267D01*
X232991Y278780D01*
X232363Y279143D01*
X231662Y279331D01*
D02*
G37*
G36*
X166701Y266535D02*
X165976D01*
X165275Y266348D01*
X164646Y265985D01*
X164133Y265472D01*
X163770Y264843D01*
X163583Y264142D01*
Y263417D01*
X163770Y262716D01*
X164133Y262087D01*
X164646Y261574D01*
X165275Y261211D01*
X165976Y261024D01*
X166701D01*
X167402Y261211D01*
X168031Y261574D01*
X168544Y262087D01*
X168907Y262716D01*
X169095Y263417D01*
Y264142D01*
X168907Y264843D01*
X168544Y265472D01*
X168031Y265985D01*
X167402Y266348D01*
X166701Y266535D01*
D02*
G37*
G36*
X262174Y258661D02*
X261448D01*
X260747Y258474D01*
X260119Y258111D01*
X259606Y257598D01*
X259243Y256969D01*
X259055Y256268D01*
Y255543D01*
X259243Y254842D01*
X259606Y254213D01*
X260119Y253700D01*
X260747Y253337D01*
X261448Y253150D01*
X262174D01*
X262875Y253337D01*
X263503Y253700D01*
X264016Y254213D01*
X264379Y254842D01*
X264567Y255543D01*
Y256268D01*
X264379Y256969D01*
X264016Y257598D01*
X263503Y258111D01*
X262875Y258474D01*
X262174Y258661D01*
D02*
G37*
G36*
X232646D02*
X231921D01*
X231220Y258474D01*
X230591Y258111D01*
X230078Y257598D01*
X229715Y256969D01*
X229528Y256268D01*
Y255543D01*
X229715Y254842D01*
X230078Y254213D01*
X230591Y253700D01*
X231220Y253337D01*
X231921Y253150D01*
X232646D01*
X233347Y253337D01*
X233976Y253700D01*
X234489Y254213D01*
X234852Y254842D01*
X235039Y255543D01*
Y256268D01*
X234852Y256969D01*
X234489Y257598D01*
X233976Y258111D01*
X233347Y258474D01*
X232646Y258661D01*
D02*
G37*
G36*
X183726Y256262D02*
X182804D01*
X181913Y256024D01*
X181114Y255562D01*
X180461Y254910D01*
X180000Y254111D01*
X179761Y253220D01*
Y252297D01*
X180000Y251406D01*
X180461Y250607D01*
X181114Y249955D01*
X181913Y249493D01*
X182804Y249255D01*
X183726D01*
X184617Y249493D01*
X185416Y249955D01*
X186069Y250607D01*
X186530Y251406D01*
X186769Y252297D01*
Y253220D01*
X186530Y254111D01*
X186069Y254910D01*
X185416Y255562D01*
X184617Y256024D01*
X183726Y256262D01*
D02*
G37*
G36*
X262174Y252756D02*
X261448D01*
X260747Y252568D01*
X260119Y252205D01*
X259606Y251692D01*
X259243Y251064D01*
X259055Y250363D01*
Y249637D01*
X259243Y248936D01*
X259606Y248308D01*
X260119Y247795D01*
X260747Y247432D01*
X261448Y247244D01*
X262174D01*
X262875Y247432D01*
X263503Y247795D01*
X264016Y248308D01*
X264379Y248936D01*
X264567Y249637D01*
Y250363D01*
X264379Y251064D01*
X264016Y251692D01*
X263503Y252205D01*
X262875Y252568D01*
X262174Y252756D01*
D02*
G37*
G36*
X232646D02*
X231921D01*
X231220Y252568D01*
X230591Y252205D01*
X230078Y251692D01*
X229715Y251064D01*
X229528Y250363D01*
Y249637D01*
X229715Y248936D01*
X230078Y248308D01*
X230591Y247795D01*
X231220Y247432D01*
X231921Y247244D01*
X232646D01*
X233347Y247432D01*
X233976Y247795D01*
X234489Y248308D01*
X234852Y248936D01*
X235039Y249637D01*
Y250363D01*
X234852Y251064D01*
X234489Y251692D01*
X233976Y252205D01*
X233347Y252568D01*
X232646Y252756D01*
D02*
G37*
G36*
X262174Y246850D02*
X261448D01*
X260747Y246663D01*
X260119Y246300D01*
X259606Y245787D01*
X259243Y245158D01*
X259055Y244457D01*
Y243732D01*
X259243Y243031D01*
X259606Y242402D01*
X260119Y241889D01*
X260747Y241526D01*
X261448Y241339D01*
X262174D01*
X262875Y241526D01*
X263503Y241889D01*
X264016Y242402D01*
X264379Y243031D01*
X264567Y243732D01*
Y244457D01*
X264379Y245158D01*
X264016Y245787D01*
X263503Y246300D01*
X262875Y246663D01*
X262174Y246850D01*
D02*
G37*
G36*
X232646D02*
X231921D01*
X231220Y246663D01*
X230591Y246300D01*
X230078Y245787D01*
X229715Y245158D01*
X229528Y244457D01*
Y243732D01*
X229715Y243031D01*
X230078Y242402D01*
X230591Y241889D01*
X231220Y241526D01*
X231921Y241339D01*
X232646D01*
X233347Y241526D01*
X233976Y241889D01*
X234489Y242402D01*
X234852Y243031D01*
X235039Y243732D01*
Y244457D01*
X234852Y245158D01*
X234489Y245787D01*
X233976Y246300D01*
X233347Y246663D01*
X232646Y246850D01*
D02*
G37*
G36*
X197312Y242677D02*
X196389D01*
X195498Y242438D01*
X194699Y241977D01*
X194047Y241325D01*
X193585Y240526D01*
X193347Y239634D01*
Y238712D01*
X193585Y237821D01*
X194047Y237022D01*
X194699Y236369D01*
X195498Y235908D01*
X196389Y235669D01*
X197312D01*
X198203Y235908D01*
X199002Y236369D01*
X199654Y237022D01*
X200115Y237821D01*
X200354Y238712D01*
Y239634D01*
X200115Y240526D01*
X199654Y241325D01*
X199002Y241977D01*
X198203Y242438D01*
X197312Y242677D01*
D02*
G37*
%LPD*%
D67*
X115157Y378937D02*
D03*
D71*
X302165Y365173D02*
D03*
Y358268D02*
D03*
Y351394D02*
D03*
X310039Y365173D02*
D03*
Y358268D02*
D03*
Y351394D02*
D03*
X317913Y351378D02*
D03*
Y358252D02*
D03*
Y371063D02*
D03*
X310039D02*
D03*
X302165D02*
D03*
X260827Y276575D02*
D03*
X224213Y284812D02*
D03*
X158465Y283465D02*
D03*
X250984Y323819D02*
D03*
X227362Y322835D02*
D03*
X250000Y238189D02*
D03*
X244094D02*
D03*
X182087Y312008D02*
D03*
Y319882D02*
D03*
X218504Y306102D02*
D03*
X236372Y281004D02*
D03*
X302165Y285433D02*
D03*
X317913Y365158D02*
D03*
M02*
