G04*
G04 #@! TF.GenerationSoftware,Altium Limited,Altium Designer,24.4.1 (13)*
G04*
G04 Layer_Color=16711935*
%FSLAX25Y25*%
%MOIN*%
G70*
G04*
G04 #@! TF.SameCoordinates,15B434A4-4527-47F9-A3CB-D7505B607EAD*
G04*
G04*
G04 #@! TF.FilePolarity,Positive*
G04*
G01*
G75*
%ADD10C,0.01000*%
%ADD11C,0.00787*%
%ADD13C,0.00394*%
D10*
X113189Y428150D02*
Y477362D01*
X162402D01*
Y428150D02*
Y477362D01*
X113189Y428150D02*
X162402D01*
D11*
X339496Y438697D02*
Y477673D01*
X284579Y438697D02*
X339496D01*
X284579D02*
Y477673D01*
X339496D01*
X189012Y461339D02*
X223539D01*
Y420551D02*
Y461339D01*
X189012Y420551D02*
X223539D01*
X189012D02*
Y461339D01*
D13*
X296909Y379724D02*
X323484D01*
X296909Y355236D02*
X323484D01*
Y379724D01*
X296909Y355236D02*
Y379724D01*
X140354Y256811D02*
Y270748D01*
X115945Y256811D02*
X140354D01*
X115945D02*
Y270748D01*
X140354D01*
X219882Y255118D02*
Y260630D01*
X211221Y255118D02*
Y260630D01*
Y255020D02*
X219882D01*
X211221Y260728D02*
X219882D01*
X153642Y263484D02*
Y270374D01*
X157382Y263484D02*
Y270374D01*
X153642Y263484D02*
X157382D01*
X153642Y270374D02*
X157382D01*
X287008Y282677D02*
Y288189D01*
X295669Y282677D02*
Y288189D01*
X287008Y288287D02*
X295669D01*
X287008Y282579D02*
X295669D01*
X318209Y411516D02*
X325098D01*
X318209Y415256D02*
X325098D01*
Y411516D02*
Y415256D01*
X318209Y411516D02*
Y415256D01*
Y403642D02*
X325098D01*
X318209Y407382D02*
X325098D01*
Y403642D02*
Y407382D01*
X318209Y403642D02*
Y407382D01*
X145374Y281594D02*
X152264D01*
X145374Y285335D02*
X152264D01*
Y281594D02*
Y285335D01*
X145374Y281594D02*
Y285335D01*
X213882Y272669D02*
Y327787D01*
X269000D01*
Y272669D02*
Y327787D01*
X213882Y272669D02*
X269000D01*
X213882Y274638D02*
X215850Y272669D01*
X137894Y480512D02*
X148917D01*
X137894Y487992D02*
X148917D01*
Y480512D02*
Y487992D01*
X137894Y480512D02*
Y487992D01*
X262205Y388632D02*
X267077Y383760D01*
X262205Y388632D02*
Y410532D01*
X288976D01*
Y388632D02*
Y410532D01*
X284104Y383760D02*
X288976Y388632D01*
X267077Y383760D02*
X284104D01*
X226772Y388632D02*
X231644Y383760D01*
X226772Y388632D02*
Y410532D01*
X253543D01*
Y388632D02*
Y410532D01*
X248671Y383760D02*
X253543Y388632D01*
X231644Y383760D02*
X248671D01*
X191339Y388632D02*
X196211Y383760D01*
X191339Y388632D02*
Y410532D01*
X218110D01*
Y388632D02*
Y410532D01*
X213238Y383760D02*
X218110Y388632D01*
X196211Y383760D02*
X213238D01*
X155905Y398819D02*
Y404331D01*
X155905Y398721D02*
Y404429D01*
X147244Y404331D02*
X155905D01*
X147244Y404429D02*
X155905D01*
X147244Y398819D02*
Y404331D01*
Y398721D02*
Y404429D01*
Y398819D02*
X155905D01*
X147244Y398721D02*
X155905D01*
X155905Y406693D02*
Y412205D01*
X155905Y406595D02*
Y412303D01*
X147244Y412205D02*
X155905D01*
X147244Y412303D02*
X155905D01*
X147244Y406693D02*
Y412205D01*
Y406595D02*
Y412303D01*
Y406693D02*
X155905D01*
X147244Y406595D02*
X155905D01*
X147343Y415453D02*
Y419193D01*
X154232Y415453D02*
Y419193D01*
X147343D02*
X154232D01*
X147343Y415453D02*
X154232D01*
X147343Y421358D02*
Y425098D01*
X154232Y421358D02*
Y425098D01*
X147343D02*
X154232D01*
X147343Y421358D02*
X154232D01*
X258514Y481398D02*
X263386Y476526D01*
Y454626D02*
Y476526D01*
X236614Y454626D02*
X263386D01*
X236614D02*
Y476526D01*
X241486Y481398D01*
X258514D01*
X200000Y470079D02*
X205512D01*
X199902Y470079D02*
X205610D01*
X205512Y470079D02*
Y478740D01*
X205610Y470079D02*
Y478740D01*
X200000D02*
X205512D01*
X199902D02*
X205610D01*
X200000Y470079D02*
Y478740D01*
X199902Y470079D02*
Y478740D01*
X192126Y470079D02*
X197638D01*
X192028Y470079D02*
X197736D01*
X197638Y470079D02*
Y478740D01*
X197736Y470079D02*
Y478740D01*
X192126D02*
X197638D01*
X192028D02*
X197736D01*
X192126Y470079D02*
Y478740D01*
X192028Y470079D02*
Y478740D01*
X198917Y283957D02*
X202658D01*
X198917Y290846D02*
X202658D01*
X198917Y283957D02*
Y290846D01*
X202658Y283957D02*
Y290846D01*
X228051Y338681D02*
Y342421D01*
X234941Y338681D02*
Y342421D01*
X228051D02*
X234941D01*
X228051Y338681D02*
X234941D01*
X251279D02*
Y342421D01*
X258169Y338681D02*
Y342421D01*
X251279D02*
X258169D01*
X251279Y338681D02*
X258169D01*
X294783Y315059D02*
Y318799D01*
X287894Y315059D02*
Y318799D01*
Y315059D02*
X294783D01*
X287894Y318799D02*
X294783D01*
Y309154D02*
Y312894D01*
X287894Y309154D02*
Y312894D01*
Y309154D02*
X294783D01*
X287894Y312894D02*
X294783D01*
Y303248D02*
Y306988D01*
X287894Y303248D02*
Y306988D01*
Y303248D02*
X294783D01*
X287894Y306988D02*
X294783D01*
Y291437D02*
Y295177D01*
X287894Y291437D02*
Y295177D01*
Y291437D02*
X294783D01*
X287894Y295177D02*
X294783D01*
Y297342D02*
Y301083D01*
X287894Y297342D02*
Y301083D01*
Y297342D02*
X294783D01*
X287894Y301083D02*
X294783D01*
X187106Y326279D02*
X190847D01*
X187106Y319390D02*
X190847D01*
Y326279D01*
X187106Y319390D02*
Y326279D01*
X198917Y326279D02*
X202658D01*
X198917Y319390D02*
X202658D01*
Y326279D01*
X198917Y319390D02*
Y326279D01*
X193012D02*
X196752D01*
X193012Y319390D02*
X196752D01*
Y326279D01*
X193012Y319390D02*
Y326279D01*
X198917Y305610D02*
X202658D01*
X198917Y312500D02*
X202658D01*
X198917Y305610D02*
Y312500D01*
X202658Y305610D02*
Y312500D01*
X193012Y305610D02*
X196752D01*
X193012Y312500D02*
X196752D01*
X193012Y305610D02*
Y312500D01*
X196752Y305610D02*
Y312500D01*
X187106Y305610D02*
X190847D01*
X187106Y312500D02*
X190847D01*
X187106Y305610D02*
Y312500D01*
X190847Y305610D02*
Y312500D01*
X245571Y320965D02*
Y324705D01*
X238681Y320965D02*
Y324705D01*
X245571D01*
X238681Y320965D02*
X245571D01*
X247691Y275197D02*
Y278937D01*
X240802Y275197D02*
Y278937D01*
X247691D01*
X240802Y275197D02*
X247691D01*
X208760Y290846D02*
X212500D01*
X208760Y283957D02*
X212500D01*
X208760D02*
Y290846D01*
X212500Y283957D02*
Y290846D01*
X208760Y312500D02*
X212500D01*
X208760Y305610D02*
X212500D01*
X208760D02*
Y312500D01*
X212500Y305610D02*
Y312500D01*
X233760Y328839D02*
Y332579D01*
X226870Y328839D02*
Y332579D01*
X233760D01*
X226870Y328839D02*
X233760D01*
X257382D02*
Y332579D01*
X250492Y328839D02*
Y332579D01*
X257382D01*
X250492Y328839D02*
X257382D01*
X254429Y267815D02*
Y271555D01*
X261319Y267815D02*
Y271555D01*
X254429Y267815D02*
X261319D01*
X254429Y271555D02*
X261319D01*
X228839Y267815D02*
Y271555D01*
X235728Y267815D02*
Y271555D01*
X228839Y267815D02*
X235728D01*
X228839Y271555D02*
X235728D01*
X256594Y254035D02*
Y257776D01*
X249705Y254035D02*
Y257776D01*
Y254035D02*
X256594D01*
X249705Y257776D02*
X256594D01*
Y242224D02*
Y245965D01*
X249705Y242224D02*
Y245965D01*
Y242224D02*
X256594D01*
X249705Y245965D02*
X256594D01*
Y248130D02*
Y251870D01*
X249705Y248130D02*
Y251870D01*
Y248130D02*
X256594D01*
X249705Y251870D02*
X256594D01*
X237500Y242224D02*
Y245965D01*
X244390Y242224D02*
Y245965D01*
X237500D02*
X244390D01*
X237500Y242224D02*
X244390D01*
X237500Y248130D02*
Y251870D01*
X244390Y248130D02*
Y251870D01*
X237500D02*
X244390D01*
X237500Y248130D02*
X244390D01*
X237500Y254035D02*
Y257776D01*
X244390Y254035D02*
Y257776D01*
X237500D02*
X244390D01*
X237500Y254035D02*
X244390D01*
X195995Y255816D02*
X199893Y259713D01*
X195926Y255746D02*
X199962Y259783D01*
X193768Y265838D02*
X199893Y259713D01*
X193838Y265907D02*
X199962Y259783D01*
X189871Y261940D02*
X193768Y265838D01*
X189801Y261871D02*
X193838Y265907D01*
X189871Y261940D02*
X195995Y255816D01*
X189801Y261871D02*
X195926Y255746D01*
X199713Y252098D02*
X203611Y255995D01*
X199644Y252028D02*
X203680Y256065D01*
X199713Y252098D02*
X205838Y245973D01*
X199644Y252028D02*
X205768Y245904D01*
X205838Y245973D02*
X209735Y249871D01*
X205768Y245904D02*
X209805Y249940D01*
X203611Y255995D02*
X209735Y249871D01*
X203680Y256065D02*
X209805Y249940D01*
X142913Y288976D02*
X148425D01*
X142815Y288976D02*
X148524D01*
X148425Y288976D02*
Y297638D01*
X148524Y288976D02*
Y297638D01*
X142913D02*
X148425D01*
X142815D02*
X148524D01*
X142913Y288976D02*
Y297638D01*
X142815Y288976D02*
Y297638D01*
X179232Y478642D02*
X182972D01*
X179232Y471752D02*
X182972D01*
Y478642D01*
X179232Y471752D02*
Y478642D01*
X185138D02*
X188878D01*
X185138Y471752D02*
X188878D01*
Y478642D01*
X185138Y471752D02*
Y478642D01*
M02*
